<svg width="412" height="412" viewBox="0 0 412 412" fill="none" xmlns="http://www.w3.org/2000/svg">
<path d="M383.16 150.512C369.976 107.408 336.068 72.9075 295.94 54.7218C257.681 37.3684 209.296 28.84 173.04 55.4964C149.144 73.0805 135.63 101.261 113.77 120.98C102.901 130.785 91.0025 133.974 78.074 139.833C46.556 154.129 20.1797 181.684 18.0126 218.047C14.387 278.833 62.5745 320.882 116.341 334.668C187.394 352.894 240.501 352.894 289.306 333.209C314.653 322.992 340.444 310.055 358.72 288.894C386.357 256.882 393.987 211.438 387.708 170.296C386.67 163.601 385.15 156.989 383.16 150.512Z" fill="#06B188"/>
<path opacity="0.8" d="M383.16 150.512C369.976 107.408 336.068 72.9075 295.94 54.7218C257.681 37.3684 209.296 28.84 173.04 55.4964C149.144 73.0805 135.63 101.261 113.77 120.98C102.901 130.785 91.0025 133.974 78.074 139.833C46.556 154.129 20.1797 181.684 18.0126 218.047C14.387 278.833 62.5745 320.882 116.341 334.668C187.394 352.894 240.501 352.894 289.306 333.209C314.653 322.992 340.444 310.055 358.72 288.894C386.357 256.882 393.987 211.438 387.708 170.296C386.67 163.601 385.15 156.989 383.16 150.512Z" fill="white"/>
<path d="M341.96 32.136H59.3281V203.528H341.96V32.136Z" fill="white" stroke="#263238" stroke-linecap="round" stroke-linejoin="round"/>
<path d="M222.208 54.6559H68.9443V68.0459H222.208V54.6559Z" stroke="#263238" stroke-linecap="round" stroke-linejoin="round"/>
<path d="M222.208 75.635H68.9443V152.992H222.208V75.635Z" stroke="#263238" stroke-linecap="round" stroke-linejoin="round"/>
<path d="M334.692 131.56H230.893V193.179H334.692V131.56Z" stroke="#263238" stroke-linecap="round" stroke-linejoin="round"/>
<path d="M230.893 193.179L334.692 131.56" stroke="#263238" stroke-linecap="round" stroke-linejoin="round"/>
<path d="M334.692 193.179L230.893 131.56" stroke="#263238" stroke-linecap="round" stroke-linejoin="round"/>
<path d="M195.346 164.742H220.461" stroke="#263238" stroke-linecap="round" stroke-linejoin="round"/>
<path d="M150.792 164.742H190.13" stroke="#263238" stroke-linecap="round" stroke-linejoin="round"/>
<path d="M90.1211 164.742H143.203" stroke="#263238" stroke-linecap="round" stroke-linejoin="round"/>
<path d="M69.7437 164.742H83.9577" stroke="#263238" stroke-linecap="round" stroke-linejoin="round"/>
<path d="M106.708 171.845H220.461" stroke="#263238" stroke-linecap="round" stroke-linejoin="round"/>
<path d="M69.7437 171.845H101.023" stroke="#263238" stroke-linecap="round" stroke-linejoin="round"/>
<path d="M166.901 178.956H220.461" stroke="#263238" stroke-linecap="round" stroke-linejoin="round"/>
<path d="M113.819 178.956H159.321" stroke="#263238" stroke-linecap="round" stroke-linejoin="round"/>
<path d="M69.7437 178.956H108.603" stroke="#263238" stroke-linecap="round" stroke-linejoin="round"/>
<path d="M158.373 186.067H220.461" stroke="#263238" stroke-linecap="round" stroke-linejoin="round"/>
<path d="M107.656 186.067H152.209" stroke="#263238" stroke-linecap="round" stroke-linejoin="round"/>
<path d="M69.7437 186.067H102.448" stroke="#263238" stroke-linecap="round" stroke-linejoin="round"/>
<path d="M192.973 193.179H220.461" stroke="#263238" stroke-linecap="round" stroke-linejoin="round"/>
<path d="M128.042 193.179H187.757" stroke="#263238" stroke-linecap="round" stroke-linejoin="round"/>
<path d="M101.022 193.179H122.826" stroke="#263238" stroke-linecap="round" stroke-linejoin="round"/>
<path d="M79.6973 193.179H92.494" stroke="#263238" stroke-linecap="round" stroke-linejoin="round"/>
<path d="M69.7437 193.179H79.6976" stroke="#263238" stroke-linecap="round" stroke-linejoin="round"/>
<path d="M341.96 32.136H59.3281V44.496H341.96V32.136Z" fill="#06B188" stroke="#263238" stroke-linecap="round" stroke-linejoin="round"/>
<path d="M335.591 35.844H99.9268V40.8292H335.591V35.844Z" fill="white" stroke="#263238" stroke-linecap="round" stroke-linejoin="round"/>
<path d="M95.0154 35.844H63.6787V40.8292H95.0154V35.844Z" fill="white" stroke="#263238" stroke-linecap="round" stroke-linejoin="round"/>
<path d="M358.193 61.767H251.073V122.743H358.193V61.767Z" fill="white" stroke="#263238" stroke-linecap="round" stroke-linejoin="round"/>
<path d="M358.193 111.207H251.073V122.743H358.193V111.207Z" fill="white" stroke="#263238" stroke-linecap="round" stroke-linejoin="round"/>
<path d="M318.732 87.5582L290.542 71.2842V103.832L318.732 87.5582Z" fill="#06B188" stroke="#263238" stroke-linecap="round" stroke-linejoin="round"/>
<path d="M254.591 58.5699H248.428V64.7335H254.591V58.5699Z" fill="white" stroke="#263238" stroke-linecap="round" stroke-linejoin="round"/>
<path d="M360.995 58.5699H354.831V64.7335H360.995V58.5699Z" fill="white" stroke="#263238" stroke-linecap="round" stroke-linejoin="round"/>
<path d="M254.591 118.524H248.428V124.688H254.591V118.524Z" fill="white" stroke="#263238" stroke-linecap="round" stroke-linejoin="round"/>
<path d="M360.995 118.524H354.831V124.688H360.995V118.524Z" fill="white" stroke="#263238" stroke-linecap="round" stroke-linejoin="round"/>
<path d="M123.056 111.932V122.644H120.395V98.8141H123.056V109.526H128.915V98.8141H131.568V122.661H128.915V111.949L123.056 111.932Z" fill="#263238"/>
<path d="M137.732 122.661V101.237H133.34V98.8141H144.752V101.237H140.36V122.661H137.732Z" fill="#263238"/>
<path d="M155.341 122.628H152.786L148.839 103.676V122.685H146.524V98.814H150.232L154.154 117.832L157.936 98.7893H161.644V122.636H159.123V103.486L155.341 122.628Z" fill="#263238"/>
<path d="M164.372 122.661V98.8141H167.025V120.238H173.864V122.661H164.372Z" fill="#263238"/>
<path d="M343.773 119.892L349.467 145.436C349.52 145.605 349.621 145.754 349.759 145.865C349.896 145.976 350.063 146.045 350.239 146.061C350.415 146.078 350.592 146.042 350.748 145.959C350.903 145.876 351.031 145.748 351.115 145.593L354.806 137.822C354.879 137.666 354.995 137.534 355.142 137.443C355.288 137.353 355.458 137.307 355.63 137.311L364.217 137.781C364.399 137.789 364.579 137.742 364.733 137.646C364.888 137.549 365.009 137.408 365.082 137.241C365.154 137.074 365.174 136.888 365.139 136.71C365.103 136.531 365.015 136.367 364.884 136.24L345.256 119.01C345.114 118.877 344.933 118.794 344.739 118.773C344.546 118.752 344.351 118.794 344.183 118.894C344.016 118.993 343.886 119.144 343.812 119.324C343.738 119.504 343.724 119.704 343.773 119.892Z" fill="#263238"/>
<path d="M367.224 142.552H359.536V150.24H367.224V142.552Z" fill="white" stroke="#263238" stroke-width="0.75" stroke-linecap="round" stroke-linejoin="round"/>
<path d="M360.072 141.942H358.918V143.096H360.072V141.942Z" fill="#263238"/>
<path d="M363.977 141.942H362.824V143.096H363.977V141.942Z" fill="#263238"/>
<path d="M367.719 141.942H366.565V143.096H367.719V141.942Z" fill="#263238"/>
<path d="M360.072 145.832H358.918V146.985H360.072V145.832Z" fill="#263238"/>
<path d="M363.977 145.832H362.824V146.985H363.977V145.832Z" fill="#263238"/>
<path d="M367.719 145.832H366.565V146.985H367.719V145.832Z" fill="#263238"/>
<path d="M360.072 149.573H358.918V150.726H360.072V149.573Z" fill="#263238"/>
<path d="M363.977 149.573H362.824V150.726H363.977V149.573Z" fill="#263238"/>
<path d="M367.719 149.573H366.565V150.726H367.719V149.573Z" fill="#263238"/>
<path d="M157.771 261.076L155.332 261.554L148.271 226.641L150.71 226.163L157.771 261.076Z" fill="white" stroke="#263238" stroke-linecap="round" stroke-linejoin="round"/>
<path d="M201.575 260.384H155.184V262.04H201.575V260.384Z" fill="white" stroke="#263238" stroke-linecap="round" stroke-linejoin="round"/>
<path d="M286.093 347.357H214.413V350.859H286.093V347.357Z" fill="white" stroke="#263238" stroke-linecap="round" stroke-linejoin="round"/>
<path d="M296.912 239.446C296.912 239.446 290.122 293.27 288.243 309.948C286.364 326.625 293.747 378.982 293.747 378.982H289.438L280.975 319.654H217.742L213.696 377.919H210.466L215.888 310.22V302.861C215.888 302.485 215.962 302.112 216.106 301.764C216.25 301.416 216.461 301.1 216.728 300.834C216.994 300.567 217.31 300.356 217.658 300.212C218.006 300.068 218.379 299.994 218.755 299.994H279.336L288.82 233.53C288.82 233.53 289.891 227.342 295.272 229.229C300.653 231.116 296.912 239.446 296.912 239.446Z" fill="#263238" stroke="#263238" stroke-linecap="round" stroke-linejoin="round"/>
<path d="M295.297 229.229C295.157 229.174 295.014 229.128 294.868 229.089C295.28 229.913 295.528 231.346 295.033 234.033C293.954 239.957 282.591 310.459 282.591 310.459H215.847L210.499 378.702H213.729L220.766 319.605H280.984L289.446 378.933H293.756C293.756 378.933 286.34 326.584 288.252 309.898C290.163 293.212 298.189 240.625 298.189 240.625C298.189 240.625 300.686 231.107 295.297 229.229Z" fill="white" stroke="#263238" stroke-linecap="round" stroke-linejoin="round"/>
<path d="M230.803 244.143L197.126 246.055L182.104 254.74L179.138 259.824L181.461 260.244L186.76 257.912C186.76 257.912 192.693 256.857 194.39 256.223C196.087 255.588 200.727 250.496 200.727 250.496L232.039 255.58L230.803 244.143Z" fill="white" stroke="#263238" stroke-linecap="round" stroke-linejoin="round"/>
<path d="M182.227 348.222C182.227 348.222 176.295 358.605 175.446 358.605C174.597 358.605 167.725 360.129 162.262 357.377C156.799 354.625 152.728 352.507 151.031 355.045C150.182 356.232 149.472 357.512 148.913 358.86C148.913 358.86 153.997 366.062 158.661 368.6C163.325 371.138 165.319 369.828 170.197 372.58C175.075 375.332 175.495 377.45 179.516 376.609C183.538 375.769 185.878 362.84 186.932 361.357C187.987 359.874 191.992 351.609 191.992 351.609L182.227 348.222Z" fill="white" stroke="#263238" stroke-linecap="round" stroke-linejoin="round"/>
<path d="M176.468 357.534C175.981 358.193 175.644 358.605 175.446 358.605C174.622 358.605 167.725 360.129 162.262 357.377C156.799 354.625 152.728 352.507 151.031 355.045C150.182 356.232 149.472 357.512 148.913 358.86C148.913 358.86 153.997 366.062 158.661 368.6C163.325 371.138 165.319 369.828 170.197 372.58C175.075 375.332 175.495 377.45 179.516 376.609C183.084 375.851 185.284 365.642 186.52 362.28C182.862 361.341 178.94 359.107 176.468 357.534Z" fill="#263238" stroke="#263238" stroke-linecap="round" stroke-linejoin="round"/>
<path d="M179.467 376.609C179.588 376.579 179.706 376.541 179.822 376.494C179.861 376.481 179.9 376.464 179.937 376.444L180.168 376.329L180.299 376.247L180.505 376.107L180.637 375.999L180.835 375.826L180.959 375.703C181.031 375.636 181.1 375.564 181.165 375.489L181.28 375.357C181.346 375.274 181.42 375.192 181.486 375.101L181.585 374.978L181.824 374.632L181.882 374.549C182.046 374.302 182.203 374.03 182.359 373.725C178.239 373.725 175.438 371.13 170.996 369.605C165.492 367.702 165.179 369.234 161.158 366.474C157.137 363.714 156.708 362.033 156.708 362.033L160.276 356.396C155.769 354.172 152.481 352.804 150.99 355.037C150.141 356.224 149.43 357.504 148.872 358.852C148.872 358.852 153.956 366.054 158.62 368.592C163.284 371.13 165.278 369.819 170.156 372.572C175.034 375.324 175.446 377.45 179.467 376.609Z" fill="white" stroke="#263238" stroke-linecap="round" stroke-linejoin="round"/>
<path d="M188.581 295.264L169.744 342.29L192.198 355.004C192.198 355.004 216.094 300.777 216.341 299.714C216.589 298.651 220.791 297.596 220.791 297.596L237.93 299.936C237.93 299.936 212.089 288.499 204.467 286.801C196.845 285.104 191.753 286.373 188.581 295.264Z" fill="#06B188" stroke="#263238" stroke-linecap="round" stroke-linejoin="round"/>
<path d="M208.134 331.841L218.731 341.795C218.731 341.795 215.13 350.694 210.895 356.413C206.659 362.132 206.231 365.477 208.134 366.787C210.038 368.097 213.853 367.85 216.374 366.153C218.896 364.455 233.316 350.266 235.013 347.728C235.559 346.864 235.776 345.833 235.624 344.823C235.473 343.812 234.964 342.89 234.189 342.224C233.555 341.795 219.58 325.06 219.58 325.06L208.134 331.841Z" fill="white" stroke="#263238" stroke-linecap="round" stroke-linejoin="round"/>
<path d="M235.038 347.728C235.583 346.864 235.8 345.833 235.649 344.823C235.497 343.812 234.988 342.89 234.214 342.224C233.917 342.018 230.629 338.17 227.243 334.165C224.144 337.914 218.549 340.007 217.313 340.444L218.755 341.795C218.755 341.795 215.154 350.694 210.919 356.413C206.684 362.132 206.255 365.477 208.159 366.787C210.062 368.097 213.877 367.85 216.399 366.153C218.92 364.455 233.34 350.266 235.038 347.728Z" fill="#263238" stroke="#263238" stroke-linecap="round" stroke-linejoin="round"/>
<path d="M234.461 342.454C234.353 343.912 233.817 345.305 232.92 346.459C230.382 349.631 216.185 362.766 216.185 362.766L209.593 358.218C206.56 362.848 206.404 365.634 208.093 366.787C210.005 368.064 213.812 367.85 216.333 366.153C218.854 364.455 233.274 350.266 234.972 347.728C235.493 346.92 235.726 345.96 235.634 345.002C235.541 344.045 235.128 343.147 234.461 342.454Z" fill="white" stroke="#263238" stroke-linecap="round" stroke-linejoin="round"/>
<path d="M228.47 341.375C228.492 341.819 228.38 342.259 228.149 342.639C227.918 343.018 227.578 343.32 227.174 343.505C226.77 343.69 226.319 343.75 225.881 343.676C225.443 343.603 225.036 343.4 224.714 343.094C224.392 342.787 224.17 342.391 224.075 341.957C223.98 341.523 224.017 341.07 224.182 340.657C224.347 340.244 224.631 339.891 224.999 339.641C225.367 339.391 225.801 339.258 226.246 339.257C226.821 339.244 227.379 339.459 227.796 339.856C228.213 340.253 228.455 340.799 228.47 341.375Z" fill="white"/>
<path d="M235.252 264.908L234.189 268.509C234.189 268.509 202.209 268.929 188.226 272.744C174.243 276.559 170.436 278.677 171.491 286.513C172.545 294.349 194.159 339.488 194.159 339.488C198.508 338.267 202.756 336.711 206.865 334.832C211.73 332.461 216.343 329.604 220.634 326.304L204.533 295.585C204.533 295.585 222.966 299.4 243.508 301.304C264.05 303.207 272.744 301.09 276.13 294.951C279.517 288.812 273.798 264.24 273.798 264.24L235.466 262.963L235.252 264.908Z" fill="#06B188" stroke="#263238" stroke-linecap="round" stroke-linejoin="round"/>
<path d="M190.344 285.475C189.622 284.768 188.989 283.977 188.457 283.118" stroke="#263238" stroke-linecap="round" stroke-linejoin="round"/>
<path d="M204.533 295.618C200.251 293.176 196.168 290.402 192.321 287.321" stroke="#263238" stroke-linecap="round" stroke-linejoin="round"/>
<path d="M206.906 313.31L208.604 314.134" stroke="#263238" stroke-linecap="round" stroke-linejoin="round"/>
<path d="M177.25 288.334C184.507 297.826 193.59 305.769 203.965 311.694" stroke="#263238" stroke-linecap="round" stroke-linejoin="round"/>
<path d="M265.996 278.949C266.805 279.577 267.573 280.257 268.295 280.984" stroke="#263238" stroke-linecap="round" stroke-linejoin="round"/>
<path d="M236.307 268.929C236.307 268.929 251.831 270.132 262.79 276.74" stroke="#263238" stroke-linecap="round" stroke-linejoin="round"/>
<path d="M257.492 272.53C257.492 272.53 267.66 272.744 271.681 276.979" stroke="#263238" stroke-linecap="round" stroke-linejoin="round"/>
<path d="M238.218 201.361C238.218 201.361 231.017 222.785 229.978 229.319C228.94 235.854 229.558 264.479 229.558 264.479C229.558 264.479 246.499 269.563 256.033 268.509C265.567 267.454 277.457 265.542 277.457 265.542C277.457 265.542 275.339 227.638 273.436 214.496C271.533 201.353 267.083 193.731 262.848 190.558C260.031 188.489 257.056 186.646 253.948 185.046L238.218 201.361Z" fill="#263238" stroke="#263238" stroke-linecap="round" stroke-linejoin="round"/>
<path d="M200.932 168.319C201.393 171.003 202.327 173.584 203.693 175.941C205.811 179.327 208.777 180.81 207.928 184.181C207.08 187.551 207.104 189.899 209.576 190.105L212.122 190.319C212.122 190.319 217.206 199.004 221.022 199.004C224.837 199.004 235.664 189.289 235.664 189.289C235.664 189.289 229.946 162.386 229.946 161.537C229.946 160.688 199.655 164.718 199.655 164.718L200.932 168.319Z" fill="white" stroke="#263238" stroke-linecap="round" stroke-linejoin="round"/>
<path d="M213.539 179.204C213.943 180.028 213.803 180.959 213.218 181.239C212.633 181.519 211.842 181.058 211.438 180.209C211.034 179.36 211.174 178.454 211.76 178.182C212.345 177.91 213.136 178.363 213.539 179.204Z" fill="#263238"/>
<path d="M208.348 176.789C208.348 176.789 208.134 173.823 212.584 174.457" stroke="#263238" stroke-linecap="round" stroke-linejoin="round"/>
<path d="M214.537 191.02C214.668 191.489 219.711 191.209 218.937 186.743" stroke="#263238" stroke-linecap="round" stroke-linejoin="round"/>
<path d="M243.904 158.356C243.204 149.779 232.525 153.066 227.523 155.662L227.383 155.398L207.261 161.117C207.096 161.933 207.191 162.78 207.533 163.54C207.874 164.3 208.445 164.933 209.164 165.352C213.377 168.489 218.354 170.438 223.576 170.997C225.076 179.962 227.169 193.36 227.169 198.395C227.169 206.231 224.202 209.197 224.202 209.197C224.202 209.197 237.757 204.962 245.626 197.546C250.198 193.288 254.188 188.445 257.492 183.142C257.492 183.142 244.786 168.739 243.904 158.356Z" fill="#06B188" stroke="#263238" stroke-linecap="round" stroke-linejoin="round"/>
<path d="M223.609 170.997L223.007 168.195" stroke="#263238" stroke-linecap="round" stroke-linejoin="round"/>
<path d="M233.662 190.492C233.835 191.456 233.975 192.355 234.074 193.137" stroke="#263238" stroke-linecap="round" stroke-linejoin="round"/>
<path d="M228.421 168.195C228.421 168.195 231.412 179.245 233.101 187.542" stroke="#263238" stroke-linecap="round" stroke-linejoin="round"/>
<path d="M238.424 170.972L242.536 181.84" stroke="#263238" stroke-linecap="round" stroke-linejoin="round"/>
<path d="M236.661 166.308L237.724 169.118" stroke="#263238" stroke-linecap="round" stroke-linejoin="round"/>
<path d="M241.835 166.547L243.714 171.252" stroke="#263238" stroke-linecap="round" stroke-linejoin="round"/>
<path d="M198.856 167.989C198.856 167.989 184.683 175.512 189.405 175.512C194.126 175.512 217.758 165.748 218.698 165.748C219.637 165.748 202.951 167.354 198.856 167.989Z" fill="#757575" stroke="#263238" stroke-linecap="round" stroke-linejoin="round"/>
<path d="M198.856 167.989C198.856 167.989 190.377 170.675 194.159 161.537C197.941 152.399 223.691 139.083 234.403 139.083C245.115 139.083 253.034 155.069 251.46 160.111C249.886 165.154 246.417 165.781 244.868 165.781C243.319 165.781 198.856 167.989 198.856 167.989Z" fill="#757575" stroke="#263238" stroke-linecap="round" stroke-linejoin="round"/>
<path d="M202.951 165.154C202.951 165.154 218.385 165.467 231.618 163.581C244.852 161.694 250.199 159.798 250.199 159.798" stroke="#263238" stroke-linecap="round" stroke-linejoin="round"/>
<path d="M248.312 163.894L227.523 164.207" stroke="#263238" stroke-linecap="round" stroke-linejoin="round"/>
<path d="M235.252 247.109L232.5 249.672C232.5 249.672 198.18 245.222 195.848 245.857C193.516 246.491 185.26 248.823 185.26 248.823L178.668 249.244L173.378 258.143H175.067L178.882 252.844H181.28L177.251 257.508L175.512 260.03L181.437 260.244L182.302 259.511L185.68 256.643L184.617 259.824H185.886L188.853 254.74L192.882 252.622L197.117 249.656C197.117 249.656 240.328 264.694 241.383 265.312C242.437 265.93 244.778 267.643 246.681 265.946C248.584 264.249 253.668 250.059 253.668 250.059L235.252 247.109Z" fill="white" stroke="#263238" stroke-linecap="round" stroke-linejoin="round"/>
<path d="M178.165 259.741C180.362 258.016 182.304 255.988 183.933 253.718C183.933 253.718 184.221 251.485 186.166 251.13" stroke="#263238" stroke-linecap="round" stroke-linejoin="round"/>
<path d="M185.688 256.643L186.644 252.96L187.699 252.111" stroke="#263238" stroke-linecap="round" stroke-linejoin="round"/>
<path d="M181.28 252.828C181.838 251.934 182.514 251.119 183.29 250.405C184.007 249.977 184.444 249.763 184.444 249.763" stroke="#263238" stroke-linecap="round" stroke-linejoin="round"/>
<path d="M217.124 256.643C228.594 260.664 240.839 264.998 241.432 265.328C242.495 265.962 244.827 267.66 246.73 265.962C248.634 264.265 253.718 250.076 253.718 250.076L235.293 247.109L232.5 249.672C232.5 249.672 226.188 248.848 218.805 247.966L217.124 256.643Z" fill="#757575" stroke="#263238" stroke-linecap="round" stroke-linejoin="round"/>
<path d="M241.432 214.916L232.286 245.626C232.286 245.626 233.11 249.87 241.605 252.218C246.285 253.587 251.133 254.299 256.009 254.336L262.79 216.209" fill="#263238"/>
<path d="M241.432 214.916L232.286 245.626C232.286 245.626 233.11 249.87 241.605 252.218C246.285 253.587 251.133 254.299 256.009 254.336L262.79 216.209" stroke="#263238" stroke-linecap="round" stroke-linejoin="round"/>
<path d="M240.822 217.684L232.558 243.302" stroke="#707070" stroke-linecap="round" stroke-linejoin="round"/>
<path d="M261.002 225.891L256.939 251.979" stroke="#707070" stroke-linecap="round" stroke-linejoin="round"/>
<path d="M261.892 220.156L261.447 223.024" stroke="#707070" stroke-linecap="round" stroke-linejoin="round"/>
<path d="M165.212 264.092H157.796V374.343H165.212V264.092Z" fill="#263238" stroke="#263238" stroke-linecap="round" stroke-linejoin="round"/>
<path d="M215.764 262.147H105.381V266.704H215.764V262.147Z" fill="#757575" stroke="#263238" stroke-linecap="round" stroke-linejoin="round"/>
<path d="M201.245 378.85H121.779C121.781 377.643 122.262 376.485 123.116 375.631C123.97 374.777 125.128 374.296 126.336 374.294H196.689C197.896 374.296 199.054 374.777 199.908 375.631C200.762 376.485 201.243 377.643 201.245 378.85Z" fill="#757575" stroke="#263238" stroke-linecap="round" stroke-linejoin="round"/>
<path d="M137.287 262.955H122.784L120.609 235.829H139.462L137.287 262.955Z" fill="#06B188" stroke="#263238" stroke-linecap="round" stroke-linejoin="round"/>
<path d="M140.237 233.151H119.291V239.331H140.237V233.151Z" fill="white" stroke="#263238" stroke-linecap="round" stroke-linejoin="round"/>
<path d="M137.888 255.432L138.687 245.503H121.383L122.183 255.432H137.888Z" fill="white" stroke="#263238" stroke-linecap="round" stroke-linejoin="round"/>
<path d="M372.72 378.982H382.608" stroke="#263238" stroke-linecap="round" stroke-linejoin="round"/>
<path d="M356.24 378.982H366.68" stroke="#263238" stroke-linecap="round" stroke-linejoin="round"/>
<path d="M105.2 378.982H350.2" stroke="#263238" stroke-linecap="round" stroke-linejoin="round"/>
<path d="M37.4673 378.982H97.5039" stroke="#263238" stroke-linecap="round" stroke-linejoin="round"/>
</svg>
