<svg width="418" height="418" viewBox="0 0 418 418" fill="none" xmlns="http://www.w3.org/2000/svg">
<path d="M418 319.686H0V319.895H418V319.686Z" fill="#EBEBEB"/>
<path d="M71.5448 327.645H43.8564V327.854H71.5448V327.645Z" fill="#EBEBEB"/>
<path d="M189.404 325.38H143.073V325.589H189.404V325.38Z" fill="#EBEBEB"/>
<path d="M92.119 332.611H76.0762V332.82H92.119V332.611Z" fill="#EBEBEB"/>
<path d="M358.351 327.545H322.245V327.754H358.351V327.545Z" fill="#EBEBEB"/>
<path d="M371.092 327.545H365.8V327.754H371.092V327.545Z" fill="#EBEBEB"/>
<path d="M270.906 330.479H231.748V330.688H270.906V330.479Z" fill="#EBEBEB"/>
<path d="M198.132 282.401H36.7086C35.444 282.399 34.232 281.895 33.3385 281C32.4451 280.105 31.9434 278.892 31.9434 277.627V50.7118C31.9544 49.4544 32.461 48.2522 33.3532 47.3663C34.2454 46.4803 35.4512 45.9822 36.7086 45.98H198.132C199.398 45.98 200.612 46.4829 201.507 47.3782C202.402 48.2734 202.905 49.4875 202.905 50.7536V277.627C202.905 278.893 202.402 280.107 201.507 281.003C200.612 281.898 199.398 282.401 198.132 282.401ZM36.7086 46.1472C35.4994 46.1494 34.3405 46.6313 33.4863 47.4871C32.6321 48.3429 32.1524 49.5026 32.1524 50.7118V277.627C32.1524 278.836 32.6321 279.996 33.4863 280.852C34.3405 281.708 35.4994 282.19 36.7086 282.192H198.132C199.342 282.19 200.501 281.708 201.357 280.852C202.213 279.997 202.694 278.837 202.696 277.627V50.7118C202.694 49.5019 202.213 48.3421 201.357 47.4866C200.501 46.631 199.342 46.1494 198.132 46.1472H36.7086Z" fill="#EBEBEB"/>
<path d="M378.967 282.401H217.536C216.27 282.399 215.058 281.895 214.163 281C213.268 280.105 212.764 278.893 212.762 277.627V50.7118C212.775 49.4537 213.284 48.2515 214.177 47.3658C215.071 46.48 216.278 45.9821 217.536 45.98H378.967C380.223 45.9844 381.427 46.4835 382.317 47.3692C383.208 48.2549 383.713 49.4559 383.724 50.7118V277.627C383.724 278.89 383.224 280.102 382.332 280.997C381.44 281.892 380.23 282.396 378.967 282.401ZM217.536 46.1472C216.326 46.1494 215.166 46.631 214.311 47.4866C213.455 48.3421 212.973 49.5019 212.971 50.7118V277.627C212.973 278.837 213.455 279.997 214.311 280.852C215.166 281.708 216.326 282.19 217.536 282.192H378.967C380.177 282.19 381.337 281.708 382.193 280.852C383.048 279.997 383.53 278.837 383.532 277.627V50.7118C383.53 49.5019 383.048 48.3421 382.193 47.4866C381.337 46.631 380.177 46.1494 378.967 46.1472H217.536Z" fill="#EBEBEB"/>
<path d="M248.994 62.1901H87.5962V178.051H248.994V62.1901Z" fill="#FAFAFA"/>
<path d="M239.806 178.06L198.759 62.1901H167.952L209 178.06H239.806Z" fill="white"/>
<path d="M156.968 178.06L115.92 62.1901H104.684L145.732 178.06H156.968Z" fill="white"/>
<path d="M79.905 58.2107H256.694C256.788 58.2107 256.881 58.2293 256.968 58.2656C257.055 58.3018 257.133 58.3549 257.199 58.4218C257.265 58.4886 257.318 58.568 257.353 58.6552C257.388 58.7423 257.406 58.8356 257.404 58.9297C257.404 59.1181 257.33 59.2989 257.196 59.4321C257.063 59.5654 256.882 59.6403 256.694 59.6403H79.905C79.7158 59.6403 79.5341 59.5657 79.3995 59.4326C79.265 59.2996 79.1882 59.1189 79.186 58.9297C79.186 58.739 79.2618 58.5561 79.3966 58.4213C79.5314 58.2864 79.7143 58.2107 79.905 58.2107Z" fill="#E0E0E0"/>
<path d="M169.257 61.9476H167.342V178.31H169.257V61.9476Z" fill="#F0F0F0"/>
<path d="M167.334 61.9476H166.381V178.31H167.334V61.9476Z" fill="#E0E0E0"/>
<path d="M86.4844 119.163V121.078L250.115 121.078V119.163L86.4844 119.163Z" fill="#F0F0F0"/>
<path d="M86.4844 177.232V61.028H250.106V177.232V179.146H86.4844V177.232ZM248.2 177.232V62.9926H88.3988V177.232H248.2Z" fill="#F0F0F0"/>
<path d="M86.476 61.0782H85.5229V179.172H86.476V61.0782Z" fill="#E0E0E0"/>
<path opacity="0.5" d="M110.21 56.4551V192.522H75.6665L82.0034 56.4551H110.21Z" fill="#EBEBEB"/>
<path opacity="0.5" d="M225.427 56.4551V192.522H259.971L253.634 56.4551H225.427Z" fill="#EBEBEB"/>
<path d="M64.9405 208.824H51.7651V315.69H64.9405V208.824Z" fill="#F0F0F0"/>
<path d="M199.453 315.69H54.2983V319.686H199.453V315.69Z" fill="#F0F0F0"/>
<path d="M64.9487 315.69H201.986V208.824H64.9487V315.69Z" fill="#F5F5F5"/>
<path d="M63.5778 205.338H50.1099V208.824H63.5778V205.338Z" fill="#F0F0F0"/>
<path d="M63.5694 208.824L203.633 208.824V205.338L63.5694 205.338V208.824Z" fill="#FAFAFA"/>
<path d="M197.246 268.966H69.6807V216.139H197.246V268.966ZM70.5668 268.08H196.36V217.026H70.5668V268.08Z" fill="#E0E0E0"/>
<path d="M197.246 308.367H69.6807V274.25H197.246V308.367ZM70.5668 307.481H196.36V275.136H70.5668V307.481Z" fill="#E0E0E0"/>
<path d="M178.887 216.583H88.039C87.3927 216.583 86.8687 217.107 86.8687 217.753V218.246C86.8687 218.893 87.3927 219.417 88.039 219.417H178.887C179.534 219.417 180.058 218.893 180.058 218.246V217.753C180.058 217.107 179.534 216.583 178.887 216.583Z" fill="#E0E0E0"/>
<path d="M178.887 274.693H88.039C87.3927 274.693 86.8687 275.217 86.8687 275.863V276.357C86.8687 277.003 87.3927 277.527 88.039 277.527H178.887C179.534 277.527 180.058 277.003 180.058 276.357V275.863C180.058 275.217 179.534 274.693 178.887 274.693Z" fill="#E0E0E0"/>
<path d="M290.811 314.553H367.456L367.456 80.7074H290.811V314.553Z" fill="#F0F0F0"/>
<path d="M290.811 80.7158H288.378V314.562H290.811V80.7158Z" fill="#E0E0E0"/>
<path d="M303.25 305.633H355.024V89.6275H303.25V305.633Z" fill="#FAFAFA"/>
<path d="M209 357.44C298.521 357.44 371.092 353.203 371.092 347.977C371.092 342.75 298.521 338.513 209 338.513C119.479 338.513 46.9082 342.75 46.9082 347.977C46.9082 353.203 119.479 357.44 209 357.44Z" fill="#F5F5F5"/>
<path d="M119.849 340.695L126.395 338.212L122.382 322.395L115.836 324.878L119.849 340.695Z" fill="#B55B52"/>
<path d="M70.667 340.829H77.6643L78.7177 324.61H71.712L70.667 340.829Z" fill="#B55B52"/>
<path d="M78.3667 340.018H69.8311C69.694 340.016 69.5607 340.063 69.455 340.15C69.3493 340.237 69.2781 340.359 69.2543 340.494L68.1842 346.714C68.1627 346.869 68.1747 347.028 68.2195 347.178C68.2643 347.328 68.3407 347.467 68.4438 347.585C68.5468 347.703 68.6739 347.797 68.8167 347.862C68.9594 347.927 69.1143 347.96 69.271 347.96C72.0131 347.91 74.0111 347.751 77.4722 347.751C79.5956 347.751 86.0245 347.977 88.9672 347.977C91.9099 347.977 92.144 345.067 90.9234 344.8C85.4727 343.621 81.3261 341.999 79.5204 340.444C79.1983 340.17 78.7896 340.019 78.3667 340.018Z" fill="#263238"/>
<path d="M126.06 337.477L118.913 340.185C118.782 340.235 118.672 340.327 118.601 340.447C118.53 340.567 118.501 340.707 118.52 340.846L119.439 347.149C119.455 347.304 119.507 347.454 119.591 347.586C119.674 347.718 119.788 347.829 119.921 347.91C120.055 347.991 120.205 348.04 120.361 348.053C120.517 348.066 120.673 348.043 120.819 347.985C123.377 346.965 125.559 345.669 128.819 344.499C132.544 343.288 136.126 341.676 139.503 339.692C141.928 338.154 140.908 335.228 139.762 335.687C134.562 337.777 133.283 338.463 127.824 337.41C127.242 337.268 126.631 337.291 126.06 337.477Z" fill="#263238"/>
<path d="M107.593 127.482C109.792 131.377 112.116 135.39 114.457 139.269C116.798 143.148 119.197 147.027 121.747 150.639C122.357 151.55 123.042 152.428 123.661 153.272C123.798 153.518 123.983 153.734 124.205 153.908C124.596 154.108 125.041 154.178 125.475 154.108C126.274 154.027 127.059 153.838 127.808 153.548C129.705 152.804 131.515 151.856 133.208 150.722C134.111 150.129 135.031 149.519 135.925 148.867C136.82 148.214 137.723 147.512 138.542 146.885L142.463 150.38C141.748 151.413 140.98 152.409 140.164 153.364C139.374 154.328 138.537 155.251 137.656 156.131C136.751 157.043 135.794 157.9 134.788 158.698C133.741 159.555 132.622 160.321 131.444 160.989C130.115 161.759 128.686 162.341 127.197 162.719C125.347 163.196 123.405 163.196 121.554 162.719C119.554 162.162 117.761 161.032 116.396 159.467C115.56 158.497 114.724 157.586 113.972 156.625C110.945 152.869 108.128 148.947 105.537 144.879C102.945 140.849 100.521 136.811 98.2969 132.514L107.593 127.482Z" fill="#B65B52"/>
<path d="M95.1702 127.808C93.2892 134.228 106.573 151.734 106.573 151.734L119.949 143.115C117.426 137.547 114.313 132.267 110.661 127.365C105.202 120.384 97.2435 120.76 95.1702 127.808Z" fill="#47F6AC"/>
<path opacity="0.2" d="M95.1702 127.808C93.2892 134.228 106.573 151.734 106.573 151.734L119.949 143.115C117.426 137.547 114.313 132.267 110.661 127.365C105.202 120.384 97.2435 120.76 95.1702 127.808Z" fill="black"/>
<path opacity="0.2" d="M103.338 135.34C106.097 136.519 110.151 143.157 112.266 148.081L106.573 151.734C103.4 147.492 100.544 143.021 98.0293 138.358C99.8267 136.36 101.883 134.721 103.338 135.34Z" fill="black"/>
<path d="M137.714 149.067L140.172 142.187L147.136 145.531C147.136 145.531 145.69 151.659 140.59 151.65L137.714 149.067Z" fill="#B55B52"/>
<path d="M146.367 137.664L149.318 140.916L147.136 145.514L140.172 142.187L146.367 137.664Z" fill="#B55B52"/>
<path opacity="0.2" d="M122.382 322.403L124.447 330.554L117.901 333.037L115.836 324.886L122.382 322.403Z" fill="black"/>
<path opacity="0.2" d="M71.7119 324.619H78.7175L78.1741 332.97H71.1685L71.7119 324.619Z" fill="black"/>
<path d="M63.9707 124.965C71.4947 151.558 70.2741 179.773 70.7423 185.508L108.162 184.104C114.524 144.461 103.146 122.399 103.146 122.399C103.146 122.399 100.746 121.939 97.4776 121.605C96.4577 121.496 95.3541 121.404 94.2005 121.345C93.5651 121.304 92.9214 121.287 92.2693 121.27C86.9562 121.36 81.6527 121.756 76.3853 122.457C75.3905 122.583 74.3789 122.725 73.3924 122.892C72.4059 123.059 71.595 123.21 70.7507 123.377C66.88 124.138 63.9707 124.965 63.9707 124.965Z" fill="#47F6AC"/>
<path opacity="0.2" d="M63.9707 124.965C71.4947 151.558 70.2741 179.773 70.7423 185.508L108.162 184.104C114.524 144.461 103.146 122.399 103.146 122.399C103.146 122.399 100.746 121.939 97.4776 121.605C96.4577 121.496 95.3541 121.404 94.2005 121.345C93.5651 121.304 92.9214 121.287 92.2693 121.27C86.9562 121.36 81.6527 121.756 76.3853 122.457C75.3905 122.583 74.3789 122.725 73.3924 122.892C72.4059 123.059 71.595 123.21 70.7507 123.377C66.88 124.138 63.9707 124.965 63.9707 124.965Z" fill="black"/>
<path opacity="0.2" d="M71.9376 136.377C72.6064 138.943 71.8373 150.689 69.1537 153.582C68.7859 149.82 68.3177 145.899 67.6489 141.878L71.9376 136.377Z" fill="black"/>
<path d="M76.5945 104.5C77.9739 109.516 79.671 118.812 76.3521 122.482C79.3366 125.041 83.1989 127.958 89.2766 127.716C95.3543 127.473 93.9916 123.385 92.2277 121.304C86.4258 120.367 86.2586 116.137 86.9609 112.108L76.5945 104.5Z" fill="#B55B52"/>
<path d="M89.4353 126.821L90.5388 127.565L86.5093 128.744L87.5459 126.871L89.4353 126.821Z" fill="#47F6AC"/>
<path d="M90.9566 126.428L90.5386 127.565L94.5848 128.744L94.3089 126.579L90.9566 126.428Z" fill="#47F6AC"/>
<path d="M73.9356 122.056L75.524 121.262C75.778 121.135 76.0622 121.08 76.3454 121.103C76.6285 121.127 76.8997 121.228 77.1291 121.396C80.8035 124.061 85.0048 125.911 89.4518 126.821C86.2583 128.343 87.0441 132.439 87.0441 132.439C87.0441 132.439 76.8867 129.095 73.6681 123.026C73.577 122.861 73.554 122.668 73.604 122.486C73.654 122.305 73.7731 122.151 73.9356 122.056Z" fill="white"/>
<path d="M93.9996 121.011L91.6671 120.66C91.6069 120.65 91.5452 120.659 91.4897 120.684C91.4342 120.709 91.3875 120.75 91.3553 120.802C91.3231 120.854 91.307 120.914 91.3089 120.975C91.3109 121.036 91.3308 121.095 91.3662 121.145C92.2022 122.307 93.5398 124.857 90.9565 126.428C94.1501 127.95 95.1365 131.687 95.1365 131.687C95.1365 131.687 99.3165 127.197 94.451 121.27C94.3348 121.134 94.1754 121.043 93.9996 121.011Z" fill="white"/>
<path opacity="0.2" d="M80.8163 107.56L86.9441 112.024C86.767 112.967 86.6746 113.924 86.6683 114.883C84.4696 114.733 81.3011 112.567 80.8999 110.302C80.7095 109.4 80.6812 108.471 80.8163 107.56Z" fill="black"/>
<path d="M94.3594 94.142C94.0752 96.5747 91.7427 98.6647 90.2379 99.158L88.3569 88.616C92.5787 85.6315 94.7523 90.7311 94.3594 94.142Z" fill="#263238"/>
<path d="M74.4793 97.0596C75.6998 103.898 76.0593 107.969 79.9467 111.104C85.7987 115.819 93.933 111.681 94.7857 104.617C95.5548 98.2551 93.4314 88.1395 86.3756 86.1749C84.8213 85.7351 83.1805 85.6997 81.6087 86.0721C80.0369 86.4444 78.5864 87.2123 77.3946 88.3026C76.2029 89.393 75.3096 90.7698 74.7993 92.3024C74.2891 93.835 74.1789 95.4725 74.4793 97.0596Z" fill="#B55B52"/>
<path d="M75.7833 101.674C78.9518 103.346 80.3395 99.576 80.373 98.0377C80.373 95.5966 79.3531 92.913 78.0907 91.9349C84.2102 91.9349 96.3155 91.634 93.2557 85.807C90.196 79.9801 84.0597 80.6406 79.4868 83.8341C77.0541 85.5061 69.1789 84.0514 71.1268 88.5909C67.0221 90.7729 70.5834 98.9072 75.7833 101.674Z" fill="#263238"/>
<path d="M71.7958 88.2147C70.7047 88.2093 69.6452 87.8483 68.7778 87.1865C68.92 87.7975 69.2586 88.3451 69.7418 88.7453C70.225 89.1455 70.8262 89.3761 71.453 89.4019L71.7958 88.2147Z" fill="#263238"/>
<path d="M71.8959 102.686C72.6803 104.259 74.0529 105.461 75.7164 106.03C77.9235 106.74 78.4251 104.717 77.89 102.594C77.4051 100.671 76.3685 98.0712 74.1197 98.2802C71.8708 98.4892 70.9596 100.763 71.8959 102.686Z" fill="#B55B52"/>
<path d="M116.313 258.115C113.47 236.939 108.162 184.104 108.162 184.104L83.6001 185.032C83.6001 185.032 95.2038 237.825 99.4005 259.235C103.597 280.645 115.284 332.31 115.284 332.31L126.37 328.13C126.37 328.13 119.281 280.135 116.313 258.115Z" fill="#263238"/>
<path opacity="0.2" d="M92.7961 199.261C90.7734 199.744 88.8958 200.704 87.3203 202.061C89.6444 212.737 92.6791 226.79 95.2874 239.171C97.0263 228.445 97.0764 208.206 92.7961 199.261Z" fill="black"/>
<path d="M94.8942 184.606C94.8942 184.606 89.6692 241.922 87.2782 262.287C84.6615 284.599 81.4262 331.357 81.4262 331.357H68.5518C68.5518 331.357 68.0251 290 69.6888 268.164C71.5865 243.293 70.7338 185.508 70.7338 185.508L94.8942 184.606Z" fill="#263238"/>
<path d="M83.0985 331.633H68.0003L67.6826 327.118L84.5364 326.826L83.0985 331.633Z" fill="#47F6AC"/>
<path d="M127.816 327.846L114.607 332.853L112.994 328.581L127.674 322.763L127.816 327.846Z" fill="#47F6AC"/>
<path d="M85.1551 97.812C85.2137 98.3805 85.5648 98.7985 85.9326 98.7567C86.3005 98.7149 86.5429 98.2217 86.476 97.6616C86.4091 97.1014 86.0664 96.6834 85.6985 96.7252C85.3307 96.767 85.0883 97.2185 85.1551 97.812Z" fill="#263238"/>
<path d="M91.4916 97.0512C91.5584 97.6114 91.9096 98.0294 92.269 97.9876C92.6285 97.9458 92.8877 97.4609 92.8208 96.9008C92.7539 96.3406 92.4028 95.9143 92.035 95.9561C91.6671 95.9979 91.4247 96.4911 91.4916 97.0512Z" fill="#263238"/>
<path d="M89.5103 97.5612C90.3748 99.1987 91.4606 100.709 92.7372 102.051C92.3894 102.374 91.9746 102.616 91.5223 102.761C91.07 102.905 90.5913 102.948 90.1205 102.887L89.5103 97.5612Z" fill="#A02724"/>
<path d="M87.9303 104.634C87.2955 104.632 86.6676 104.501 86.0854 104.248C85.5031 103.995 84.9788 103.626 84.5445 103.162C84.5283 103.146 84.5157 103.126 84.5076 103.104C84.4995 103.082 84.496 103.059 84.4974 103.036C84.4988 103.012 84.505 102.99 84.5157 102.969C84.5263 102.948 84.5412 102.93 84.5593 102.916C84.5774 102.901 84.5984 102.89 84.6209 102.884C84.6434 102.878 84.6668 102.877 84.6898 102.881C84.7128 102.884 84.7349 102.892 84.7545 102.905C84.7741 102.918 84.7908 102.934 84.8037 102.953C85.2925 103.458 85.8929 103.84 86.5565 104.069C87.2201 104.299 87.9284 104.369 88.6242 104.274C88.6457 104.271 88.6677 104.272 88.6889 104.277C88.71 104.282 88.7298 104.292 88.7471 104.305C88.7643 104.319 88.7786 104.335 88.7891 104.355C88.7996 104.374 88.8061 104.395 88.8081 104.416C88.8129 104.46 88.8007 104.503 88.7742 104.537C88.7477 104.571 88.7089 104.594 88.666 104.6C88.4221 104.632 88.176 104.643 87.9303 104.634Z" fill="#263238"/>
<path d="M82.9645 95.9561C82.9099 95.9724 82.8518 95.9724 82.7973 95.9561C82.7596 95.9345 82.7266 95.9056 82.7002 95.8711C82.6738 95.8365 82.6546 95.7971 82.6437 95.755C82.6328 95.713 82.6304 95.6691 82.6367 95.6261C82.643 95.5832 82.6578 95.5418 82.6802 95.5047C82.935 95.0465 83.2955 94.6557 83.7318 94.3649C84.168 94.0741 84.6673 93.8916 85.1882 93.8327C85.2322 93.8304 85.2761 93.8368 85.3175 93.8516C85.359 93.8664 85.3971 93.8891 85.4297 93.9186C85.4623 93.9482 85.4888 93.9838 85.5076 94.0236C85.5264 94.0633 85.5372 94.1064 85.5394 94.1503C85.5416 94.1938 85.5351 94.2374 85.5203 94.2783C85.5054 94.3193 85.4825 94.3568 85.4529 94.3888C85.4233 94.4207 85.3875 94.4464 85.3478 94.4643C85.3081 94.4823 85.2652 94.492 85.2217 94.4931C84.8077 94.5455 84.4118 94.6947 84.0661 94.9285C83.7205 95.1624 83.4347 95.4743 83.232 95.8391C83.201 95.8797 83.1602 95.9117 83.1134 95.9322C83.0666 95.9527 83.0153 95.9609 82.9645 95.9561Z" fill="#263238"/>
<path d="M93.9748 94.56C93.9194 94.5578 93.8653 94.5422 93.8173 94.5145C93.7692 94.4869 93.7286 94.4479 93.6989 94.4011C93.4865 94.0424 93.1912 93.7398 92.8377 93.5187C92.4842 93.2976 92.0829 93.1644 91.6674 93.1304C91.5787 93.1304 91.4937 93.0952 91.431 93.0325C91.3682 92.9698 91.333 92.8847 91.333 92.796C91.333 92.7073 91.3682 92.6223 91.431 92.5596C91.4937 92.4968 91.5787 92.4616 91.6674 92.4616C92.1927 92.5041 92.7005 92.6701 93.1494 92.9462C93.5984 93.2222 93.9757 93.6004 94.2506 94.05C94.2738 94.0862 94.2896 94.1266 94.2971 94.1689C94.3046 94.2113 94.3037 94.2546 94.2944 94.2966C94.2851 94.3386 94.2675 94.3782 94.2428 94.4134C94.2181 94.4486 94.1867 94.4785 94.1503 94.5015C94.0989 94.5379 94.0378 94.5583 93.9748 94.56Z" fill="#263238"/>
<path d="M80.7407 341.238C80.1176 341.223 79.498 341.139 78.8932 340.988C78.8615 340.98 78.8328 340.963 78.8105 340.939C78.7882 340.916 78.7734 340.886 78.7678 340.854C78.7594 340.823 78.7614 340.789 78.7735 340.759C78.7855 340.729 78.807 340.704 78.8347 340.687C79.0771 340.528 81.2674 339.14 82.0616 339.533C82.1493 339.578 82.2239 339.644 82.2781 339.726C82.3323 339.808 82.3643 339.903 82.3709 340.001C82.4005 340.161 82.3884 340.326 82.3357 340.48C82.283 340.633 82.1914 340.771 82.07 340.879C81.6826 341.151 81.2122 341.278 80.7407 341.238ZM79.3697 340.754C80.5652 340.988 81.4764 340.946 81.8777 340.628C81.9584 340.552 82.0189 340.458 82.054 340.353C82.089 340.247 82.0974 340.135 82.0783 340.026C82.0783 339.893 82.0031 339.851 81.9613 339.834C81.5182 339.625 80.2559 340.252 79.3697 340.754Z" fill="#47F6AC"/>
<path d="M78.9348 340.988C78.9046 340.995 78.8731 340.995 78.8429 340.988C78.8177 340.971 78.797 340.949 78.7824 340.923C78.7678 340.897 78.7599 340.867 78.7593 340.837C78.7593 340.754 78.8345 338.73 79.5953 338.07C79.6871 337.984 79.7972 337.92 79.9173 337.882C80.0375 337.844 80.1646 337.834 80.2892 337.853C80.4162 337.854 80.5391 337.898 80.6388 337.976C80.7386 338.055 80.8096 338.164 80.8409 338.287C81.0248 339.065 79.704 340.603 78.9934 340.996C78.9735 340.999 78.9532 340.996 78.9348 340.988ZM80.2056 338.154C80.0698 338.155 79.9391 338.205 79.8377 338.296C79.3751 338.936 79.1238 339.705 79.1188 340.494C79.8126 339.943 80.6403 338.822 80.5316 338.321C80.5316 338.279 80.5316 338.187 80.2808 338.154H80.2056Z" fill="#47F6AC"/>
<path d="M127.072 338.137C127.041 338.138 127.01 338.13 126.983 338.114C126.956 338.097 126.935 338.073 126.922 338.045C126.904 338.018 126.894 337.986 126.894 337.953C126.894 337.92 126.904 337.888 126.922 337.861C127.164 337.594 129.287 335.261 130.266 335.403C130.356 335.413 130.443 335.447 130.516 335.502C130.59 335.556 130.647 335.629 130.684 335.713C130.75 335.842 130.784 335.985 130.784 336.131C130.784 336.276 130.75 336.419 130.684 336.549C130.207 337.451 128.234 337.911 127.097 338.095L127.072 338.137ZM130.157 335.729C129.597 335.729 128.376 336.824 127.524 337.719C129.062 337.41 130.115 336.933 130.383 336.423C130.428 336.335 130.452 336.238 130.452 336.139C130.452 336.04 130.428 335.942 130.383 335.855C130.37 335.822 130.348 335.792 130.32 335.77C130.292 335.748 130.259 335.734 130.224 335.729H130.157Z" fill="#47F6AC"/>
<path d="M127.072 338.137H127.022C126.994 338.129 126.968 338.114 126.948 338.094C126.927 338.073 126.912 338.048 126.905 338.02C126.905 337.945 126.395 336.114 126.963 335.111C127.043 334.966 127.152 334.84 127.283 334.74C127.414 334.639 127.564 334.566 127.724 334.525C128.167 334.4 128.368 334.576 128.468 334.734C128.869 335.428 127.841 337.443 127.18 338.078C127.168 338.096 127.152 338.111 127.133 338.121C127.114 338.131 127.093 338.137 127.072 338.137ZM127.983 334.793H127.807C127.689 334.821 127.579 334.874 127.484 334.95C127.388 335.025 127.311 335.119 127.256 335.228C126.979 335.981 126.944 336.802 127.155 337.577C127.774 336.741 128.418 335.269 128.175 334.851C128.142 334.868 128.1 334.801 127.958 334.81L127.983 334.793Z" fill="#47F6AC"/>
<path d="M71.6619 134.864C69.5635 139.186 67.4234 143.65 65.3501 148.047C64.3218 150.263 63.2852 152.47 62.3154 154.685L60.8608 158.029L60.192 159.676L60.0248 160.094L59.8994 160.403C59.8158 160.596 59.7572 160.805 59.682 160.997C59.1633 162.644 59.0712 164.396 59.4145 166.088C59.8241 168.053 60.5678 169.934 61.6132 171.648C62.7639 173.566 64.0965 175.368 65.5925 177.031C66.3533 177.867 67.1558 178.754 67.9918 179.539C68.4098 179.941 68.8278 180.375 69.2709 180.735C69.714 181.094 70.1571 181.571 70.5249 181.863L67.716 186.336C66.5079 185.722 65.3381 185.035 64.2131 184.279C63.1012 183.552 62.0144 182.783 60.9611 181.947C58.7916 180.228 56.8279 178.264 55.1091 176.095C53.2367 173.766 51.8059 171.114 50.8873 168.27C49.9092 165.134 49.768 161.797 50.4776 158.589C50.5863 158.196 50.6699 157.753 50.7953 157.402L51.1214 156.365L51.7066 154.518C52.1246 153.306 52.5426 152.085 52.9773 150.89C53.8551 148.49 54.7747 146.116 55.7695 143.775C57.684 139.11 59.8325 134.596 62.2234 130.023L71.6619 134.864Z" fill="#B65B52"/>
<path d="M63.9706 124.965C57.5835 126.963 51.3052 148.624 51.3052 148.624L66.0439 155.095C66.0439 155.095 70.8258 144.628 73.5679 136.427C76.6025 127.49 71.7036 122.541 63.9706 124.965Z" fill="#47F6AC"/>
<path opacity="0.2" d="M63.9706 124.965C57.5835 126.963 51.3052 148.624 51.3052 148.624L66.0439 155.095C66.0439 155.095 70.8258 144.628 73.5679 136.427C76.6025 127.49 71.7036 122.541 63.9706 124.965Z" fill="black"/>
<path d="M68.9364 180.509L75.0476 184.137L69.1036 190.056C69.1036 190.056 63.9455 186.085 65.4837 182.975L68.9364 180.509Z" fill="#B55B52"/>
<path d="M79.1355 189.931L72.9993 194.228L69.1035 190.056L75.0475 184.137L79.1355 189.931Z" fill="#B55B52"/>
<path d="M374.834 178.938L374.542 182.965L375.376 183.025L375.667 178.998L374.834 178.938Z" fill="#47F6AC"/>
<path d="M375.935 163.688L375.089 175.37L375.923 175.43L376.769 163.749L375.935 163.688Z" fill="#47F6AC"/>
<path d="M353.06 295.108H148.298C146.836 295.125 145.386 294.836 144.042 294.259C142.698 293.682 141.49 292.831 140.495 291.759C139.5 290.688 138.74 289.42 138.264 288.037C137.788 286.654 137.606 285.187 137.731 283.73L148.599 132.581C148.869 129.521 150.26 126.668 152.505 124.571C154.75 122.474 157.691 121.28 160.763 121.22H365.524C366.986 121.202 368.436 121.49 369.78 122.066C371.124 122.641 372.332 123.492 373.328 124.563C374.323 125.634 375.083 126.901 375.559 128.284C376.035 129.666 376.216 131.133 376.091 132.59L365.223 283.738C364.956 286.8 363.566 289.655 361.32 291.754C359.075 293.853 356.133 295.047 353.06 295.108Z" fill="#47F6AC"/>
<path d="M305.433 347.977H238.962L227.116 265.848H293.587L305.433 347.977Z" fill="#47F6AC"/>
<path d="M294.874 343.078H222.978L221.548 347.977H293.453L294.874 343.078Z" fill="#47F6AC"/>
<path d="M297.089 305.382L232.308 301.846L227.116 265.848H291.388L297.089 305.382Z" fill="#263238"/>
<path d="M350.752 295.108H145.982C144.518 295.124 143.067 294.834 141.722 294.254C140.376 293.675 139.168 292.82 138.174 291.745C137.18 290.669 136.422 289.398 135.95 288.011C135.477 286.625 135.301 285.155 135.432 283.697L146.3 132.548C146.577 129.496 147.969 126.654 150.21 124.564C152.451 122.474 155.384 121.284 158.447 121.22H363.217C364.678 121.203 366.127 121.492 367.47 122.068C368.813 122.644 370.02 123.495 371.015 124.566C372.009 125.637 372.768 126.904 373.244 128.286C373.719 129.668 373.901 131.134 373.776 132.59L362.908 283.738C362.642 286.8 361.254 289.654 359.01 291.753C356.766 293.852 353.824 295.047 350.752 295.108Z" fill="#263238"/>
<path d="M373.246 134.007L367.031 220.712L367.832 220.769L374.047 134.065L373.246 134.007Z" fill="white"/>
<path d="M366.521 228.261L364.368 258.288L365.169 258.346L367.321 228.318L366.521 228.261Z" fill="white"/>
<path d="M350.284 292.249H146.819C145.68 292.261 144.552 292.035 143.507 291.586C142.461 291.136 141.521 290.473 140.747 289.638C139.973 288.804 139.382 287.816 139.013 286.74C138.643 285.663 138.503 284.521 138.601 283.387L149.393 132.857C149.602 130.47 150.686 128.244 152.439 126.609C154.191 124.975 156.486 124.046 158.882 124.004H362.381C363.519 123.992 364.646 124.217 365.691 124.666C366.736 125.115 367.676 125.778 368.449 126.612C369.223 127.445 369.814 128.432 370.184 129.507C370.555 130.583 370.696 131.724 370.599 132.857L359.806 283.404C359.595 285.795 358.505 288.024 356.746 289.658C354.987 291.291 352.685 292.215 350.284 292.249Z" fill="white"/>
<path opacity="0.2" d="M350.284 292.249H146.819C145.68 292.261 144.552 292.035 143.507 291.586C142.461 291.136 141.521 290.473 140.747 289.638C139.973 288.804 139.382 287.816 139.013 286.74C138.643 285.663 138.503 284.521 138.601 283.387L149.393 132.857C149.602 130.47 150.686 128.244 152.439 126.609C154.191 124.975 156.486 124.046 158.882 124.004H362.381C363.519 123.992 364.646 124.217 365.691 124.666C366.736 125.115 367.676 125.778 368.449 126.612C369.223 127.445 369.814 128.432 370.184 129.507C370.555 130.583 370.696 131.724 370.599 132.857L359.806 283.404C359.595 285.795 358.505 288.024 356.746 289.658C354.987 291.291 352.685 292.215 350.284 292.249Z" fill="#47F6AC"/>
<path opacity="0.5" d="M199.018 285.578H151.5C150.95 285.584 150.405 285.476 149.899 285.259C149.394 285.042 148.939 284.722 148.565 284.318C148.191 283.915 147.905 283.438 147.727 282.918C147.549 282.397 147.481 281.845 147.529 281.297L158.013 134.997C158.112 133.842 158.636 132.765 159.484 131.974C160.332 131.183 161.443 130.735 162.602 130.717H210.12C210.671 130.709 211.217 130.817 211.723 131.033C212.229 131.249 212.684 131.57 213.059 131.973C213.433 132.377 213.718 132.855 213.896 133.376C214.074 133.897 214.141 134.449 214.091 134.997L203.608 281.297C203.507 282.452 202.982 283.528 202.135 284.318C201.287 285.109 200.177 285.557 199.018 285.578Z" fill="white"/>
<path opacity="0.4" d="M197.179 151.316H172.584C172.089 151.321 171.598 151.223 171.143 151.027C170.688 150.832 170.279 150.544 169.942 150.181C169.605 149.818 169.348 149.388 169.187 148.92C169.026 148.452 168.964 147.955 169.006 147.462L169.273 143.692C169.364 142.653 169.836 141.684 170.599 140.972C171.361 140.261 172.36 139.856 173.403 139.838H198.007C198.502 139.832 198.993 139.931 199.448 140.126C199.903 140.322 200.312 140.61 200.648 140.973C200.985 141.336 201.243 141.765 201.404 142.233C201.565 142.702 201.627 143.198 201.585 143.692L201.309 147.462C201.227 148.505 200.758 149.479 199.994 150.192C199.229 150.906 198.225 151.307 197.179 151.316Z" fill="#47F6AC"/>
<path d="M181.538 210.505H143.993C143.132 210.516 142.277 210.347 141.485 210.009C140.693 209.67 139.98 209.171 139.392 208.541C138.804 207.911 138.354 207.166 138.071 206.352C137.788 205.539 137.678 204.675 137.748 203.817L140.448 166.23C140.615 164.424 141.442 162.742 142.772 161.508C144.102 160.274 145.841 159.574 147.655 159.542H185.208C186.068 159.532 186.921 159.702 187.713 160.041C188.504 160.38 189.216 160.88 189.803 161.509C190.39 162.139 190.839 162.884 191.121 163.697C191.404 164.509 191.514 165.372 191.444 166.23L188.752 203.783C188.595 205.598 187.77 207.29 186.438 208.532C185.105 209.773 183.359 210.476 181.538 210.505Z" fill="#47F6AC"/>
<path d="M186.921 179.74C186.228 179.754 185.565 180.024 185.058 180.498C184.552 180.971 184.239 181.616 184.179 182.307L183.786 187.757C183.758 188.085 183.799 188.416 183.907 188.727C184.014 189.039 184.186 189.324 184.41 189.565C184.635 189.806 184.907 189.997 185.21 190.126C185.513 190.256 185.84 190.32 186.169 190.315H189.981C190.153 190.314 190.318 190.248 190.444 190.13C190.569 190.012 190.646 189.852 190.658 189.68L191.327 180.375C191.334 180.294 191.324 180.211 191.297 180.134C191.27 180.057 191.228 179.986 191.172 179.926C191.116 179.866 191.048 179.818 190.972 179.786C190.897 179.754 190.816 179.739 190.734 179.74H186.921Z" fill="white"/>
<path d="M172.434 169.064H148.808C148.676 169.066 148.545 169.04 148.424 168.988C148.302 168.936 148.193 168.859 148.103 168.762C148.014 168.665 147.945 168.55 147.902 168.425C147.86 168.3 147.844 168.168 147.855 168.036C147.878 167.758 148.004 167.498 148.208 167.308C148.412 167.118 148.68 167.011 148.959 167.008H172.626C172.758 167.006 172.889 167.032 173.011 167.084C173.132 167.136 173.241 167.213 173.331 167.31C173.421 167.407 173.489 167.522 173.532 167.647C173.575 167.772 173.591 167.904 173.579 168.036C173.554 168.321 173.421 168.585 173.209 168.776C172.996 168.966 172.719 169.07 172.434 169.064Z" fill="white"/>
<path d="M172.066 174.289H148.39C148.258 174.291 148.127 174.265 148.006 174.213C147.884 174.161 147.775 174.084 147.685 173.987C147.596 173.89 147.527 173.775 147.484 173.65C147.442 173.525 147.426 173.393 147.437 173.261C147.462 172.984 147.589 172.727 147.793 172.539C147.997 172.35 148.263 172.244 148.541 172.241H172.216C172.348 172.238 172.479 172.263 172.6 172.314C172.722 172.365 172.831 172.442 172.921 172.538C173.011 172.634 173.08 172.748 173.122 172.873C173.165 172.998 173.181 173.13 173.169 173.261C173.147 173.539 173.021 173.798 172.817 173.989C172.613 174.179 172.345 174.286 172.066 174.289Z" fill="white"/>
<path d="M163.505 179.523H148.014C147.882 179.523 147.752 179.496 147.631 179.444C147.51 179.391 147.402 179.314 147.312 179.217C147.223 179.121 147.154 179.007 147.111 178.882C147.068 178.758 147.051 178.626 147.061 178.494C147.084 178.216 147.21 177.957 147.414 177.767C147.618 177.576 147.886 177.469 148.165 177.466H163.656C163.788 177.464 163.919 177.49 164.04 177.543C164.162 177.595 164.271 177.672 164.361 177.769C164.45 177.865 164.519 177.98 164.562 178.105C164.604 178.23 164.62 178.363 164.609 178.494C164.584 178.772 164.458 179.03 164.254 179.22C164.05 179.41 163.784 179.518 163.505 179.523Z" fill="white"/>
<path opacity="0.5" d="M172.501 204.435H149.644C149.079 204.442 148.519 204.331 148 204.108C147.48 203.885 147.014 203.556 146.629 203.141C146.245 202.727 145.952 202.237 145.768 201.703C145.585 201.168 145.516 200.601 145.565 200.038L146.401 188.008C146.502 186.823 147.04 185.719 147.909 184.908C148.779 184.097 149.918 183.638 151.107 183.619H174.005C174.57 183.612 175.129 183.724 175.648 183.946C176.166 184.169 176.633 184.497 177.017 184.91C177.401 185.324 177.695 185.813 177.879 186.346C178.063 186.88 178.133 187.446 178.085 188.008L177.249 200.038C177.145 201.23 176.601 202.341 175.724 203.153C174.846 203.966 173.697 204.423 172.501 204.435Z" fill="white"/>
<path opacity="0.4" d="M193.877 224.566H165.386C165.141 224.57 164.898 224.521 164.672 224.425C164.447 224.328 164.244 224.186 164.077 224.006C163.91 223.827 163.783 223.614 163.703 223.382C163.623 223.151 163.593 222.905 163.614 222.66C163.659 222.146 163.894 221.666 164.272 221.314C164.65 220.962 165.145 220.762 165.662 220.754H194.153C194.397 220.752 194.64 220.801 194.864 220.898C195.089 220.995 195.29 221.138 195.456 221.317C195.622 221.497 195.749 221.709 195.828 221.94C195.908 222.171 195.938 222.417 195.917 222.66C195.874 223.174 195.641 223.654 195.264 224.006C194.887 224.358 194.393 224.558 193.877 224.566Z" fill="#47F6AC"/>
<path opacity="0.8" d="M188.1 232.049H170.059C169.814 232.052 169.571 232.004 169.345 231.907C169.12 231.811 168.917 231.668 168.75 231.489C168.583 231.309 168.456 231.096 168.376 230.865C168.296 230.633 168.266 230.387 168.287 230.142C168.33 229.628 168.563 229.149 168.94 228.797C169.317 228.445 169.811 228.245 170.327 228.236H188.409C188.654 228.233 188.897 228.281 189.122 228.378C189.347 228.474 189.549 228.617 189.716 228.797C189.882 228.976 190.009 229.189 190.087 229.421C190.166 229.653 190.196 229.899 190.173 230.142C190.129 230.662 189.892 231.146 189.508 231.499C189.124 231.852 188.621 232.048 188.1 232.049Z" fill="white"/>
<path opacity="0.4" d="M192.397 245.207H163.906C163.662 245.209 163.419 245.16 163.194 245.063C162.969 244.966 162.767 244.824 162.601 244.644C162.434 244.465 162.306 244.253 162.226 244.022C162.146 243.791 162.114 243.545 162.134 243.301C162.18 242.786 162.414 242.307 162.792 241.955C163.171 241.603 163.666 241.403 164.182 241.395H192.673C192.918 241.393 193.16 241.442 193.384 241.539C193.609 241.636 193.811 241.779 193.977 241.958C194.143 242.138 194.269 242.35 194.349 242.581C194.428 242.812 194.458 243.058 194.437 243.301C194.394 243.815 194.161 244.295 193.784 244.647C193.407 244.999 192.913 245.199 192.397 245.207Z" fill="#47F6AC"/>
<path opacity="0.8" d="M186.654 252.681H168.58C168.335 252.685 168.092 252.638 167.866 252.543C167.641 252.447 167.438 252.306 167.271 252.127C167.104 251.948 166.976 251.736 166.896 251.504C166.817 251.273 166.786 251.027 166.807 250.783C166.851 250.265 167.087 249.782 167.47 249.429C167.852 249.076 168.352 248.88 168.872 248.877H186.93C187.175 248.874 187.418 248.922 187.644 249.019C187.869 249.115 188.072 249.258 188.239 249.437C188.406 249.617 188.533 249.829 188.613 250.061C188.693 250.293 188.723 250.539 188.702 250.783C188.657 251.297 188.422 251.776 188.043 252.126C187.665 252.477 187.17 252.675 186.654 252.681Z" fill="white"/>
<path opacity="0.4" d="M190.917 265.848H162.426C162.182 265.85 161.939 265.801 161.714 265.704C161.49 265.607 161.287 265.465 161.121 265.285C160.954 265.106 160.826 264.894 160.746 264.663C160.666 264.431 160.634 264.186 160.654 263.942C160.698 263.426 160.932 262.946 161.31 262.593C161.689 262.241 162.185 262.042 162.702 262.036H191.193C191.438 262.032 191.681 262.081 191.906 262.177C192.131 262.274 192.333 262.416 192.5 262.596C192.666 262.776 192.793 262.989 192.871 263.22C192.95 263.452 192.98 263.698 192.957 263.942C192.914 264.456 192.681 264.935 192.304 265.288C191.927 265.64 191.433 265.839 190.917 265.848Z" fill="#47F6AC"/>
<path opacity="0.8" d="M185.174 273.322H167.1C166.854 273.325 166.611 273.277 166.386 273.18C166.16 273.084 165.958 272.941 165.791 272.762C165.624 272.582 165.496 272.37 165.416 272.138C165.337 271.906 165.306 271.66 165.327 271.416C165.373 270.902 165.606 270.424 165.982 270.072C166.359 269.72 166.852 269.52 167.367 269.51H185.45C185.695 269.508 185.937 269.557 186.162 269.654C186.387 269.751 186.589 269.893 186.756 270.072C186.922 270.252 187.05 270.464 187.13 270.695C187.211 270.926 187.242 271.172 187.222 271.416C187.179 271.931 186.945 272.412 186.566 272.764C186.187 273.117 185.691 273.315 185.174 273.322Z" fill="white"/>
<path opacity="0.5" d="M352.525 242.666C353.762 240.776 356.596 241.571 356.437 243.752L353.695 282.008C353.553 283.972 352.065 285.578 350.351 285.578H212.57C210.898 285.578 209.627 283.972 209.769 282.008L211.441 259.277C211.497 258.554 211.712 257.853 212.07 257.222C212.428 256.592 212.921 256.049 213.514 255.631C214.106 255.213 214.784 254.932 215.498 254.806C216.212 254.681 216.945 254.714 217.644 254.905C225.411 257.321 232.065 255.9 238.252 252.831C251.477 246.269 262.546 232.174 277.753 232.174C278.338 232.174 278.915 232.174 279.475 232.224C302.097 233.587 308.986 261.693 326.508 261.693C331.691 261.693 336.415 259.453 340.536 256.267C345.536 252.363 349.657 247.038 352.525 242.666Z" fill="#47F6AC"/>
<path opacity="0.5" d="M355.384 258.424L353.712 282.008C353.57 283.972 352.081 285.578 350.368 285.578H212.57C210.898 285.578 209.627 283.972 209.769 282.008L213.113 235.142C213.339 231.931 217.544 230.577 219.249 233.177C223.647 239.865 230.41 248.551 238.193 252.831C241.022 254.482 244.223 255.389 247.498 255.465C258.633 255.465 268.105 242.264 279.416 232.224C286.347 226.071 293.971 221.105 303.092 221.105C322.128 221.105 324.937 252.037 340.478 256.267C343.471 257.103 346.94 256.911 351.087 255.323C351.577 255.111 352.114 255.03 352.645 255.088C353.176 255.146 353.683 255.34 354.116 255.653C354.549 255.966 354.894 256.385 355.116 256.871C355.338 257.357 355.43 257.892 355.384 258.424Z" fill="#47F6AC"/>
<g opacity="0.8">
<path d="M356.061 249.278C355.986 249.276 355.915 249.246 355.86 249.195C355.833 249.17 355.813 249.138 355.802 249.103C355.794 249.067 355.794 249.03 355.802 248.994C355.801 248.957 355.808 248.92 355.823 248.885C355.837 248.851 355.858 248.82 355.885 248.794C355.939 248.741 356.011 248.711 356.086 248.711C356.161 248.711 356.233 248.741 356.287 248.794C356.314 248.819 356.336 248.85 356.35 248.885C356.365 248.919 356.372 248.957 356.37 248.994C356.374 249.03 356.374 249.067 356.37 249.103C356.353 249.137 356.33 249.168 356.303 249.195C356.272 249.226 356.234 249.25 356.192 249.265C356.15 249.279 356.105 249.284 356.061 249.278Z" fill="white"/>
<path d="M222.075 268.866C222 268.866 221.928 268.836 221.874 268.783C221.821 268.729 221.791 268.657 221.791 268.582C221.793 268.508 221.824 268.438 221.877 268.386C221.93 268.335 222.001 268.306 222.075 268.306C222.151 268.306 222.223 268.336 222.276 268.389C222.33 268.442 222.36 268.515 222.36 268.59C222.36 268.666 222.33 268.739 222.277 268.794C222.224 268.849 222.151 268.881 222.075 268.883V268.866ZM219.208 268.707C219.17 268.705 219.133 268.695 219.099 268.678C219.065 268.662 219.035 268.638 219.011 268.609C218.987 268.58 218.969 268.546 218.958 268.51C218.947 268.473 218.944 268.435 218.949 268.398C218.953 268.36 218.964 268.324 218.983 268.291C219.001 268.258 219.025 268.229 219.055 268.206C219.085 268.183 219.119 268.165 219.155 268.155C219.191 268.145 219.229 268.142 219.266 268.147C219.34 268.155 219.408 268.193 219.455 268.25C219.502 268.308 219.524 268.382 219.517 268.456C219.509 268.527 219.476 268.592 219.424 268.639C219.371 268.687 219.304 268.714 219.233 268.715L219.208 268.707ZM224.617 268.456C224.612 268.419 224.615 268.381 224.625 268.345C224.635 268.308 224.652 268.275 224.676 268.245C224.699 268.215 224.728 268.191 224.761 268.173C224.794 268.154 224.83 268.143 224.868 268.139C224.905 268.134 224.943 268.137 224.979 268.147C225.015 268.157 225.049 268.174 225.079 268.198C225.108 268.221 225.133 268.25 225.151 268.283C225.17 268.316 225.181 268.352 225.185 268.389C225.19 268.427 225.187 268.465 225.177 268.501C225.167 268.537 225.15 268.571 225.126 268.601C225.103 268.63 225.074 268.655 225.041 268.673C225.008 268.691 224.972 268.703 224.934 268.707C224.897 268.712 224.859 268.709 224.823 268.699C224.787 268.689 224.753 268.671 224.723 268.648C224.694 268.625 224.669 268.596 224.651 268.563C224.632 268.53 224.621 268.494 224.617 268.456ZM216.382 268.272C216.308 268.254 216.244 268.209 216.202 268.145C216.16 268.082 216.144 268.005 216.156 267.93C216.174 267.856 216.22 267.791 216.283 267.749C216.347 267.707 216.424 267.691 216.499 267.704C216.573 267.722 216.638 267.767 216.68 267.831C216.721 267.894 216.738 267.972 216.725 268.047C216.71 268.111 216.674 268.168 216.622 268.209C216.57 268.25 216.507 268.272 216.441 268.272H216.382ZM227.409 267.988C227.399 267.951 227.397 267.913 227.402 267.875C227.407 267.837 227.42 267.801 227.439 267.768C227.459 267.736 227.484 267.707 227.515 267.684C227.546 267.662 227.581 267.646 227.618 267.637C227.691 267.622 227.767 267.635 227.831 267.673C227.895 267.712 227.941 267.774 227.961 267.846C227.979 267.92 227.967 267.999 227.928 268.064C227.889 268.13 227.825 268.177 227.752 268.197H227.685C227.619 268.203 227.554 268.185 227.5 268.147C227.446 268.109 227.408 268.052 227.392 267.988H227.409ZM318.842 268.105C318.767 268.105 318.695 268.075 318.641 268.022C318.588 267.969 318.558 267.896 318.558 267.821C318.558 267.746 318.588 267.673 318.641 267.62C318.695 267.567 318.767 267.537 318.842 267.537C318.918 267.537 318.99 267.567 319.043 267.62C319.097 267.673 319.127 267.746 319.127 267.821C319.127 267.896 319.097 267.969 319.043 268.022C318.99 268.075 318.918 268.105 318.842 268.105ZM321.392 267.704C321.387 267.667 321.39 267.63 321.401 267.594C321.411 267.558 321.428 267.525 321.452 267.496C321.475 267.467 321.504 267.443 321.537 267.426C321.57 267.408 321.606 267.398 321.643 267.395C321.68 267.389 321.719 267.391 321.756 267.4C321.792 267.41 321.827 267.427 321.857 267.451C321.886 267.474 321.911 267.504 321.929 267.537C321.947 267.571 321.958 267.608 321.961 267.645C321.968 267.722 321.944 267.798 321.896 267.857C321.847 267.917 321.778 267.955 321.701 267.963C321.626 267.968 321.553 267.944 321.495 267.895C321.437 267.847 321.401 267.779 321.392 267.704ZM315.983 267.93C315.946 267.926 315.91 267.914 315.878 267.896C315.845 267.877 315.817 267.852 315.794 267.823C315.771 267.793 315.755 267.759 315.746 267.723C315.737 267.687 315.735 267.649 315.741 267.612C315.745 267.575 315.756 267.538 315.775 267.505C315.793 267.472 315.818 267.443 315.847 267.42C315.877 267.397 315.911 267.38 315.947 267.369C315.983 267.359 316.021 267.357 316.058 267.361C316.133 267.372 316.201 267.41 316.248 267.47C316.294 267.529 316.316 267.604 316.309 267.679C316.301 267.749 316.268 267.814 316.216 267.862C316.163 267.909 316.096 267.936 316.025 267.938L315.983 267.93ZM213.607 267.587C213.57 267.577 213.536 267.56 213.506 267.537C213.477 267.515 213.452 267.486 213.433 267.453C213.414 267.421 213.402 267.385 213.398 267.347C213.393 267.31 213.396 267.272 213.406 267.236C213.429 267.163 213.479 267.102 213.546 267.064C213.613 267.027 213.691 267.017 213.765 267.035C213.838 267.058 213.899 267.109 213.935 267.176C213.97 267.243 213.979 267.321 213.958 267.395C213.941 267.454 213.905 267.506 213.855 267.543C213.804 267.579 213.744 267.598 213.682 267.595H213.607V267.587ZM324.201 267.311C324.193 267.274 324.192 267.236 324.199 267.199C324.206 267.161 324.22 267.126 324.241 267.095C324.262 267.063 324.29 267.037 324.322 267.016C324.354 266.996 324.389 266.983 324.427 266.977C324.464 266.969 324.501 266.969 324.538 266.977C324.575 266.984 324.61 266.999 324.641 267.02C324.672 267.041 324.699 267.068 324.719 267.099C324.74 267.13 324.754 267.165 324.761 267.202C324.768 267.239 324.768 267.277 324.761 267.314C324.754 267.351 324.739 267.385 324.718 267.417C324.697 267.448 324.67 267.474 324.639 267.495C324.607 267.515 324.572 267.53 324.535 267.537H324.485C324.419 267.537 324.356 267.514 324.304 267.473C324.252 267.432 324.216 267.375 324.201 267.311ZM313.174 267.411C313.137 267.405 313.101 267.39 313.07 267.369C313.039 267.347 313.012 267.32 312.992 267.287C312.973 267.255 312.96 267.218 312.955 267.181C312.951 267.143 312.954 267.105 312.965 267.069C312.983 266.995 313.029 266.932 313.093 266.893C313.158 266.854 313.235 266.842 313.308 266.86C313.381 266.877 313.444 266.923 313.483 266.988C313.523 267.052 313.535 267.129 313.517 267.202C313.502 267.264 313.467 267.319 313.417 267.359C313.367 267.398 313.305 267.42 313.241 267.42H313.174V267.411ZM230.118 267.177C230.103 267.142 230.096 267.105 230.096 267.067C230.097 267.029 230.105 266.991 230.121 266.957C230.137 266.922 230.159 266.891 230.188 266.866C230.216 266.841 230.249 266.821 230.285 266.809C230.355 266.782 230.433 266.783 230.501 266.813C230.57 266.843 230.625 266.899 230.653 266.968C230.666 267.003 230.672 267.041 230.671 267.078C230.67 267.116 230.661 267.153 230.646 267.187C230.63 267.221 230.608 267.252 230.581 267.278C230.553 267.303 230.521 267.323 230.485 267.336C230.452 267.344 230.418 267.344 230.385 267.336C230.33 267.337 230.276 267.323 230.229 267.295C230.181 267.267 230.143 267.226 230.118 267.177ZM326.968 266.684C326.957 266.647 326.953 266.609 326.957 266.57C326.961 266.532 326.973 266.495 326.992 266.461C327.01 266.428 327.036 266.398 327.066 266.375C327.097 266.351 327.132 266.334 327.169 266.325C327.205 266.314 327.243 266.312 327.28 266.316C327.318 266.321 327.354 266.333 327.386 266.352C327.419 266.37 327.448 266.395 327.471 266.425C327.493 266.455 327.51 266.489 327.52 266.525C327.53 266.561 327.533 266.599 327.528 266.637C327.524 266.674 327.512 266.71 327.493 266.743C327.474 266.775 327.449 266.804 327.42 266.827C327.39 266.85 327.356 266.867 327.319 266.876H327.244C327.184 266.878 327.124 266.86 327.075 266.825C327.025 266.791 326.988 266.741 326.968 266.684ZM310.432 266.584C310.361 266.559 310.303 266.507 310.27 266.44C310.238 266.373 310.233 266.295 310.257 266.224C310.283 266.153 310.336 266.095 310.405 266.062C310.474 266.029 310.552 266.024 310.624 266.049C310.696 266.075 310.754 266.128 310.787 266.197C310.82 266.266 310.824 266.344 310.8 266.416C310.778 266.471 310.74 266.518 310.691 266.551C310.641 266.584 310.583 266.601 310.524 266.6C310.492 266.604 310.461 266.598 310.432 266.584ZM232.684 266.049C232.667 266.015 232.656 265.979 232.653 265.941C232.65 265.904 232.655 265.866 232.667 265.83C232.678 265.794 232.697 265.761 232.721 265.733C232.746 265.704 232.776 265.681 232.81 265.664C232.878 265.632 232.957 265.628 233.029 265.653C233.101 265.678 233.16 265.73 233.194 265.798C233.211 265.831 233.222 265.867 233.224 265.903C233.227 265.94 233.223 265.977 233.211 266.013C233.199 266.048 233.181 266.08 233.156 266.108C233.132 266.136 233.102 266.158 233.069 266.174C233.025 266.187 232.979 266.187 232.935 266.174C232.892 266.171 232.849 266.158 232.812 266.137C232.774 266.115 232.742 266.085 232.718 266.049H232.684ZM329.66 265.848C329.647 265.813 329.641 265.777 329.642 265.74C329.643 265.703 329.652 265.666 329.668 265.633C329.683 265.599 329.705 265.569 329.733 265.544C329.76 265.52 329.792 265.501 329.827 265.489C329.898 265.467 329.975 265.473 330.042 265.505C330.109 265.538 330.16 265.595 330.187 265.664C330.211 265.736 330.206 265.815 330.174 265.884C330.141 265.952 330.083 266.005 330.011 266.032H329.919C329.867 266.026 329.818 266.006 329.776 265.973C329.735 265.941 329.703 265.897 329.685 265.848H329.66ZM307.765 265.497C307.731 265.482 307.701 265.46 307.675 265.432C307.649 265.405 307.629 265.373 307.616 265.338C307.603 265.303 307.597 265.266 307.598 265.229C307.599 265.191 307.608 265.155 307.623 265.121C307.656 265.053 307.713 265.001 307.783 264.975C307.853 264.948 307.93 264.95 307.999 264.979C308.034 264.994 308.066 265.016 308.092 265.044C308.119 265.072 308.139 265.105 308.152 265.141C308.166 265.176 308.172 265.215 308.17 265.253C308.168 265.291 308.158 265.329 308.142 265.363C308.118 265.412 308.082 265.454 308.036 265.484C307.99 265.513 307.937 265.529 307.882 265.53C307.849 265.527 307.818 265.516 307.79 265.497H307.765ZM332.31 264.845C332.295 264.81 332.288 264.773 332.288 264.736C332.288 264.698 332.296 264.661 332.311 264.627C332.325 264.592 332.347 264.561 332.374 264.536C332.402 264.51 332.434 264.49 332.469 264.477C332.503 264.461 332.54 264.452 332.577 264.451C332.615 264.449 332.652 264.456 332.686 264.47C332.721 264.485 332.752 264.506 332.778 264.533C332.804 264.56 332.824 264.592 332.837 264.627C332.852 264.662 332.86 264.699 332.861 264.737C332.861 264.775 332.854 264.812 332.84 264.847C332.826 264.882 332.806 264.914 332.779 264.941C332.753 264.968 332.721 264.989 332.686 265.004C332.651 265.012 332.614 265.012 332.578 265.004C332.527 265 332.478 264.984 332.436 264.956C332.393 264.929 332.358 264.89 332.335 264.845H332.31ZM235.167 264.678C235.126 264.612 235.113 264.533 235.131 264.458C235.148 264.383 235.194 264.318 235.259 264.276C235.291 264.256 235.326 264.243 235.363 264.237C235.4 264.231 235.438 264.232 235.475 264.24C235.511 264.249 235.546 264.265 235.576 264.287C235.607 264.309 235.632 264.336 235.652 264.368C235.672 264.4 235.685 264.436 235.691 264.473C235.698 264.51 235.696 264.547 235.688 264.584C235.679 264.62 235.664 264.655 235.642 264.685C235.62 264.716 235.592 264.742 235.56 264.761C235.517 264.794 235.464 264.811 235.41 264.811C235.366 264.806 235.324 264.792 235.286 264.769C235.248 264.746 235.216 264.714 235.192 264.678H235.167ZM305.215 264.218C305.148 264.181 305.099 264.119 305.077 264.045C305.055 263.972 305.063 263.893 305.098 263.825C305.137 263.759 305.2 263.711 305.273 263.691C305.346 263.671 305.425 263.68 305.491 263.716C305.556 263.753 305.604 263.814 305.625 263.886C305.645 263.958 305.636 264.035 305.6 264.101C305.575 264.146 305.539 264.183 305.495 264.21C305.451 264.236 305.401 264.25 305.349 264.251C305.312 264.245 305.275 264.234 305.241 264.218H305.215ZM334.91 263.699C334.879 263.632 334.875 263.554 334.9 263.484C334.925 263.414 334.977 263.356 335.044 263.323C335.113 263.291 335.192 263.287 335.263 263.312C335.335 263.337 335.394 263.389 335.429 263.457C335.444 263.491 335.452 263.528 335.454 263.565C335.455 263.602 335.449 263.64 335.435 263.675C335.422 263.71 335.402 263.742 335.377 263.769C335.351 263.796 335.32 263.818 335.286 263.833H335.161C335.115 263.831 335.071 263.817 335.032 263.794C334.993 263.771 334.959 263.738 334.935 263.699H334.91ZM237.525 263.106C237.481 263.043 237.464 262.967 237.477 262.892C237.489 262.817 237.53 262.75 237.591 262.705C237.653 262.661 237.729 262.642 237.804 262.653C237.879 262.664 237.946 262.703 237.993 262.763C238.036 262.826 238.053 262.902 238.04 262.977C238.028 263.052 237.987 263.119 237.926 263.164C237.877 263.2 237.819 263.22 237.759 263.223C237.718 263.219 237.678 263.207 237.642 263.187C237.606 263.167 237.574 263.139 237.55 263.106H237.525ZM302.733 262.788C302.701 262.769 302.673 262.744 302.652 262.715C302.63 262.685 302.614 262.651 302.605 262.615C302.597 262.58 302.596 262.542 302.602 262.506C302.608 262.47 302.621 262.435 302.641 262.404C302.658 262.37 302.682 262.341 302.711 262.318C302.74 262.294 302.774 262.277 302.811 262.268C302.847 262.259 302.885 262.257 302.922 262.263C302.959 262.269 302.994 262.283 303.025 262.303C303.058 262.322 303.086 262.348 303.109 262.378C303.132 262.408 303.148 262.442 303.158 262.479C303.167 262.515 303.169 262.553 303.164 262.591C303.158 262.628 303.145 262.664 303.126 262.696C303.1 262.738 303.065 262.774 303.022 262.798C302.98 262.823 302.932 262.837 302.883 262.838C302.844 262.829 302.807 262.812 302.774 262.788H302.733ZM337.435 262.429C337.399 262.362 337.392 262.284 337.414 262.212C337.436 262.14 337.485 262.08 337.552 262.044C337.619 262.011 337.696 262.004 337.768 262.026C337.839 262.048 337.9 262.096 337.937 262.161C337.972 262.229 337.98 262.308 337.958 262.382C337.936 262.455 337.887 262.517 337.819 262.554C337.775 262.562 337.73 262.562 337.686 262.554C337.644 262.55 337.603 262.537 337.567 262.515C337.531 262.493 337.5 262.464 337.477 262.429H337.435ZM239.782 261.392C239.758 261.363 239.74 261.33 239.73 261.294C239.719 261.258 239.715 261.22 239.719 261.183C239.723 261.145 239.734 261.109 239.752 261.076C239.77 261.043 239.794 261.014 239.824 260.991C239.883 260.945 239.958 260.924 240.033 260.932C240.107 260.939 240.176 260.976 240.225 261.033C240.277 261.088 240.305 261.161 240.305 261.237C240.305 261.313 240.277 261.387 240.225 261.442C240.172 261.481 240.107 261.502 240.041 261.501C239.998 261.503 239.956 261.494 239.918 261.475C239.88 261.456 239.848 261.427 239.824 261.392H239.782ZM300.325 261.267C300.262 261.226 300.217 261.161 300.202 261.088C300.186 261.014 300.2 260.937 300.241 260.874C300.284 260.81 300.35 260.766 300.425 260.75C300.5 260.734 300.578 260.749 300.643 260.79C300.704 260.833 300.747 260.897 300.762 260.97C300.778 261.043 300.765 261.119 300.726 261.183C300.701 261.224 300.665 261.258 300.622 261.282C300.58 261.305 300.532 261.317 300.484 261.317C300.442 261.308 300.402 261.291 300.367 261.267H300.325ZM339.918 261.058C339.898 261.025 339.885 260.99 339.88 260.952C339.874 260.915 339.876 260.877 339.886 260.84C339.895 260.804 339.911 260.769 339.934 260.739C339.957 260.709 339.986 260.684 340.018 260.665C340.084 260.628 340.162 260.617 340.235 260.636C340.308 260.655 340.371 260.701 340.411 260.765C340.448 260.831 340.459 260.909 340.44 260.982C340.421 261.055 340.375 261.118 340.311 261.158C340.265 261.183 340.213 261.198 340.16 261.2C340.118 261.193 340.079 261.176 340.044 261.152C340.009 261.127 339.98 261.095 339.96 261.058H339.918ZM297.959 259.687C297.897 259.643 297.854 259.576 297.84 259.501C297.826 259.426 297.842 259.349 297.884 259.285C297.929 259.225 297.995 259.183 298.07 259.169C298.144 259.155 298.221 259.17 298.285 259.21C298.346 259.255 298.387 259.322 298.401 259.396C298.415 259.47 298.401 259.547 298.36 259.611C298.333 259.65 298.297 259.682 298.255 259.704C298.212 259.726 298.165 259.737 298.118 259.737C298.076 259.729 298.036 259.712 298.001 259.687H297.959ZM342.342 259.586C342.304 259.52 342.292 259.442 342.309 259.368C342.326 259.293 342.371 259.228 342.434 259.185C342.466 259.165 342.501 259.152 342.538 259.146C342.575 259.139 342.613 259.141 342.65 259.149C342.686 259.158 342.721 259.173 342.751 259.195C342.782 259.217 342.807 259.245 342.827 259.277C342.847 259.309 342.86 259.344 342.867 259.381C342.873 259.418 342.872 259.456 342.863 259.493C342.854 259.529 342.839 259.564 342.817 259.594C342.795 259.625 342.767 259.65 342.735 259.67C342.692 259.704 342.639 259.721 342.585 259.72C342.544 259.713 342.505 259.697 342.47 259.674C342.436 259.651 342.406 259.621 342.384 259.586H342.342ZM242.022 259.586C241.971 259.532 241.943 259.46 241.943 259.386C241.943 259.311 241.971 259.239 242.022 259.185C242.078 259.133 242.151 259.105 242.227 259.105C242.303 259.105 242.376 259.133 242.432 259.185C242.485 259.238 242.515 259.311 242.515 259.386C242.515 259.461 242.485 259.533 242.432 259.586C242.407 259.609 242.378 259.627 242.347 259.638C242.315 259.65 242.282 259.655 242.248 259.653C242.209 259.661 242.169 259.66 242.13 259.651C242.091 259.643 242.055 259.626 242.022 259.603V259.586ZM344.767 258.015C344.724 257.952 344.706 257.875 344.719 257.801C344.731 257.726 344.773 257.659 344.834 257.613C344.865 257.591 344.9 257.576 344.937 257.568C344.974 257.56 345.013 257.559 345.05 257.566C345.088 257.573 345.123 257.588 345.155 257.609C345.187 257.63 345.214 257.657 345.235 257.689C345.277 257.751 345.292 257.827 345.278 257.901C345.264 257.974 345.221 258.039 345.16 258.082C345.113 258.113 345.057 258.131 345.001 258.132C344.957 258.134 344.912 258.127 344.872 258.109C344.831 258.092 344.795 258.065 344.767 258.031V258.015ZM295.652 258.082C295.62 258.061 295.593 258.035 295.572 258.004C295.551 257.973 295.537 257.938 295.53 257.901C295.523 257.865 295.523 257.827 295.531 257.79C295.539 257.754 295.555 257.719 295.576 257.689C295.617 257.625 295.682 257.581 295.756 257.566C295.829 257.55 295.906 257.564 295.969 257.605C296.001 257.626 296.028 257.653 296.049 257.685C296.07 257.717 296.085 257.752 296.092 257.79C296.099 257.827 296.098 257.866 296.09 257.903C296.082 257.94 296.067 257.975 296.045 258.006C296.02 258.046 295.985 258.078 295.944 258.1C295.903 258.122 295.857 258.133 295.811 258.132C295.755 258.136 295.7 258.124 295.652 258.098V258.082ZM244.204 257.764C244.177 257.738 244.155 257.707 244.14 257.672C244.125 257.638 244.118 257.601 244.118 257.563C244.118 257.526 244.125 257.489 244.14 257.454C244.155 257.419 244.177 257.388 244.204 257.363C244.258 257.311 244.33 257.283 244.405 257.283C244.479 257.283 244.551 257.311 244.606 257.363C244.659 257.416 244.688 257.488 244.688 257.563C244.688 257.638 244.659 257.711 244.606 257.764C244.555 257.809 244.489 257.833 244.422 257.831C244.384 257.839 244.345 257.838 244.307 257.829C244.27 257.821 244.235 257.804 244.204 257.781V257.764ZM293.294 256.51C293.262 256.49 293.234 256.464 293.212 256.434C293.191 256.403 293.175 256.368 293.167 256.331C293.16 256.295 293.159 256.257 293.167 256.22C293.174 256.183 293.189 256.148 293.211 256.117C293.23 256.085 293.256 256.057 293.287 256.035C293.317 256.013 293.352 255.998 293.389 255.99C293.426 255.982 293.464 255.982 293.501 255.99C293.538 255.997 293.573 256.012 293.603 256.033C293.667 256.074 293.711 256.139 293.727 256.213C293.742 256.286 293.728 256.363 293.687 256.426C293.662 256.466 293.628 256.498 293.587 256.52C293.546 256.542 293.5 256.553 293.453 256.552C293.399 256.56 293.343 256.551 293.294 256.527V256.51ZM347.091 256.376C347.068 256.347 347.052 256.313 347.042 256.277C347.033 256.241 347.031 256.204 347.036 256.167C347.042 256.131 347.055 256.095 347.074 256.064C347.094 256.032 347.119 256.005 347.149 255.983C347.211 255.939 347.287 255.921 347.362 255.932C347.436 255.943 347.504 255.982 347.551 256.042C347.594 256.104 347.611 256.181 347.598 256.256C347.586 256.331 347.545 256.398 347.484 256.443C347.434 256.476 347.376 256.493 347.316 256.493C347.273 256.497 347.23 256.489 347.191 256.472C347.151 256.454 347.117 256.427 347.091 256.393V256.376ZM246.386 255.95C246.333 255.896 246.303 255.824 246.303 255.749C246.303 255.674 246.333 255.602 246.386 255.548C246.446 255.503 246.52 255.481 246.595 255.489C246.67 255.497 246.739 255.533 246.787 255.59C246.811 255.619 246.829 255.653 246.84 255.689C246.85 255.725 246.854 255.762 246.85 255.8C246.846 255.837 246.835 255.873 246.817 255.906C246.799 255.939 246.775 255.968 246.746 255.992C246.721 256.014 246.692 256.032 246.66 256.044C246.629 256.055 246.595 256.06 246.562 256.058C246.494 256.051 246.431 256.018 246.386 255.966V255.95ZM290.928 254.98C290.896 254.96 290.869 254.935 290.847 254.904C290.825 254.874 290.809 254.839 290.8 254.803C290.792 254.766 290.791 254.728 290.797 254.691C290.803 254.654 290.816 254.619 290.836 254.587C290.856 254.555 290.882 254.527 290.912 254.505C290.943 254.484 290.977 254.468 291.014 254.459C291.05 254.451 291.088 254.449 291.125 254.456C291.162 254.462 291.197 254.475 291.229 254.495C291.261 254.515 291.289 254.541 291.311 254.571C291.333 254.601 291.348 254.636 291.357 254.672C291.366 254.709 291.367 254.747 291.361 254.784C291.354 254.821 291.341 254.856 291.321 254.888C291.296 254.93 291.261 254.965 291.218 254.99C291.176 255.015 291.128 255.029 291.079 255.03C291.024 255.03 290.972 255.013 290.928 254.98ZM349.381 254.679C349.358 254.65 349.341 254.616 349.331 254.579C349.321 254.543 349.318 254.505 349.323 254.468C349.327 254.431 349.339 254.395 349.358 254.362C349.377 254.329 349.402 254.301 349.432 254.278C349.461 254.254 349.495 254.237 349.531 254.227C349.567 254.217 349.605 254.214 349.643 254.219C349.68 254.224 349.716 254.236 349.749 254.254C349.781 254.273 349.81 254.298 349.833 254.328C349.876 254.389 349.894 254.464 349.885 254.538C349.876 254.612 349.839 254.681 349.783 254.729C349.736 254.768 349.676 254.788 349.615 254.788C349.569 254.794 349.522 254.789 349.479 254.773C349.435 254.757 349.396 254.73 349.365 254.696L349.381 254.679ZM248.627 254.194C248.583 254.133 248.564 254.057 248.575 253.982C248.586 253.907 248.625 253.839 248.685 253.793C248.747 253.749 248.823 253.73 248.898 253.741C248.972 253.752 249.04 253.792 249.086 253.851C249.13 253.913 249.149 253.989 249.138 254.064C249.127 254.139 249.088 254.206 249.028 254.253C248.979 254.288 248.921 254.308 248.861 254.311C248.814 254.316 248.767 254.309 248.723 254.292C248.679 254.274 248.641 254.247 248.61 254.211L248.627 254.194ZM288.496 253.534C288.463 253.515 288.434 253.489 288.412 253.459C288.389 253.429 288.372 253.395 288.363 253.358C288.354 253.322 288.352 253.284 288.357 253.246C288.363 253.209 288.376 253.173 288.395 253.141C288.413 253.108 288.438 253.08 288.467 253.057C288.497 253.035 288.53 253.018 288.566 253.009C288.602 253 288.639 252.997 288.676 253.003C288.713 253.008 288.748 253.021 288.78 253.04C288.813 253.058 288.842 253.082 288.865 253.111C288.889 253.14 288.906 253.174 288.917 253.209C288.927 253.245 288.929 253.283 288.925 253.32C288.92 253.357 288.907 253.393 288.888 253.425C288.863 253.47 288.827 253.507 288.783 253.534C288.739 253.56 288.689 253.575 288.638 253.576C288.583 253.58 288.529 253.571 288.479 253.55L288.496 253.534ZM351.597 252.907C351.573 252.878 351.555 252.844 351.545 252.808C351.534 252.772 351.53 252.735 351.534 252.697C351.538 252.66 351.549 252.624 351.567 252.591C351.585 252.558 351.609 252.529 351.639 252.505C351.668 252.482 351.701 252.464 351.737 252.453C351.773 252.442 351.811 252.439 351.848 252.443C351.885 252.447 351.921 252.458 351.954 252.476C351.987 252.494 352.016 252.518 352.04 252.547C352.091 252.602 352.119 252.673 352.119 252.748C352.119 252.822 352.091 252.894 352.04 252.949C351.987 252.989 351.923 253.012 351.856 253.015C351.806 253.026 351.754 253.024 351.705 253.007C351.657 252.991 351.613 252.962 351.58 252.923L351.597 252.907ZM250.934 252.539C250.912 252.508 250.896 252.473 250.888 252.435C250.88 252.398 250.88 252.36 250.887 252.322C250.894 252.285 250.908 252.249 250.929 252.218C250.95 252.186 250.978 252.159 251.009 252.138C251.074 252.096 251.152 252.082 251.227 252.097C251.302 252.113 251.368 252.157 251.411 252.221C251.452 252.284 251.466 252.361 251.45 252.435C251.434 252.509 251.39 252.573 251.327 252.614C251.28 252.647 251.225 252.664 251.168 252.664C251.121 252.668 251.073 252.66 251.029 252.641C250.986 252.622 250.947 252.593 250.917 252.556L250.934 252.539ZM286.046 252.188C285.98 252.152 285.93 252.092 285.908 252.02C285.886 251.948 285.894 251.87 285.929 251.803C285.946 251.77 285.969 251.74 285.998 251.715C286.026 251.69 286.059 251.672 286.095 251.66C286.131 251.648 286.169 251.644 286.206 251.647C286.244 251.65 286.28 251.661 286.314 251.678C286.379 251.716 286.428 251.778 286.451 251.85C286.474 251.923 286.47 252.001 286.439 252.071C286.412 252.116 286.374 252.153 286.329 252.179C286.283 252.206 286.232 252.22 286.18 252.221C286.118 252.238 286.053 252.232 285.996 252.204L286.046 252.188ZM353.762 251.076C353.709 251.023 353.679 250.95 353.679 250.875C353.679 250.8 353.709 250.728 353.762 250.675C353.816 250.623 353.888 250.595 353.963 250.595C354.037 250.595 354.109 250.623 354.163 250.675C354.214 250.729 354.243 250.801 354.243 250.875C354.243 250.95 354.214 251.022 354.163 251.076C354.139 251.1 354.11 251.119 354.079 251.132C354.047 251.145 354.013 251.151 353.979 251.151C353.94 251.158 353.899 251.156 353.86 251.146C353.821 251.136 353.785 251.118 353.754 251.093L353.762 251.076ZM253.308 251.042C253.289 251.01 253.277 250.973 253.272 250.936C253.267 250.898 253.269 250.86 253.28 250.823C253.29 250.786 253.307 250.752 253.331 250.722C253.354 250.693 253.384 250.668 253.417 250.65C253.482 250.613 253.56 250.605 253.632 250.625C253.704 250.645 253.765 250.693 253.802 250.758C253.821 250.791 253.833 250.827 253.838 250.865C253.843 250.903 253.84 250.941 253.83 250.978C253.82 251.014 253.803 251.049 253.779 251.078C253.755 251.108 253.726 251.133 253.693 251.151C253.646 251.162 253.597 251.162 253.551 251.151C253.505 251.154 253.458 251.146 253.416 251.127C253.374 251.108 253.337 251.079 253.308 251.042ZM283.446 250.992C283.412 250.977 283.381 250.955 283.356 250.928C283.33 250.901 283.31 250.869 283.297 250.834C283.284 250.799 283.278 250.762 283.279 250.724C283.28 250.687 283.289 250.65 283.304 250.616C283.319 250.582 283.341 250.551 283.368 250.526C283.396 250.5 283.428 250.48 283.463 250.467C283.498 250.454 283.535 250.448 283.572 250.449C283.609 250.45 283.646 250.459 283.68 250.474C283.715 250.488 283.746 250.51 283.773 250.537C283.799 250.564 283.819 250.596 283.833 250.631C283.846 250.667 283.852 250.704 283.85 250.742C283.848 250.779 283.839 250.816 283.822 250.85C283.8 250.9 283.763 250.942 283.717 250.972C283.671 251.002 283.618 251.017 283.563 251.017C283.526 251.016 283.489 251.008 283.454 250.992H283.446ZM280.846 249.964C280.81 249.952 280.777 249.933 280.749 249.907C280.721 249.882 280.698 249.851 280.682 249.817C280.667 249.782 280.658 249.745 280.658 249.707C280.657 249.669 280.664 249.631 280.679 249.596C280.707 249.526 280.761 249.47 280.829 249.439C280.898 249.408 280.976 249.404 281.047 249.429C281.117 249.457 281.173 249.511 281.204 249.579C281.235 249.648 281.239 249.726 281.214 249.797C281.195 249.852 281.158 249.899 281.11 249.932C281.062 249.965 281.005 249.982 280.946 249.981C280.912 249.983 280.878 249.978 280.846 249.964ZM255.816 249.73C255.787 249.661 255.786 249.584 255.812 249.514C255.839 249.444 255.891 249.386 255.958 249.354C255.993 249.337 256.03 249.327 256.069 249.326C256.107 249.324 256.145 249.33 256.181 249.343C256.217 249.356 256.25 249.377 256.278 249.403C256.305 249.429 256.328 249.461 256.343 249.496C256.358 249.53 256.366 249.568 256.367 249.605C256.367 249.643 256.361 249.68 256.346 249.715C256.332 249.75 256.312 249.782 256.285 249.809C256.259 249.836 256.227 249.857 256.192 249.872C256.154 249.881 256.114 249.881 256.075 249.872C256.023 249.874 255.972 249.862 255.926 249.837C255.88 249.812 255.842 249.775 255.816 249.73ZM278.163 249.053C278.09 249.03 278.029 248.979 277.994 248.912C277.958 248.845 277.949 248.766 277.97 248.693C277.993 248.621 278.044 248.56 278.111 248.524C278.178 248.488 278.257 248.48 278.33 248.501C278.402 248.524 278.463 248.575 278.499 248.642C278.535 248.709 278.543 248.787 278.522 248.86C278.503 248.919 278.466 248.969 278.416 249.005C278.367 249.041 278.307 249.061 278.246 249.061H278.163V249.053ZM258.441 248.66C258.43 248.624 258.425 248.587 258.428 248.549C258.431 248.512 258.441 248.475 258.458 248.442C258.475 248.408 258.499 248.379 258.528 248.354C258.556 248.33 258.589 248.312 258.625 248.3C258.661 248.289 258.699 248.284 258.736 248.287C258.773 248.29 258.81 248.3 258.843 248.317C258.877 248.334 258.906 248.358 258.931 248.387C258.955 248.415 258.973 248.449 258.985 248.484C258.996 248.52 259.001 248.558 258.998 248.595C258.995 248.632 258.985 248.669 258.968 248.702C258.951 248.736 258.927 248.765 258.898 248.79C258.87 248.814 258.837 248.832 258.801 248.844H258.709C258.652 248.842 258.597 248.824 258.551 248.791C258.505 248.759 258.47 248.713 258.45 248.66H258.441ZM275.437 248.359C275.364 248.343 275.301 248.299 275.26 248.236C275.219 248.174 275.205 248.098 275.22 248.024C275.227 247.987 275.241 247.951 275.262 247.92C275.284 247.888 275.311 247.861 275.344 247.841C275.376 247.82 275.412 247.807 275.45 247.801C275.487 247.795 275.526 247.797 275.563 247.807C275.599 247.814 275.634 247.828 275.665 247.849C275.696 247.87 275.722 247.897 275.743 247.928C275.763 247.959 275.777 247.994 275.783 248.031C275.79 248.068 275.789 248.105 275.78 248.142C275.766 248.206 275.73 248.264 275.679 248.306C275.627 248.347 275.562 248.369 275.496 248.367H275.437V248.359ZM261.158 247.882C261.15 247.845 261.149 247.806 261.156 247.769C261.163 247.731 261.177 247.695 261.198 247.663C261.219 247.631 261.246 247.603 261.278 247.582C261.31 247.561 261.346 247.547 261.384 247.54C261.457 247.525 261.533 247.539 261.596 247.58C261.658 247.62 261.702 247.684 261.718 247.757C261.727 247.794 261.728 247.832 261.722 247.869C261.716 247.906 261.702 247.942 261.682 247.974C261.661 248.006 261.635 248.033 261.604 248.055C261.573 248.077 261.538 248.092 261.501 248.1H261.443C261.379 248.098 261.318 248.076 261.268 248.037C261.219 247.998 261.183 247.944 261.167 247.882H261.158ZM272.67 247.882C272.595 247.87 272.528 247.829 272.483 247.768C272.438 247.707 272.418 247.631 272.428 247.556C272.432 247.519 272.443 247.483 272.462 247.451C272.48 247.418 272.505 247.39 272.534 247.367C272.564 247.344 272.598 247.328 272.634 247.319C272.671 247.31 272.708 247.308 272.745 247.314C272.82 247.326 272.887 247.367 272.932 247.428C272.978 247.489 272.997 247.565 272.988 247.64C272.976 247.707 272.941 247.768 272.889 247.812C272.837 247.857 272.772 247.881 272.703 247.882H272.662H272.67ZM263.951 247.406C263.944 247.332 263.966 247.258 264.013 247.2C264.06 247.142 264.127 247.105 264.201 247.097C264.239 247.091 264.277 247.093 264.314 247.102C264.351 247.112 264.385 247.129 264.415 247.153C264.445 247.176 264.469 247.206 264.487 247.239C264.505 247.273 264.516 247.309 264.519 247.347C264.526 247.424 264.503 247.5 264.454 247.559C264.406 247.619 264.336 247.657 264.26 247.665C264.185 247.667 264.112 247.641 264.056 247.591C264 247.541 263.965 247.472 263.959 247.397L263.951 247.406ZM269.869 247.59C269.832 247.589 269.795 247.58 269.76 247.564C269.726 247.548 269.696 247.525 269.67 247.497C269.645 247.469 269.626 247.436 269.615 247.4C269.603 247.364 269.598 247.326 269.602 247.289C269.604 247.251 269.614 247.215 269.63 247.181C269.646 247.148 269.669 247.117 269.697 247.093C269.725 247.068 269.757 247.049 269.793 247.036C269.828 247.024 269.866 247.019 269.903 247.021C269.979 247.028 270.05 247.064 270.1 247.121C270.15 247.179 270.175 247.254 270.17 247.331C270.166 247.403 270.134 247.471 270.081 247.521C270.029 247.571 269.959 247.598 269.886 247.598L269.869 247.59ZM266.776 247.222C266.775 247.184 266.782 247.147 266.796 247.112C266.809 247.077 266.83 247.045 266.857 247.018C266.884 246.992 266.915 246.971 266.95 246.957C266.985 246.943 267.023 246.937 267.06 246.938C267.136 246.938 267.208 246.968 267.261 247.021C267.315 247.074 267.345 247.147 267.345 247.222C267.345 247.297 267.315 247.37 267.261 247.423C267.208 247.476 267.136 247.506 267.06 247.506C267.023 247.505 266.986 247.497 266.952 247.481C266.918 247.466 266.888 247.444 266.862 247.417C266.836 247.39 266.816 247.358 266.803 247.323C266.79 247.288 266.783 247.251 266.785 247.214L266.776 247.222Z" fill="white"/>
<path d="M210.881 266.684C210.845 266.692 210.808 266.692 210.773 266.684C210.737 266.67 210.705 266.647 210.681 266.617C210.652 266.593 210.631 266.561 210.622 266.525C210.614 266.489 210.614 266.452 210.622 266.416C210.625 266.342 210.654 266.27 210.706 266.216C210.731 266.189 210.763 266.169 210.798 266.157C210.832 266.141 210.869 266.133 210.906 266.133C210.944 266.133 210.981 266.141 211.015 266.157C211.051 266.167 211.083 266.187 211.107 266.216C211.134 266.242 211.155 266.273 211.169 266.308C211.184 266.342 211.191 266.379 211.191 266.416C211.199 266.452 211.199 266.489 211.191 266.525C211.178 266.562 211.155 266.594 211.124 266.617C211.099 266.647 211.067 266.67 211.032 266.684C210.983 266.701 210.93 266.701 210.881 266.684Z" fill="white"/>
</g>
<path d="M256.719 181.086L254.771 178.979C251.254 182.307 246.605 184.177 241.763 184.213C237.921 184.273 234.18 182.979 231.196 180.558C228.213 178.137 226.176 174.743 225.444 170.97L222.518 171.739L219.843 172.442C220.603 176.391 222.454 180.049 225.185 183C233.671 192.146 248.71 192.146 258.508 183L256.719 181.086Z" fill="white"/>
<path d="M260.891 149.686L258.324 152.068L256.56 153.74C258.117 155.43 259.307 157.424 260.056 159.597C260.804 161.77 261.094 164.074 260.907 166.364C260.528 171.198 258.336 175.71 254.771 178.996L256.301 180.668L258.508 183.042C263.21 178.7 266.1 172.744 266.6 166.364C266.85 163.341 266.471 160.298 265.489 157.428C264.506 154.558 262.941 151.922 260.891 149.686Z" fill="#263238"/>
<path d="M260.891 149.686C252.405 140.548 237.366 140.548 227.576 149.686C224.478 152.522 222.146 156.095 220.799 160.074C219.451 164.052 219.131 168.306 219.868 172.442L223.212 171.606L225.503 171.004C225.21 169.481 225.12 167.927 225.235 166.381C225.641 161.558 227.826 157.059 231.364 153.758C234.902 150.456 239.541 148.588 244.38 148.515C246.674 148.49 248.948 148.943 251.058 149.844C253.168 150.744 255.067 152.074 256.635 153.749L258.893 151.634L260.891 149.686Z" fill="#47F6AC"/>
<path d="M284.909 181.086L287.158 178.979C285.605 177.289 284.42 175.295 283.676 173.124C282.932 170.953 282.646 168.651 282.836 166.364C283.179 162.346 284.753 158.532 287.345 155.442C289.936 152.352 293.418 150.138 297.315 149.101L296.747 146.225L296.237 143.6C292.123 144.696 288.343 146.793 285.235 149.703C275.437 158.84 274.367 173.88 282.844 183.025L284.909 181.086Z" fill="white"/>
<path d="M316.167 183.009L313.952 180.618L312.43 178.946C308.914 182.277 304.265 184.15 299.422 184.188C297.127 184.213 294.851 183.761 292.74 182.86C290.629 181.959 288.728 180.629 287.158 178.954L285.394 180.626L282.844 183.009C284.918 185.211 287.425 186.961 290.207 188.148C292.99 189.334 295.988 189.933 299.013 189.906C305.396 189.851 311.523 187.388 316.167 183.009Z" fill="#263238"/>
<path d="M316.167 183.009C325.957 173.863 327.035 158.823 318.558 149.686C315.741 146.739 312.176 144.614 308.244 143.539C304.312 142.464 300.161 142.479 296.237 143.583L296.872 146.835L297.315 149.084C298.838 148.684 300.406 148.482 301.98 148.482C304.28 148.448 306.56 148.898 308.675 149.802C310.789 150.706 312.69 152.045 314.254 153.731C315.818 155.417 317.01 157.413 317.753 159.589C318.496 161.765 318.773 164.074 318.566 166.364C318.185 171.195 315.993 175.703 312.43 178.988L314.386 181.103L316.167 183.009Z" fill="#47F6AC"/>
<path opacity="0.3" d="M355.651 144.887C355.881 144.887 356.108 144.933 356.319 145.025C356.53 145.116 356.72 145.25 356.877 145.418C357.034 145.585 357.154 145.784 357.231 146C357.308 146.217 357.339 146.447 357.323 146.676L356.287 161.097C356.238 161.607 356.004 162.081 355.63 162.431C355.256 162.78 354.767 162.981 354.255 162.995H339.826C339.595 162.996 339.367 162.949 339.155 162.857C338.944 162.765 338.754 162.631 338.597 162.462C338.44 162.293 338.319 162.094 338.243 161.876C338.167 161.658 338.136 161.427 338.154 161.198L339.182 146.777C339.231 146.268 339.465 145.794 339.839 145.446C340.213 145.098 340.702 144.899 341.213 144.887H355.634M355.634 144.143H341.23C340.532 144.157 339.863 144.428 339.352 144.905C338.841 145.382 338.525 146.03 338.463 146.726L337.435 161.147C337.407 161.477 337.448 161.81 337.556 162.123C337.663 162.436 337.835 162.723 338.06 162.966C338.285 163.21 338.558 163.403 338.862 163.535C339.166 163.666 339.494 163.733 339.826 163.731H354.247C354.946 163.719 355.616 163.448 356.127 162.971C356.638 162.494 356.954 161.844 357.014 161.147L358.051 146.726C358.078 146.396 358.037 146.063 357.929 145.749C357.821 145.435 357.648 145.147 357.422 144.904C357.196 144.661 356.922 144.468 356.617 144.337C356.312 144.206 355.983 144.14 355.651 144.143H355.634Z" fill="#47F6AC"/>
<path opacity="0.3" d="M353.87 169.708C354.1 169.707 354.328 169.754 354.539 169.845C354.749 169.937 354.939 170.07 355.096 170.238C355.253 170.406 355.374 170.605 355.45 170.821C355.527 171.038 355.559 171.268 355.542 171.497L354.514 185.918C354.464 186.427 354.23 186.9 353.856 187.25C353.482 187.599 352.994 187.8 352.483 187.816H338.053C337.823 187.816 337.595 187.769 337.383 187.678C337.172 187.586 336.981 187.451 336.824 187.283C336.667 187.114 336.547 186.914 336.471 186.697C336.394 186.479 336.364 186.248 336.381 186.018L337.418 171.597C337.467 171.088 337.701 170.615 338.075 170.267C338.449 169.919 338.938 169.72 339.449 169.708H353.862M353.862 168.964H339.458C338.759 168.976 338.089 169.247 337.578 169.724C337.067 170.201 336.751 170.851 336.691 171.547L335.654 185.968C335.626 186.299 335.667 186.632 335.776 186.946C335.884 187.259 336.056 187.547 336.282 187.79C336.508 188.034 336.782 188.227 337.087 188.358C337.392 188.489 337.721 188.555 338.053 188.551H352.474C353.173 188.538 353.842 188.266 354.352 187.79C354.863 187.313 355.18 186.664 355.241 185.968L356.27 171.547C356.298 171.216 356.256 170.883 356.148 170.57C356.04 170.256 355.867 169.968 355.641 169.725C355.415 169.482 355.141 169.288 354.836 169.157C354.531 169.026 354.202 168.96 353.87 168.964H353.862Z" fill="#47F6AC"/>
<path d="M332.728 249.487C332.922 249.483 333.115 249.519 333.293 249.594C333.472 249.669 333.633 249.781 333.765 249.922C333.896 250.066 333.996 250.235 334.058 250.419C334.12 250.604 334.142 250.799 334.125 250.992C334.087 251.426 333.891 251.831 333.573 252.129C333.255 252.427 332.838 252.597 332.402 252.606C332.208 252.612 332.015 252.576 331.835 252.501C331.656 252.426 331.495 252.313 331.362 252.171C331.23 252.028 331.13 251.859 331.069 251.674C331.007 251.49 330.986 251.294 331.006 251.101C331.041 250.666 331.237 250.26 331.556 249.962C331.874 249.663 332.292 249.494 332.728 249.487ZM332.728 248.752C332.108 248.762 331.513 249.002 331.059 249.425C330.605 249.848 330.324 250.424 330.271 251.042C330.244 251.337 330.279 251.634 330.374 251.914C330.469 252.194 330.623 252.451 330.824 252.667C331.025 252.884 331.269 253.056 331.541 253.173C331.813 253.289 332.107 253.346 332.402 253.341C333.024 253.331 333.62 253.09 334.074 252.665C334.528 252.241 334.808 251.662 334.86 251.042C334.886 250.749 334.85 250.453 334.754 250.174C334.658 249.895 334.505 249.639 334.304 249.423C334.103 249.207 333.859 249.036 333.587 248.92C333.316 248.804 333.023 248.747 332.728 248.752Z" fill="#47F6AC"/>
<path d="M332.945 248.76L332.578 248.735L332.636 247.999L332.996 248.024L332.945 248.76Z" fill="#47F6AC"/>
<path d="M333.104 246.52H332.736L332.845 245.015H333.213L333.104 246.52ZM333.322 243.493H332.954L333.062 241.989H333.43L333.322 243.493ZM333.539 240.475H333.171L333.28 238.962H333.648L333.539 240.475ZM333.756 237.457H333.388L333.497 235.944H333.865L333.756 237.457ZM333.974 234.439H333.606L333.714 232.926H334.082L333.974 234.439ZM334.191 231.421H333.823L333.932 229.908H334.3L334.191 231.421ZM334.408 228.395H334.04L334.149 226.89H334.517L334.408 228.395ZM334.626 225.377H334.258L334.367 223.864H334.734L334.626 225.377ZM334.843 222.359H334.475L334.584 220.846H334.952L334.843 222.359ZM335.052 219.341H334.684L334.793 217.828H335.161L335.052 219.341ZM335.269 216.323H334.902L335.01 214.81H335.378L335.269 216.323Z" fill="#47F6AC"/>
<path d="M335.162 212.54L335.11 213.274L335.477 213.3L335.529 212.566L335.162 212.54Z" fill="#47F6AC"/>
<path d="M350.936 212.954H218.564C218.202 212.958 217.843 212.885 217.51 212.741C217.177 212.597 216.879 212.385 216.633 212.118C216.385 211.852 216.195 211.536 216.076 211.192C215.956 210.848 215.91 210.483 215.939 210.12L216.6 201.008C216.662 200.262 216.999 199.567 217.547 199.057C218.094 198.547 218.811 198.259 219.559 198.249H351.956C352.318 198.247 352.676 198.32 353.008 198.463C353.34 198.606 353.638 198.817 353.884 199.082C354.13 199.347 354.319 199.66 354.437 200.002C354.556 200.343 354.602 200.706 354.573 201.066L353.921 210.179C353.86 210.931 353.52 211.633 352.968 212.146C352.416 212.66 351.691 212.948 350.936 212.954ZM219.559 199.052C219.011 199.06 218.487 199.272 218.086 199.646C217.686 200.02 217.439 200.529 217.394 201.075L216.742 210.187C216.72 210.44 216.752 210.695 216.834 210.935C216.916 211.175 217.047 211.396 217.218 211.583C217.391 211.766 217.6 211.911 217.831 212.009C218.063 212.107 218.313 212.155 218.564 212.152H350.936C351.485 212.145 352.011 211.934 352.411 211.56C352.812 211.185 353.058 210.675 353.102 210.129L353.762 201.016C353.782 200.767 353.75 200.516 353.668 200.279C353.586 200.042 353.456 199.825 353.287 199.641C353.118 199.456 352.912 199.309 352.683 199.208C352.454 199.106 352.207 199.053 351.956 199.052H219.559Z" fill="#47F6AC"/>
<path opacity="0.8" fill-rule="evenodd" clip-rule="evenodd" d="M348.094 204.134H222.61C222.45 204.136 222.292 204.105 222.145 204.041C221.998 203.978 221.866 203.885 221.757 203.767C221.649 203.65 221.566 203.511 221.514 203.36C221.462 203.209 221.443 203.048 221.457 202.889C221.487 202.555 221.64 202.245 221.885 202.017C222.13 201.788 222.451 201.658 222.786 201.652H348.278C348.437 201.65 348.594 201.681 348.74 201.744C348.886 201.807 349.017 201.9 349.125 202.016C349.233 202.133 349.315 202.271 349.366 202.421C349.418 202.571 349.437 202.731 349.423 202.889C349.396 203.225 349.245 203.538 348.999 203.769C348.753 203.999 348.431 204.129 348.094 204.134Z" fill="white"/>
<path opacity="0.8" fill-rule="evenodd" clip-rule="evenodd" d="M327.186 209.359H222.234C222.075 209.361 221.918 209.33 221.772 209.267C221.626 209.204 221.495 209.111 221.387 208.995C221.279 208.878 221.197 208.74 221.146 208.59C221.094 208.44 221.075 208.28 221.089 208.122C221.116 207.786 221.267 207.473 221.513 207.242C221.759 207.012 222.081 206.882 222.418 206.877H327.361C327.528 206.869 327.694 206.898 327.848 206.962C328.002 207.025 328.141 207.122 328.254 207.244C328.367 207.367 328.452 207.513 328.503 207.672C328.554 207.83 328.569 207.999 328.548 208.164C328.507 208.496 328.346 208.801 328.095 209.021C327.843 209.242 327.52 209.362 327.186 209.359Z" fill="white"/>
</svg>
