<svg width="493" height="321" viewBox="0 0 493 321" fill="none" xmlns="http://www.w3.org/2000/svg">
<path d="M444.357 276.978C468.166 258.36 481.871 230.035 482.292 200.24C482.561 181.455 481.181 157.868 474.719 137.67C453.409 71.0758 393.21 34.9504 349.169 27.2464C305.128 19.5424 259.771 33.6664 225.59 56.1364C191.409 78.6064 194.696 74.7544 136.193 66.4084C77.6902 58.0624 29.7048 82.4584 13.9288 127.398C-1.84715 172.338 46.1382 197.807 51.3968 221.349C56.6555 244.891 47.4529 286.614 138.822 296.886C230.192 307.158 257.799 257.082 303.155 271.206C339.651 282.576 394.025 316.39 444.357 276.978Z" fill="#47F6AC"/>
<path opacity="0.7" d="M444.357 276.978C468.166 258.36 481.871 230.035 482.292 200.24C482.561 181.455 481.181 157.868 474.719 137.67C453.409 71.0758 393.21 34.9504 349.169 27.2464C305.128 19.5424 259.771 33.6664 225.59 56.1364C191.409 78.6064 194.696 74.7544 136.193 66.4084C77.6902 58.0624 29.7048 82.4584 13.9288 127.398C-1.84715 172.338 46.1382 197.807 51.3968 221.349C56.6555 244.891 47.4529 286.614 138.822 296.886C230.192 307.158 257.799 257.082 303.155 271.206C339.651 282.576 394.025 316.39 444.357 276.978Z" fill="white"/>
<path d="M78.9721 50.1145C78.0452 49.1772 76.4348 48.3105 73.6411 48.2399C67.3636 48.0922 69.0398 52.4321 67.3636 53.4786C65.6874 54.5251 65.2207 52.8815 63.5313 53.928C61.842 54.9745 62.6111 57.0674 61.2372 57.3691C59.8634 57.6709 58.0229 56.0209 56.3335 57.0674C54.6442 58.1138 54.6508 58.9934 53.8817 58.9934C53.1126 58.9934 51.5876 58.3963 50.6673 58.9934C49.747 59.5904 48.6953 60.3416 48.6953 60.3416H65.1286" stroke="#263238" stroke-linecap="round" stroke-linejoin="round"/>
<path d="M80.7008 52.7917L80.2275 52.5798C80.1539 52.0206 79.9613 51.4827 79.6622 51.0005" stroke="#263238" stroke-linecap="round" stroke-linejoin="round"/>
<path d="M67.2256 60.348H87.4254C87.4254 60.348 87.8856 58.9998 86.2028 58.101C84.52 57.2022 83.751 57.9533 83.1396 57.2022C82.5283 56.451 84.3557 54.9231 81.5029 53.2025" stroke="#263238" stroke-linecap="round" stroke-linejoin="round"/>
<path d="M268.619 98.2967C267.686 97.3529 266.075 96.4862 263.282 96.422C257.004 96.2744 258.68 100.608 257.004 101.654C255.328 102.701 254.861 101.057 253.179 102.104C251.496 103.15 252.258 105.25 250.878 105.545C249.497 105.84 247.664 104.197 245.981 105.25C244.298 106.302 244.291 107.176 243.529 107.176C242.766 107.176 241.228 106.578 240.315 107.176C239.401 107.773 238.343 108.524 238.343 108.524H254.776" stroke="#263238" stroke-linecap="round" stroke-linejoin="round"/>
<path d="M270.348 100.974L269.868 100.762C269.796 100.203 269.603 99.6644 269.303 99.1826" stroke="#263238" stroke-linecap="round" stroke-linejoin="round"/>
<path d="M256.873 108.536H277.066C277.066 108.536 277.526 107.188 275.843 106.296C274.161 105.404 273.392 106.142 272.78 105.397C272.169 104.652 273.996 103.118 271.144 101.397" stroke="#263238" stroke-linecap="round" stroke-linejoin="round"/>
<path d="M402.459 31.7469C400.789 30.052 397.858 28.4919 392.849 28.3699C381.529 28.1003 384.54 35.952 381.529 37.8073C378.519 39.6627 377.664 36.7288 374.627 38.6163C371.591 40.5037 372.971 44.2787 370.493 44.818C368.015 45.3573 364.695 42.372 361.658 44.298C358.621 46.224 358.621 47.8033 357.241 47.8033C355.861 47.8033 353.1 46.7247 351.443 47.8033C349.787 48.8818 347.854 50.23 347.854 50.23H377.493" stroke="#263238" stroke-linecap="round" stroke-linejoin="round"/>
<path d="M405.575 36.594C405.305 36.4656 405.023 36.3372 404.72 36.2088C404.586 35.202 404.239 34.2334 403.701 33.3647" stroke="#263238" stroke-linecap="round" stroke-linejoin="round"/>
<path d="M381.286 50.2108H417.689C417.689 50.2108 418.518 47.7841 415.481 46.1662C412.444 44.5484 411.07 45.8966 409.966 44.5484C408.98 43.3479 412.155 40.4396 407.014 37.3387" stroke="#263238" stroke-linecap="round" stroke-linejoin="round"/>
<path d="M182.824 60.3865H222.869C222.869 60.3865 224.236 56.3869 219.227 53.7226C214.218 51.0583 211.951 53.2796 210.13 51.0583C208.309 48.8369 215.139 43.0589 201.492 37.2874C201.492 37.2874 200.579 24.8454 181.93 24.4024C173.884 24.2098 170.243 26.5018 168.297 29.4164" stroke="#263238" stroke-linecap="round" stroke-linejoin="round"/>
<path d="M170.604 60.3865H177.27" stroke="#263238" stroke-linecap="round" stroke-linejoin="round"/>
<path d="M165.872 35.554C165.3 37.4479 164.682 39.085 163.282 39.9517C158.279 43.0589 156.919 38.1733 151.91 41.287C146.901 44.4007 149.215 50.6153 145.093 51.5012C140.972 52.3872 135.536 47.508 130.533 50.6153C125.531 53.7226 125.531 56.3933 123.257 56.3933C120.982 56.3933 116.433 54.6214 113.706 56.3933C110.978 58.1652 107.79 60.3929 107.79 60.3929H158.937" stroke="#263238" stroke-linecap="round" stroke-linejoin="round"/>
<path d="M432.762 171.408L456.209 125.158L463.249 128.56L461.573 103.002L439.749 117.197L446.789 120.6L423.336 166.849" stroke="#263238" stroke-linecap="round" stroke-linejoin="round"/>
<path d="M421.324 101.173L436.101 72.026L440.538 74.1703L439.487 58.0625L425.729 67.0056L430.166 69.1498L415.389 98.3031" stroke="#263238" stroke-linecap="round" stroke-linejoin="round"/>
<path d="M270.052 51.0391C273.223 43.93 279.135 38.3278 286.506 35.4465C293.877 32.5652 302.114 32.6371 309.431 35.6464C316.748 38.6558 322.556 44.3602 325.597 51.5234C328.637 58.6866 328.665 66.7315 325.674 73.9145C322.683 81.0974 316.914 86.8399 309.617 89.8972C302.321 92.9545 294.085 93.0803 286.694 90.2475C279.304 87.4147 273.354 81.8514 270.134 74.7633C266.914 67.6752 266.684 59.6334 269.493 52.3808" stroke="#263238" stroke-miterlimit="10"/>
<path d="M269.71 50.9171C272.917 43.7228 278.897 38.0527 286.355 35.1357C293.813 32.2187 302.147 32.2899 309.552 35.3339C316.956 38.3779 322.834 44.1494 325.911 51.3973C328.988 58.6453 329.016 66.7856 325.99 74.0537C322.963 81.3219 317.126 87.1322 309.743 90.2253C302.359 93.3183 294.026 93.4448 286.548 90.5773C279.07 87.7099 273.05 82.0795 269.794 74.9067C266.537 67.7339 266.307 59.5967 269.152 52.2589" stroke="#263238" stroke-width="0.5" stroke-miterlimit="10"/>
<path d="M277.69 53.8575C280.12 48.614 284.563 44.5132 290.06 42.4392C295.557 40.3652 301.668 40.4843 307.076 42.7707C312.484 45.0572 316.756 49.3278 318.969 54.6618C321.183 59.9957 321.162 65.9657 318.91 71.2846C316.659 76.6034 312.357 80.8449 306.933 83.0945C301.509 85.3442 295.396 85.4218 289.914 83.3106C284.432 81.1993 280.019 77.0684 277.627 71.8086C275.234 66.5487 275.054 60.5812 277.125 55.1929" stroke="#263238" stroke-miterlimit="10"/>
<path d="M277.349 53.729C279.656 48.7684 283.76 44.8163 288.872 42.6331C293.983 40.4499 299.741 40.1897 305.036 41.9026C310.332 43.6156 314.793 47.1807 317.56 51.912C320.326 56.6434 321.204 62.2068 320.024 67.5322C318.844 72.8575 315.689 77.5685 311.167 80.759C306.644 83.9495 301.074 85.3941 295.527 84.8149C289.979 84.2356 284.847 81.6735 281.118 77.6214C277.388 73.5692 275.325 68.3133 275.324 62.8647C275.319 60.1994 275.813 57.5557 276.783 55.0644" stroke="#263238" stroke-width="0.5" stroke-miterlimit="10"/>
<path d="M287.432 57.4783C288.862 54.8536 291.282 52.8753 294.179 51.9623C297.077 51.0492 300.224 51.273 302.955 52.5863C305.686 53.8995 307.787 56.1992 308.813 58.9986C309.839 61.798 309.709 64.8774 308.452 67.5851C307.194 70.2928 304.907 72.4163 302.075 73.5062C299.242 74.5961 296.087 74.5668 293.276 73.4245C290.465 72.2823 288.22 70.1167 287.015 67.3861C285.81 64.6556 285.741 61.5743 286.821 58.7945V58.7367" stroke="#263238" stroke-miterlimit="10"/>
<path d="M286.959 57.5939L287.097 57.3242C288.485 54.7403 290.794 52.7423 293.588 51.7076C296.382 50.6729 299.467 50.6732 302.26 51.7083C305.054 52.7434 307.362 54.7418 308.75 57.326C310.138 59.9101 310.509 62.9012 309.793 65.7343C309.077 68.5675 307.324 71.0465 304.864 72.7032C302.405 74.3599 299.409 75.0796 296.443 74.7264C293.477 74.3732 290.747 72.9715 288.767 70.7861C286.787 68.6007 285.695 65.7828 285.697 62.8647C285.694 61.4235 285.962 59.994 286.486 58.6468" stroke="#263238" stroke-width="0.5" stroke-miterlimit="10"/>
<path d="M287.629 57.5169H287.531L287.445 57.4848L287.103 57.3564L277.697 53.8896L277.355 53.7612L270.059 51.0712L269.717 50.9492L257.964 46.6157L258.542 42.3785C258.553 42.3009 258.538 42.2219 258.499 42.1535C258.46 42.0852 258.399 42.0312 258.325 41.9997L249.024 37.8781C248.958 37.8498 248.885 37.8408 248.813 37.8522C248.742 37.8637 248.675 37.8951 248.622 37.9426C248.568 37.9901 248.53 38.0517 248.512 38.12C248.493 38.1883 248.495 38.2604 248.518 38.3275L250.405 43.7845L249.018 43.2709C248.925 43.2309 248.826 43.2097 248.725 43.2086C248.624 43.2075 248.523 43.2266 248.43 43.2646C248.337 43.3025 248.253 43.3587 248.183 43.4296C248.112 43.5005 248.058 43.5846 248.022 43.6768C247.986 43.7691 247.97 43.8675 247.974 43.966C247.979 44.0645 248.004 44.1611 248.048 44.2499C248.092 44.3387 248.154 44.4178 248.23 44.4824C248.306 44.547 248.395 44.5957 248.492 44.6255L249.938 45.1584L245.599 48.4133C245.542 48.4566 245.498 48.5158 245.475 48.5832C245.451 48.6506 245.449 48.7233 245.468 48.7921C245.486 48.8604 245.524 48.922 245.578 48.9689C245.632 49.0158 245.699 49.0459 245.77 49.0553L256.189 50.6218H256.242C256.317 50.6218 256.39 50.5998 256.452 50.5586C256.514 50.5173 256.562 50.4588 256.59 50.3907L257.569 47.9639L269.152 52.2332L269.494 52.3552L276.783 55.0387L277.125 55.1671L286.492 58.6211L286.834 58.7431L287.11 58.8458" stroke="#263238" stroke-miterlimit="10"/>
<path d="M287.432 57.4783H287.531H287.629L294.328 59.95L295.064 57.7929C295.112 57.6495 295.205 57.5246 295.33 57.4359C295.455 57.3471 295.606 57.2991 295.761 57.2986C295.917 57.3014 296.069 57.3526 296.194 57.4449C296.319 57.5371 296.412 57.6657 296.457 57.8122L297.772 62.0622C297.822 62.2258 297.812 62.4013 297.744 62.5584C297.675 62.7155 297.553 62.8443 297.397 62.9225L294.045 64.5532C293.943 64.6036 293.83 64.63 293.716 64.6302C293.538 64.6313 293.365 64.5698 293.23 64.4569C293.121 64.3618 293.042 64.2378 293.003 64.0999C292.965 63.962 292.968 63.8162 293.013 63.6801L293.828 61.3624L287.11 58.8715C287.015 58.8374 286.93 58.7825 286.86 58.711" stroke="#263238" stroke-miterlimit="10"/>
<path d="M100.164 133.831L106.08 135.115L107.448 129.26L101.775 127.976C101.775 127.816 101.775 127.649 101.775 127.482C101.778 125.703 101.412 123.943 100.697 122.307L105.298 118.725L101.466 114.032L97.0881 117.486C95.5446 116.178 93.7173 115.23 91.744 114.712V109.14H85.598V114.52C83.5697 114.905 81.6599 115.742 80.0172 116.966L75.5671 113.499L71.7348 118.192L76.0798 121.575C75.1589 123.355 74.6644 125.315 74.6336 127.308L68.974 128.592L70.3413 134.448L75.922 133.202C76.7685 134.96 77.9979 136.515 79.5242 137.76L76.8949 143.031L82.4362 145.638L84.9932 140.45C86.8818 140.905 88.8493 140.951 90.758 140.585L93.3874 145.959L98.9287 143.352L96.3519 138.126C97.9248 136.98 99.2253 135.514 100.164 133.831ZM82.1667 127.533C82.1667 126.368 82.5206 125.228 83.1836 124.259C83.8467 123.29 84.7891 122.534 85.8918 122.088C86.9944 121.642 88.2077 121.525 89.3782 121.753C90.5488 121.98 91.624 122.542 92.4679 123.366C93.3118 124.19 93.8865 125.24 94.1194 126.383C94.3522 127.527 94.2327 128.712 93.776 129.789C93.3193 130.865 92.5458 131.786 91.5535 132.434C90.5611 133.081 89.3945 133.427 88.201 133.427C87.4086 133.427 86.6239 133.274 85.8918 132.978C85.1596 132.682 84.4944 132.248 83.9341 131.701C83.3738 131.153 82.9293 130.504 82.626 129.789C82.3228 129.074 82.1667 128.307 82.1667 127.533Z" stroke="#263238" stroke-linecap="round" stroke-linejoin="round"/>
<path d="M458.904 193.627L462.907 194.52L463.834 190.552L459.989 189.692C459.989 189.583 459.989 189.467 459.989 189.358C459.991 188.152 459.745 186.958 459.266 185.846L462.381 183.419L459.752 180.209L456.847 182.559C455.801 181.673 454.562 181.032 453.225 180.684V176.89H449.024V180.53C447.651 180.795 446.358 181.364 445.245 182.193L442.228 179.843L439.598 183.053L442.543 185.345C441.922 186.54 441.587 187.858 441.564 189.197L437.784 190.032L438.711 194L442.497 193.159C443.071 194.349 443.903 195.402 444.936 196.247L443.174 199.816L446.927 201.582L448.663 198.063C449.368 198.236 450.092 198.325 450.819 198.327C451.406 198.324 451.991 198.268 452.567 198.16L454.362 201.8L458.122 200.034L456.373 196.497C457.413 195.724 458.276 194.746 458.904 193.627ZM446.704 189.39C446.704 188.6 446.944 187.828 447.393 187.171C447.842 186.515 448.481 186.003 449.228 185.701C449.975 185.398 450.797 185.319 451.59 185.473C452.383 185.628 453.112 186.008 453.684 186.566C454.255 187.125 454.645 187.836 454.803 188.611C454.96 189.386 454.879 190.188 454.57 190.918C454.261 191.648 453.736 192.271 453.064 192.71C452.392 193.149 451.601 193.383 450.793 193.383C449.708 193.383 448.668 192.963 447.901 192.214C447.135 191.465 446.704 190.449 446.704 189.39Z" stroke="#263238" stroke-linecap="round" stroke-linejoin="round"/>
<path d="M111.49 105.057L116.341 106.135L117.459 101.333L112.805 100.3C112.805 100.165 112.805 100.03 112.805 99.8952C112.814 98.4404 112.521 96.999 111.944 95.658L115.724 92.7176L112.581 88.8656L108.966 91.6776C107.699 90.6069 106.2 89.83 104.582 89.4049V84.8146H99.54V89.238C97.8682 89.5528 96.2936 90.2405 94.9386 91.2474L91.2839 88.4034L88.1418 92.2554L91.7046 95.0288C90.9514 96.4878 90.5469 98.0945 90.5214 99.7282L85.874 100.768L86.9981 105.57L91.5994 104.55C92.2924 105.99 93.2998 107.266 94.5508 108.286L92.4145 112.607L96.9632 114.745L99.0601 110.488C99.9205 110.696 100.803 110.801 101.689 110.803C102.4 110.802 103.109 110.735 103.806 110.604L105.975 115.008L110.524 112.87L108.407 108.588C109.685 107.643 110.737 106.438 111.49 105.057ZM96.7332 99.9208C96.7319 98.9644 97.0211 98.0292 97.5641 97.2333C98.1072 96.4375 98.8798 95.8169 99.7842 95.45C100.688 95.0831 101.684 94.9865 102.644 95.1723C103.605 95.3581 104.488 95.818 105.181 96.4938C105.873 97.1696 106.345 98.031 106.537 98.9689C106.729 99.9069 106.631 100.879 106.256 101.763C105.882 102.647 105.248 103.402 104.433 103.934C103.619 104.465 102.662 104.749 101.683 104.749C101.031 104.749 100.386 104.623 99.7842 104.379C99.1823 104.135 98.6358 103.777 98.1759 103.326C97.716 102.875 97.3519 102.34 97.1043 101.751C96.8567 101.162 96.7306 100.532 96.7332 99.8952V99.9208Z" stroke="#263238" stroke-linecap="round" stroke-linejoin="round"/>
<path d="M374.516 269.351C374.516 269.351 370.434 271.919 369.619 272.561C368.803 273.203 365.05 273.999 365.543 275.129C366.036 276.259 370.762 276.882 372.07 276.882C373.379 276.882 378.427 274.314 379.735 274.018C381.043 273.723 381.05 272.266 380.55 271.149C380.011 270.169 379.348 269.259 378.578 268.439L375.153 269.396L374.516 269.351Z" fill="white" stroke="#263238" stroke-linecap="round" stroke-linejoin="round"/>
<path d="M420.845 268.915C420.845 268.915 417.742 272.58 417.256 273.376C416.769 274.172 413.969 275.444 413.969 276.721C413.969 277.999 418.702 277.363 420.168 277.196C421.05 277.062 421.889 276.735 422.623 276.239C423.358 275.743 423.968 275.092 424.407 274.333C425.229 272.734 425.88 269.39 424.9 268.118C423.921 266.847 420.845 268.915 420.845 268.915Z" fill="white" stroke="#263238" stroke-linecap="round" stroke-linejoin="round"/>
<path d="M381.694 198.333L381.562 199.296L380.55 206.936C380.55 206.936 371.479 219.448 368.159 225.965C366.463 229.29 364.097 233.239 364.426 234.349L374.516 269.351C375.28 269.718 376.111 269.936 376.961 269.993C377.744 269.967 378.516 269.806 379.242 269.518L378.782 237.123L392.783 222.081L394.578 224.308C394.578 224.308 399.225 240.41 401.184 242.958C403.143 245.507 420.036 269.39 420.036 269.39C420.906 269.786 421.85 270.005 422.81 270.032C424.282 270.032 424.933 268.106 424.933 268.106C424.933 268.106 412.779 238.798 412.444 237.842C412.109 236.885 412.358 213.446 412.358 213.446L410.386 202.134L408.105 194.963C408.105 194.963 403.866 196.08 396.688 195.759C389.509 195.438 382.66 194.963 382.66 194.963L381.694 198.333Z" fill="#263238" stroke="#263238" stroke-linecap="round" stroke-linejoin="round"/>
<path d="M362.441 121.543C362.441 121.543 360.16 124.888 359.811 126.962C359.675 128.341 360.084 129.72 360.955 130.814L359.64 133.523C359.64 133.523 364.044 142.287 366.654 146.267C369.264 150.247 373.503 156.943 376.113 158.221C378.723 159.499 383.778 164.75 383.778 164.75L386.716 158.536C386.716 158.536 378.105 147.987 372.708 140.662C369.445 136.215 366.45 131.587 363.735 126.801C363.73 125.415 363.84 124.03 364.064 122.661C364.278 121.45 364.386 120.223 364.386 118.995L362.441 121.543Z" fill="#263238" stroke="#263238" stroke-linecap="round" stroke-linejoin="round"/>
<path d="M388.872 156.115C388.872 156.115 382.18 163.922 380.879 169.019C379.577 174.117 381.201 189.891 381.201 192.131C381.201 194.372 379.886 196.754 381.694 198.346C383.501 199.938 388.872 199.142 390.824 198.988C392.776 198.834 402.084 198.988 404.858 198.185C407.632 197.383 408.934 196.259 408.934 194.365C408.934 192.472 405.509 177.32 404.99 174.772C404.47 172.223 406.304 163.46 403.853 159.312C401.401 155.165 393.598 154.523 388.872 156.115Z" fill="white" stroke="#263238" stroke-linecap="round" stroke-linejoin="round"/>
<path d="M387.728 157.232C387.728 157.232 379.571 165.353 378.427 169.655C377.283 173.956 373.208 182.244 371.906 185.91C370.772 188.802 369.455 191.621 367.962 194.353L369.428 200.086L373.181 196.105C373.181 196.105 376.935 183.516 378.894 178.258C380.852 173 381.175 168.063 381.523 166.631C381.871 165.199 387.728 157.232 387.728 157.232Z" fill="#263238" stroke="#263238" stroke-linecap="round" stroke-linejoin="round"/>
<path d="M388.872 156.751C388.872 156.751 383.975 169.815 384.139 170.772C384.303 171.729 386.584 207.096 386.584 207.096C386.584 207.096 388.872 212.515 399.146 211.719C409.42 210.923 417.407 209.485 417.407 209.485C417.407 209.485 414.311 197.537 411.537 192.119C408.763 186.7 407.297 183.516 407.297 180.967C407.297 178.418 406.153 161.373 405.502 158.664C405.219 157.273 404.722 155.931 404.03 154.684L403.057 153.887L388.872 156.751Z" fill="#47F6AC" stroke="#263238" stroke-linecap="round" stroke-linejoin="round"/>
<path d="M384.954 183.837L392.947 202.955C392.947 202.955 389.661 204.239 388.543 205.344C387.917 205.96 387.258 206.545 386.571 207.096L384.954 183.837Z" fill="#47F6AC" stroke="#263238" stroke-linecap="round" stroke-linejoin="round"/>
<path d="M395.557 131.103C395.557 131.103 390.502 135.083 390.502 136.2C390.502 137.317 389.187 138.91 389.187 138.91C389.187 138.91 386.558 139.231 386.413 140.194C386.269 141.157 387.229 143.063 387.229 143.063C387.229 143.063 385.598 148.482 386.256 149.753C386.913 151.024 391.633 151.191 391.633 151.191L391.797 154.696L403.057 152.944L402.893 150.234C402.893 150.234 408.927 143.859 411.865 141.15C414.804 138.441 411.05 133.664 407.461 129.999C403.872 126.333 395.386 126.333 394.735 128.246C394.534 128.744 394.505 129.294 394.653 129.81C394.802 130.325 395.119 130.78 395.557 131.103Z" fill="white" stroke="#263238" stroke-linecap="round" stroke-linejoin="round"/>
<path d="M391.317 136.836C391.677 136.661 392.079 136.584 392.48 136.612C392.881 136.64 393.267 136.773 393.598 136.996" stroke="#263238" stroke-linecap="round" stroke-linejoin="round"/>
<path d="M391.488 139.134C391.363 139.648 391.442 140.11 391.659 140.155C391.876 140.2 392.159 139.834 392.283 139.32C392.408 138.807 392.329 138.351 392.113 138.3C391.896 138.248 391.613 138.621 391.488 139.134Z" fill="#263238"/>
<path d="M407.468 129.986C403.879 126.32 395.393 126.32 394.742 128.233C394.536 128.733 394.505 129.284 394.652 129.803C394.8 130.321 395.117 130.778 395.557 131.103C395.557 131.103 401.105 131.745 400.29 133.177C399.475 134.608 396.701 134.608 397.351 135.565C398.002 136.521 400.29 138.589 399.475 139.07C398.66 139.552 398.16 140.502 398.66 140.823C399.159 141.144 399.974 140.341 401.946 140.662C403.918 140.983 403.412 145.439 401.618 146.081C399.823 146.723 398.988 145.92 402.275 148.79C402.661 149.12 403.107 149.377 403.59 149.548C405.22 147.833 409.565 143.314 411.918 141.137C414.777 138.428 411.057 133.652 407.468 129.986Z" fill="#263238" stroke="#263238" stroke-linecap="round" stroke-linejoin="round"/>
<path d="M400.29 146.556L397.351 145.92L395.393 147.352" stroke="#263238" stroke-linecap="round" stroke-linejoin="round"/>
<path d="M403.714 151.018L388.707 154.998L387.728 158.028L405.509 154.844L403.714 151.018Z" fill="#47F6AC" stroke="#263238" stroke-linecap="round" stroke-linejoin="round"/>
<path d="M365.872 126.32L365.379 122.975C365.379 122.975 366.845 118.359 366.845 117.242C366.845 116.125 365.707 113.576 365.707 112.941C365.707 112.305 364.728 111.348 364.393 112.62C364.057 113.891 363.413 118.674 363.413 118.674C363.413 118.674 361.297 122.179 361.441 123.932C361.586 125.684 363.229 129.35 363.229 129.35L366.168 127.598L365.872 126.32Z" fill="white" stroke="#263238" stroke-linecap="round" stroke-linejoin="round"/>
<path d="M367.988 128.875L365.872 126.32L361.954 129.35L364.235 133.177L367.988 128.875Z" fill="white" stroke="#263238" stroke-linecap="round" stroke-linejoin="round"/>
<path d="M403.55 161.694C402.468 159.022 400.441 156.818 397.838 155.48C395.064 154.151 392.171 153.076 389.194 152.27L367.009 127.578L362.605 131.88C362.605 131.88 371.906 150.838 373.701 154.022C375.495 157.207 396.208 179.06 396.208 179.06" fill="#47F6AC"/>
<path d="M403.55 161.694C402.468 159.022 400.441 156.818 397.838 155.48C395.064 154.151 392.171 153.076 389.194 152.27L367.009 127.578L362.605 131.88C362.605 131.88 371.906 150.838 373.701 154.022C375.495 157.207 396.208 179.06 396.208 179.06" stroke="#263238" stroke-linecap="round" stroke-linejoin="round"/>
<path d="M210.143 266.07C210.143 266.07 207.021 270.404 206.363 272.811C205.706 275.219 205.87 278.429 207.514 278.108C209.157 277.787 212.937 273.774 213.265 272.651C213.594 271.527 214.744 266.391 214.744 266.391L210.8 266.07H210.143Z" fill="white" stroke="#263238" stroke-linecap="round" stroke-linejoin="round"/>
<path d="M266.509 268.799C266.509 268.799 266.509 273.293 267.495 273.935C268.481 274.577 275.219 277.305 277.191 277.466C279.163 277.626 279.82 277.305 278.67 275.058C277.52 272.811 270.946 268.478 270.946 268.478L266.509 268.799Z" fill="white" stroke="#263238" stroke-linecap="round" stroke-linejoin="round"/>
<path d="M226.083 192.882L222.304 208.451L220.332 237.662C220.332 237.662 213.101 249.86 212.444 254.354C211.786 258.848 209.65 267.996 209.65 267.996C209.65 267.996 212.608 269.28 213.101 269.28C213.594 269.28 219.51 260.934 222.797 257.724C226.083 254.514 233.478 240.711 233.807 240.069C234.136 239.427 239.394 219.044 239.723 218.402C240.052 217.76 242.024 216.957 242.024 216.957C242.024 216.957 251.923 230.857 253.119 232.025C255.032 233.893 258.128 238.625 258.128 238.625C258.128 238.625 264.866 264.786 265.359 266.07C265.716 267.274 265.936 268.512 266.016 269.762L272.097 271.046C272.097 271.046 272.59 253.551 272.261 249.378C271.932 245.205 270.618 236.217 270.618 236.217C270.618 236.217 260.593 209.414 260.1 208.772C259.607 208.13 256.649 201.71 256.649 201.71L255.663 195.611C249.882 197.193 243.8 197.413 237.915 196.253C228.055 194.327 226.083 192.882 226.083 192.882Z" fill="#263238" stroke="#263238" stroke-linecap="round" stroke-linejoin="round"/>
<path d="M235.371 149.361C231.802 151.666 228.097 153.765 224.276 155.646C219.234 158.003 218.031 160.359 218.031 161.534C218.031 162.708 213.646 182.187 213.975 183.252C214.304 184.318 217.262 185.93 219.129 186.36C220.995 186.79 223.618 186.251 224.164 185.82C224.709 185.39 226.464 178.116 226.464 178.116C226.464 178.116 225.478 191.277 225.045 192.992C224.611 194.706 228.66 199.091 232.604 199.842C236.548 200.593 247.17 200.586 249.912 199.733C252.653 198.879 254.513 198.66 255.387 197.055C256.261 195.45 256.814 184.004 256.925 183.252C257.037 182.501 257.911 175.658 257.911 175.658L260.758 185.076L261.855 187.002C261.855 187.002 262.401 185.82 265.799 183.894C269.198 181.968 270.289 181.757 270.289 181.757C270.289 181.757 268.317 175.446 267.114 171.806C265.911 168.165 264.702 161.534 263.17 158.856C261.638 156.179 258.897 155.004 255.17 152.757C251.443 150.51 245.968 149.226 245.31 148.905C244.653 148.584 238.796 148.109 235.371 149.361Z" fill="white" stroke="#263238" stroke-linecap="round" stroke-linejoin="round"/>
<path d="M226.464 178.117L228.778 170.291" stroke="#263238" stroke-linecap="round" stroke-linejoin="round"/>
<path d="M259.515 168.352L259.91 166.58" stroke="#263238" stroke-linecap="round" stroke-linejoin="round"/>
<path d="M257.911 175.658L259.167 169.957" stroke="#263238" stroke-linecap="round" stroke-linejoin="round"/>
<path d="M238.244 161.746L240.545 164.956L241.859 167.845L238.573 194.488L243.174 198.661L246.789 194.006L243.503 168.166L245.475 164.474L248.097 160.282L243.338 157.573L238.244 161.746Z" fill="#47F6AC" stroke="#263238" stroke-linecap="round" stroke-linejoin="round"/>
<path d="M236.64 148.212C236.64 148.212 234.359 148.796 233.859 150.138C233.36 151.48 234.057 159.646 234.753 161.392C235.321 162.704 235.98 163.976 236.725 165.199C236.725 165.199 242.826 161.392 243.917 161.2C245.008 161.007 251.272 164.211 251.272 164.211C251.272 164.211 251.469 160.423 249.3 155.088C247.131 149.753 242.07 146.742 239.861 146.543C239.217 146.49 238.571 146.62 238 146.916C237.428 147.212 236.957 147.662 236.64 148.212Z" fill="white" stroke="#263238" stroke-linecap="round" stroke-linejoin="round"/>
<path d="M235.733 147.538C235.733 147.538 236.035 150.934 236.331 153.258C236.627 155.582 240.308 163.261 241.59 164.326C242.872 165.392 245.534 161.9 246.461 160.346C246.851 159.639 247.29 158.959 247.775 158.311C247.775 158.311 241.419 155.3 239.434 151.807C237.449 148.315 237.639 146.671 236.745 146.562C235.851 146.453 235.733 147.538 235.733 147.538Z" fill="white" stroke="#263238" stroke-linecap="round" stroke-linejoin="round"/>
<path d="M238.941 155.884L243.825 163.588C243.825 163.588 246.073 161.559 246.454 160.378C246.835 159.197 238.941 155.884 238.941 155.884Z" fill="#263238" stroke="#263238" stroke-linecap="round" stroke-linejoin="round"/>
<path d="M233.82 142.087C233.396 143.2 233.236 144.392 233.353 145.574C233.505 147.699 234.747 149.214 235.371 149.361C235.935 149.465 236.507 149.517 237.08 149.515C237.08 149.515 237.232 153.303 238.941 155.884C240.65 158.465 246.395 162.099 248.097 160.282C249.8 158.465 251.982 151.185 252.758 147.699C253.246 145.445 253.608 143.166 253.842 140.874L242.359 138.306L236.923 137.099L233.82 142.087Z" fill="white" stroke="#263238" stroke-linecap="round" stroke-linejoin="round"/>
<path d="M240.492 140.598C240.492 140.598 241.116 142.569 239.874 143.808C238.632 145.047 238.165 145.021 238.165 145.021C238.165 145.021 238.474 146.992 238.007 146.992C237.802 146.996 237.598 146.959 237.408 146.883C237.218 146.808 237.045 146.696 236.9 146.554C236.755 146.412 236.641 146.243 236.565 146.057C236.489 145.87 236.452 145.671 236.456 145.471C236.416 144.658 236.148 143.872 235.68 143.198L233.82 142.139C233.369 139.931 233.421 137.654 233.971 135.468C234.905 131.982 241.577 130.615 247.17 130.769C252.764 130.923 254.151 137.895 254.151 137.895C255.335 138.419 256.477 139.026 257.569 139.712C258.036 140.168 258.503 141.227 255.86 142.595C253.218 143.962 248.564 144.411 245.77 143.352C243.92 142.611 242.151 141.689 240.492 140.598Z" fill="#263238" stroke="#263238" stroke-linecap="round" stroke-linejoin="round"/>
<path d="M244.259 148.661C244.074 149.226 243.7 149.612 243.411 149.528C243.121 149.445 243.036 148.886 243.213 148.347C243.391 147.808 243.772 147.397 244.055 147.487C244.337 147.577 244.436 148.103 244.259 148.661Z" fill="#263238"/>
<path d="M250.714 149.149C250.536 149.714 250.155 150.1 249.872 150.01C249.589 149.92 249.491 149.368 249.668 148.835C249.846 148.302 250.227 147.885 250.516 147.968C250.806 148.052 250.891 148.585 250.714 149.149Z" fill="#263238"/>
<path d="M241.899 146.761C241.899 146.761 242.898 145.304 245.185 145.888" stroke="#263238" stroke-linecap="round" stroke-linejoin="round"/>
<path d="M248.952 146.562C249.155 146.373 249.397 146.228 249.661 146.135C249.925 146.042 250.206 146.003 250.486 146.022C250.766 146.041 251.039 146.116 251.287 146.243C251.536 146.371 251.755 146.547 251.93 146.761" stroke="#263238" stroke-linecap="round" stroke-linejoin="round"/>
<path d="M245.843 153.553C244.897 153.583 243.961 153.745 243.062 154.035C241.57 154.523 239.388 153.939 240.38 155.203C241.373 156.468 243.259 156.853 245.245 156.853C247.23 156.853 249.024 156.757 249.622 155.884C250.221 155.011 251.108 154.138 250.418 154.035C249.728 153.932 247.039 153.746 246.737 153.746C246.432 153.714 246.133 153.65 245.843 153.553Z" fill="#263238" stroke="#263238" stroke-linecap="round" stroke-linejoin="round"/>
<path d="M248.472 147.923C248.472 147.923 248.275 153.258 248.078 154.234C248.046 154.493 247.934 154.736 247.757 154.931C247.581 155.126 247.348 155.264 247.089 155.327C246.83 155.39 246.557 155.374 246.308 155.282C246.058 155.19 245.843 155.026 245.691 154.812C245.06 154.001 244.526 153.122 244.101 152.193" fill="white"/>
<path d="M248.472 147.923C248.472 147.923 248.275 153.258 248.078 154.234C248.046 154.493 247.934 154.736 247.757 154.931C247.581 155.126 247.348 155.264 247.089 155.327C246.83 155.39 246.557 155.374 246.308 155.282C246.058 155.19 245.843 155.026 245.691 154.812C245.06 154.001 244.526 153.122 244.101 152.193" stroke="#263238" stroke-linecap="round" stroke-linejoin="round"/>
<path d="M269.632 179.401C269.632 179.401 264.899 180.158 262.927 181.442C260.955 182.726 260.265 183.843 260.758 185.076C261.18 186.286 261.73 187.451 262.401 188.549C263.223 189.833 264.702 188.87 264.702 188.87C264.564 188.726 264.458 188.556 264.391 188.371C264.325 188.185 264.298 187.988 264.314 187.791C264.329 187.595 264.386 187.404 264.481 187.231C264.576 187.057 264.707 186.905 264.866 186.784C266.016 185.66 270.289 184.055 270.289 184.055H271.768C272.425 184.055 271.768 182.29 271.275 181.487C270.782 180.685 270.782 179.08 269.632 179.401Z" fill="white" stroke="#263238" stroke-linecap="round" stroke-linejoin="round"/>
<path d="M213.923 187.104C213.923 187.104 213.923 191.759 214.251 196.413C214.58 201.068 218.524 214.068 218.524 214.068L222.468 213.105C222.468 213.105 222.304 200.907 222.304 197.055C222.304 193.203 222.139 188.549 222.139 188.549L213.923 187.104Z" fill="white" stroke="#263238" stroke-linecap="round" stroke-linejoin="round"/>
<path d="M213.206 183.862C213.231 183.661 213.309 183.47 213.432 183.307C213.556 183.145 213.721 183.017 213.911 182.936C214.101 182.855 214.309 182.823 214.515 182.845C214.721 182.867 214.918 182.941 215.086 183.06C216.168 183.761 217.4 184.212 218.688 184.376C220.261 184.649 221.866 184.699 223.454 184.524C223.613 184.503 223.775 184.522 223.925 184.578C224.075 184.634 224.208 184.726 224.312 184.846C224.416 184.965 224.487 185.108 224.52 185.261C224.553 185.415 224.546 185.574 224.499 185.724C224.085 187.053 223.46 188.863 222.961 189.351C222.139 190.154 218.195 190.154 216.223 189.512C214.251 188.87 213.758 188.388 213.265 186.783C213.07 185.821 213.05 184.832 213.206 183.862Z" fill="white" stroke="#263238" stroke-linecap="round" stroke-linejoin="round"/>
<path d="M289.845 199.623C290.219 198.457 290.899 197.406 291.817 196.574C293.296 195.29 293.953 194.969 292.474 194.808C290.995 194.648 289.187 196.895 289.187 196.895L289.845 199.623Z" fill="white" stroke="#263238" stroke-linecap="round" stroke-linejoin="round"/>
<path d="M264.702 188.87C265.705 189.856 266.872 190.67 268.153 191.277C270.618 192.561 282.943 199.142 282.943 199.142L287.38 196.574C287.38 196.574 280.478 193.524 277.355 190.314C274.233 187.104 271.768 184.055 271.768 184.055C271.768 184.055 263.551 184.536 264.702 188.87Z" fill="white" stroke="#263238" stroke-linecap="round" stroke-linejoin="round"/>
<path d="M280.806 197.377C280.806 197.377 281.464 200.747 282.614 200.908C283.764 201.068 289.352 200.587 289.845 199.624C290.338 198.661 290.666 195.29 289.845 195.13C289.023 194.969 280.806 197.377 280.806 197.377Z" fill="white" stroke="#263238" stroke-linecap="round" stroke-linejoin="round"/>
<path d="M219.023 217.972C218.249 217.009 217.232 216.259 216.072 215.795C214.225 215.108 213.495 215.031 214.823 214.37C216.151 213.709 218.649 215.192 218.649 215.192L219.023 217.972Z" fill="white" stroke="#263238" stroke-linecap="round" stroke-linejoin="round"/>
<path d="M226.662 212.752C226.662 212.752 227.266 216.129 226.248 216.675C225.229 217.221 219.832 218.697 219.017 217.959C218.202 217.221 216.677 214.184 217.393 213.754C218.11 213.324 226.662 212.752 226.662 212.752Z" fill="white" stroke="#263238" stroke-linecap="round" stroke-linejoin="round"/>
<path d="M60.4746 238.118C60.4746 238.118 61.0465 236.096 61.0597 235.967C61.2832 234.433 60.7836 231.351 59.1863 230.594C58.917 230.476 58.6254 230.415 58.3304 230.414C58.0354 230.414 57.7436 230.474 57.4739 230.591C57.2042 230.708 56.9628 230.879 56.7651 231.093C56.5675 231.307 56.4182 231.559 56.3269 231.833C55.8996 232.982 56.4452 234.401 57.0828 235.357C57.8453 236.5 60.4746 238.118 60.4746 238.118Z" fill="#263238"/>
<path d="M29.0147 237.45C30.2899 237.996 33.3991 237.925 33.4057 237.925C33.4122 237.925 32.7483 235.935 32.676 235.813C32.0187 234.42 29.8298 232.115 28.0747 232.346C27.784 232.393 27.5066 232.498 27.2606 232.656C27.0145 232.814 26.8053 233.021 26.6465 233.263C26.4878 233.506 26.3831 233.778 26.3392 234.062C26.2953 234.347 26.3133 234.637 26.3919 234.914C26.6811 236.102 27.9301 236.988 29.0147 237.45Z" fill="#263238"/>
<path d="M30.0927 246.258C31.4074 246.445 34.1879 245.661 34.4114 245.616C34.866 247.169 35.4282 248.69 36.0942 250.168C36.4754 251.035 36.8896 251.889 37.3103 252.736C37.0605 252.37 36.8304 252.049 36.791 252.004C35.7589 250.836 33.0507 249.173 31.4205 249.847C31.1525 249.967 30.9133 250.141 30.7184 250.357C30.5235 250.573 30.3774 250.827 30.2893 251.102C30.2013 251.376 30.1734 251.666 30.2075 251.952C30.2416 252.238 30.3369 252.514 30.4871 252.762C31.0919 253.834 32.538 254.36 33.7081 254.527C34.8781 254.694 37.2774 254.072 37.9019 253.885C38.0728 254.213 38.2305 254.527 38.4014 254.868C39.2034 256.434 40.0185 257.994 40.7613 259.541C41.0242 260.087 41.2608 260.639 41.504 261.185C41.2805 260.864 41.0833 260.594 41.0505 260.543C40.0185 259.374 37.3103 257.705 35.6801 258.386C35.4129 258.506 35.1746 258.679 34.9803 258.895C34.7861 259.111 34.6403 259.363 34.5523 259.638C34.4643 259.912 34.4362 260.201 34.4697 260.486C34.5032 260.771 34.5975 261.047 34.7467 261.294C35.3514 262.36 36.7975 262.893 37.9676 263.06C39.1376 263.226 41.3003 262.662 42.0496 262.462C42.2797 263.027 42.5098 263.599 42.707 264.157C42.8319 264.543 42.9765 264.909 43.0816 265.3C43.1868 265.692 43.3051 266.071 43.4103 266.449C43.5944 267.194 43.785 267.952 43.9427 268.683C44.0611 269.184 44.1597 269.666 44.2583 270.154C44.0019 269.608 43.4826 268.549 43.43 268.465C42.5821 267.181 40.1434 265.108 38.4474 265.531C38.1642 265.61 37.9011 265.746 37.6754 265.931C37.4496 266.116 37.2663 266.345 37.1373 266.604C37.0083 266.862 36.9366 267.145 36.9267 267.432C36.9169 267.72 36.9692 268.006 37.0802 268.273C37.5075 269.422 38.855 270.16 39.9856 270.5C41.228 270.873 43.9888 270.532 44.3306 270.5C44.4949 271.303 44.6461 272.086 44.7841 272.831C45.0602 274.378 45.2771 275.778 45.4415 276.972H46.5984C46.4012 275.733 46.1448 274.269 45.8161 272.638C45.6518 271.823 45.4546 270.95 45.2508 270.07C46.0813 269.745 46.8913 269.372 47.6764 268.953C48.5835 269.916 50.9105 271.04 51.2129 271.181C50.8973 271.938 50.5555 272.677 50.2729 273.37C49.6681 274.725 49.0897 275.938 48.5769 276.978H49.8259C50.2663 276.028 50.7461 274.949 51.2391 273.768C51.5612 272.998 51.8965 272.163 52.2251 271.309C52.5604 271.38 55.2883 271.919 56.5635 271.637C57.7139 271.386 59.114 270.751 59.6333 269.634C59.7634 269.378 59.8373 269.098 59.8503 268.813C59.8632 268.528 59.8149 268.243 59.7084 267.977C59.6019 267.711 59.4397 267.469 59.232 267.268C59.0244 267.067 58.7759 266.911 58.5027 266.809C56.8265 266.257 54.2563 268.093 53.3163 269.377C53.2637 269.454 52.751 270.314 52.4355 270.86C52.5735 270.513 52.705 270.173 52.8365 269.813C53.106 269.094 53.3558 268.375 53.6187 267.605L53.9737 266.456C54.0985 266.077 54.1774 265.66 54.2892 265.255C54.5192 264.318 54.7033 263.329 54.8676 262.385C55.525 262.61 57.7928 263.393 58.9825 263.31C60.1723 263.226 61.6119 262.803 62.3218 261.782C62.4914 261.547 62.6083 261.279 62.6648 260.996C62.7214 260.714 62.7163 260.423 62.6499 260.142C62.5836 259.862 62.4574 259.598 62.2797 259.368C62.1019 259.139 61.8766 258.948 61.6184 258.81C60.0408 258.013 57.2143 259.452 56.0968 260.569C56.0245 260.639 55.308 261.506 54.9268 261.994C55.0188 261.41 55.1174 260.825 55.1897 260.228C55.4066 258.514 55.5775 256.768 55.7485 255.028C55.801 254.495 55.8602 253.962 55.9194 253.436C56.1429 253.519 58.8445 254.495 60.1723 254.405C61.3555 254.328 62.8345 253.905 63.5181 252.877C63.6875 252.642 63.804 252.374 63.8601 252.091C63.9161 251.808 63.9105 251.517 63.8435 251.236C63.7765 250.956 63.6496 250.692 63.4712 250.463C63.2929 250.233 63.0669 250.043 62.8082 249.905C61.2372 249.109 58.4107 250.547 57.2866 251.664C57.2012 251.748 56.1757 253.006 55.9259 253.333C56.0574 252.165 56.1954 251.003 56.3729 249.86C56.6049 248.303 56.9364 246.761 57.3655 245.244C57.4707 245.283 60.284 246.323 61.6447 246.226C62.8214 246.149 64.2741 245.726 64.984 244.698C65.1536 244.463 65.2705 244.195 65.327 243.913C65.3836 243.63 65.3785 243.339 65.3121 243.059C65.2458 242.778 65.1196 242.515 64.9419 242.285C64.7641 242.055 64.5388 241.865 64.2806 241.726C62.703 240.93 59.8831 242.368 58.759 243.485C58.6867 243.562 57.8979 244.512 57.5364 244.974L57.4509 244.929C57.9353 243.431 58.5579 241.978 59.3112 240.59C59.7122 239.819 60.1394 239.1 60.5733 238.413C61.0794 238.664 63.3932 239.761 64.629 239.806C65.8648 239.851 67.3241 239.594 68.1195 238.644C68.3144 238.428 68.4605 238.175 68.5483 237.9C68.636 237.625 68.6634 237.335 68.6287 237.049C68.5939 236.763 68.4979 236.487 68.3467 236.24C68.1955 235.993 67.9927 235.78 67.7514 235.614C66.2789 234.657 63.3012 235.813 62.0654 236.776C61.9997 236.827 61.4081 237.418 60.9282 237.88C61.1254 237.572 61.3292 237.238 61.5264 236.962C62.2692 235.871 63.0186 234.921 63.689 234.08C64.0703 233.605 64.4253 233.181 64.7671 232.796C65.4244 232.796 67.9025 232.712 68.9937 232.211C70.0849 231.711 71.2944 230.799 71.5507 229.605C71.6217 229.326 71.6317 229.035 71.5799 228.751C71.5281 228.468 71.4157 228.199 71.2501 227.961C71.0845 227.723 70.8694 227.521 70.6188 227.37C70.3682 227.218 70.0877 227.12 69.7957 227.082C68.034 226.896 65.9371 229.258 65.2929 230.671C65.2338 230.793 64.5896 232.802 64.6356 232.802H64.675C64.3398 233.174 63.9848 233.572 63.6102 234.022C62.9528 234.85 62.1509 235.787 61.3818 236.872C60.5355 238.023 59.7627 239.224 59.068 240.468C58.2817 241.857 57.6218 243.312 57.096 244.814C57.096 244.814 57.096 244.814 57.096 244.865C57.096 244.358 57.096 242.939 57.096 242.83C56.8988 241.296 55.5775 238.452 53.8093 238.137C53.5183 238.092 53.2207 238.107 52.9361 238.181C52.6515 238.256 52.3863 238.389 52.1578 238.571C51.9294 238.752 51.7429 238.979 51.6107 239.237C51.4784 239.494 51.4033 239.776 51.3903 240.063C51.2852 241.283 52.1923 242.503 53.0731 243.273C54.0657 244.14 56.8265 244.981 57.0171 245.045C56.5303 246.583 56.1482 248.151 55.8733 249.738C55.709 250.663 55.5644 251.606 55.4395 252.544C55.4395 252.107 55.4395 251.715 55.4395 251.658C55.2357 250.13 53.9211 247.279 52.1528 246.965C51.862 246.92 51.5648 246.936 51.2806 247.011C50.9964 247.086 50.7316 247.219 50.5034 247.401C50.2752 247.582 50.0888 247.809 49.9562 248.066C49.8236 248.322 49.7478 248.603 49.7339 248.891C49.6353 250.11 50.5358 251.33 51.4166 252.101C52.2975 252.871 54.6573 253.641 55.2752 253.84L55.1371 254.925C54.9268 256.665 54.723 258.399 54.4798 260.094C54.3878 260.691 54.276 261.275 54.1709 261.865C54.1709 261.474 54.1709 261.146 54.1709 261.095C53.9671 259.561 52.6524 256.717 50.8842 256.402C50.5932 256.356 50.2956 256.372 50.011 256.446C49.7264 256.521 49.4611 256.654 49.2327 256.835C49.0043 257.017 48.8178 257.244 48.6855 257.502C48.5533 257.759 48.4782 258.04 48.4652 258.328C48.36 259.548 49.2671 260.768 50.148 261.538C51.0288 262.308 53.1586 263.002 53.8948 263.239C53.7633 263.836 53.6384 264.433 53.4872 265.005C53.3689 265.396 53.29 265.775 53.152 266.16L52.7773 267.303C52.5078 268.016 52.2383 268.754 51.9622 269.447C51.7716 269.929 51.581 270.385 51.3903 270.847C51.4889 270.25 51.6533 269.082 51.6533 268.985C51.6317 267.631 51.2561 266.305 50.5621 265.133C50.5751 264.982 50.5751 264.829 50.5621 264.677C50.5257 264.392 50.4281 264.117 50.2758 263.871C50.1234 263.625 49.9197 263.413 49.6778 263.249C49.436 263.085 49.1614 262.972 48.8721 262.918C48.5828 262.865 48.2851 262.871 47.9985 262.938C46.2829 263.387 45.1983 266.327 45.1128 267.868C45.1128 267.958 45.172 268.953 45.2245 269.582C45.1325 269.216 45.0536 268.863 44.9616 268.491C44.7841 267.746 44.5804 267.014 44.37 266.225L44.0151 265.082C43.9033 264.697 43.7324 264.299 43.6009 263.907C43.2591 263.002 42.8713 262.103 42.4572 261.204C43.1145 261.05 45.4678 260.466 46.4012 259.753C47.3346 259.041 48.3337 257.904 48.3206 256.678C48.3286 256.387 48.2731 256.098 48.1577 255.83C48.0424 255.561 47.8698 255.32 47.6515 255.122C47.4331 254.924 47.1741 254.774 46.8917 254.681C46.6092 254.589 46.3098 254.556 46.0133 254.585C44.2451 254.771 42.7267 257.519 42.398 259.034C42.398 259.124 42.2731 260.241 42.2271 260.851C41.9773 260.312 41.7275 259.773 41.4515 259.24C40.6627 257.686 39.8213 256.139 38.9799 254.598C38.7235 254.123 38.4737 253.648 38.2239 253.173C38.4606 253.121 41.2608 252.486 42.3191 251.696C43.2591 250.99 44.2517 249.841 44.2451 248.621C44.253 248.331 44.1978 248.043 44.0832 247.776C43.9686 247.509 43.7972 247.268 43.5803 247.07C43.3635 246.872 43.1061 246.722 42.8253 246.628C42.5444 246.535 42.2464 246.501 41.951 246.528C40.1894 246.714 38.6644 249.456 38.3357 250.971C38.3357 251.086 38.1648 252.685 38.1516 253.096C37.5929 252.049 37.0473 251.003 36.5543 249.956C35.8874 248.534 35.3143 247.072 34.8387 245.578C34.9504 245.578 37.8821 244.936 38.9602 244.095C39.9001 243.389 40.8927 242.239 40.8861 241.02C40.8945 240.732 40.8407 240.445 40.728 240.179C40.6154 239.913 40.4466 239.673 40.2326 239.475C40.0186 239.277 39.7642 239.125 39.486 239.03C39.2079 238.934 38.9122 238.897 38.6183 238.92C36.8567 239.107 35.3317 241.848 35.0096 243.363C35.0096 243.466 34.8715 244.686 34.8321 245.289H34.7335C34.29 243.776 33.9864 242.226 33.8264 240.66C33.7278 239.8 33.6818 238.972 33.6621 238.169C34.2208 238.099 36.7647 237.771 37.823 237.148C38.8813 236.526 39.9527 235.511 40.0842 234.292C40.124 234.007 40.102 233.717 40.0195 233.441C39.9371 233.165 39.7961 232.909 39.6058 232.69C39.4154 232.471 39.18 232.293 38.9147 232.169C38.6495 232.044 38.3604 231.976 38.0662 231.967C36.2914 231.967 34.464 234.535 33.971 235.993C33.971 236.076 33.7672 236.917 33.6489 237.534C33.6489 237.168 33.6489 236.795 33.6489 236.442C33.6489 235.158 33.7409 233.938 33.8198 232.873C33.8724 232.269 33.9381 231.724 33.9973 231.216C34.51 230.876 36.5609 229.457 37.1919 228.449C37.823 227.441 38.3094 226.035 37.8493 224.899C37.7512 224.628 37.5955 224.38 37.3925 224.172C37.1896 223.963 36.9438 223.799 36.6713 223.69C36.3989 223.581 36.1059 223.529 35.8116 223.539C35.5173 223.548 35.2283 223.618 34.9636 223.743C33.386 224.54 32.9916 227.634 33.2348 229.162C33.2348 229.29 33.8527 231.313 33.8921 231.3C33.8198 231.788 33.7541 232.314 33.6883 232.892C33.5832 233.951 33.4714 235.152 33.4386 236.468C33.3838 237.883 33.4189 239.3 33.5437 240.712C33.6644 242.296 33.9328 243.867 34.3457 245.405V245.456C34.063 245.026 33.2414 243.857 33.1691 243.774C32.137 242.605 29.4288 240.936 27.7986 241.617C27.5308 241.736 27.2917 241.909 27.0969 242.125C26.902 242.34 26.7558 242.593 26.6678 242.868C26.5797 243.142 26.5518 243.431 26.5858 243.717C26.6198 244.002 26.715 244.278 26.8652 244.525C27.4765 245.559 28.9227 246.091 30.0927 246.258Z" fill="#263238"/>
<path opacity="0.3" d="M29.0147 237.45C30.2899 237.996 33.3991 237.925 33.4057 237.925C33.4122 237.925 32.7483 235.935 32.676 235.813C32.0187 234.42 29.8298 232.115 28.0747 232.346C27.784 232.393 27.5066 232.498 27.2606 232.656C27.0145 232.814 26.8053 233.021 26.6465 233.263C26.4878 233.506 26.3831 233.778 26.3392 234.062C26.2953 234.347 26.3133 234.637 26.3919 234.914C26.6811 236.102 27.9301 236.988 29.0147 237.45Z" fill="#263238"/>
<path opacity="0.3" d="M60.4746 238.118C60.4746 238.118 61.0465 236.096 61.0597 235.967C61.2832 234.433 60.7836 231.351 59.1863 230.594C58.917 230.476 58.6254 230.415 58.3304 230.414C58.0354 230.414 57.7436 230.474 57.4739 230.591C57.2042 230.708 56.9628 230.879 56.7651 231.093C56.5675 231.307 56.4182 231.559 56.3269 231.833C55.8996 232.982 56.4452 234.401 57.0828 235.357C57.8453 236.5 60.4746 238.118 60.4746 238.118Z" fill="#263238"/>
<path opacity="0.3" d="M30.0927 246.258C31.4074 246.445 34.1879 245.661 34.4114 245.616C34.866 247.169 35.4282 248.69 36.0942 250.168C36.4754 251.035 36.8896 251.889 37.3103 252.736C37.0605 252.37 36.8304 252.049 36.791 252.004C35.7589 250.836 33.0507 249.173 31.4205 249.847C31.1525 249.967 30.9133 250.141 30.7184 250.357C30.5235 250.573 30.3774 250.827 30.2893 251.102C30.2013 251.376 30.1734 251.666 30.2075 251.952C30.2416 252.238 30.3369 252.514 30.4871 252.762C31.0919 253.834 32.538 254.36 33.7081 254.527C34.8781 254.694 37.2774 254.072 37.9019 253.885C38.0728 254.213 38.2305 254.527 38.4014 254.868C39.2034 256.434 40.0185 257.994 40.7613 259.541C41.0242 260.087 41.2608 260.639 41.504 261.185C41.2805 260.864 41.0833 260.594 41.0505 260.543C40.0185 259.374 37.3103 257.705 35.6801 258.386C35.4129 258.506 35.1746 258.679 34.9803 258.895C34.7861 259.111 34.6403 259.363 34.5523 259.638C34.4643 259.912 34.4362 260.201 34.4697 260.486C34.5032 260.771 34.5975 261.047 34.7467 261.294C35.3514 262.36 36.7975 262.893 37.9676 263.06C39.1376 263.226 41.3003 262.662 42.0496 262.462C42.2797 263.027 42.5098 263.599 42.707 264.157C42.8319 264.543 42.9765 264.909 43.0816 265.3C43.1868 265.692 43.3051 266.071 43.4103 266.449C43.5944 267.194 43.785 267.952 43.9427 268.683C44.0611 269.184 44.1597 269.666 44.2583 270.154C44.0019 269.608 43.4826 268.549 43.43 268.465C42.5821 267.181 40.1434 265.108 38.4474 265.531C38.1642 265.61 37.9011 265.746 37.6754 265.931C37.4496 266.116 37.2663 266.345 37.1373 266.604C37.0083 266.862 36.9366 267.145 36.9267 267.432C36.9169 267.72 36.9692 268.006 37.0802 268.273C37.5075 269.422 38.855 270.16 39.9856 270.5C41.228 270.873 43.9888 270.532 44.3306 270.5C44.4949 271.303 44.6461 272.086 44.7841 272.831C45.0602 274.378 45.2771 275.778 45.4415 276.972H46.5984C46.4012 275.733 46.1448 274.269 45.8161 272.638C45.6518 271.823 45.4546 270.95 45.2508 270.07C46.0813 269.745 46.8913 269.372 47.6764 268.953C48.5835 269.916 50.9105 271.04 51.2129 271.181C50.8973 271.938 50.5555 272.677 50.2729 273.37C49.6681 274.725 49.0897 275.938 48.5769 276.978H49.8259C50.2663 276.028 50.7461 274.949 51.2391 273.768C51.5612 272.998 51.8965 272.163 52.2251 271.309C52.5604 271.38 55.2883 271.919 56.5635 271.637C57.7139 271.386 59.114 270.751 59.6333 269.634C59.7634 269.378 59.8373 269.098 59.8503 268.813C59.8632 268.528 59.8149 268.243 59.7084 267.977C59.6019 267.711 59.4397 267.469 59.232 267.268C59.0244 267.067 58.7759 266.911 58.5027 266.809C56.8265 266.257 54.2563 268.093 53.3163 269.377C53.2637 269.454 52.751 270.314 52.4355 270.86C52.5735 270.513 52.705 270.173 52.8365 269.813C53.106 269.094 53.3558 268.375 53.6187 267.605L53.9737 266.456C54.0985 266.077 54.1774 265.66 54.2892 265.255C54.5192 264.318 54.7033 263.329 54.8676 262.385C55.525 262.61 57.7928 263.393 58.9825 263.31C60.1723 263.226 61.6119 262.803 62.3218 261.782C62.4914 261.547 62.6083 261.279 62.6648 260.996C62.7214 260.714 62.7163 260.423 62.6499 260.142C62.5836 259.862 62.4574 259.598 62.2797 259.368C62.1019 259.139 61.8766 258.948 61.6184 258.81C60.0408 258.013 57.2143 259.452 56.0968 260.569C56.0245 260.639 55.308 261.506 54.9268 261.994C55.0188 261.41 55.1174 260.825 55.1897 260.228C55.4066 258.514 55.5775 256.768 55.7485 255.028C55.801 254.495 55.8602 253.962 55.9194 253.436C56.1429 253.519 58.8445 254.495 60.1723 254.405C61.3555 254.328 62.8345 253.905 63.5181 252.877C63.6875 252.642 63.804 252.374 63.8601 252.091C63.9161 251.808 63.9105 251.517 63.8435 251.236C63.7765 250.956 63.6496 250.692 63.4712 250.463C63.2929 250.233 63.0669 250.043 62.8082 249.905C61.2372 249.109 58.4107 250.547 57.2866 251.664C57.2012 251.748 56.1757 253.006 55.9259 253.333C56.0574 252.165 56.1954 251.003 56.3729 249.86C56.6049 248.303 56.9364 246.761 57.3655 245.244C57.4707 245.283 60.284 246.323 61.6447 246.226C62.8214 246.149 64.2741 245.726 64.984 244.698C65.1536 244.463 65.2705 244.195 65.327 243.913C65.3836 243.63 65.3785 243.339 65.3121 243.059C65.2458 242.778 65.1196 242.515 64.9419 242.285C64.7641 242.055 64.5388 241.865 64.2806 241.726C62.703 240.93 59.8831 242.368 58.759 243.485C58.6867 243.562 57.8979 244.512 57.5364 244.974L57.4509 244.929C57.9353 243.431 58.5579 241.978 59.3112 240.59C59.7122 239.819 60.1394 239.1 60.5733 238.413C61.0794 238.664 63.3932 239.761 64.629 239.806C65.8648 239.851 67.3241 239.594 68.1195 238.644C68.3144 238.428 68.4605 238.175 68.5483 237.9C68.636 237.625 68.6634 237.335 68.6287 237.049C68.5939 236.763 68.4979 236.487 68.3467 236.24C68.1955 235.993 67.9927 235.78 67.7514 235.614C66.2789 234.657 63.3012 235.813 62.0654 236.776C61.9997 236.827 61.4081 237.418 60.9282 237.88C61.1254 237.572 61.3292 237.238 61.5264 236.962C62.2692 235.871 63.0186 234.921 63.689 234.08C64.0703 233.605 64.4253 233.181 64.7671 232.796C65.4244 232.796 67.9025 232.712 68.9937 232.211C70.0849 231.711 71.2944 230.799 71.5507 229.605C71.6217 229.326 71.6317 229.035 71.5799 228.751C71.5281 228.468 71.4157 228.199 71.2501 227.961C71.0845 227.723 70.8694 227.521 70.6188 227.37C70.3682 227.218 70.0877 227.12 69.7957 227.082C68.034 226.896 65.9371 229.258 65.2929 230.671C65.2338 230.793 64.5896 232.802 64.6356 232.802H64.675C64.3398 233.174 63.9848 233.572 63.6102 234.022C62.9528 234.85 62.1509 235.787 61.3818 236.872C60.5355 238.023 59.7627 239.224 59.068 240.468C58.2817 241.857 57.6218 243.312 57.096 244.814C57.096 244.814 57.096 244.814 57.096 244.865C57.096 244.358 57.096 242.939 57.096 242.83C56.8988 241.296 55.5775 238.452 53.8093 238.137C53.5183 238.092 53.2207 238.107 52.9361 238.181C52.6515 238.256 52.3863 238.389 52.1578 238.571C51.9294 238.752 51.7429 238.979 51.6107 239.237C51.4784 239.494 51.4033 239.776 51.3903 240.063C51.2852 241.283 52.1923 242.503 53.0731 243.273C54.0657 244.14 56.8265 244.981 57.0171 245.045C56.5303 246.583 56.1482 248.151 55.8733 249.738C55.709 250.663 55.5644 251.606 55.4395 252.544C55.4395 252.107 55.4395 251.715 55.4395 251.658C55.2357 250.13 53.9211 247.279 52.1528 246.965C51.862 246.92 51.5648 246.936 51.2806 247.011C50.9964 247.086 50.7316 247.219 50.5034 247.401C50.2752 247.582 50.0888 247.809 49.9562 248.066C49.8236 248.322 49.7478 248.603 49.7339 248.891C49.6353 250.11 50.5358 251.33 51.4166 252.101C52.2975 252.871 54.6573 253.641 55.2752 253.84L55.1371 254.925C54.9268 256.665 54.723 258.399 54.4798 260.094C54.3878 260.691 54.276 261.275 54.1709 261.865C54.1709 261.474 54.1709 261.146 54.1709 261.095C53.9671 259.561 52.6524 256.717 50.8842 256.402C50.5932 256.356 50.2956 256.372 50.011 256.446C49.7264 256.521 49.4611 256.654 49.2327 256.835C49.0043 257.017 48.8178 257.244 48.6855 257.502C48.5533 257.759 48.4782 258.04 48.4652 258.328C48.36 259.548 49.2671 260.768 50.148 261.538C51.0288 262.308 53.1586 263.002 53.8948 263.239C53.7633 263.836 53.6384 264.433 53.4872 265.005C53.3689 265.396 53.29 265.775 53.152 266.16L52.7773 267.303C52.5078 268.016 52.2383 268.754 51.9622 269.447C51.7716 269.929 51.581 270.385 51.3903 270.847C51.4889 270.25 51.6533 269.082 51.6533 268.985C51.6317 267.631 51.2561 266.305 50.5621 265.133C50.5751 264.982 50.5751 264.829 50.5621 264.677C50.5257 264.392 50.4281 264.117 50.2758 263.871C50.1234 263.625 49.9197 263.413 49.6778 263.249C49.436 263.085 49.1614 262.972 48.8721 262.918C48.5828 262.865 48.2851 262.871 47.9985 262.938C46.2829 263.387 45.1983 266.327 45.1128 267.868C45.1128 267.958 45.172 268.953 45.2245 269.582C45.1325 269.216 45.0536 268.863 44.9616 268.491C44.7841 267.746 44.5804 267.014 44.37 266.225L44.0151 265.082C43.9033 264.697 43.7324 264.299 43.6009 263.907C43.2591 263.002 42.8713 262.103 42.4572 261.204C43.1145 261.05 45.4678 260.466 46.4012 259.753C47.3346 259.041 48.3337 257.904 48.3206 256.678C48.3286 256.387 48.2731 256.098 48.1577 255.83C48.0424 255.561 47.8698 255.32 47.6515 255.122C47.4331 254.924 47.1741 254.774 46.8917 254.681C46.6092 254.589 46.3098 254.556 46.0133 254.585C44.2451 254.771 42.7267 257.519 42.398 259.034C42.398 259.124 42.2731 260.241 42.2271 260.851C41.9773 260.312 41.7275 259.773 41.4515 259.24C40.6627 257.686 39.8213 256.139 38.9799 254.598C38.7235 254.123 38.4737 253.648 38.2239 253.173C38.4606 253.121 41.2608 252.486 42.3191 251.696C43.2591 250.99 44.2517 249.841 44.2451 248.621C44.253 248.331 44.1978 248.043 44.0832 247.776C43.9686 247.509 43.7972 247.268 43.5803 247.07C43.3635 246.872 43.1061 246.722 42.8253 246.628C42.5444 246.535 42.2464 246.501 41.951 246.528C40.1894 246.714 38.6644 249.456 38.3357 250.971C38.3357 251.086 38.1648 252.685 38.1516 253.096C37.5929 252.049 37.0473 251.003 36.5543 249.956C35.8874 248.534 35.3143 247.072 34.8387 245.578C34.9504 245.578 37.8821 244.936 38.9602 244.095C39.9001 243.389 40.8927 242.239 40.8861 241.02C40.8945 240.732 40.8407 240.445 40.728 240.179C40.6154 239.913 40.4466 239.673 40.2326 239.475C40.0186 239.277 39.7642 239.125 39.486 239.03C39.2079 238.934 38.9122 238.897 38.6183 238.92C36.8567 239.107 35.3317 241.848 35.0096 243.363C35.0096 243.466 34.8715 244.686 34.8321 245.289H34.7335C34.29 243.776 33.9864 242.226 33.8264 240.66C33.7278 239.8 33.6818 238.972 33.6621 238.169C34.2208 238.099 36.7647 237.771 37.823 237.148C38.8813 236.526 39.9527 235.511 40.0842 234.292C40.124 234.007 40.102 233.717 40.0195 233.441C39.9371 233.165 39.7961 232.909 39.6058 232.69C39.4154 232.471 39.18 232.293 38.9147 232.169C38.6495 232.044 38.3604 231.976 38.0662 231.967C36.2914 231.967 34.464 234.535 33.971 235.993C33.971 236.076 33.7672 236.917 33.6489 237.534C33.6489 237.168 33.6489 236.795 33.6489 236.442C33.6489 235.158 33.7409 233.938 33.8198 232.873C33.8724 232.269 33.9381 231.724 33.9973 231.216C34.51 230.876 36.5609 229.457 37.1919 228.449C37.823 227.441 38.3094 226.035 37.8493 224.899C37.7512 224.628 37.5955 224.38 37.3925 224.172C37.1896 223.963 36.9438 223.799 36.6713 223.69C36.3989 223.581 36.1059 223.529 35.8116 223.539C35.5173 223.548 35.2283 223.618 34.9636 223.743C33.386 224.54 32.9916 227.634 33.2348 229.162C33.2348 229.29 33.8527 231.313 33.8921 231.3C33.8198 231.788 33.7541 232.314 33.6883 232.892C33.5832 233.951 33.4714 235.152 33.4386 236.468C33.3838 237.883 33.4189 239.3 33.5437 240.712C33.6644 242.296 33.9328 243.867 34.3457 245.405V245.456C34.063 245.026 33.2414 243.857 33.1691 243.774C32.137 242.605 29.4288 240.936 27.7986 241.617C27.5308 241.736 27.2917 241.909 27.0969 242.125C26.902 242.34 26.7558 242.593 26.6678 242.868C26.5797 243.142 26.5518 243.431 26.5858 243.717C26.6198 244.002 26.715 244.278 26.8652 244.525C27.4765 245.559 28.9227 246.091 30.0927 246.258Z" fill="#263238"/>
<path d="M459.686 238.118C459.686 238.118 460.252 236.096 460.271 235.967C460.488 234.433 459.989 231.351 458.391 230.594C458.122 230.476 457.831 230.415 457.536 230.414C457.241 230.414 456.949 230.474 456.679 230.591C456.409 230.708 456.168 230.879 455.97 231.093C455.773 231.307 455.623 231.559 455.532 231.833C455.105 232.982 455.65 234.401 456.295 235.357C457.044 236.5 459.68 238.118 459.686 238.118Z" fill="#263238"/>
<path d="M428.193 237.45C429.469 237.996 432.578 237.925 432.585 237.925C432.591 237.925 431.927 235.935 431.855 235.813C431.198 234.42 429.015 232.115 427.254 232.346C426.963 232.393 426.686 232.498 426.439 232.656C426.193 232.814 425.984 233.021 425.825 233.263C425.667 233.506 425.562 233.778 425.518 234.062C425.474 234.347 425.492 234.637 425.571 234.914C425.86 236.102 427.109 236.988 428.193 237.45Z" fill="#263238"/>
<path d="M429.272 246.258C430.586 246.445 433.367 245.661 433.59 245.616C434.048 247.168 434.61 248.689 435.273 250.168C435.654 251.035 436.068 251.889 436.496 252.736L435.976 252.004C434.938 250.836 432.23 249.173 430.599 249.847C430.332 249.968 430.094 250.142 429.899 250.358C429.705 250.574 429.559 250.828 429.471 251.102C429.383 251.377 429.355 251.667 429.389 251.952C429.422 252.238 429.517 252.514 429.666 252.762C430.271 253.834 431.717 254.36 432.887 254.527C434.057 254.694 436.456 254.072 437.087 253.885L437.58 254.868C438.382 256.434 439.197 257.994 439.94 259.541C440.203 260.087 440.446 260.639 440.683 261.185C440.459 260.864 440.269 260.594 440.236 260.543C439.197 259.374 436.489 257.705 434.859 258.386C434.591 258.506 434.352 258.679 434.157 258.896C433.962 259.112 433.816 259.365 433.728 259.64C433.64 259.915 433.612 260.205 433.646 260.491C433.68 260.777 433.775 261.053 433.925 261.3C434.53 262.366 435.976 262.899 437.146 263.066C438.316 263.233 440.486 262.668 441.228 262.469C441.459 263.034 441.689 263.605 441.886 264.164C442.011 264.549 442.162 264.915 442.26 265.307C442.359 265.698 442.484 266.077 442.589 266.456C442.773 267.2 442.964 267.958 443.122 268.69C443.24 269.191 443.338 269.672 443.437 270.16C443.187 269.614 442.661 268.555 442.609 268.472C441.767 267.188 439.322 265.114 437.626 265.538C437.343 265.617 437.08 265.753 436.854 265.938C436.628 266.122 436.445 266.352 436.316 266.61C436.187 266.869 436.115 267.151 436.106 267.439C436.096 267.726 436.148 268.013 436.259 268.279C436.686 269.428 438.034 270.167 439.164 270.507C440.407 270.879 443.168 270.539 443.509 270.507C443.674 271.309 443.832 272.093 443.963 272.837C444.239 274.384 444.456 275.784 444.62 276.978H445.777C445.58 275.739 445.324 274.275 444.995 272.645C444.831 271.829 444.64 270.956 444.43 270.077C445.26 269.752 446.07 269.379 446.855 268.96C447.762 269.923 450.089 271.046 450.392 271.187C450.076 271.945 449.734 272.683 449.452 273.377C448.847 274.731 448.275 275.945 447.756 276.985H449.011C449.445 276.034 449.925 274.956 450.418 273.775C450.747 273.004 451.075 272.17 451.404 271.316C451.739 271.386 454.467 271.926 455.742 271.643C456.899 271.393 458.293 270.757 458.812 269.64C458.943 269.382 459.016 269.1 459.027 268.812C459.039 268.525 458.988 268.238 458.878 267.971C458.768 267.704 458.602 267.462 458.39 267.262C458.178 267.062 457.926 266.907 457.649 266.809C455.972 266.257 453.402 268.093 452.462 269.377C452.41 269.454 451.897 270.314 451.581 270.86C451.72 270.513 451.851 270.173 451.982 269.813C452.252 269.094 452.502 268.375 452.765 267.605L453.12 266.456C453.245 266.077 453.33 265.66 453.435 265.255C453.665 264.318 453.849 263.329 454.014 262.385C454.671 262.61 456.945 263.393 458.129 263.31C459.312 263.227 460.758 262.803 461.468 261.782C461.637 261.547 461.754 261.279 461.811 260.996C461.867 260.714 461.862 260.423 461.796 260.142C461.73 259.862 461.603 259.598 461.426 259.369C461.248 259.139 461.023 258.948 460.764 258.81C459.187 258.013 456.36 259.452 455.243 260.569C455.171 260.639 454.454 261.506 454.073 261.994C454.165 261.41 454.263 260.825 454.336 260.228C454.559 258.514 454.724 256.768 454.894 255.028C454.947 254.495 455.006 253.962 455.065 253.436C455.295 253.519 457.99 254.495 459.318 254.405C460.501 254.328 461.948 253.905 462.664 252.877C462.833 252.642 462.949 252.374 463.005 252.092C463.061 251.809 463.055 251.519 462.989 251.238C462.923 250.958 462.797 250.695 462.62 250.465C462.443 250.235 462.218 250.045 461.961 249.905C460.383 249.109 457.557 250.547 456.433 251.664C456.347 251.748 455.322 253.006 455.078 253.333C455.203 252.165 455.341 251.003 455.525 249.86C455.765 248.315 456.105 246.786 456.544 245.283C456.649 245.321 459.463 246.361 460.824 246.265C462.007 246.188 463.486 245.764 464.169 244.737C464.338 244.501 464.453 244.233 464.509 243.95C464.564 243.667 464.559 243.377 464.492 243.096C464.425 242.816 464.298 242.553 464.12 242.323C463.943 242.094 463.717 241.903 463.459 241.764C461.888 240.968 459.062 242.406 457.938 243.524C457.866 243.601 457.077 244.551 456.715 245.013L456.63 244.968C457.114 243.469 457.737 242.017 458.49 240.628C458.891 239.858 459.318 239.139 459.752 238.452C460.258 238.702 462.572 239.8 463.808 239.845C465.044 239.89 466.51 239.633 467.298 238.683C467.494 238.467 467.64 238.214 467.728 237.939C467.817 237.665 467.845 237.375 467.811 237.089C467.776 236.803 467.681 236.527 467.53 236.28C467.38 236.032 467.178 235.819 466.937 235.653C465.458 234.696 462.487 235.852 461.244 236.815C461.179 236.866 460.554 237.457 460.107 237.919C460.304 237.611 460.508 237.277 460.705 237.001C461.448 235.909 462.197 234.959 462.868 234.118C463.249 233.643 463.611 233.219 463.946 232.834C464.603 232.834 467.081 232.751 468.179 232.25C469.277 231.749 470.473 230.838 470.73 229.643C470.801 229.364 470.811 229.073 470.759 228.79C470.707 228.507 470.595 228.237 470.429 227.999C470.263 227.761 470.048 227.56 469.798 227.408C469.547 227.257 469.267 227.159 468.975 227.12C467.213 226.934 465.116 229.297 464.472 230.709C464.419 230.831 463.768 232.841 463.814 232.841H463.854C463.519 233.213 463.197 233.611 462.789 234.06C462.132 234.889 461.33 235.826 460.561 236.911C459.717 238.063 458.944 239.264 458.247 240.506C457.461 241.896 456.801 243.35 456.275 244.852C456.275 244.852 456.275 244.852 456.275 244.904C456.275 244.397 456.275 242.978 456.275 242.869C456.071 241.334 454.75 238.49 452.988 238.176C452.697 238.13 452.4 238.145 452.115 238.22C451.83 238.295 451.565 238.427 451.337 238.609C451.108 238.791 450.922 239.018 450.789 239.275C450.657 239.532 450.582 239.814 450.569 240.102C450.464 241.321 451.371 242.541 452.252 243.312C453.245 244.178 456.012 245.019 456.196 245.084C455.699 246.624 455.31 248.197 455.032 249.789C454.862 250.714 454.717 251.658 454.592 252.595C454.592 252.158 454.592 251.767 454.592 251.709C454.388 250.181 453.074 247.331 451.305 247.016C451.014 246.972 450.717 246.987 450.432 247.062C450.148 247.137 449.882 247.27 449.654 247.452C449.425 247.633 449.238 247.86 449.105 248.117C448.971 248.373 448.895 248.655 448.88 248.942C448.781 250.162 449.682 251.382 450.569 252.152C451.457 252.922 453.803 253.693 454.421 253.892L454.283 254.977C454.073 256.717 453.869 258.45 453.626 260.145C453.534 260.742 453.429 261.326 453.317 261.917C453.317 261.525 453.317 261.198 453.317 261.146C453.113 259.612 451.798 256.768 450.03 256.453C449.739 256.408 449.442 256.423 449.157 256.498C448.872 256.572 448.607 256.705 448.379 256.887C448.15 257.069 447.964 257.296 447.831 257.553C447.699 257.81 447.624 258.092 447.611 258.379C447.513 259.599 448.413 260.819 449.294 261.589C450.175 262.36 452.305 263.053 453.041 263.291C452.909 263.888 452.784 264.485 452.633 265.056C452.515 265.448 452.436 265.827 452.298 266.212L451.923 267.355C451.654 268.067 451.384 268.805 451.108 269.499C450.918 269.98 450.727 270.436 450.543 270.898C450.635 270.301 450.799 269.133 450.799 269.037C450.778 267.683 450.402 266.357 449.708 265.185C449.721 265.033 449.721 264.88 449.708 264.729C449.671 264.443 449.572 264.168 449.419 263.922C449.266 263.676 449.062 263.464 448.82 263.3C448.577 263.136 448.302 263.023 448.013 262.97C447.723 262.916 447.425 262.923 447.138 262.989C445.422 263.438 444.338 266.379 444.259 267.92C444.259 268.009 444.311 269.004 444.364 269.634C444.278 269.268 444.193 268.915 444.101 268.542C443.924 267.798 443.72 267.066 443.509 266.276L443.154 265.133C443.043 264.748 442.878 264.35 442.74 263.958C442.399 263.053 442.011 262.154 441.597 261.256C442.254 261.101 444.607 260.517 445.541 259.805C446.474 259.092 447.473 257.956 447.467 256.729C447.474 256.442 447.419 256.156 447.306 255.89C447.193 255.625 447.025 255.385 446.811 255.187C446.597 254.989 446.343 254.837 446.065 254.741C445.788 254.645 445.492 254.608 445.199 254.63C443.437 254.816 441.912 257.564 441.583 259.079C441.583 259.169 441.459 260.286 441.413 260.896C441.163 260.357 440.913 259.817 440.643 259.285C439.855 257.731 439.007 256.184 438.165 254.643C437.909 254.168 437.659 253.693 437.409 253.218C437.646 253.166 440.453 252.531 441.505 251.741C442.445 251.035 443.437 249.886 443.431 248.666C443.439 248.378 443.385 248.092 443.272 247.826C443.16 247.559 442.991 247.319 442.777 247.121C442.563 246.923 442.309 246.771 442.03 246.676C441.752 246.58 441.457 246.543 441.163 246.567C439.401 246.753 437.876 249.494 437.547 251.009C437.547 251.125 437.376 252.723 437.363 253.134C436.805 252.088 436.266 251.041 435.773 249.995C435.097 248.576 434.517 247.116 434.037 245.623C434.149 245.623 437.081 244.981 438.159 244.14C439.099 243.434 440.131 242.284 440.085 241.065C440.093 240.777 440.039 240.49 439.927 240.224C439.814 239.958 439.645 239.718 439.431 239.52C439.217 239.322 438.963 239.17 438.685 239.075C438.406 238.979 438.111 238.942 437.817 238.965C436.055 239.151 434.53 241.893 434.208 243.408C434.208 243.511 434.07 244.73 434.031 245.334H433.932C433.489 243.821 433.185 242.271 433.025 240.705C432.926 239.845 432.887 239.017 432.861 238.214C433.419 238.144 435.97 237.816 437.022 237.193C438.073 236.571 439.151 235.556 439.283 234.336C439.323 234.052 439.301 233.762 439.218 233.486C439.136 233.21 438.995 232.954 438.804 232.735C438.614 232.516 438.379 232.338 438.113 232.214C437.848 232.089 437.559 232.021 437.265 232.012C435.49 232.012 433.663 234.58 433.176 236.038C433.176 236.121 432.972 236.962 432.847 237.579C432.847 237.213 432.847 236.84 432.847 236.487C432.847 235.203 432.933 233.983 433.018 232.918C433.071 232.314 433.13 231.768 433.189 231.261C433.702 230.921 435.753 229.502 436.384 228.494C437.015 227.486 437.508 226.08 437.041 224.944C436.942 224.673 436.786 224.425 436.582 224.216C436.379 224.008 436.133 223.844 435.86 223.735C435.587 223.626 435.293 223.574 434.998 223.583C434.704 223.593 434.414 223.663 434.149 223.788C432.571 224.585 432.177 227.679 432.42 229.207C432.42 229.335 433.038 231.358 433.078 231.345C433.005 231.833 432.94 232.359 432.874 232.937C432.769 233.996 432.657 235.197 432.624 236.513C432.576 237.928 432.611 239.345 432.729 240.756C432.856 242.341 433.125 243.911 433.531 245.45V245.501C433.255 245.071 432.433 243.902 432.354 243.819C431.322 242.65 428.614 240.981 426.984 241.662C426.716 241.781 426.477 241.954 426.282 242.17C426.087 242.385 425.941 242.638 425.853 242.913C425.765 243.187 425.737 243.476 425.771 243.762C425.805 244.047 425.9 244.323 426.051 244.57C426.655 245.559 428.102 246.092 429.272 246.258Z" fill="#263238"/>
<path opacity="0.3" d="M428.193 237.45C429.469 237.996 432.578 237.925 432.585 237.925C432.591 237.925 431.927 235.935 431.855 235.813C431.198 234.42 429.015 232.115 427.254 232.346C426.963 232.393 426.686 232.498 426.439 232.656C426.193 232.814 425.984 233.021 425.825 233.263C425.667 233.506 425.562 233.778 425.518 234.062C425.474 234.347 425.492 234.637 425.571 234.914C425.86 236.102 427.109 236.988 428.193 237.45Z" fill="#263238"/>
<path opacity="0.3" d="M459.686 238.118C459.686 238.118 460.252 236.096 460.271 235.967C460.488 234.433 459.989 231.351 458.391 230.594C458.122 230.476 457.831 230.415 457.536 230.414C457.241 230.414 456.949 230.474 456.679 230.591C456.409 230.708 456.168 230.879 455.97 231.093C455.773 231.307 455.623 231.559 455.532 231.833C455.105 232.982 455.65 234.401 456.295 235.357C457.044 236.5 459.68 238.118 459.686 238.118Z" fill="#263238"/>
<path opacity="0.3" d="M429.272 246.258C430.586 246.445 433.367 245.661 433.59 245.616C434.048 247.168 434.61 248.689 435.273 250.168C435.654 251.035 436.068 251.889 436.496 252.736L435.976 252.004C434.938 250.836 432.23 249.173 430.599 249.847C430.332 249.968 430.094 250.142 429.899 250.358C429.705 250.574 429.559 250.828 429.471 251.102C429.383 251.377 429.355 251.667 429.389 251.952C429.422 252.238 429.517 252.514 429.666 252.762C430.271 253.834 431.717 254.36 432.887 254.527C434.057 254.694 436.456 254.072 437.087 253.885L437.58 254.868C438.382 256.434 439.197 257.994 439.94 259.541C440.203 260.087 440.446 260.639 440.683 261.185C440.459 260.864 440.269 260.594 440.236 260.543C439.197 259.374 436.489 257.705 434.859 258.386C434.591 258.506 434.352 258.679 434.157 258.896C433.962 259.112 433.816 259.365 433.728 259.64C433.64 259.915 433.612 260.205 433.646 260.491C433.68 260.777 433.775 261.053 433.925 261.3C434.53 262.366 435.976 262.899 437.146 263.066C438.316 263.233 440.486 262.668 441.228 262.469C441.459 263.034 441.689 263.605 441.886 264.164C442.011 264.549 442.162 264.915 442.26 265.307C442.359 265.698 442.484 266.077 442.589 266.456C442.773 267.2 442.964 267.958 443.122 268.69C443.24 269.191 443.338 269.672 443.437 270.16C443.187 269.614 442.661 268.555 442.609 268.472C441.767 267.188 439.322 265.114 437.626 265.538C437.343 265.617 437.08 265.753 436.854 265.938C436.628 266.122 436.445 266.352 436.316 266.61C436.187 266.869 436.115 267.151 436.106 267.439C436.096 267.726 436.148 268.013 436.259 268.279C436.686 269.428 438.034 270.167 439.164 270.507C440.407 270.879 443.168 270.539 443.509 270.507C443.674 271.309 443.832 272.093 443.963 272.837C444.239 274.384 444.456 275.784 444.62 276.978H445.777C445.58 275.739 445.324 274.275 444.995 272.645C444.831 271.829 444.64 270.956 444.43 270.077C445.26 269.752 446.07 269.379 446.855 268.96C447.762 269.923 450.089 271.046 450.392 271.187C450.076 271.945 449.734 272.683 449.452 273.377C448.847 274.731 448.275 275.945 447.756 276.985H449.011C449.445 276.034 449.925 274.956 450.418 273.775C450.747 273.004 451.075 272.17 451.404 271.316C451.739 271.386 454.467 271.926 455.742 271.643C456.899 271.393 458.293 270.757 458.812 269.64C458.943 269.382 459.016 269.1 459.027 268.812C459.039 268.525 458.988 268.238 458.878 267.971C458.768 267.704 458.602 267.462 458.39 267.262C458.178 267.062 457.926 266.907 457.649 266.809C455.972 266.257 453.402 268.093 452.462 269.377C452.41 269.454 451.897 270.314 451.581 270.86C451.72 270.513 451.851 270.173 451.982 269.813C452.252 269.094 452.502 268.375 452.765 267.605L453.12 266.456C453.245 266.077 453.33 265.66 453.435 265.255C453.665 264.318 453.849 263.329 454.014 262.385C454.671 262.61 456.945 263.393 458.129 263.31C459.312 263.227 460.758 262.803 461.468 261.782C461.637 261.547 461.754 261.279 461.811 260.996C461.867 260.714 461.862 260.423 461.796 260.142C461.73 259.862 461.603 259.598 461.426 259.369C461.248 259.139 461.023 258.948 460.764 258.81C459.187 258.013 456.36 259.452 455.243 260.569C455.171 260.639 454.454 261.506 454.073 261.994C454.165 261.41 454.263 260.825 454.336 260.228C454.559 258.514 454.724 256.768 454.894 255.028C454.947 254.495 455.006 253.962 455.065 253.436C455.295 253.519 457.99 254.495 459.318 254.405C460.501 254.328 461.948 253.905 462.664 252.877C462.833 252.642 462.949 252.374 463.005 252.092C463.061 251.809 463.055 251.519 462.989 251.238C462.923 250.958 462.797 250.695 462.62 250.465C462.443 250.235 462.218 250.045 461.961 249.905C460.383 249.109 457.557 250.547 456.433 251.664C456.347 251.748 455.322 253.006 455.078 253.333C455.203 252.165 455.341 251.003 455.525 249.86C455.765 248.315 456.105 246.786 456.544 245.283C456.649 245.321 459.463 246.361 460.824 246.265C462.007 246.188 463.486 245.764 464.169 244.737C464.338 244.501 464.453 244.233 464.509 243.95C464.564 243.667 464.559 243.377 464.492 243.096C464.425 242.816 464.298 242.553 464.12 242.323C463.943 242.094 463.717 241.903 463.459 241.764C461.888 240.968 459.062 242.406 457.938 243.524C457.866 243.601 457.077 244.551 456.715 245.013L456.63 244.968C457.114 243.469 457.737 242.017 458.49 240.628C458.891 239.858 459.318 239.139 459.752 238.452C460.258 238.702 462.572 239.8 463.808 239.845C465.044 239.89 466.51 239.633 467.298 238.683C467.494 238.467 467.64 238.214 467.728 237.939C467.817 237.665 467.845 237.375 467.811 237.089C467.776 236.803 467.681 236.527 467.53 236.28C467.38 236.032 467.178 235.819 466.937 235.653C465.458 234.696 462.487 235.852 461.244 236.815C461.179 236.866 460.554 237.457 460.107 237.919C460.304 237.611 460.508 237.277 460.705 237.001C461.448 235.909 462.197 234.959 462.868 234.118C463.249 233.643 463.611 233.219 463.946 232.834C464.603 232.834 467.081 232.751 468.179 232.25C469.277 231.749 470.473 230.838 470.73 229.643C470.801 229.364 470.811 229.073 470.759 228.79C470.707 228.507 470.595 228.237 470.429 227.999C470.263 227.761 470.048 227.56 469.798 227.408C469.547 227.257 469.267 227.159 468.975 227.12C467.213 226.934 465.116 229.297 464.472 230.709C464.419 230.831 463.768 232.841 463.814 232.841H463.854C463.519 233.213 463.197 233.611 462.789 234.06C462.132 234.889 461.33 235.826 460.561 236.911C459.717 238.063 458.944 239.264 458.247 240.506C457.461 241.896 456.801 243.35 456.275 244.852C456.275 244.852 456.275 244.852 456.275 244.904C456.275 244.397 456.275 242.978 456.275 242.869C456.071 241.334 454.75 238.49 452.988 238.176C452.697 238.13 452.4 238.145 452.115 238.22C451.83 238.295 451.565 238.427 451.337 238.609C451.108 238.791 450.922 239.018 450.789 239.275C450.657 239.532 450.582 239.814 450.569 240.102C450.464 241.321 451.371 242.541 452.252 243.312C453.245 244.178 456.012 245.019 456.196 245.084C455.699 246.624 455.31 248.197 455.032 249.789C454.862 250.714 454.717 251.658 454.592 252.595C454.592 252.158 454.592 251.767 454.592 251.709C454.388 250.181 453.074 247.331 451.305 247.016C451.014 246.972 450.717 246.987 450.432 247.062C450.148 247.137 449.882 247.27 449.654 247.452C449.425 247.633 449.238 247.86 449.105 248.117C448.971 248.373 448.895 248.655 448.88 248.942C448.781 250.162 449.682 251.382 450.569 252.152C451.457 252.922 453.803 253.693 454.421 253.892L454.283 254.977C454.073 256.717 453.869 258.45 453.626 260.145C453.534 260.742 453.429 261.326 453.317 261.917C453.317 261.525 453.317 261.198 453.317 261.146C453.113 259.612 451.798 256.768 450.03 256.453C449.739 256.408 449.442 256.423 449.157 256.498C448.872 256.572 448.607 256.705 448.379 256.887C448.15 257.069 447.964 257.296 447.831 257.553C447.699 257.81 447.624 258.092 447.611 258.379C447.513 259.599 448.413 260.819 449.294 261.589C450.175 262.36 452.305 263.053 453.041 263.291C452.909 263.888 452.784 264.485 452.633 265.056C452.515 265.448 452.436 265.827 452.298 266.212L451.923 267.355C451.654 268.067 451.384 268.805 451.108 269.499C450.918 269.98 450.727 270.436 450.543 270.898C450.635 270.301 450.799 269.133 450.799 269.037C450.778 267.683 450.402 266.357 449.708 265.185C449.721 265.033 449.721 264.88 449.708 264.729C449.671 264.443 449.572 264.168 449.419 263.922C449.266 263.676 449.062 263.464 448.82 263.3C448.577 263.136 448.302 263.023 448.013 262.97C447.723 262.916 447.425 262.923 447.138 262.989C445.422 263.438 444.338 266.379 444.259 267.92C444.259 268.009 444.311 269.004 444.364 269.634C444.278 269.268 444.193 268.915 444.101 268.542C443.924 267.798 443.72 267.066 443.509 266.276L443.154 265.133C443.043 264.748 442.878 264.35 442.74 263.958C442.399 263.053 442.011 262.154 441.597 261.256C442.254 261.101 444.607 260.517 445.541 259.805C446.474 259.092 447.473 257.956 447.467 256.729C447.474 256.442 447.419 256.156 447.306 255.89C447.193 255.625 447.025 255.385 446.811 255.187C446.597 254.989 446.343 254.837 446.065 254.741C445.788 254.645 445.492 254.608 445.199 254.63C443.437 254.816 441.912 257.564 441.583 259.079C441.583 259.169 441.459 260.286 441.413 260.896C441.163 260.357 440.913 259.817 440.643 259.285C439.855 257.731 439.007 256.184 438.165 254.643C437.909 254.168 437.659 253.693 437.409 253.218C437.646 253.166 440.453 252.531 441.505 251.741C442.445 251.035 443.437 249.886 443.431 248.666C443.439 248.378 443.385 248.092 443.272 247.826C443.16 247.559 442.991 247.319 442.777 247.121C442.563 246.923 442.309 246.771 442.03 246.676C441.752 246.58 441.457 246.543 441.163 246.567C439.401 246.753 437.876 249.494 437.547 251.009C437.547 251.125 437.376 252.723 437.363 253.134C436.805 252.088 436.266 251.041 435.773 249.995C435.097 248.576 434.517 247.116 434.037 245.623C434.149 245.623 437.081 244.981 438.159 244.14C439.099 243.434 440.131 242.284 440.085 241.065C440.093 240.777 440.039 240.49 439.927 240.224C439.814 239.958 439.645 239.718 439.431 239.52C439.217 239.322 438.963 239.17 438.685 239.075C438.406 238.979 438.111 238.942 437.817 238.965C436.055 239.151 434.53 241.893 434.208 243.408C434.208 243.511 434.07 244.73 434.031 245.334H433.932C433.489 243.821 433.185 242.271 433.025 240.705C432.926 239.845 432.887 239.017 432.861 238.214C433.419 238.144 435.97 237.816 437.022 237.193C438.073 236.571 439.151 235.556 439.283 234.336C439.323 234.052 439.301 233.762 439.218 233.486C439.136 233.21 438.995 232.954 438.804 232.735C438.614 232.516 438.379 232.338 438.113 232.214C437.848 232.089 437.559 232.021 437.265 232.012C435.49 232.012 433.663 234.58 433.176 236.038C433.176 236.121 432.972 236.962 432.847 237.579C432.847 237.213 432.847 236.84 432.847 236.487C432.847 235.203 432.933 233.983 433.018 232.918C433.071 232.314 433.13 231.768 433.189 231.261C433.702 230.921 435.753 229.502 436.384 228.494C437.015 227.486 437.508 226.08 437.041 224.944C436.942 224.673 436.786 224.425 436.582 224.216C436.379 224.008 436.133 223.844 435.86 223.735C435.587 223.626 435.293 223.574 434.998 223.583C434.704 223.593 434.414 223.663 434.149 223.788C432.571 224.585 432.177 227.679 432.42 229.207C432.42 229.335 433.038 231.358 433.078 231.345C433.005 231.833 432.94 232.359 432.874 232.937C432.769 233.996 432.657 235.197 432.624 236.513C432.576 237.928 432.611 239.345 432.729 240.756C432.856 242.341 433.125 243.911 433.531 245.45V245.501C433.255 245.071 432.433 243.902 432.354 243.819C431.322 242.65 428.614 240.981 426.984 241.662C426.716 241.781 426.477 241.954 426.282 242.17C426.087 242.385 425.941 242.638 425.853 242.913C425.765 243.187 425.737 243.476 425.771 243.762C425.805 244.047 425.9 244.323 426.051 244.57C426.655 245.559 428.102 246.092 429.272 246.258Z" fill="#263238"/>
<path d="M116.966 219.204C116.966 219.204 117.788 219.044 124.525 217.118C128.841 215.768 132.778 213.461 136.029 210.377L133.892 197.216L120.253 199.142L116.966 219.204Z" fill="#47F6AC" stroke="#263238" stroke-linecap="round" stroke-linejoin="round"/>
<path d="M83.4419 263.823C83.4419 263.823 81.1412 268.317 80.8126 272.49C80.4839 276.663 82.9489 278.108 83.7706 276.984C84.5922 275.861 85.9069 271.848 86.0712 270.083L86.5642 264.786L83.4419 263.823Z" fill="white" stroke="#263238" stroke-linecap="round" stroke-linejoin="round"/>
<path d="M143.956 266.712C143.956 266.712 143.299 272.49 143.121 275.219C142.944 277.947 146.408 280.515 146.894 280.682C147.381 280.849 147.88 280.682 148.702 278.756C149.524 276.83 149.53 272.176 149.044 270.731C148.557 269.287 147.571 267.04 147.571 267.04L143.956 266.712Z" fill="white" stroke="#263238" stroke-linecap="round" stroke-linejoin="round"/>
<path d="M120.91 182.129C120.91 182.129 114.277 189.833 111.977 196.253C109.676 202.673 107.842 210.621 106.284 214.871C104.982 218.501 103.885 222.198 102.998 225.945C102.998 225.945 98.725 230.118 97.5746 233.81C96.4243 237.501 82.949 264.786 82.949 264.786C82.949 264.786 83.7706 265.91 84.428 266.07C85.0853 266.231 86.5643 265.428 86.5643 265.428C86.5643 265.428 110.393 234.933 111.872 232.686C113.351 230.439 118.018 225.239 118.511 224.437C119.004 223.634 122.718 212.463 124.032 210.858C125.006 209.579 125.86 208.217 126.583 206.788L127.569 207.43L128.719 207.591C128.719 207.591 133.892 217.76 135.207 221.933C136.522 226.106 140.301 248.897 141.287 253.07C142.273 257.243 143.588 268.157 143.588 268.157C144.182 268.348 144.785 268.509 145.396 268.638C146.217 268.799 148.354 268.157 148.354 268.157C148.354 268.157 152.133 251.465 152.298 245.687C152.462 239.909 151.312 227.069 151.312 225.143C151.312 223.217 148.354 196.734 146.875 193.203C145.396 189.672 140.466 183.413 140.466 183.413L120.91 182.129Z" fill="#263238" stroke="#263238" stroke-linecap="round" stroke-linejoin="round"/>
<path d="M130.606 151.794L120.746 154.844C120.746 154.844 120.746 173.462 120.91 175.869C121.074 178.277 119.76 182.289 120.581 183.252C121.403 184.215 125.347 188.067 132.578 188.228C139.808 188.388 141.78 186.141 141.78 186.141L143.259 179.882C143.259 179.882 148.025 167.363 148.025 165.437C148.025 163.511 143.259 157.893 140.466 155.646C137.672 153.399 130.606 151.794 130.606 151.794Z" fill="white" stroke="#263238" stroke-linecap="round" stroke-linejoin="round"/>
<path d="M105.134 173.783C103.035 175.163 100.838 176.397 98.5606 177.474L85.4139 183.894L86.8929 186.944C90.0996 186.385 93.337 186.01 96.5886 185.82C100.861 185.66 108.092 182.931 108.585 182.129C109.078 181.326 110.721 176.993 110.721 176.993L105.134 173.783Z" fill="white" stroke="#263238" stroke-linecap="round" stroke-linejoin="round"/>
<path d="M129.291 151.955C129.291 151.955 122.225 170.894 121.896 173.622C121.567 176.351 118.774 183.252 118.609 184.215C118.445 185.178 113.844 194.969 113.844 194.969C113.844 194.969 118.774 179.882 119.267 176.832C119.536 174.883 119.311 172.899 118.609 171.054C118.609 171.054 115.277 177.962 114.784 178.444C114.291 178.925 110.945 184.44 110.945 184.44L105.134 173.783C105.134 173.783 111.543 162.869 112.858 161.103C114.172 159.338 116.966 154.523 118.938 153.56C120.91 152.597 129.291 151.955 129.291 151.955Z" fill="#47F6AC" stroke="#263238" stroke-linecap="round" stroke-linejoin="round"/>
<path d="M138.987 154.362C138.987 154.362 133.892 175.227 133.892 178.598C133.892 181.968 133.399 192.401 132.906 198.179C132.413 203.957 131.427 222.414 131.427 222.414C134.58 222.886 137.78 222.994 140.959 222.735C145.56 222.254 153.448 219.204 153.448 219.204C153.448 219.204 149.34 198.981 147.696 194.166C146.314 190.003 145.162 185.771 144.245 181.487C144.245 181.005 148.682 166.881 148.682 164.955C148.682 163.029 140.794 154.844 138.987 154.362Z" fill="#47F6AC" stroke="#263238" stroke-linecap="round" stroke-linejoin="round"/>
<path d="M81.0361 185.101C81.1343 183.885 80.9078 182.664 80.3788 181.558C79.4848 179.837 78.9984 179.304 80.4314 179.683C81.8644 180.062 82.7057 182.803 82.7057 182.803L81.0361 185.101Z" fill="white" stroke="#263238" stroke-linecap="round" stroke-linejoin="round"/>
<path d="M90.2848 186.257C90.2848 186.257 88.4048 189.159 87.2742 188.896C86.1436 188.632 81.1281 186.18 81.0361 185.101C80.9441 184.023 81.8972 180.781 82.7254 180.922C83.5537 181.063 90.2848 186.257 90.2848 186.257Z" fill="white" stroke="#263238" stroke-linecap="round" stroke-linejoin="round"/>
<path d="M145.928 134.672C146.356 135.918 146.68 137.195 146.894 138.492C146.833 139.283 146.683 140.064 146.447 140.823C146.447 140.823 149.136 143.16 149.287 143.744C149.438 144.328 147.795 145.201 147.795 145.201C147.795 145.201 147.939 151.326 147.939 151.762C147.939 152.199 140.623 152.494 140.623 152.494L132.979 161.245L129.396 152.642L131.039 147.827C131.039 147.827 126.109 145.053 127.904 140.823C129.698 136.592 133.728 134.261 137.764 133.677C140.391 133.342 143.058 133.439 145.652 133.966L145.928 134.672Z" fill="white" stroke="#263238" stroke-linecap="round" stroke-linejoin="round"/>
<path d="M140.597 152.494L136.85 151.794L136.633 156.719L140.597 152.494Z" fill="#263238" stroke="#263238" stroke-linecap="round" stroke-linejoin="round"/>
<path d="M144.89 141.388C144.89 141.901 144.699 142.312 144.456 142.312C144.212 142.312 144.022 141.901 144.022 141.388C144.022 140.874 144.219 140.47 144.456 140.47C144.692 140.47 144.89 140.88 144.89 141.388Z" fill="#263238"/>
<path d="M143.443 139.905C143.443 139.905 143.877 139.057 145.468 139.481" stroke="#263238" stroke-linecap="round" stroke-linejoin="round"/>
<path d="M147.065 146.697C147.065 146.697 145.179 146.979 144.436 145.984" stroke="#263238" stroke-linecap="round" stroke-linejoin="round"/>
<path d="M146.27 136.451C146.27 136.451 141.346 135.282 140.446 137.035C139.545 138.788 140.301 139.661 139.552 141.266C138.803 142.871 135.969 144.912 135.969 144.912C135.969 144.912 133.281 141.991 132.38 143.448C131.48 144.906 131.782 147.095 132.683 147.827C133.583 148.559 136.114 148.116 136.114 148.116L132.236 149.868C132.236 149.868 132.38 152.058 128.798 152.931C125.215 153.804 120.91 151.473 121.482 148.559C122.054 145.644 127.003 143.891 127.003 143.891C127.003 143.891 121.745 137.619 126.109 132.977C130.474 128.336 138.954 130.499 138.954 130.499C138.954 130.499 140.15 129.215 143.555 128.894C146.96 128.573 148.485 131.957 148.485 133.857C148.485 135.757 146.27 136.451 146.27 136.451Z" fill="#263238" stroke="#263238" stroke-linecap="round" stroke-linejoin="round"/>
<path d="M394.308 87.954L392.553 54.8396L363.407 70.3054L364.064 72.8734L375.088 78.3689L323.217 177.654L158.595 221.374L44.7908 145.516C43.7822 144.843 42.5415 144.589 41.3414 144.81C40.1413 145.031 39.0803 145.709 38.3916 146.694C37.703 147.679 37.4432 148.891 37.6694 150.063C37.8956 151.235 38.5893 152.271 39.5978 152.944L155.131 229.964C155.905 230.481 156.822 230.754 157.76 230.748C158.167 230.748 158.571 230.694 158.963 230.587L327.602 185.808C328.221 185.644 328.798 185.355 329.296 184.96C329.794 184.566 330.202 184.073 330.494 183.516L383.291 82.4777L394.308 87.954Z" fill="#263238" stroke="#263238" stroke-linecap="round" stroke-linejoin="round"/>
<path d="M393.651 85.386L391.896 52.2716L363.407 70.3054L374.43 75.8009L322.56 175.086L157.938 218.806L44.1334 142.948C43.1249 142.275 41.8841 142.021 40.684 142.242C39.484 142.463 38.4229 143.141 37.7343 144.126C37.0457 145.111 36.7859 146.323 37.0121 147.495C37.2383 148.667 37.932 149.703 38.9405 150.376L154.473 227.396C155.248 227.913 156.165 228.186 157.103 228.18C157.509 228.18 157.914 228.126 158.306 228.019L326.945 183.24C327.564 183.076 328.141 182.787 328.639 182.392C329.137 181.998 329.545 181.505 329.837 180.948L382.634 79.9097L393.651 85.386Z" fill="#47F6AC" stroke="#263238" stroke-linecap="round" stroke-linejoin="round"/>
<path d="M388.911 58.0046L369.974 69.9779L378.854 74.4013L324.828 177.834L157.333 222.292L42.2995 145.599C42.1567 145.504 41.9961 145.438 41.8269 145.403C41.6578 145.369 41.4833 145.368 41.3136 145.399C41.1439 145.431 40.9822 145.495 40.8378 145.588C40.6934 145.68 40.5692 145.8 40.4721 145.939C40.2751 146.22 40.2005 146.566 40.2646 146.901C40.3287 147.236 40.5263 147.532 40.8139 147.724L156.373 224.764C156.592 224.91 156.851 224.989 157.116 224.989C157.231 224.987 157.346 224.971 157.458 224.944L326.097 180.158C326.273 180.113 326.437 180.032 326.58 179.922C326.722 179.811 326.84 179.673 326.925 179.516L381.214 75.6211L390.095 80.0445L388.911 58.0046Z" fill="white"/>
<path d="M142.523 189.217L141.623 192.6C140.601 194.52 139.418 196.354 138.086 198.083C135.917 200.888 128.127 208.714 128.127 208.714L125.925 211.366L125.669 213.69L127.457 214.364C127.457 214.364 128.351 214.704 129.081 215.07C129.81 215.436 131.71 215.77 132.295 215.34C132.88 214.909 134.267 211.423 134.267 211.423L134.793 208.733C134.793 208.733 144.048 201.639 146.165 199.489C148.281 197.338 150.109 195.405 150.727 194.16C151.345 192.914 150.838 189.095 150.838 189.095L142.523 189.217Z" fill="white" stroke="#263238" stroke-linecap="round" stroke-linejoin="round"/>
<path d="M142.293 172.807L140.669 189.859C142.215 190.402 143.796 190.844 145.402 191.181C147.999 191.72 153.422 190.321 153.422 190.321C153.422 190.321 152.587 176.126 151.502 170.932C150.418 165.739 147.394 161.855 145.448 161.206" fill="#47F6AC"/>
<path d="M142.293 172.807L140.669 189.859C142.215 190.402 143.796 190.844 145.402 191.181C147.999 191.72 153.422 190.321 153.422 190.321C153.422 190.321 152.587 176.126 151.502 170.932C150.418 165.739 147.394 161.855 145.448 161.206" stroke="#263238" stroke-linecap="round" stroke-linejoin="round"/>
<path d="M350.484 276.984H469.461" stroke="#263238" stroke-linecap="round" stroke-linejoin="round"/>
<path d="M336.022 276.984H344.568" stroke="#263238" stroke-linecap="round" stroke-linejoin="round"/>
<path d="M121.074 276.984H328.792" stroke="#263238" stroke-linecap="round" stroke-linejoin="round"/>
<path d="M21.8169 276.984H115.158" stroke="#263238" stroke-linecap="round" stroke-linejoin="round"/>
</svg>
