<svg width="260" height="253" viewBox="0 0 260 253" fill="none" xmlns="http://www.w3.org/2000/svg">
<g clip-path="url(#clip0_23_4851)">
<path d="M231.427 189.369L215.44 190.526L215.449 190.644L231.436 189.487L231.427 189.369Z" fill="#EBEBEB"/>
<path d="M174.24 194.794L170.046 195.098L170.055 195.216L174.249 194.912L174.24 194.794Z" fill="#EBEBEB"/>
<path d="M214.625 186.193L205.363 186.863L205.372 186.982L214.634 186.311L214.625 186.193Z" fill="#EBEBEB"/>
<path d="M60.1677 198.164L39.3206 199.672L39.3296 199.79L60.1767 198.282L60.1677 198.164Z" fill="#EBEBEB"/>
<path d="M67.5233 197.632L64.4679 197.853L64.4769 197.971L67.5323 197.75L67.5233 197.632Z" fill="#EBEBEB"/>
<path d="M122.826 195.627L77.6078 198.899L77.6168 199.018L122.835 195.746L122.826 195.627Z" fill="#EBEBEB"/>
<path d="M126.492 168.241L33.2972 174.983C32.5662 175.036 31.8437 174.804 31.2885 174.337C30.7333 173.871 30.3909 173.208 30.3366 172.495L20.6155 44.7458C20.5679 44.0367 20.8095 43.3379 21.2877 42.8017C21.7659 42.2654 22.442 41.9351 23.1688 41.8825L116.363 35.1396C117.094 35.0867 117.817 35.3191 118.372 35.7857C118.927 36.2523 119.27 36.9149 119.324 37.6276L129.043 165.354C129.098 166.066 128.859 166.771 128.381 167.312C127.902 167.854 127.223 168.188 126.492 168.241ZM23.176 41.9766C22.4775 42.0284 21.8286 42.348 21.3713 42.8654C20.914 43.3828 20.6856 44.0558 20.7361 44.7371L30.4573 172.487C30.5104 173.168 30.8382 173.801 31.3688 174.246C31.8994 174.692 32.5896 174.915 33.2882 174.866L126.483 168.123C127.181 168.071 127.83 167.751 128.287 167.234C128.745 166.717 128.973 166.044 128.923 165.362L119.201 37.6128C119.148 36.9318 118.821 36.299 118.29 35.853C117.759 35.4071 117.069 35.1844 116.37 35.2337L23.176 41.9766Z" fill="#EBEBEB"/>
<path d="M230.899 160.686L137.695 167.43C136.964 167.482 136.242 167.249 135.687 166.782C135.132 166.316 134.789 165.654 134.734 164.942L125.013 37.1923C124.967 36.4835 125.209 35.7855 125.687 35.2495C126.165 34.7135 126.84 34.3828 127.566 34.329L220.77 27.5854C221.496 27.5354 222.212 27.7661 222.764 28.2276C223.316 28.689 223.659 29.344 223.719 30.0506L233.441 157.8C233.495 158.511 233.258 159.214 232.781 159.755C232.305 160.296 231.628 160.631 230.899 160.686ZM127.573 34.4232C126.875 34.475 126.226 34.7945 125.769 35.3119C125.311 35.8293 125.083 36.5024 125.133 37.1836L134.855 164.933C134.908 165.614 135.236 166.247 135.766 166.693C136.297 167.139 136.987 167.362 137.686 167.312L230.89 160.569C231.588 160.517 232.237 160.197 232.694 159.68C233.152 159.163 233.38 158.489 233.33 157.808L223.608 30.0587C223.555 29.3776 223.228 28.7448 222.697 28.2989C222.166 27.853 221.476 27.6303 220.778 27.6796L127.573 34.4232Z" fill="#EBEBEB"/>
<path d="M255.032 180.047L13.6955 197.508L13.7045 197.626L255.041 180.165L255.032 180.047Z" fill="#EBEBEB"/>
<path d="M133.236 140.792C132.68 140.834 132.124 140.714 131.638 140.448C131.153 140.182 130.758 139.781 130.506 139.297C130.254 138.812 130.155 138.265 130.221 137.726C130.288 137.186 130.517 136.678 130.879 136.265C131.242 135.853 131.722 135.554 132.259 135.408C132.796 135.262 133.365 135.274 133.895 135.443C134.424 135.612 134.891 135.931 135.234 136.358C135.578 136.786 135.784 137.303 135.827 137.845C135.882 138.57 135.64 139.288 135.155 139.84C134.669 140.392 133.98 140.734 133.236 140.792ZM132.927 136.725C132.657 136.743 132.398 136.838 132.184 137C131.97 137.161 131.81 137.38 131.724 137.631C131.638 137.881 131.63 138.15 131.701 138.405C131.773 138.659 131.92 138.887 132.125 139.06C132.33 139.232 132.582 139.342 132.851 139.374C133.119 139.406 133.392 139.36 133.633 139.241C133.875 139.122 134.074 138.936 134.207 138.706C134.34 138.476 134.4 138.213 134.379 137.95C134.35 137.601 134.181 137.277 133.91 137.048C133.638 136.819 133.285 136.703 132.927 136.725Z" fill="#263238"/>
<path d="M135.049 138.89L134.1 139.962L137.673 142.968L138.621 141.897L135.049 138.89Z" fill="#263238"/>
<path d="M218.991 53.2195C219.686 45.4347 213.778 38.5744 205.794 37.8965C197.811 37.2187 190.775 42.98 190.08 50.7648C189.385 58.5496 195.293 65.41 203.277 66.0878C211.261 66.7657 218.296 61.0044 218.991 53.2195Z" fill="#E0E0E0"/>
<path d="M205.666 66.4101C201.782 66.6224 197.969 65.3397 195.046 62.838C192.123 60.3363 190.324 56.8156 190.036 53.0336C189.748 49.2516 190.995 45.5106 193.507 42.6156C196.02 39.7207 199.597 37.9032 203.47 37.5543L203.518 38.1897C199.817 38.5246 196.399 40.2626 193.998 43.0298C191.598 45.797 190.407 49.3724 190.682 52.9869C190.957 56.6014 192.676 59.9662 195.469 62.3577C198.262 64.7491 201.906 65.9761 205.617 65.7747L205.666 66.4101Z" fill="white"/>
<path d="M205.666 66.4101L205.617 65.7748C207.499 65.6726 209.342 65.2058 211.037 64.4015C212.732 63.5972 214.245 62.4716 215.489 61.0904C216.733 59.7092 217.682 58.1002 218.28 56.3574C218.879 54.6145 219.116 52.7728 218.976 50.9398C218.837 49.1067 218.324 47.3192 217.468 45.6816C216.612 44.044 215.43 42.5892 213.991 41.4022C212.551 40.2151 210.884 39.3196 209.086 38.7681C207.288 38.2165 205.395 38.0199 203.518 38.1897L203.47 37.5544C205.433 37.3775 207.412 37.5838 209.292 38.1612C211.173 38.7386 212.916 39.6755 214.421 40.9172C215.926 42.1589 217.162 43.6805 218.057 45.3932C218.952 47.1059 219.488 48.9752 219.634 50.8922C219.78 52.8091 219.532 54.7352 218.906 56.5579C218.28 58.3806 217.288 60.0634 215.988 61.5081C214.687 62.9528 213.105 64.1303 211.333 64.972C209.56 65.8136 207.634 66.3025 205.666 66.4101Z" fill="white"/>
<path d="M212.131 51.4373L211.48 51.4845C211.124 46.8109 208.234 40.7258 203.341 38.1552L203.652 37.5932C208.73 40.2877 211.762 46.5896 212.131 51.4373Z" fill="white"/>
<path d="M205.808 65.9218L205.415 65.4108C209.846 62.1655 211.803 55.7298 211.447 51.0562L212.099 51.009C212.468 55.8568 210.423 62.5355 205.808 65.9218Z" fill="white"/>
<path d="M197.661 52.4843L197.009 52.5314C196.64 47.679 198.68 41.0006 203.3 37.6186L203.693 38.125C199.262 41.375 197.305 47.806 197.661 52.4843Z" fill="white"/>
<path d="M205.455 65.9427C200.373 63.2579 197.345 56.9462 196.976 52.0985L197.628 52.0514C197.984 56.7297 200.873 62.81 205.767 65.3806L205.455 65.9427Z" fill="white"/>
<path d="M203.822 37.8459L203.17 37.8931L205.318 66.1135L205.969 66.0663L203.822 37.8459Z" fill="white"/>
<path d="M216.227 43.2615L191.726 45.0342L191.774 45.6696L216.275 43.8969L216.227 43.2615Z" fill="white"/>
<path d="M219.032 50.8575L190.101 52.9508L190.149 53.5862L219.081 51.4929L219.032 50.8575Z" fill="white"/>
<path d="M217.078 58.7933L193.23 60.5188L193.278 61.1542L217.127 59.4286L217.078 58.7933Z" fill="white"/>
<path d="M49.4695 57.9628C49.4019 57.0056 49.1863 56.0639 48.8299 55.1696L51.1898 52.8267L49.3977 50.2588L46.2989 51.5668C44.8564 50.263 43.0498 49.4056 41.1077 49.1029L40.2025 45.9456L37.0313 46.175L36.6188 49.4277C34.7423 50.0066 33.0837 51.1147 31.8525 52.612L28.5918 51.7926L27.2128 54.5899L29.8967 56.5679C29.4695 58.4365 29.6179 60.3866 30.3233 62.1733L27.9678 64.5112L29.7551 67.0794L32.8553 65.7903C34.2997 67.094 36.1078 67.9513 38.0514 68.2538L38.9521 71.4162L42.1232 71.1867L42.5402 67.929C44.4153 67.3501 46.0723 66.2421 47.3017 64.7451L50.5624 65.5645L51.9462 62.7669L49.2596 60.8174C49.476 59.8815 49.5467 58.9192 49.4695 57.9628ZM39.9763 63.8932C38.9586 63.9678 37.941 63.7463 37.0523 63.2569C36.1636 62.7674 35.4438 62.0319 34.9838 61.1435C34.5239 60.255 34.3446 59.2535 34.4685 58.2656C34.5924 57.2778 35.014 56.3479 35.6799 55.5937C36.3459 54.8396 37.2263 54.2949 38.2097 54.0287C39.1932 53.7625 40.2355 53.7867 41.2049 54.0983C42.1742 54.4098 43.027 54.9947 43.6554 55.779C44.2838 56.5632 44.6595 57.5116 44.735 58.5041C44.7858 59.1627 44.7029 59.8246 44.4912 60.4519C44.2795 61.0793 43.943 61.6598 43.5011 62.1603C43.0591 62.6608 42.5204 63.0714 41.9156 63.3688C41.3108 63.6661 40.6518 63.8443 39.9763 63.8932Z" fill="#E0E0E0"/>
<path d="M64.0959 70.3163C64.0401 69.5941 63.8765 68.8837 63.6102 68.2076L65.4156 66.4206L64.0538 64.47L61.7013 65.4448C60.6027 64.4556 59.2272 63.8072 57.7498 63.5821L57.0812 61.1744L54.6678 61.349L54.371 63.8266C52.9424 64.2619 51.6786 65.1011 50.7398 66.2378L48.2656 65.6124L47.2091 67.7379L49.2652 69.2455C48.9398 70.6686 49.0528 72.1537 49.59 73.5144L47.7843 75.2966L49.1513 77.2516L51.5038 76.2769C52.6043 77.2661 53.9813 77.9143 55.4602 78.1392L56.1287 80.5469L58.5421 80.3723L58.8389 77.8947C60.2661 77.4595 61.5284 76.6203 62.4653 75.4838L64.9395 76.1093L65.9908 73.9793L63.9351 72.4765C64.096 71.7678 64.1502 71.0401 64.0959 70.3163ZM56.8633 74.8291C56.0878 74.8861 55.3123 74.7175 54.6351 74.3446C53.9579 73.9717 53.4094 73.4113 53.059 72.7343C52.7086 72.0573 52.5721 71.2941 52.6667 70.5414C52.7614 69.7887 53.0829 69.0803 53.5906 68.5059C54.0983 67.9314 54.7694 67.5168 55.5189 67.3144C56.2684 67.1121 57.0627 67.1311 57.8011 67.3691C58.5395 67.6071 59.1889 68.0534 59.6671 68.6515C60.1452 69.2495 60.4307 69.9725 60.4873 70.7288C60.5643 71.7412 60.2258 72.7419 59.5461 73.5108C58.8665 74.2797 57.9014 74.7539 56.8633 74.8291Z" fill="#E0E0E0"/>
<path d="M99.2862 55.57L100.372 52.9406L101.849 55.3798L104.747 55.5771L102.821 57.6993L103.525 60.4453L100.862 59.3176L98.4044 60.8205L98.6803 58.0037L96.4547 56.1818L99.2862 55.57Z" fill="#EBEBEB"/>
<path d="M110.952 54.7259L112.038 52.0965L113.515 54.5357L116.408 54.7334L114.487 56.8552L115.191 59.6012L112.529 58.4735L110.066 59.9768L110.342 57.1599L108.116 55.3381L110.952 54.7259Z" fill="#EBEBEB"/>
<path d="M122.614 53.8821L123.7 51.2527L125.176 53.692L128.074 53.8893L126.154 56.0111L126.858 58.7571L124.195 57.6294L121.732 59.1327L122.008 56.3158L119.782 54.494L122.614 53.8821Z" fill="#EBEBEB"/>
<path d="M134.28 53.0381L135.366 50.4087L136.843 52.848L139.74 53.0453L137.815 55.1675L138.519 57.9134L135.856 56.7857L133.398 58.2887L133.674 55.4718L131.449 53.65L134.28 53.0381Z" fill="#EBEBEB"/>
<path d="M145.946 52.194L147.032 49.5646L148.509 52.0039L151.402 52.2015L149.481 54.3234L150.185 57.0693L147.522 55.9416L145.06 57.4449L145.335 54.6281L143.11 52.8062L145.946 52.194Z" fill="#EBEBEB"/>
<path d="M133.517 208.389C185.203 204.649 226.921 199.232 226.697 196.29C226.473 193.347 184.392 193.993 132.706 197.733C81.0201 201.473 39.302 206.89 39.5259 209.832C39.7498 212.775 81.831 212.128 133.517 208.389Z" fill="#F5F5F5"/>
<path d="M101.13 200.661L101.116 201.751C101.116 201.885 101.141 202.018 101.189 202.143C101.212 202.201 101.242 202.256 101.279 202.307C101.319 202.357 101.361 202.404 101.407 202.449C101.453 202.494 101.505 202.533 101.561 202.566C101.733 202.667 101.934 202.714 102.134 202.699L141.907 199.822C142.002 199.815 142.095 199.794 142.183 199.759C142.245 199.736 142.304 199.708 142.361 199.675C142.564 199.56 142.721 199.382 142.808 199.17C142.861 199.051 142.889 198.924 142.891 198.794L142.904 197.748C142.91 197.623 142.885 197.498 142.832 197.384C142.81 197.331 142.782 197.28 142.748 197.234C142.664 197.116 142.55 197.021 142.417 196.959C142.36 196.934 142.302 196.913 142.242 196.896C142.151 196.875 142.057 196.867 141.964 196.874L132.059 197.59C131.935 197.601 131.809 197.599 131.685 197.584L131.542 197.557C131.488 197.546 131.435 197.531 131.384 197.512C131.334 197.5 131.287 197.481 131.243 197.455C131.171 197.425 131.102 197.389 131.036 197.347C130.957 197.295 130.882 197.235 130.814 197.169C130.777 197.13 130.74 197.094 130.703 197.05L130.628 196.96L130.601 196.925C130.569 196.884 130.541 196.84 130.518 196.793L130.451 196.67C130.452 196.661 130.451 196.651 130.449 196.642C130.451 196.631 130.45 196.62 130.446 196.609C130.429 196.574 130.417 196.537 130.409 196.498C130.4 196.446 130.395 196.392 130.396 196.338C130.393 196.291 130.389 196.24 130.385 196.188C130.381 196.136 130.377 196.089 130.373 196.037L130.369 195.976C130.362 195.926 130.359 195.876 130.357 195.825C130.353 195.769 130.374 195.72 130.379 195.668L133.162 180.834L133.698 177.984L134.115 175.753L111.526 177.387L110.481 179.663L109.149 182.571L101.573 199.086C101.548 199.145 101.524 199.204 101.494 199.262L101.422 199.462C101.403 199.529 101.379 199.593 101.36 199.665L101.326 199.8C101.229 200.079 101.163 200.368 101.13 200.661Z" fill="#263238"/>
<path opacity="0.2" d="M142.89 197.758L142.878 198.814C142.873 199.07 142.771 199.316 142.592 199.503C142.413 199.691 142.169 199.807 141.907 199.831L102.145 202.708C102.011 202.718 101.877 202.701 101.751 202.658C101.624 202.615 101.508 202.547 101.41 202.458C101.312 202.369 101.234 202.261 101.181 202.141C101.128 202.021 101.101 201.892 101.102 201.761L101.116 200.672C101.119 200.38 101.156 200.09 101.225 199.807C101.288 199.559 101.374 199.317 101.481 199.084L111.439 177.384L134.028 175.75L130.292 195.664C130.266 195.779 130.254 195.896 130.255 196.013C130.251 196.401 130.393 196.777 130.654 197.07C130.915 197.363 131.277 197.553 131.672 197.604C131.796 197.623 131.922 197.626 132.047 197.615L141.937 196.899C142.059 196.887 142.182 196.901 142.298 196.939C142.415 196.977 142.522 197.038 142.612 197.119C142.702 197.2 142.773 197.299 142.821 197.409C142.869 197.52 142.893 197.638 142.89 197.758Z" fill="white"/>
<path d="M100.21 199.166L110.163 177.462L111.442 177.37L101.485 199.074C101.254 199.574 101.13 200.114 101.12 200.662L101.106 201.751C101.101 201.883 101.126 202.014 101.178 202.135C101.229 202.257 101.307 202.366 101.406 202.455C101.505 202.544 101.623 202.612 101.751 202.653C101.879 202.694 102.014 202.708 102.148 202.694L100.869 202.786C100.735 202.801 100.6 202.787 100.472 202.746C100.344 202.705 100.226 202.637 100.127 202.548C100.028 202.458 99.9502 202.349 99.8984 202.228C99.8467 202.106 99.8223 201.975 99.827 201.844L99.8412 200.755C99.8499 200.206 99.9757 199.665 100.21 199.166Z" fill="#263238"/>
<path opacity="0.3" d="M111.452 177.369L134.036 175.735L133.084 180.82L109.071 182.558L111.452 177.369Z" fill="black"/>
<path d="M67.8662 110.998L73.0331 178.899C73.0668 179.35 73.1914 179.791 73.3996 180.195C73.6079 180.599 73.8958 180.959 74.2469 181.254C74.598 181.55 75.0053 181.775 75.4457 181.916C75.8861 182.058 76.3508 182.114 76.8133 182.081L173.189 175.108C173.651 175.074 174.102 174.952 174.516 174.748C174.93 174.545 175.299 174.264 175.602 173.921C175.904 173.578 176.135 173.18 176.279 172.751C176.424 172.321 176.481 171.868 176.446 171.417L171.279 103.516C171.245 103.065 171.12 102.624 170.912 102.22C170.703 101.815 170.415 101.455 170.063 101.16C169.712 100.864 169.304 100.639 168.863 100.498C168.422 100.356 167.957 100.301 167.494 100.335L71.1331 107.307C70.358 107.364 69.6238 107.668 69.0441 108.173C68.9624 108.241 68.8854 108.315 68.8133 108.393C68.5918 108.62 68.4054 108.878 68.2599 109.157C68.1568 109.342 68.074 109.537 68.0129 109.738C67.8862 110.146 67.8365 110.573 67.8662 110.998Z" fill="#263238"/>
<path d="M175.887 164.075L176.446 171.417C176.515 172.328 176.21 173.229 175.599 173.921C174.987 174.613 174.118 175.04 173.184 175.108L76.8229 182.08C75.8884 182.147 74.9647 181.85 74.2548 181.254C73.545 180.657 73.1073 179.81 73.038 178.899L72.4792 171.557L175.887 164.075Z" fill="#47F6AC"/>
<path opacity="0.6" d="M175.887 164.075L176.446 171.417C176.515 172.328 176.21 173.229 175.599 173.921C174.987 174.613 174.118 175.04 173.184 175.108L76.8229 182.08C75.8884 182.147 74.9647 181.85 74.2548 181.254C73.545 180.657 73.1073 179.81 73.038 178.899L72.4792 171.557L175.887 164.075Z" fill="white"/>
<path d="M75.9076 169.222L172.143 162.259C172.655 162.222 173.131 161.988 173.466 161.609C173.801 161.229 173.968 160.736 173.93 160.236L169.663 104.163C169.625 103.663 169.386 103.199 168.997 102.872C168.608 102.546 168.102 102.383 167.589 102.42L71.3541 109.383C70.842 109.42 70.3661 109.654 70.0309 110.033C69.6956 110.412 69.5287 110.906 69.5667 111.405L73.8351 167.498C73.8779 167.993 74.1196 168.452 74.5077 168.775C74.8958 169.098 75.3988 169.259 75.9076 169.222Z" fill="#47F6AC"/>
<path d="M68.9997 107.461L71.1331 107.307C70.1986 107.375 69.3299 107.801 68.7181 108.494C68.1064 109.186 67.8017 110.087 67.871 110.998L73.038 178.899C73.1073 179.81 73.545 180.657 74.2549 181.254C74.9647 181.85 75.8884 182.147 76.8229 182.08L74.6895 182.234C73.755 182.302 72.8313 182.005 72.1214 181.408C71.4116 180.812 70.9739 179.965 70.9046 179.053L65.7376 111.152C65.6682 110.241 65.973 109.34 66.5847 108.648C67.1965 107.956 68.0652 107.529 68.9997 107.461Z" fill="#263238"/>
<g opacity="0.2">
<path d="M68.9997 107.461L71.1331 107.307C70.1986 107.375 69.3299 107.801 68.7181 108.494C68.1064 109.186 67.8017 110.087 67.871 110.998L73.038 178.899C73.1073 179.81 73.545 180.657 74.2549 181.254C74.9647 181.85 75.8884 182.147 76.8229 182.08L74.6895 182.234C73.755 182.302 72.8313 182.005 72.1214 181.408C71.4116 180.812 70.9739 179.965 70.9046 179.053L65.7376 111.152C65.6682 110.241 65.973 109.34 66.5847 108.648C67.1965 107.956 68.0652 107.529 68.9997 107.461Z" fill="white"/>
</g>
<path opacity="0.5" d="M172.809 137.971C170.292 137.68 166.482 139.531 165.928 141.938C165.956 141.213 165.769 140.496 165.39 139.873C165.011 139.249 164.456 138.744 163.792 138.42C162.458 137.792 160.744 137.405 159.632 138.357C160.015 136.003 159.717 133.592 158.773 131.395C157.829 129.197 156.276 127.299 154.288 125.914C150.287 123.207 144.756 123.291 140.555 125.681C141.095 124.456 141.354 123.13 141.312 121.796C141.271 120.463 140.931 119.154 140.315 117.963C139.7 116.771 138.825 115.725 137.751 114.898C136.678 114.072 135.431 113.484 134.1 113.177C127.881 111.557 121.352 111.427 115.07 112.798C111.437 113.591 107.777 114.982 105.299 117.688C102.821 120.395 102.458 124.993 104.494 128.03C102.373 127.528 100.151 127.601 98.069 128.243C95.9873 128.885 94.1259 130.071 92.6867 131.672C91.3059 133.305 90.4137 135.277 90.1082 137.373C89.8027 139.468 90.0957 141.605 90.9551 143.548C90.3605 143.26 89.7015 143.121 89.0379 143.144C88.3743 143.167 87.7271 143.352 87.1553 143.681C86.5927 144.012 86.1258 144.478 85.7988 145.034C85.4718 145.59 85.2953 146.218 85.286 146.859C84.4386 145.922 83.3727 145.196 82.178 144.744C80.9833 144.292 79.6947 144.127 78.4206 144.262C77.1466 144.397 75.9245 144.828 74.857 145.519C73.7896 146.211 72.9081 147.142 72.2868 148.235L73.8948 169.367L174.074 162.119L172.809 137.971Z" fill="white"/>
<path d="M149.779 130.31L98.1718 134.044C95.5461 134.234 93.5754 136.463 93.7703 139.024C93.9651 141.584 96.2516 143.505 98.8774 143.315L150.485 139.582C153.11 139.392 155.081 137.162 154.886 134.602C154.691 132.041 152.405 130.12 149.779 130.31Z" fill="white"/>
<path d="M98.3652 140.475C97.8096 140.515 97.2542 140.394 96.7694 140.127C96.2845 139.859 95.8919 139.457 95.6412 138.972C95.3905 138.487 95.2929 137.94 95.3609 137.401C95.4288 136.862 95.6592 136.354 96.023 135.943C96.3867 135.531 96.8674 135.234 97.4043 135.089C97.9411 134.944 98.5101 134.957 99.0392 135.128C99.5683 135.298 100.034 135.617 100.377 136.045C100.72 136.473 100.925 136.991 100.966 137.533C101.02 138.259 100.776 138.976 100.289 139.528C99.8015 140.079 99.1097 140.42 98.3652 140.475ZM98.0557 136.409C97.7865 136.428 97.5293 136.525 97.3165 136.687C97.1038 136.849 96.9451 137.069 96.8606 137.319C96.776 137.569 96.7693 137.838 96.8414 138.092C96.9136 138.345 97.0612 138.572 97.2657 138.744C97.4702 138.916 97.7223 139.025 97.9902 139.057C98.2582 139.089 98.5299 139.043 98.7709 138.925C99.012 138.806 99.2116 138.621 99.3446 138.392C99.4775 138.162 99.5378 137.9 99.5179 137.638C99.4898 137.286 99.3204 136.96 99.0465 136.729C98.7726 136.499 98.4164 136.384 98.0557 136.409Z" fill="#263238"/>
<path d="M100.175 138.569L99.2264 139.641L102.799 142.647L103.748 141.575L100.175 138.569Z" fill="#263238"/>
<g opacity="0.1">
<path d="M136.925 104.634L140.622 104.366L152.855 163.654L149.153 163.922L136.925 104.634Z" fill="white"/>
<path d="M156.596 163.384L144.368 104.095L158.274 103.089L170.502 162.377L156.596 163.384Z" fill="white"/>
</g>
<path opacity="0.2" d="M107.998 200.292L107.987 201.291C107.982 201.417 108.005 201.542 108.053 201.658C108.102 201.774 108.175 201.879 108.268 201.966C108.362 202.052 108.473 202.118 108.595 202.159C108.716 202.2 108.846 202.216 108.974 202.204L141.907 199.822C142.168 199.798 142.412 199.681 142.591 199.494C142.77 199.306 142.872 199.061 142.878 198.805L142.89 197.758C142.896 197.637 142.876 197.517 142.83 197.405C142.784 197.292 142.714 197.191 142.624 197.108C142.534 197.024 142.427 196.961 142.31 196.922C142.193 196.882 142.068 196.868 141.945 196.88L132.055 197.596C131.931 197.605 131.807 197.6 131.685 197.58L108.999 199.221C108.727 199.25 108.475 199.375 108.291 199.572C108.107 199.769 108.003 200.025 107.998 200.292Z" fill="white"/>
<path opacity="0.2" d="M101.229 199.797L131.686 197.594C131.291 197.545 130.928 197.355 130.667 197.061C130.407 196.768 130.267 196.39 130.274 196.002L102.066 198.043L101.229 199.797Z" fill="black"/>
<path d="M111.389 127.494L111.945 126C112.812 126.497 113.812 126.728 114.815 126.664C115.978 126.579 116.422 126.164 116.384 125.656C116.266 124.107 111.41 125.542 111.175 122.455C111.068 121.043 112.142 119.791 114.556 119.617C115.587 119.521 116.626 119.701 117.561 120.138L117.063 121.636C116.318 121.275 115.489 121.11 114.658 121.157C113.495 121.241 113.078 121.697 113.118 122.215C113.234 123.74 118.091 122.328 118.323 125.369C118.428 126.752 117.34 128.024 114.913 128.199C113.692 128.318 112.463 128.071 111.389 127.494Z" fill="#263238"/>
<path d="M126.316 125.689L126.433 127.224L119.859 127.699L119.229 119.421L125.653 118.956L125.77 120.495L121.306 120.818L121.443 122.616L125.386 122.33L125.5 123.822L121.556 124.108L121.702 126.023L126.316 125.689Z" fill="#263238"/>
<path d="M127.127 123.014C126.94 120.552 128.766 118.589 131.444 118.395C134.123 118.201 136.23 119.87 136.418 122.341C136.606 124.812 134.765 126.768 132.096 126.961C129.427 127.154 127.314 125.475 127.127 123.014ZM134.43 122.485C134.376 121.977 134.17 121.496 133.837 121.102C133.505 120.707 133.06 120.417 132.56 120.267C132.059 120.117 131.524 120.114 131.022 120.259C130.52 120.404 130.072 120.689 129.735 121.08C129.398 121.471 129.187 121.95 129.128 122.457C129.068 122.965 129.163 123.478 129.401 123.933C129.638 124.388 130.008 124.765 130.464 125.016C130.92 125.268 131.441 125.383 131.964 125.347C132.324 125.332 132.677 125.244 133 125.089C133.324 124.934 133.611 124.715 133.843 124.445C134.075 124.176 134.247 123.863 134.348 123.526C134.449 123.188 134.477 122.834 134.43 122.485Z" fill="#263238"/>
<path opacity="0.8" d="M122.61 147.717L102.241 149.191C101.215 149.265 100.445 150.137 100.521 151.138L100.84 155.336C100.917 156.337 101.81 157.088 102.837 157.013L123.205 155.54C124.232 155.465 125.002 154.594 124.926 153.593L124.606 149.395C124.53 148.394 123.636 147.643 122.61 147.717Z" fill="white"/>
<path opacity="0.8" d="M152.15 145.58L131.781 147.054C130.755 147.128 129.984 148 130.06 149L130.38 153.199C130.456 154.199 131.35 154.95 132.376 154.876L152.745 153.402C153.771 153.328 154.541 152.457 154.465 151.456L154.146 147.258C154.07 146.257 153.176 145.506 152.15 145.58Z" fill="white"/>
<path d="M108.867 109.347L119.257 87.7726C119.294 87.6972 119.35 87.6325 119.421 87.5852C119.491 87.538 119.573 87.5098 119.659 87.5036C119.744 87.4975 119.83 87.5135 119.907 87.5501C119.984 87.5866 120.049 87.6425 120.097 87.7119L133.638 107.555C133.684 107.623 133.71 107.702 133.715 107.784C133.72 107.865 133.703 107.947 133.666 108.02C133.629 108.093 133.573 108.156 133.504 108.202C133.435 108.248 133.355 108.275 133.271 108.282L109.345 110.013C109.261 110.019 109.177 110.004 109.101 109.969C109.025 109.934 108.96 109.88 108.911 109.813C108.863 109.746 108.834 109.667 108.826 109.586C108.818 109.504 108.833 109.422 108.867 109.347Z" fill="#47F6AC"/>
<path opacity="0.3" d="M108.867 109.347L119.257 87.7726C119.294 87.6972 119.35 87.6325 119.421 87.5852C119.491 87.538 119.573 87.5098 119.659 87.5036C119.744 87.4975 119.83 87.5135 119.907 87.5501C119.984 87.5866 120.049 87.6425 120.097 87.7119L133.638 107.555C133.684 107.623 133.71 107.702 133.715 107.784C133.72 107.865 133.703 107.947 133.666 108.02C133.629 108.093 133.573 108.156 133.504 108.202C133.435 108.248 133.355 108.275 133.271 108.282L109.345 110.013C109.261 110.019 109.177 110.004 109.101 109.969C109.025 109.934 108.96 109.88 108.911 109.813C108.863 109.746 108.834 109.667 108.826 109.586C108.818 109.504 108.833 109.422 108.867 109.347Z" fill="black"/>
<path d="M115.856 112.661L115.095 110.378L113 110.529L112.598 112.896C113.673 113.242 114.845 113.157 115.856 112.661Z" fill="#263238"/>
<path opacity="0.2" d="M113 110.529L112.906 111.08C113.695 111.246 114.516 111.186 115.271 110.909L115.095 110.378L113 110.529Z" fill="white"/>
<path opacity="0.4" d="M112.806 111.674C112.779 111.828 112.751 111.977 112.728 112.12C113.693 112.341 114.704 112.268 115.624 111.911L115.485 111.481C114.614 111.719 113.703 111.785 112.806 111.674Z" fill="white"/>
<path d="M116.246 110.129C114.873 110.801 113.284 110.917 111.824 110.449L110.51 93.1759C110.435 92.2091 110.557 91.2374 110.868 90.3166C111.18 89.3958 111.674 88.5441 112.325 87.8105C113.079 88.4426 113.697 89.2137 114.144 90.0796C114.592 90.9454 114.859 91.889 114.931 92.856L116.246 110.129Z" fill="#47F6AC"/>
<path d="M110.51 93.1759L111.749 109.456C113.217 109.839 114.776 109.727 116.17 109.136L114.931 92.856C114.859 91.889 114.592 90.9454 114.144 90.0796C113.697 89.2137 113.079 88.4426 112.325 87.8105C111.674 88.5441 111.18 89.3958 110.868 90.3166C110.557 91.2374 110.435 92.2091 110.51 93.1759Z" fill="#47F6AC"/>
<path opacity="0.4" d="M110.51 93.1759L111.749 109.456C113.217 109.839 114.776 109.727 116.17 109.136L114.931 92.856C114.859 91.889 114.592 90.9454 114.144 90.0796C113.697 89.2137 113.079 88.4426 112.325 87.8105C111.674 88.5441 111.18 89.3958 110.868 90.3166C110.557 91.2374 110.435 92.2091 110.51 93.1759Z" fill="white"/>
<path d="M110.51 93.1759L111.441 105.413C112.917 105.711 114.448 105.6 115.863 105.093L114.931 92.856C114.859 91.889 114.592 90.9454 114.144 90.0796C113.697 89.2137 113.079 88.4426 112.325 87.8105C111.674 88.5441 111.18 89.3958 110.868 90.3166C110.557 91.2374 110.435 92.2091 110.51 93.1759Z" fill="#47F6AC"/>
<path opacity="0.6" d="M110.51 93.1759L111.441 105.413C112.917 105.711 114.448 105.6 115.863 105.093L114.931 92.856C114.859 91.889 114.592 90.9454 114.144 90.0796C113.697 89.2137 113.079 88.4426 112.325 87.8105C111.674 88.5441 111.18 89.3958 110.868 90.3166C110.557 91.2374 110.435 92.2091 110.51 93.1759Z" fill="white"/>
<path d="M110.51 93.1759L110.997 99.5768C112.472 99.8771 114.005 99.7663 115.418 99.2569L114.931 92.856C114.859 91.889 114.592 90.9454 114.144 90.0796C113.697 89.2137 113.079 88.4426 112.325 87.8105C111.674 88.5441 111.18 89.3958 110.868 90.3166C110.557 91.2374 110.435 92.2091 110.51 93.1759Z" fill="#47F6AC"/>
<path opacity="0.8" d="M110.51 93.1759L110.997 99.5768C112.472 99.8771 114.005 99.7663 115.418 99.2569L114.931 92.856C114.859 91.889 114.592 90.9454 114.144 90.0796C113.697 89.2137 113.079 88.4426 112.325 87.8105C111.674 88.5441 111.18 89.3958 110.868 90.3166C110.557 91.2374 110.435 92.2091 110.51 93.1759Z" fill="white"/>
<path d="M110.51 93.1759L110.567 93.9242C112.042 94.2223 113.574 94.1115 114.988 93.6043L114.931 92.856C114.859 91.889 114.592 90.9454 114.144 90.0796C113.697 89.2137 113.079 88.4426 112.325 87.8105C111.674 88.5441 111.18 89.3958 110.868 90.3166C110.557 91.2374 110.435 92.2091 110.51 93.1759Z" fill="#47F6AC"/>
<path opacity="0.4" d="M110.51 93.1759L110.567 93.9242C112.042 94.2223 113.574 94.1115 114.988 93.6043L114.931 92.856C114.859 91.889 114.592 90.9454 114.144 90.0796C113.697 89.2137 113.079 88.4426 112.325 87.8105C111.674 88.5441 111.18 89.3958 110.868 90.3166C110.557 91.2374 110.435 92.2091 110.51 93.1759Z" fill="white"/>
<path d="M130.08 111.631L129.324 109.348L127.229 109.5L126.822 111.867C127.897 112.213 129.069 112.128 130.08 111.631Z" fill="#263238"/>
<path opacity="0.2" d="M127.229 109.5L127.135 110.051C127.924 110.216 128.745 110.157 129.501 109.88L129.324 109.348L127.229 109.5Z" fill="white"/>
<path opacity="0.4" d="M127.03 110.645C127.008 110.798 126.98 110.947 126.957 111.091C127.922 111.312 128.933 111.238 129.853 110.881L129.709 110.452C128.838 110.69 127.927 110.756 127.03 110.645Z" fill="white"/>
<path d="M130.475 109.099C129.102 109.772 127.513 109.887 126.054 109.419L124.739 92.1464C124.664 91.1796 124.786 90.2078 125.097 89.2871C125.409 88.3663 125.904 87.5146 126.554 86.781C127.308 87.413 127.926 88.1841 128.374 89.05C128.821 89.9159 129.088 90.8595 129.161 91.8265L130.475 109.099Z" fill="#47F6AC"/>
<path d="M124.739 92.1464L125.978 108.426C127.447 108.81 129.005 108.697 130.399 108.106L129.161 91.8265C129.088 90.8595 128.821 89.9159 128.374 89.05C127.926 88.1841 127.308 87.413 126.554 86.781C125.904 87.5146 125.409 88.3663 125.097 89.2871C124.786 90.2078 124.664 91.1796 124.739 92.1464Z" fill="#47F6AC"/>
<path opacity="0.4" d="M124.739 92.1464L125.978 108.426C127.447 108.81 129.005 108.697 130.399 108.106L129.161 91.8265C129.088 90.8595 128.821 89.9159 128.374 89.05C127.926 88.1841 127.308 87.413 126.554 86.781C125.904 87.5146 125.409 88.3663 125.097 89.2871C124.786 90.2078 124.664 91.1796 124.739 92.1464Z" fill="white"/>
<path d="M124.739 92.1464L125.67 104.383C127.146 104.681 128.677 104.571 130.092 104.063L129.161 91.8265C129.088 90.8595 128.821 89.9159 128.374 89.05C127.926 88.1841 127.308 87.413 126.554 86.781C125.904 87.5146 125.409 88.3663 125.097 89.2871C124.786 90.2078 124.664 91.1796 124.739 92.1464Z" fill="#47F6AC"/>
<path opacity="0.6" d="M124.739 92.1464L125.67 104.383C127.146 104.681 128.677 104.571 130.092 104.063L129.161 91.8265C129.088 90.8595 128.821 89.9159 128.374 89.05C127.926 88.1841 127.308 87.413 126.554 86.781C125.904 87.5146 125.409 88.3663 125.097 89.2871C124.786 90.2078 124.664 91.1796 124.739 92.1464Z" fill="white"/>
<path d="M124.739 92.1464L125.226 98.5472C126.702 98.8476 128.234 98.7367 129.648 98.2273L129.161 91.8265C129.088 90.8595 128.821 89.9159 128.374 89.05C127.926 88.1841 127.308 87.413 126.554 86.781C125.904 87.5146 125.409 88.3663 125.097 89.2871C124.786 90.2078 124.664 91.1796 124.739 92.1464Z" fill="#47F6AC"/>
<path opacity="0.8" d="M124.739 92.1464L125.226 98.5472C126.702 98.8476 128.234 98.7367 129.648 98.2273L129.161 91.8265C129.088 90.8595 128.821 89.9159 128.374 89.05C127.926 88.1841 127.308 87.413 126.554 86.781C125.904 87.5146 125.409 88.3663 125.097 89.2871C124.786 90.2078 124.664 91.1796 124.739 92.1464Z" fill="white"/>
<path d="M124.739 92.1464L124.796 92.8947C126.272 93.1927 127.803 93.0819 129.217 92.5748L129.161 91.8265C129.088 90.8595 128.821 89.9159 128.374 89.05C127.926 88.1841 127.308 87.413 126.554 86.781C125.904 87.5146 125.409 88.3663 125.097 89.2871C124.786 90.2078 124.664 91.1796 124.739 92.1464Z" fill="#47F6AC"/>
<path opacity="0.4" d="M124.739 92.1464L124.796 92.8947C126.272 93.1927 127.803 93.0819 129.217 92.5748L129.161 91.8265C129.088 90.8595 128.821 89.9159 128.374 89.05C127.926 88.1841 127.308 87.413 126.554 86.781C125.904 87.5146 125.409 88.3663 125.097 89.2871C124.786 90.2078 124.664 91.1796 124.739 92.1464Z" fill="white"/>
<path d="M124.071 113.406L122.819 109.71L119.44 109.955L118.786 113.788C119.649 114.07 120.56 114.181 121.468 114.115C122.375 114.05 123.26 113.808 124.071 113.406Z" fill="#263238"/>
<path opacity="0.2" d="M119.466 109.967C119.466 109.967 119.369 110.542 119.31 110.858C120.586 111.123 121.912 111.027 123.133 110.582L122.844 109.718L119.466 109.967Z" fill="white"/>
<path opacity="0.4" d="M119.146 111.822L119.026 112.54C120.573 112.887 122.191 112.77 123.669 112.204L123.442 111.511C122.044 111.886 120.585 111.992 119.146 111.822Z" fill="white"/>
<path d="M124.706 109.309C123.609 109.851 122.413 110.176 121.187 110.264C119.961 110.353 118.729 110.204 117.562 109.825L115.441 81.9533C115.321 80.3927 115.518 78.8243 116.021 77.3382C116.525 75.8521 117.324 74.4776 118.374 73.2937C119.591 74.3136 120.59 75.5579 121.312 76.9553C122.035 78.3527 122.468 79.8756 122.585 81.4364L124.706 109.309Z" fill="#47F6AC"/>
<path d="M115.441 81.9533L117.441 108.239C119.815 108.853 122.331 108.671 124.585 107.722L122.585 81.4364C122.468 79.8756 122.035 78.3527 121.312 76.9553C120.59 75.5579 119.591 74.3136 118.374 73.2937C117.324 74.4776 116.525 75.8521 116.021 77.3382C115.518 78.8243 115.321 80.3927 115.441 81.9533Z" fill="#47F6AC"/>
<path opacity="0.4" d="M115.441 81.9533L117.441 108.239C119.815 108.853 122.331 108.671 124.585 107.722L122.585 81.4364C122.468 79.8756 122.035 78.3527 121.312 76.9553C120.59 75.5579 119.591 74.3136 118.374 73.2937C117.324 74.4776 116.525 75.8521 116.021 77.3382C115.518 78.8243 115.321 80.3927 115.441 81.9533Z" fill="white"/>
<path d="M115.441 81.9533L116.943 101.693C119.327 102.172 121.801 101.993 124.087 101.176L122.585 81.4364C122.468 79.8756 122.035 78.3527 121.312 76.9553C120.59 75.5579 119.591 74.3136 118.374 73.2937C117.324 74.4776 116.525 75.8521 116.021 77.3382C115.518 78.8243 115.321 80.3927 115.441 81.9533Z" fill="#47F6AC"/>
<path opacity="0.6" d="M115.441 81.9533L116.943 101.693C119.327 102.172 121.801 101.993 124.087 101.176L122.585 81.4364C122.468 79.8756 122.035 78.3527 121.312 76.9553C120.59 75.5579 119.591 74.3136 118.374 73.2937C117.324 74.4776 116.525 75.8521 116.021 77.3382C115.518 78.8243 115.321 80.3927 115.441 81.9533Z" fill="white"/>
<path d="M115.441 81.9533L116.229 92.3077C118.613 92.7876 121.087 92.6085 123.373 91.7908L122.585 81.4364C122.468 79.8756 122.035 78.3527 121.312 76.9553C120.59 75.5579 119.591 74.3136 118.374 73.2937C117.324 74.4776 116.525 75.8521 116.021 77.3382C115.518 78.8243 115.321 80.3927 115.441 81.9533Z" fill="#47F6AC"/>
<path opacity="0.8" d="M115.441 81.9533L116.229 92.3077C118.613 92.7876 121.087 92.6085 123.373 91.7908L122.585 81.4364C122.468 79.8756 122.035 78.3527 121.312 76.9553C120.59 75.5579 119.591 74.3136 118.374 73.2937C117.324 74.4776 116.525 75.8521 116.021 77.3382C115.518 78.8243 115.321 80.3927 115.441 81.9533Z" fill="white"/>
<path d="M115.441 81.9533L115.533 83.1629C117.917 83.6428 120.391 83.4637 122.677 82.646L122.585 81.4364C122.468 79.8756 122.035 78.3527 121.312 76.9553C120.59 75.5579 119.591 74.3136 118.374 73.2937C117.324 74.4776 116.525 75.8521 116.021 77.3382C115.518 78.8243 115.321 80.3927 115.441 81.9533Z" fill="#47F6AC"/>
<path opacity="0.1" d="M115.441 81.9533L115.533 83.1629C117.917 83.6428 120.391 83.4637 122.677 82.646L122.585 81.4364C122.468 79.8756 122.035 78.3527 121.312 76.9553C120.59 75.5579 119.591 74.3136 118.374 73.2937C117.324 74.4776 116.525 75.8521 116.021 77.3382C115.518 78.8243 115.321 80.3927 115.441 81.9533Z" fill="white"/>
<path d="M121.518 87.1217C121.549 87.523 121.458 87.9245 121.255 88.2752C121.053 88.6259 120.748 88.9101 120.38 89.0918C120.011 89.2736 119.596 89.3447 119.186 89.2962C118.777 89.2477 118.391 89.0817 118.078 88.8193C117.765 88.5569 117.539 88.2098 117.428 87.822C117.317 87.4342 117.327 87.0231 117.456 86.6408C117.585 86.2585 117.828 85.9221 118.153 85.6743C118.478 85.4264 118.872 85.2782 119.283 85.2484C119.834 85.2085 120.379 85.3834 120.798 85.7346C121.217 86.0858 121.476 86.5846 121.518 87.1217Z" fill="#47F6AC"/>
<path d="M119.592 89.3007C119.066 89.3399 118.545 89.1826 118.134 88.8608C117.722 88.5391 117.452 88.0768 117.378 87.5679C117.382 87.6196 117.386 87.6714 117.389 87.7185C117.43 88.2565 117.689 88.7566 118.108 89.1088C118.527 89.461 119.072 89.6364 119.624 89.5965C120.176 89.5566 120.689 89.3046 121.05 88.8959C121.411 88.4873 121.591 87.9554 121.55 87.4174C121.546 87.3704 121.542 87.3186 121.538 87.2668C121.541 87.7839 121.341 88.2822 120.979 88.6602C120.617 89.0382 120.121 89.2673 119.592 89.3007Z" fill="#47F6AC"/>
<path opacity="0.3" d="M119.592 89.3007C119.066 89.3399 118.545 89.1826 118.134 88.8608C117.722 88.5391 117.452 88.0768 117.378 87.5679C117.382 87.6196 117.386 87.6714 117.389 87.7185C117.43 88.2565 117.689 88.7566 118.108 89.1088C118.527 89.461 119.072 89.6364 119.624 89.5965C120.176 89.5566 120.689 89.3046 121.05 88.8959C121.411 88.4873 121.591 87.9554 121.55 87.4174C121.546 87.3704 121.542 87.3186 121.538 87.2668C121.541 87.7839 121.341 88.2822 120.979 88.6602C120.617 89.0382 120.121 89.2673 119.592 89.3007Z" fill="black"/>
<path d="M119.547 88.7077C120.36 88.6489 120.97 87.9585 120.91 87.1657C120.849 86.3729 120.141 85.7779 119.328 85.8367C118.515 85.8955 117.905 86.5859 117.965 87.3787C118.026 88.1715 118.734 88.7665 119.547 88.7077Z" fill="white"/>
<path d="M119.469 88.7038L119.862 85.9021C119.704 85.8542 119.538 85.8341 119.372 85.8429L118.978 88.6399C119.137 88.6898 119.303 88.7115 119.469 88.7038Z" fill="#47F6AC"/>
<path d="M120.014 88.5935L120.352 86.1507C120.28 86.0957 120.203 86.0474 120.122 86.0064L119.748 88.6742C119.839 88.6545 119.927 88.6275 120.014 88.5935Z" fill="#47F6AC"/>
<g opacity="0.7">
<path d="M119.469 88.7038L119.862 85.9021C119.704 85.8542 119.538 85.8341 119.372 85.8429L118.978 88.6399C119.137 88.6898 119.303 88.7115 119.469 88.7038Z" fill="white"/>
<path d="M120.014 88.5935L120.352 86.1507C120.28 86.0957 120.203 86.0474 120.122 86.0064L119.748 88.6742C119.839 88.6545 119.927 88.6275 120.014 88.5935Z" fill="white"/>
</g>
<path d="M176.871 137.838L176.324 137.996C176.08 138.063 175.862 138.203 175.703 138.396C175.544 138.589 175.45 138.826 175.436 139.073L175.416 139.458C175.406 139.65 175.443 139.842 175.526 140.016C175.609 140.191 175.734 140.343 175.891 140.46C176.862 141.17 179.124 142.455 181.66 141.339L183.624 139.659L183.073 136.945L178.682 136.647C178.42 136.675 178.175 136.786 177.983 136.963L176.871 137.838Z" fill="#FAB27B"/>
<path d="M183.639 139.658L189.395 138.957L188.269 135.958L183.087 136.943L183.639 139.658Z" fill="#FAB27B"/>
<path d="M186.827 136.086C186.623 136.535 186.58 137.038 186.703 137.515C186.867 138.289 187.246 139.005 187.797 139.584C186.825 139.669 185.885 139.968 185.049 140.46L185.002 140.487C181.838 138.7 183.395 136.197 183.395 136.197L183.595 136.211C184.674 136.278 185.757 136.236 186.827 136.086Z" fill="#47F6AC"/>
<path d="M198.85 137.757C193.574 139.351 186.89 139.716 186.89 139.716C186.642 139.37 186.511 138.958 186.514 138.536C186.495 137.658 186.533 136.552 186.813 136.087C187.093 135.622 189.397 135.219 189.397 135.219C189.397 135.219 193.726 132.866 194.525 132.141C195.324 131.416 195.054 128.316 194.74 126.29C193.052 115.4 194.965 114.443 196.702 113.81C200.39 112.517 203.518 136.345 198.85 137.757Z" fill="#47F6AC"/>
<path d="M162.254 142.767L177.255 141.681C177.738 141.646 177.935 141.244 177.672 140.785L173.299 132.806C173.164 132.574 172.968 132.38 172.732 132.246C172.496 132.111 172.228 132.039 171.954 132.037L156.948 133.123C156.465 133.158 156.268 133.56 156.531 134.019L160.924 141.997C161.057 142.227 161.25 142.42 161.483 142.555C161.717 142.69 161.982 142.763 162.254 142.767Z" fill="#47F6AC"/>
<path opacity="0.2" d="M162.254 142.767L177.255 141.681C177.738 141.646 177.935 141.244 177.672 140.785L173.299 132.806C173.164 132.574 172.968 132.38 172.732 132.246C172.496 132.111 172.228 132.039 171.954 132.037L156.948 133.123C156.465 133.158 156.268 133.56 156.531 134.019L160.924 141.997C161.057 142.227 161.25 142.42 161.483 142.555C161.717 142.69 161.982 142.763 162.254 142.767Z" fill="black"/>
<path d="M156.296 133.17L156.948 133.123C156.465 133.158 156.268 133.56 156.531 134.019L160.924 141.997C161.058 142.229 161.253 142.422 161.488 142.557C161.723 142.692 161.99 142.764 162.263 142.766L161.617 142.813C161.343 142.811 161.075 142.739 160.839 142.604C160.603 142.469 160.407 142.276 160.272 142.044L155.884 134.066C155.621 133.607 155.809 133.205 156.296 133.17Z" fill="#47F6AC"/>
<path opacity="0.4" d="M156.296 133.17L156.948 133.123C156.465 133.158 156.268 133.56 156.531 134.019L160.924 141.997C161.058 142.229 161.253 142.422 161.488 142.557C161.723 142.692 161.99 142.764 162.263 142.766L161.617 142.813C161.343 142.811 161.075 142.739 160.839 142.604C160.603 142.469 160.407 142.276 160.272 142.044L155.884 134.066C155.621 133.607 155.809 133.205 156.296 133.17Z" fill="black"/>
<path d="M162.462 141.801L176.039 140.818L171.742 133.004L158.164 133.986L162.462 141.801Z" fill="#263238"/>
<path opacity="0.8" d="M162.462 141.801L176.039 140.818L171.742 133.004L158.164 133.986L162.462 141.801Z" fill="white"/>
<path d="M207.161 138.869C207.161 138.869 207.9 143.671 208.082 145.362C209.305 156.655 199.896 158.202 192.831 157.459L167.064 152.404C166.314 155.748 156.013 174.604 156.013 174.604L149.617 171.612C149.617 171.612 154.847 156.284 158.167 145.637C160.059 139.561 179.45 142.266 186.57 142.976C188.746 143.382 188.088 140.159 188.088 140.159L207.161 138.869Z" fill="#263238"/>
<path d="M154.424 174.378L152.368 178.356L147.838 176.554L149.782 172.055L154.424 174.378Z" fill="#FAB27B"/>
<path d="M145.453 175.955C144.859 175.738 144.281 175.41 144.18 175.101C144.159 175.01 144.166 174.916 144.2 174.829C144.234 174.742 144.294 174.667 144.371 174.613C144.437 174.562 144.514 174.524 144.595 174.502C144.677 174.48 144.762 174.474 144.846 174.484C145.73 174.558 147.051 176.095 147.105 176.162C147.121 176.181 147.132 176.204 147.133 176.229C147.135 176.253 147.129 176.278 147.115 176.298C147.101 176.318 147.082 176.334 147.06 176.344C147.037 176.354 147.013 176.358 146.988 176.355C146.466 176.266 145.952 176.132 145.453 175.955ZM145.038 174.769C144.965 174.741 144.889 174.724 144.811 174.719C144.762 174.71 144.711 174.711 144.662 174.724C144.613 174.736 144.568 174.759 144.53 174.791C144.393 174.901 144.394 174.976 144.412 175.027C144.519 175.412 145.727 175.855 146.661 176.071C146.211 175.535 145.659 175.088 145.037 174.755L145.038 174.769Z" fill="#47F6AC"/>
<path d="M146.952 176.32C146.938 176.326 146.923 176.327 146.908 176.323C146.433 175.884 145.663 174.439 145.966 173.949C146.024 173.827 146.18 173.706 146.507 173.792C146.626 173.823 146.737 173.877 146.833 173.952C146.93 174.026 147.01 174.119 147.069 174.224C147.492 174.937 147.14 176.245 147.125 176.302C147.119 176.323 147.108 176.342 147.092 176.356C147.076 176.371 147.056 176.381 147.034 176.385C147.016 176.381 147 176.373 146.985 176.362C146.971 176.35 146.959 176.336 146.952 176.32ZM146.497 173.986L146.437 173.958C146.224 173.897 146.181 173.976 146.164 174.001C146.012 174.305 146.467 175.37 146.932 175.928C147.076 175.378 147.043 174.797 146.839 174.265C146.764 174.134 146.642 174.035 146.497 173.986Z" fill="#47F6AC"/>
<path d="M147.708 175.863L152.938 177.751C153.031 177.785 153.11 177.847 153.162 177.929C153.215 178.011 153.239 178.107 153.23 178.203L152.601 182.697C152.588 182.793 152.557 182.885 152.508 182.968C152.459 183.051 152.393 183.124 152.315 183.183C152.237 183.241 152.148 183.284 152.053 183.308C151.957 183.333 151.858 183.339 151.761 183.326C151.708 183.321 151.657 183.308 151.607 183.29C149.733 182.578 148.102 181.868 145.742 181.026C142.972 180.024 143.55 180.603 140.285 179.466C138.291 178.783 138.781 176.476 139.65 176.673C143.641 177.586 144.464 176.604 146.442 175.808C146.856 175.671 147.308 175.691 147.708 175.863Z" fill="#263238"/>
<path opacity="0.2" d="M153.379 176.399L154.424 174.378L149.782 172.055L148.841 174.229L153.379 176.399Z" fill="black"/>
<path d="M156.961 174.176L149.002 170.1C148.67 170.313 148.414 170.621 148.268 170.981C148.122 171.341 148.093 171.736 148.185 172.113L155.849 176.149C155.849 176.149 156.825 176.017 156.961 174.176Z" fill="#47F6AC"/>
<path d="M168.81 192.385L168.21 196.674L163.463 196.412L163.791 191.674L168.81 192.385Z" fill="#FAB27B"/>
<path d="M161.074 196.594C160.457 196.577 159.821 196.453 159.621 196.188C159.577 196.115 159.555 196.032 159.559 195.947C159.563 195.863 159.592 195.781 159.643 195.713C159.73 195.582 159.866 195.489 160.022 195.454C160.856 195.252 162.567 196.254 162.644 196.301C162.664 196.313 162.68 196.331 162.689 196.352C162.699 196.373 162.701 196.397 162.697 196.42C162.691 196.443 162.678 196.464 162.661 196.48C162.643 196.497 162.621 196.508 162.597 196.512C162.093 196.582 161.583 196.609 161.074 196.594ZM160.307 195.632C160.231 195.626 160.154 195.631 160.08 195.648C160.032 195.656 159.985 195.673 159.945 195.7C159.904 195.727 159.87 195.762 159.844 195.803C159.753 195.947 159.783 196.015 159.815 196.056C160.038 196.375 161.299 196.422 162.218 196.322C161.632 195.973 160.983 195.736 160.306 195.623L160.307 195.632Z" fill="#47F6AC"/>
<path d="M162.58 196.485C162.565 196.491 162.548 196.492 162.532 196.488C161.943 196.214 160.774 195.139 160.893 194.596C160.907 194.462 161.012 194.308 161.355 194.283C161.471 194.273 161.589 194.286 161.7 194.322C161.811 194.358 161.914 194.416 162.001 194.492C162.624 195.015 162.724 196.333 162.728 196.384C162.73 196.405 162.725 196.426 162.716 196.444C162.706 196.462 162.691 196.477 162.673 196.488C162.658 196.496 162.642 196.5 162.626 196.499C162.61 196.499 162.594 196.494 162.58 196.485ZM161.41 194.497L161.347 194.501C161.135 194.517 161.116 194.598 161.109 194.627C161.071 194.957 161.834 195.796 162.439 196.164C162.394 195.614 162.177 195.091 161.816 194.666C161.704 194.569 161.56 194.514 161.411 194.511L161.41 194.497Z" fill="#47F6AC"/>
<path d="M163.121 195.812L168.542 195.94C168.642 195.942 168.738 195.977 168.814 196.039C168.89 196.102 168.942 196.188 168.961 196.283L169.839 200.607C169.876 200.791 169.838 200.982 169.732 201.139C169.625 201.295 169.46 201.405 169.272 201.443C169.221 201.452 169.169 201.455 169.117 201.454C167.17 201.373 165.427 201.248 162.995 201.178C160.122 201.111 160.843 201.461 157.463 201.431C155.427 201.408 155.11 199.146 155.976 199.054C159.936 198.664 160.377 197.51 161.93 196.168C162.269 195.912 162.693 195.785 163.121 195.812Z" fill="#263238"/>
<path opacity="0.2" d="M163.617 194.167L168.559 194.183L168.81 192.386L163.791 191.674L163.617 194.167Z" fill="black"/>
<path d="M170.078 190.614L169.979 191.156L162.73 191.122L162.767 190.584L170.078 190.614Z" fill="#263238"/>
<path d="M170.54 192.795L168.752 192.768L163.718 192.692L162.096 192.668C161.844 192.384 161.686 192.032 161.645 191.659C161.603 191.285 161.68 190.908 161.864 190.579L162.767 190.584L170.078 190.614L170.603 190.618C171.335 192.264 170.54 192.795 170.54 192.795Z" fill="#47F6AC"/>
<path d="M197.567 161.337C191.089 162.369 176.067 163.693 174.008 163.548L170.078 190.614L162.767 190.584C162.767 190.584 161.782 167.5 164.262 157.746C166.257 149.907 207.608 148.51 207.608 148.51L207.917 150.655C208.767 158.062 204.985 160.152 197.567 161.337Z" fill="#263238"/>
<path opacity="0.1" d="M197.567 161.337C191.089 162.369 176.067 163.693 174.008 163.548L170.078 190.614L162.767 190.584C162.767 190.584 161.782 167.5 164.262 157.746C166.257 149.907 207.608 148.51 207.608 148.51L207.917 150.655C208.767 158.062 204.985 160.152 197.567 161.337Z" fill="black"/>
<path d="M164.358 160.537C164.352 160.495 164.349 160.452 164.349 160.409L164.358 160.537Z" fill="#263238"/>
<path d="M164.584 157.061L164.551 157.588C164.552 157.412 164.563 157.236 164.584 157.061Z" fill="#263238"/>
<path d="M184.499 113.78L186.719 116.487L190.937 112.406L187.866 109.239L184.499 113.78Z" fill="#FAB27B"/>
<path opacity="0.2" d="M185.606 115.058C186.38 113.748 185.846 111.842 185.846 111.842L185.13 112.883L184.509 113.779L185.606 115.058Z" fill="black"/>
<path d="M176.317 108.054C176.435 108.325 176.681 108.501 176.863 108.403C177.045 108.305 177.106 108.021 176.984 107.76C176.862 107.499 176.625 107.313 176.439 107.416C176.252 107.519 176.205 107.783 176.317 108.054Z" fill="#263238"/>
<path d="M177.366 108.064L176.932 110.774C177.259 110.816 177.592 110.783 177.904 110.678C178.216 110.574 178.499 110.4 178.73 110.17L177.366 108.064Z" fill="#ED893E"/>
<path d="M175.885 106.131C175.907 106.118 175.932 106.11 175.958 106.108C175.984 106.106 176.01 106.11 176.034 106.12C176.222 106.182 176.423 106.199 176.619 106.17C176.815 106.141 177.001 106.067 177.162 105.953C177.177 105.94 177.195 105.929 177.215 105.923C177.234 105.916 177.255 105.914 177.276 105.915C177.296 105.917 177.317 105.923 177.335 105.932C177.353 105.942 177.369 105.955 177.382 105.971C177.408 106.003 177.42 106.044 177.415 106.085C177.411 106.125 177.391 106.163 177.36 106.19C177.159 106.343 176.922 106.444 176.671 106.484C176.42 106.525 176.162 106.503 175.921 106.422C175.901 106.416 175.882 106.406 175.866 106.393C175.849 106.38 175.836 106.364 175.826 106.346C175.816 106.328 175.81 106.308 175.808 106.287C175.806 106.266 175.808 106.246 175.814 106.226C175.828 106.188 175.852 106.155 175.885 106.131Z" fill="#263238"/>
<path d="M186.651 102.461C188.376 105.994 189.21 107.453 188.421 110.212C186.708 113.53 182.351 115.786 179.546 112.856C177.024 110.199 174.607 104.898 177.294 101.566C178.19 100.427 179.511 99.6782 180.969 99.484C182.428 99.2898 183.907 99.6656 185.083 100.53C185.757 101.041 186.295 101.703 186.651 102.461Z" fill="#FAB27B"/>
<path d="M190.267 103.287C190.156 104.523 190.126 105.765 190.176 107.004C190.228 108.148 189.93 109.281 189.319 110.258C188.708 111.235 187.812 112.013 186.745 112.491C186.745 112.491 181.479 112.811 178.753 106.52C178.139 106.621 177.509 106.574 176.919 106.382C176.328 106.19 175.795 105.86 175.366 105.419C174.937 104.979 174.626 104.442 174.46 103.857C174.295 103.272 174.279 102.656 174.415 102.063C174.74 100.658 176.456 99.6725 177.924 99.5142C178.36 98.8681 178.952 98.3364 179.649 97.9658C180.345 97.5952 181.124 97.3972 181.917 97.3891C183.519 97.3998 185.094 97.7857 186.511 98.5143C187.779 99.0222 188.882 99.8548 189.704 100.924C190.153 101.63 190.351 102.461 190.267 103.287Z" fill="#263238"/>
<path d="M179.907 107.208C179.768 107.584 179.707 107.983 179.728 108.382C179.748 108.781 179.849 109.172 180.026 109.532C180.506 110.487 181.575 110.244 182.135 109.38C182.643 108.59 182.995 107.155 182.177 106.485C181.359 105.815 180.259 106.283 179.907 107.208Z" fill="#FAB27B"/>
<path d="M190.814 110.28C189.37 110.446 187.305 111.556 184.593 113.683C184.454 113.821 184.352 113.99 184.298 114.176C184.245 114.362 184.24 114.559 184.286 114.747C184.349 115.121 184.762 115.446 185.119 115.302C185.344 115.759 185.508 116.267 185.712 116.707C186.571 116.199 187.468 115.754 188.396 115.377C189.794 114.713 191.233 114.134 192.705 113.645C192.259 113.077 191.679 112.532 191.466 111.842C191.63 111.757 191.758 111.618 191.827 111.451C191.897 111.283 191.904 111.097 191.848 110.925C191.751 110.737 191.604 110.577 191.422 110.464C191.24 110.35 191.03 110.287 190.814 110.28Z" fill="#47F6AC"/>
<path d="M190.814 110.28C189.37 110.446 187.305 111.556 184.593 113.683C184.454 113.821 184.352 113.99 184.298 114.176C184.245 114.362 184.24 114.559 184.286 114.747C184.349 115.121 184.762 115.446 185.119 115.302C185.344 115.759 185.508 116.267 185.712 116.707C186.571 116.199 187.468 115.754 188.396 115.377C189.794 114.713 191.233 114.134 192.705 113.645C192.259 113.077 191.679 112.532 191.466 111.842C191.63 111.757 191.758 111.618 191.827 111.451C191.897 111.283 191.904 111.097 191.848 110.925C191.751 110.737 191.604 110.577 191.422 110.464C191.24 110.35 191.03 110.287 190.814 110.28Z" fill="#47F6AC"/>
<path d="M189.319 146.639C185.712 139.712 182.548 132.574 179.845 125.267C176.985 117.277 183.37 116.673 190.934 114.091C196.932 112.043 199.657 113.289 201.635 116.189C203.612 119.089 208.38 144.498 208.38 144.498L189.319 146.639Z" fill="#47F6AC"/>
<path d="M189.319 146.639C185.712 139.712 182.548 132.574 179.845 125.267C176.985 117.277 183.37 116.673 190.934 114.091C196.932 112.043 199.657 113.289 201.635 116.189C203.612 119.089 208.38 144.498 208.38 144.498L189.319 146.639Z" fill="#47F6AC"/>
<path opacity="0.3" d="M189.319 146.639C185.712 139.712 182.548 132.574 179.845 125.267C176.985 117.277 183.37 116.673 190.934 114.091C196.932 112.043 199.657 113.289 201.635 116.189C203.612 119.089 208.38 144.498 208.38 144.498L189.319 146.639Z" fill="black"/>
<path d="M160.507 136.911L159.967 136.95C159.727 136.977 159.501 137.076 159.321 137.233C159.14 137.39 159.015 137.598 158.961 137.828L158.877 138.184C158.833 138.363 158.834 138.55 158.882 138.728C158.929 138.906 159.021 139.07 159.148 139.206C159.944 140.033 161.85 141.608 164.427 140.967L166.568 139.705L166.513 137.059L162.448 136.071C162.196 136.056 161.945 136.12 161.734 136.255L160.507 136.911Z" fill="#FAB27B"/>
<path d="M166.579 139.723L172.114 140L171.565 136.992L166.524 137.077L166.579 139.723Z" fill="#FAB27B"/>
<path d="M170.211 136.877C169.933 137.27 169.798 137.743 169.828 138.22C169.852 138.976 170.086 139.711 170.505 140.348C169.575 140.269 168.638 140.398 167.767 140.726L167.719 140.729C165.047 138.533 166.94 136.432 166.94 136.432L167.128 136.475C168.139 136.713 169.172 136.847 170.211 136.877Z" fill="#47F6AC"/>
<path d="M181.215 140.401C175.979 141.045 169.627 140.293 169.627 140.293C169.452 139.928 169.397 139.518 169.47 139.121C169.605 138.288 169.813 137.256 170.186 136.864C170.559 136.473 172.767 136.469 172.767 136.469C172.767 136.469 177.243 134.953 178.118 134.402C178.994 133.851 179.27 130.916 179.314 128.944C179.586 118.418 181.55 117.822 183.298 117.52C186.964 116.896 185.851 139.834 181.215 140.401Z" fill="#47F6AC"/>
<path d="M203.063 198.667L197.159 169.232C196.87 167.794 196.05 166.508 194.855 165.618C193.659 164.729 192.171 164.298 190.671 164.406L178.648 165.276C177.19 165.376 175.817 165.982 174.777 166.983C173.737 167.985 173.099 169.316 172.977 170.736L170.323 200.657L169.346 200.576L172.006 170.664C172.146 169.021 172.885 167.48 174.088 166.321C175.291 165.162 176.88 164.461 178.567 164.345L190.61 163.474C192.345 163.35 194.067 163.849 195.451 164.878C196.835 165.907 197.784 167.394 198.121 169.059L204.025 198.493L203.063 198.667Z" fill="#263238"/>
<path d="M219.927 197.447L214.023 168.012C213.734 166.573 212.915 165.287 211.719 164.398C210.524 163.509 209.035 163.077 207.536 163.186L195.493 164.057C194.035 164.157 192.661 164.762 191.621 165.763C190.581 166.765 189.943 168.097 189.823 169.517L187.164 199.439L186.187 199.358L188.846 169.446C188.986 167.802 189.724 166.261 190.927 165.102C192.131 163.943 193.72 163.242 195.408 163.126L207.45 162.255C209.186 162.131 210.908 162.631 212.291 163.66C213.675 164.688 214.625 166.175 214.961 167.84L220.865 197.275L219.927 197.447Z" fill="#263238"/>
<path d="M187.084 191.125L170.504 192.324L170.576 193.266L187.156 192.066L187.084 191.125Z" fill="#263238"/>
<path d="M214.76 167.429L197.62 168.669L197.692 169.61L214.832 168.37L214.76 167.429Z" fill="#263238"/>
<path d="M200.417 163.905L213.03 162.992C215.374 162.822 217.568 161.797 219.172 160.121C220.776 158.444 221.673 156.24 221.684 153.947L221.798 131.724C221.802 130.874 221.626 130.032 221.281 129.251C220.937 128.47 220.43 127.767 219.793 127.186C219.157 126.605 218.404 126.158 217.583 125.874C216.761 125.589 215.888 125.473 215.018 125.533L208.019 126.039C204.059 126.326 200.3 127.851 197.3 130.388C194.301 132.925 192.221 136.339 191.371 140.121L187.745 156.241C187.449 157.558 186.726 158.747 185.681 159.63C184.637 160.513 183.328 161.044 181.949 161.142L173.126 161.781C172.018 161.862 170.989 162.369 170.264 163.19C169.539 164.011 169.179 165.079 169.261 166.159L200.417 163.905Z" fill="#47F6AC"/>
<path opacity="0.7" d="M200.417 163.905L213.03 162.992C215.374 162.822 217.568 161.797 219.172 160.121C220.776 158.444 221.673 156.24 221.684 153.947L221.798 131.724C221.802 130.874 221.626 130.032 221.281 129.251C220.937 128.47 220.43 127.767 219.793 127.186C219.157 126.605 218.404 126.158 217.583 125.874C216.761 125.589 215.888 125.473 215.018 125.533L208.019 126.039C204.059 126.326 200.3 127.851 197.3 130.388C194.301 132.925 192.221 136.339 191.371 140.121L187.745 156.241C187.449 157.558 186.726 158.747 185.681 159.63C184.637 160.513 183.328 161.044 181.949 161.142L173.126 161.781C172.018 161.862 170.989 162.369 170.264 163.19C169.539 164.011 169.179 165.079 169.261 166.159L200.417 163.905Z" fill="white"/>
<path d="M182.109 88.5636L182.105 88.5116C182.109 88.5287 182.11 88.5461 182.109 88.5636Z" fill="#47F6AC"/>
<path d="M158.927 84.2494C157.387 85.8535 156.322 87.8341 155.844 89.981L154.961 90.0449C155.087 87.6583 155.823 85.3403 157.103 83.3024L158.927 84.2494Z" fill="#47F6AC"/>
<path opacity="0.6" d="M158.927 84.2494C157.387 85.8535 156.322 87.8341 155.844 89.981L154.961 90.0449C155.087 87.6583 155.823 85.3403 157.103 83.3024L158.927 84.2494Z" fill="white"/>
<path d="M163.829 81.06C161.957 81.7287 160.277 82.8238 158.927 84.2542L157.103 83.3024C158.377 81.2593 160.129 79.5386 162.214 78.2806L163.829 81.06Z" fill="#47F6AC"/>
<path opacity="0.5" d="M163.829 81.06C161.957 81.7287 160.277 82.8238 158.927 84.2542L157.103 83.3024C158.377 81.2593 160.129 79.5386 162.214 78.2806L163.829 81.06Z" fill="white"/>
<path d="M168.909 76.2013L168.8 80.4354C168.175 80.3751 167.546 80.3684 166.92 80.4152C165.864 80.4924 164.824 80.7094 163.829 81.06L162.215 78.29C164.177 77.0998 166.403 76.3884 168.707 76.216L168.909 76.2013Z" fill="#47F6AC"/>
<path opacity="0.4" d="M168.909 76.2013L168.8 80.4354C168.175 80.3751 167.546 80.3684 166.92 80.4152C165.864 80.4924 164.824 80.7094 163.829 81.06L162.215 78.29C164.177 77.0998 166.403 76.3884 168.707 76.216L168.909 76.2013Z" fill="white"/>
<path d="M175.503 77.5178L172.995 81.7455C171.712 81.0149 170.279 80.5677 168.799 80.4354L168.909 76.2013C171.189 76.0523 173.467 76.5072 175.503 77.5178Z" fill="#47F6AC"/>
<path opacity="0.3" d="M175.503 77.5178L172.995 81.7455C171.712 81.0149 170.279 80.5677 168.799 80.4354L168.909 76.2013C171.189 76.0523 173.467 76.5072 175.503 77.5178Z" fill="white"/>
<path d="M180.329 81.939L176.111 84.5489C175.29 83.405 174.223 82.4488 172.986 81.7463L175.493 77.5186C177.496 78.5245 179.17 80.0554 180.329 81.939Z" fill="#47F6AC"/>
<path opacity="0.2" d="M180.329 81.939L176.111 84.5489C175.29 83.405 174.223 82.4488 172.986 81.7463L175.493 77.5186C177.496 78.5245 179.17 80.0554 180.329 81.939Z" fill="white"/>
<path d="M182.111 88.3882L177.811 88.652C177.564 87.1782 176.983 85.7765 176.111 84.5489L180.329 81.939C181.513 83.8909 182.129 86.1205 182.111 88.3882Z" fill="#47F6AC"/>
<path opacity="0.1" d="M182.111 88.3882L177.811 88.652C177.564 87.1782 176.983 85.7765 176.111 84.5489L180.329 81.939C181.513 83.8909 182.129 86.1205 182.111 88.3882Z" fill="white"/>
<path d="M182.11 88.5113C182.114 88.5283 182.115 88.5457 182.114 88.563C182.053 90.0485 181.777 91.5181 181.296 92.9288L177.758 92.4134L177.939 91.0988C177.95 90.9276 177.962 90.7565 177.963 90.586L177.955 90.4824C177.965 89.8693 177.918 89.2567 177.816 88.6516L182.115 88.3879C182.118 88.4161 182.119 88.4349 182.121 88.4584C182.12 88.4765 182.116 88.4943 182.11 88.5113Z" fill="#47F6AC"/>
<path d="M155.824 94.502L155.573 94.577C155.466 94.2582 155.373 93.9336 155.29 93.6036C155.05 92.5959 154.932 91.5639 154.94 90.5292L154.936 90.4775C154.932 90.4604 154.931 90.443 154.932 90.4257C154.922 90.2986 154.936 90.1651 154.946 90.0366L155.829 89.9727C155.676 90.6699 155.59 91.3796 155.573 92.0924C155.573 92.0924 155.576 92.1254 155.577 92.1442C155.578 92.163 155.579 92.1772 155.581 92.196C155.581 92.6164 155.605 93.0365 155.652 93.4544C155.699 93.8154 155.755 94.1616 155.824 94.502Z" fill="#47F6AC"/>
<path opacity="0.7" d="M155.824 94.502L155.573 94.577C155.466 94.2582 155.373 93.9336 155.29 93.6036C155.05 92.5959 154.932 91.5639 154.94 90.5292L154.936 90.4775C154.932 90.4604 154.931 90.443 154.932 90.4257C154.922 90.2986 154.936 90.1651 154.946 90.0366L155.829 89.9727C155.676 90.6699 155.59 91.3796 155.573 92.0924C155.573 92.0924 155.576 92.1254 155.577 92.1442C155.578 92.163 155.579 92.1772 155.581 92.196C155.581 92.6164 155.605 93.0365 155.652 93.4544C155.699 93.8154 155.755 94.1616 155.824 94.502Z" fill="white"/>
<path d="M182.087 91.9061L181.788 92.8175L181.032 92.7112L173.989 91.6828L170.956 91.2397C171.143 90.9631 171.293 90.6644 171.403 90.3508C171.528 89.9848 171.59 89.6014 171.588 89.2158L178.37 90.9541L182.087 91.9061Z" fill="#263238"/>
<path d="M171.589 89.2251C171.588 89.9459 171.368 90.6502 170.957 91.249L168.233 90.8498L168.906 88.539L171.589 89.2251Z" fill="#263238"/>
<path d="M171.589 89.2251C171.588 89.9459 171.368 90.6502 170.957 91.2491C170.656 91.6871 170.264 92.0588 169.807 92.3402C168.153 93.3639 166.077 92.9461 165.178 91.3974C164.759 90.5972 164.666 89.6715 164.919 88.8074C165.172 87.9432 165.752 87.2049 166.542 86.7414C168.197 85.7178 170.272 86.1402 171.176 87.6839C171.447 88.1543 171.59 88.6852 171.589 89.2251Z" fill="#47F6AC"/>
<path d="M61.4703 95.191L64.236 94.9909L64.4079 97.25L61.367 97.47L61.193 100.795L58.7796 100.97L58.9537 97.6446L55.8308 97.8706L55.6567 101.196L53.2916 101.367L53.4657 98.0417L50.6807 98.2432L50.5088 95.9841L53.5689 95.7626L53.7576 92.3748L50.9774 92.5759L50.8055 90.3168L53.8656 90.0954L54.0397 86.7701L56.4193 86.5979L56.2452 89.9232L59.3633 89.6976L59.5373 86.3723L61.9169 86.2001L61.7429 89.5254L64.5038 89.3257L64.6757 91.5848L61.6155 91.8062L61.4703 95.191ZM59.0569 95.3656L59.2456 91.9777L56.1565 92.2012L55.9292 95.5919L59.0569 95.3656Z" fill="#47F6AC"/>
<path d="M71.2645 85.4999L72.3683 100.005L68.9268 100.254L68.0282 88.4457L65.055 88.6608L64.8498 85.964L71.2645 85.4999Z" fill="#47F6AC"/>
<path d="M62.9578 146.757L39.1572 148.479L40.3731 164.457L64.1737 162.735L62.9578 146.757Z" fill="#263238"/>
<path d="M62.9578 146.757L39.1572 148.479L39.2686 149.942L63.0692 148.22L62.9578 146.757Z" fill="#47F6AC"/>
<path d="M44.1884 157.002L48.2436 158.824C48.3948 158.883 48.5331 158.97 48.6512 159.079C48.7265 159.167 48.7691 159.277 48.7721 159.392C48.7793 159.471 48.7701 159.551 48.745 159.627C48.72 159.703 48.6795 159.773 48.6261 159.833C48.5761 159.894 48.5137 159.944 48.443 159.98C48.3722 160.016 48.2946 160.037 48.215 160.043C48.0415 160.035 47.872 159.989 47.7194 159.908L42.4923 157.546C42.4102 157.512 42.3393 157.457 42.2873 157.387C42.2354 157.316 42.2044 157.233 42.1978 157.146C42.1912 157.06 42.2093 156.973 42.25 156.896C42.2907 156.818 42.3525 156.754 42.4285 156.708L47.2409 153.62C47.381 153.521 47.5414 153.453 47.7111 153.421C47.8726 153.411 48.0314 153.464 48.1536 153.568C48.2757 153.671 48.3515 153.817 48.3647 153.974C48.3824 154.088 48.3568 154.205 48.2926 154.301C48.1943 154.429 48.0703 154.536 47.9283 154.616L44.1884 157.002Z" fill="white"/>
<path d="M53.9055 152.357L50.6598 160.727C50.6128 160.88 50.5325 161.022 50.4244 161.142C50.327 161.231 50.2003 161.284 50.0669 161.291C49.9877 161.296 49.9082 161.287 49.833 161.262C49.7578 161.237 49.6884 161.198 49.6288 161.147C49.5694 161.103 49.5202 161.046 49.4844 160.982C49.4486 160.918 49.4269 160.847 49.4209 160.774C49.4225 160.609 49.4579 160.445 49.5251 160.293L52.7711 151.928C52.8186 151.776 52.8971 151.635 53.0017 151.514C53.1099 151.419 53.2496 151.366 53.395 151.364C53.5403 151.362 53.6814 151.412 53.792 151.504C53.8517 151.548 53.9011 151.605 53.9369 151.669C53.9728 151.733 53.9942 151.804 54 151.877C54.0013 152.042 53.9692 152.205 53.9055 152.357Z" fill="white"/>
<path d="M59.0643 155.926L54.9946 154.105C54.84 154.048 54.6994 153.96 54.5818 153.846C54.5072 153.758 54.4647 153.648 54.4609 153.533C54.4537 153.455 54.4635 153.376 54.4896 153.301C54.5157 153.227 54.5575 153.159 54.6124 153.101C54.6625 153.04 54.7249 152.99 54.7956 152.954C54.8664 152.918 54.944 152.897 55.0236 152.891C55.1965 152.898 55.3656 152.943 55.5188 153.021L60.746 155.383C60.828 155.417 60.8989 155.472 60.9509 155.543C61.0029 155.613 61.0338 155.696 61.0404 155.783C61.047 155.87 61.029 155.956 60.9883 156.034C60.9476 156.111 60.8858 156.176 60.8097 156.221L55.9973 159.309C55.8589 159.412 55.6981 159.482 55.5275 159.513C55.4472 159.519 55.3665 159.509 55.2904 159.484C55.2142 159.458 55.1441 159.418 55.0843 159.366C54.9609 159.26 54.8851 159.11 54.8731 158.95C54.8609 158.837 54.8862 158.722 54.9453 158.623C55.0466 158.497 55.1721 158.392 55.3148 158.313L59.0643 155.926Z" fill="white"/>
</g>
<defs>
<clipPath id="clip0_23_4851">
<rect width="241.967" height="236.007" fill="white" transform="matrix(0.997393 -0.0721643 0.0758762 0.997117 0 17.5303)"/>
</clipPath>
</defs>
</svg>
