<svg width="227" height="227" viewBox="0 0 227 227" fill="none" xmlns="http://www.w3.org/2000/svg">
<path d="M201.467 106.363C197.142 86.1807 187.336 67.5815 173.128 52.6095C164.829 43.9076 154.134 34.5226 141.477 27.3204C109.56 9.16689 71.5184 16.6788 56.5765 37.2813C41.6347 57.8837 17.1958 147.593 20.5102 170.737C23.8247 193.88 87.7429 211.838 128.39 204.627C169.036 197.417 202.601 169.41 204.604 140.389C205.391 129.014 203.75 116.894 201.467 106.363Z" fill="#47F6AC"/>
<path opacity="0.7" d="M201.467 106.363C197.142 86.1807 187.336 67.5815 173.128 52.6095C164.829 43.9076 154.134 34.5226 141.477 27.3204C109.56 9.16689 71.5184 16.6788 56.5765 37.2813C41.6347 57.8837 17.1958 147.593 20.5102 170.737C23.8247 193.88 87.7429 211.838 128.39 204.627C169.036 197.417 202.601 169.41 204.604 140.389C205.391 129.014 203.75 116.894 201.467 106.363Z" fill="white"/>
<path d="M204.58 200.389L209.747 200.131" stroke="#263238" stroke-linecap="round" stroke-linejoin="round"/>
<path d="M90.4772 206.09L201.135 200.561" stroke="#263238" stroke-linecap="round" stroke-linejoin="round"/>
<path d="M33.2106 208.951L86.6021 206.283" stroke="#263238" stroke-linecap="round" stroke-linejoin="round"/>
<path d="M205.302 159.377C205.302 159.377 205.56 158.224 205.565 158.151C205.642 157.283 205.281 155.575 204.385 155.188C204.234 155.129 204.073 155.102 203.911 155.109C203.749 155.117 203.591 155.158 203.446 155.231C203.302 155.304 203.174 155.406 203.072 155.532C202.969 155.657 202.895 155.803 202.852 155.96C202.648 156.617 202.985 157.395 203.382 157.919C203.811 158.558 205.302 159.372 205.302 159.377Z" fill="#263238"/>
<path d="M188.004 159.861C188.717 160.132 190.425 160.008 190.425 160.008C190.425 160.008 190.003 158.907 189.965 158.844C189.551 158.079 188.302 156.842 187.344 157.019C187.186 157.053 187.036 157.119 186.905 157.215C186.775 157.31 186.665 157.432 186.585 157.573C186.504 157.713 186.454 157.869 186.438 158.03C186.422 158.191 186.44 158.354 186.491 158.508C186.684 159.172 187.397 159.632 188.004 159.861Z" fill="#263238"/>
<path d="M210.095 152.93C209.121 152.871 208.038 154.254 207.724 155.069C207.698 155.139 207.397 156.285 207.418 156.284C207.248 156.5 207.065 156.733 206.871 156.993C206.515 157.477 206.115 158.028 205.724 158.656C205.295 159.329 204.906 160.025 204.559 160.743C204.165 161.545 203.842 162.38 203.596 163.239C203.596 163.239 203.597 163.26 203.597 163.269C203.583 162.985 203.543 162.184 203.54 162.124C203.385 161.268 202.582 159.703 201.617 159.574C201.456 159.557 201.293 159.575 201.139 159.626C200.986 159.676 200.844 159.758 200.724 159.867C200.604 159.975 200.507 160.107 200.441 160.255C200.375 160.403 200.341 160.563 200.341 160.725C200.319 161.413 200.84 162.073 201.357 162.483C201.928 162.942 203.467 163.34 203.59 163.369C203.361 164.248 203.191 165.142 203.08 166.045C203.016 166.57 202.965 167.104 202.918 167.637C202.906 167.391 202.894 167.167 202.893 167.137C202.742 166.282 201.939 164.716 200.97 164.587C200.809 164.571 200.646 164.589 200.493 164.639C200.339 164.69 200.198 164.772 200.078 164.88C199.958 164.989 199.862 165.121 199.797 165.269C199.731 165.417 199.698 165.577 199.698 165.739C199.676 166.426 200.197 167.086 200.714 167.497C201.231 167.907 202.531 168.269 202.876 168.364L202.83 168.979C202.762 169.963 202.699 170.946 202.609 171.904C202.574 172.242 202.53 172.573 202.49 172.907C202.48 172.687 202.47 172.502 202.469 172.476C202.314 171.621 201.511 170.055 200.546 169.926C200.385 169.91 200.222 169.927 200.068 169.976C199.915 170.026 199.773 170.108 199.653 170.216C199.532 170.324 199.436 170.457 199.37 170.604C199.304 170.752 199.27 170.912 199.269 171.074C199.248 171.761 199.769 172.426 200.285 172.832C200.937 173.223 201.646 173.511 202.387 173.685C202.335 174.024 202.283 174.363 202.213 174.691C202.163 174.913 202.127 175.127 202.064 175.35L201.89 176.002C201.763 176.409 201.633 176.83 201.519 177.229C201.43 177.505 201.339 177.764 201.244 178.028C201.284 177.694 201.337 177.031 201.338 176.975C201.289 176.211 201.044 175.472 200.627 174.83C200.631 174.745 200.627 174.66 200.614 174.576C200.586 174.417 200.524 174.266 200.433 174.132C200.343 173.998 200.225 173.884 200.088 173.799C199.95 173.713 199.796 173.658 199.636 173.635C199.476 173.613 199.313 173.624 199.157 173.669C198.227 173.966 197.715 175.649 197.711 176.517C197.714 176.569 197.772 177.127 197.82 177.478C197.762 177.274 197.705 177.078 197.647 176.87C197.526 176.444 197.395 176.054 197.256 175.616C197.181 175.404 197.105 175.192 197.026 174.98C196.946 174.768 196.854 174.557 196.769 174.332C196.554 173.834 196.318 173.336 196.064 172.844C196.426 172.739 197.696 172.331 198.177 171.923C198.657 171.514 199.188 170.827 199.15 170.147C199.147 169.985 199.109 169.826 199.04 169.679C198.971 169.533 198.871 169.402 198.748 169.297C198.625 169.191 198.481 169.113 198.326 169.067C198.17 169.021 198.007 169.008 197.846 169.03C196.883 169.181 196.12 170.765 195.986 171.626C195.989 171.678 195.951 172.31 195.947 172.651C195.79 172.357 195.641 172.062 195.471 171.768C194.997 170.929 194.485 170.091 193.984 169.227L193.514 168.452C193.642 168.415 195.165 167.981 195.72 167.504C196.275 167.028 196.731 166.409 196.693 165.729C196.69 165.567 196.652 165.408 196.583 165.261C196.514 165.114 196.415 164.984 196.292 164.879C196.169 164.773 196.025 164.695 195.869 164.649C195.714 164.603 195.55 164.59 195.39 164.611C194.426 164.763 193.664 166.347 193.53 167.208C193.533 167.273 193.483 168.177 193.486 168.406C193.151 167.836 192.825 167.265 192.537 166.683C192.127 165.905 191.768 165.101 191.462 164.277C191.523 164.274 193.114 163.814 193.685 163.328C194.183 162.911 194.693 162.238 194.654 161.553C194.651 161.391 194.614 161.232 194.544 161.085C194.475 160.939 194.376 160.808 194.253 160.703C194.13 160.597 193.986 160.519 193.83 160.473C193.675 160.427 193.512 160.414 193.351 160.436C192.392 160.587 191.629 162.171 191.495 163.032C191.498 163.088 191.459 163.776 191.449 164.105L191.398 164.107C191.113 163.275 190.904 162.419 190.774 161.549C190.693 161.069 190.644 160.605 190.609 160.15C190.913 160.1 192.32 159.84 192.866 159.463C193.413 159.086 193.987 158.483 194.026 157.799C194.038 157.639 194.017 157.479 193.963 157.327C193.909 157.176 193.825 157.038 193.714 156.922C193.604 156.805 193.471 156.713 193.323 156.652C193.175 156.59 193.016 156.559 192.855 156.563C191.882 156.611 190.947 158.1 190.721 158.94C190.723 158.983 190.635 159.462 190.587 159.81C190.577 159.607 190.566 159.379 190.557 159.198C190.52 158.462 190.534 157.788 190.547 157.187C190.56 156.85 190.58 156.542 190.6 156.252C190.87 156.045 191.954 155.196 192.274 154.61C192.595 154.025 192.822 153.223 192.536 152.599C192.475 152.449 192.382 152.314 192.265 152.203C192.148 152.091 192.008 152.006 191.856 151.951C191.703 151.897 191.541 151.875 191.38 151.888C191.219 151.9 191.062 151.946 190.919 152.023C190.08 152.497 189.935 154.265 190.12 155.119C190.124 155.193 190.521 156.312 190.533 156.299C190.512 156.576 190.488 156.871 190.47 157.195C190.439 157.797 190.413 158.472 190.432 159.213C190.442 160.01 190.501 160.806 190.608 161.596C190.716 162.482 190.904 163.357 191.17 164.209C191.168 164.219 191.169 164.23 191.171 164.239C191.004 164.006 190.523 163.37 190.478 163.329C189.877 162.698 188.345 161.834 187.468 162.262C187.324 162.336 187.198 162.441 187.097 162.567C186.997 162.694 186.924 162.841 186.884 162.997C186.843 163.154 186.837 163.318 186.864 163.477C186.891 163.637 186.952 163.789 187.042 163.923C187.399 164.51 188.211 164.767 188.857 164.83C189.585 164.897 191.088 164.382 191.206 164.337C191.502 165.198 191.854 166.038 192.26 166.853C192.495 167.324 192.739 167.796 193 168.266C192.852 168.071 192.718 167.896 192.695 167.871C192.094 167.245 190.562 166.381 189.685 166.809C189.542 166.883 189.415 166.987 189.315 167.114C189.214 167.241 189.141 167.387 189.101 167.544C189.06 167.701 189.054 167.864 189.081 168.024C189.108 168.184 189.169 168.336 189.259 168.47C189.616 169.057 190.423 169.314 191.074 169.377C191.725 169.439 193.02 169.02 193.36 168.904L193.658 169.442C194.133 170.303 194.633 171.154 195.081 172.004C195.243 172.306 195.388 172.606 195.537 172.909C195.403 172.734 195.288 172.589 195.269 172.568C194.668 171.938 193.136 171.078 192.259 171.502C192.116 171.576 191.989 171.68 191.889 171.807C191.788 171.934 191.715 172.08 191.674 172.237C191.634 172.393 191.626 172.557 191.653 172.716C191.68 172.876 191.739 173.028 191.829 173.163C192.19 173.75 192.997 174.007 193.648 174.07C194.407 174.035 195.157 173.884 195.87 173.622C196.015 173.934 196.156 174.246 196.279 174.555C196.359 174.772 196.452 174.978 196.518 175.187L196.731 175.828C196.852 176.253 196.981 176.679 197.087 177.066C197.161 177.343 197.231 177.611 197.3 177.884C197.143 177.581 196.825 177.002 196.796 176.955C196.295 176.242 194.911 175.159 193.98 175.447C193.827 175.499 193.686 175.583 193.567 175.693C193.448 175.803 193.354 175.937 193.29 176.086C193.226 176.235 193.195 176.396 193.197 176.558C193.199 176.72 193.236 176.879 193.304 177.026C193.572 177.656 194.334 178.037 194.963 178.195C195.658 178.368 197.159 178.086 197.349 178.076C197.462 178.524 197.57 178.963 197.659 179.356C197.989 180.789 198.222 181.995 198.346 182.839C198.354 182.99 198.391 183.126 198.415 183.267L195.483 183.414L197.26 200.755L202.604 200.488L202.624 183.001L199.876 183.138C199.874 183.095 199.911 183.054 199.931 183.01C200.266 182.212 200.727 181.063 201.222 179.665C201.377 179.226 201.535 178.748 201.692 178.256C201.879 178.286 203.392 178.517 204.082 178.322C204.771 178.128 205.456 177.753 205.709 177.11C205.773 176.962 205.806 176.802 205.804 176.641C205.803 176.479 205.767 176.32 205.7 176.173C205.633 176.026 205.536 175.895 205.414 175.788C205.293 175.681 205.151 175.601 204.997 175.553C204.056 175.289 202.7 176.406 202.218 177.129C202.19 177.174 201.934 177.674 201.777 177.989C201.841 177.791 201.904 177.594 201.968 177.388C202.094 176.98 202.212 176.568 202.336 176.126C202.39 175.908 202.444 175.689 202.498 175.471C202.552 175.252 202.588 175.034 202.636 174.79C202.735 174.255 202.811 173.711 202.874 173.16C203.61 173.412 204.379 173.55 205.157 173.568C205.804 173.488 206.602 173.211 206.948 172.615C207.034 172.478 207.091 172.325 207.114 172.164C207.137 172.004 207.126 171.84 207.082 171.684C207.037 171.528 206.961 171.384 206.856 171.259C206.752 171.135 206.623 171.035 206.477 170.964C205.594 170.576 204.08 171.459 203.512 172.105C203.475 172.146 203.108 172.656 202.911 172.938C202.946 172.608 202.985 172.274 203.008 171.94C203.08 170.97 203.121 169.983 203.167 169.001C203.182 168.698 203.202 168.4 203.217 168.101C203.344 168.138 204.853 168.619 205.578 168.531C206.226 168.451 207.024 168.174 207.37 167.578C207.456 167.441 207.513 167.288 207.536 167.127C207.559 166.967 207.548 166.803 207.504 166.647C207.459 166.491 207.382 166.347 207.278 166.223C207.174 166.098 207.044 165.998 206.899 165.927C206.016 165.54 204.502 166.427 203.934 167.068C203.889 167.118 203.36 167.852 203.236 168.044C203.272 167.382 203.317 166.723 203.384 166.077C203.472 165.198 203.616 164.326 203.814 163.465C203.876 163.484 205.451 163.988 206.193 163.899C206.837 163.824 207.638 163.542 207.984 162.946C208.07 162.809 208.126 162.655 208.149 162.495C208.172 162.335 208.161 162.172 208.116 162.016C208.072 161.86 207.995 161.716 207.891 161.591C207.787 161.467 207.659 161.366 207.513 161.295C206.631 160.907 205.116 161.79 204.549 162.436C204.508 162.477 204.108 163.036 203.919 163.305L203.87 163.281C204.095 162.426 204.396 161.591 204.769 160.789C204.971 160.347 205.183 159.931 205.405 159.536C205.688 159.66 206.989 160.212 207.666 160.204C208.343 160.196 209.141 160.009 209.554 159.458C209.657 159.33 209.732 159.182 209.773 159.023C209.815 158.864 209.822 158.699 209.795 158.537C209.768 158.375 209.706 158.221 209.615 158.084C209.524 157.948 209.405 157.833 209.265 157.746C208.425 157.248 206.825 157.98 206.176 158.552C206.139 158.584 205.811 158.941 205.579 159.208L205.884 158.674C206.259 158.043 206.645 157.484 206.988 156.996C207.185 156.719 207.372 156.472 207.546 156.239C207.886 156.222 209.265 156.105 209.85 155.796C210.434 155.486 211.072 154.94 211.181 154.262C211.206 154.101 211.198 153.938 211.155 153.781C211.113 153.624 211.039 153.479 210.936 153.353C210.834 153.227 210.706 153.124 210.561 153.052C210.416 152.979 210.257 152.937 210.095 152.93ZM200.677 179.468C200.159 180.841 199.676 181.97 199.326 182.751L199.137 183.192L199.072 183.196C199.043 183.05 199.018 182.888 198.983 182.704C198.819 181.849 198.573 180.639 198.212 179.203C198.099 178.746 197.971 178.261 197.83 177.767C198.277 177.564 198.711 177.334 199.129 177.076C199.741 177.55 200.415 177.938 201.133 178.228C200.982 178.646 200.83 179.072 200.677 179.468Z" fill="#263238"/>
<path opacity="0.3" d="M188.004 159.861C188.717 160.132 190.425 160.008 190.425 160.008C190.425 160.008 190.003 158.907 189.965 158.844C189.551 158.079 188.302 156.842 187.344 157.019C187.186 157.053 187.036 157.119 186.905 157.215C186.775 157.31 186.665 157.432 186.585 157.573C186.504 157.713 186.454 157.869 186.438 158.03C186.422 158.191 186.44 158.354 186.491 158.508C186.684 159.172 187.397 159.632 188.004 159.861Z" fill="#263238"/>
<path opacity="0.3" d="M205.302 159.377C205.302 159.377 205.56 158.224 205.565 158.151C205.642 157.283 205.281 155.575 204.385 155.188C204.234 155.129 204.073 155.102 203.911 155.109C203.749 155.117 203.591 155.158 203.446 155.231C203.302 155.304 203.174 155.406 203.072 155.532C202.969 155.657 202.895 155.803 202.852 155.96C202.648 156.617 202.985 157.395 203.382 157.919C203.811 158.558 205.302 159.372 205.302 159.377Z" fill="#263238"/>
<path opacity="0.3" d="M210.095 152.93C209.121 152.871 208.038 154.254 207.724 155.069C207.698 155.139 207.397 156.285 207.418 156.284C207.248 156.5 207.065 156.733 206.871 156.993C206.515 157.477 206.115 158.028 205.724 158.656C205.295 159.329 204.906 160.025 204.559 160.743C204.165 161.545 203.842 162.38 203.596 163.239C203.596 163.239 203.597 163.26 203.597 163.269C203.583 162.985 203.543 162.184 203.54 162.124C203.385 161.268 202.582 159.703 201.617 159.574C201.456 159.557 201.293 159.575 201.139 159.626C200.986 159.676 200.844 159.758 200.724 159.867C200.604 159.975 200.507 160.107 200.441 160.255C200.375 160.403 200.341 160.563 200.341 160.725C200.319 161.413 200.84 162.073 201.357 162.483C201.928 162.942 203.467 163.34 203.59 163.369C203.361 164.248 203.191 165.142 203.08 166.045C203.016 166.57 202.965 167.104 202.918 167.637C202.906 167.391 202.894 167.167 202.893 167.137C202.742 166.282 201.939 164.716 200.97 164.587C200.809 164.571 200.646 164.589 200.493 164.639C200.339 164.69 200.198 164.772 200.078 164.88C199.958 164.989 199.862 165.121 199.797 165.269C199.731 165.417 199.698 165.577 199.698 165.739C199.676 166.426 200.197 167.086 200.714 167.497C201.231 167.907 202.531 168.269 202.876 168.364L202.83 168.979C202.762 169.963 202.699 170.946 202.609 171.904C202.574 172.242 202.53 172.573 202.49 172.907C202.48 172.687 202.47 172.502 202.469 172.476C202.314 171.621 201.511 170.055 200.546 169.926C200.385 169.91 200.222 169.927 200.068 169.976C199.915 170.026 199.773 170.108 199.653 170.216C199.532 170.324 199.436 170.457 199.37 170.604C199.304 170.752 199.27 170.912 199.269 171.074C199.248 171.761 199.769 172.426 200.285 172.832C200.937 173.223 201.646 173.511 202.387 173.685C202.335 174.024 202.283 174.363 202.213 174.691C202.163 174.913 202.127 175.127 202.064 175.35L201.89 176.002C201.763 176.409 201.633 176.83 201.519 177.229C201.43 177.505 201.339 177.764 201.244 178.028C201.284 177.694 201.337 177.031 201.338 176.975C201.289 176.211 201.044 175.472 200.627 174.83C200.631 174.745 200.627 174.66 200.614 174.576C200.586 174.417 200.524 174.266 200.433 174.132C200.343 173.998 200.225 173.884 200.088 173.799C199.95 173.713 199.796 173.658 199.636 173.635C199.476 173.613 199.313 173.624 199.157 173.669C198.227 173.966 197.715 175.649 197.711 176.517C197.714 176.569 197.772 177.127 197.82 177.478C197.762 177.274 197.705 177.078 197.647 176.87C197.526 176.444 197.395 176.054 197.256 175.616C197.181 175.404 197.105 175.192 197.026 174.98C196.946 174.768 196.854 174.557 196.769 174.332C196.554 173.834 196.318 173.336 196.064 172.844C196.426 172.739 197.696 172.331 198.177 171.923C198.657 171.514 199.188 170.827 199.15 170.147C199.147 169.985 199.109 169.826 199.04 169.679C198.971 169.533 198.871 169.402 198.748 169.297C198.625 169.191 198.481 169.113 198.326 169.067C198.17 169.021 198.007 169.008 197.846 169.03C196.883 169.181 196.12 170.765 195.986 171.626C195.989 171.678 195.951 172.31 195.947 172.651C195.79 172.357 195.641 172.062 195.471 171.768C194.997 170.929 194.485 170.091 193.984 169.227L193.514 168.452C193.642 168.415 195.165 167.981 195.72 167.504C196.275 167.028 196.731 166.409 196.693 165.729C196.69 165.567 196.652 165.408 196.583 165.261C196.514 165.114 196.415 164.984 196.292 164.879C196.169 164.773 196.025 164.695 195.869 164.649C195.714 164.603 195.55 164.59 195.39 164.611C194.426 164.763 193.664 166.347 193.53 167.208C193.533 167.273 193.483 168.177 193.486 168.406C193.151 167.836 192.825 167.265 192.537 166.683C192.127 165.905 191.768 165.101 191.462 164.277C191.523 164.274 193.114 163.814 193.685 163.328C194.183 162.911 194.693 162.238 194.654 161.553C194.651 161.391 194.614 161.232 194.544 161.085C194.475 160.939 194.376 160.808 194.253 160.703C194.13 160.597 193.986 160.519 193.83 160.473C193.675 160.427 193.512 160.414 193.351 160.436C192.392 160.587 191.629 162.171 191.495 163.032C191.498 163.088 191.459 163.776 191.449 164.105L191.398 164.107C191.113 163.275 190.904 162.419 190.774 161.549C190.693 161.069 190.644 160.605 190.609 160.15C190.913 160.1 192.32 159.84 192.866 159.463C193.413 159.086 193.987 158.483 194.026 157.799C194.038 157.639 194.017 157.479 193.963 157.327C193.909 157.176 193.825 157.038 193.714 156.922C193.604 156.805 193.471 156.713 193.323 156.652C193.175 156.59 193.016 156.559 192.855 156.563C191.882 156.611 190.947 158.1 190.721 158.94C190.723 158.983 190.635 159.462 190.587 159.81C190.577 159.607 190.566 159.379 190.557 159.198C190.52 158.462 190.534 157.788 190.547 157.187C190.56 156.85 190.58 156.542 190.6 156.252C190.87 156.045 191.954 155.196 192.274 154.61C192.595 154.025 192.822 153.223 192.536 152.599C192.475 152.449 192.382 152.314 192.265 152.203C192.148 152.091 192.008 152.006 191.856 151.951C191.703 151.897 191.541 151.875 191.38 151.888C191.219 151.9 191.062 151.946 190.919 152.023C190.08 152.497 189.935 154.265 190.12 155.119C190.124 155.193 190.521 156.312 190.533 156.299C190.512 156.576 190.488 156.871 190.47 157.195C190.439 157.797 190.413 158.472 190.432 159.213C190.442 160.01 190.501 160.806 190.608 161.596C190.716 162.482 190.904 163.357 191.17 164.209C191.168 164.219 191.169 164.23 191.171 164.239C191.004 164.006 190.523 163.37 190.478 163.329C189.877 162.698 188.345 161.834 187.468 162.262C187.324 162.336 187.198 162.441 187.097 162.567C186.997 162.694 186.924 162.841 186.884 162.997C186.843 163.154 186.837 163.318 186.864 163.477C186.891 163.637 186.952 163.789 187.042 163.923C187.399 164.51 188.211 164.767 188.857 164.83C189.585 164.897 191.088 164.382 191.206 164.337C191.502 165.198 191.854 166.038 192.26 166.853C192.495 167.324 192.739 167.796 193 168.266C192.852 168.071 192.718 167.896 192.695 167.871C192.094 167.245 190.562 166.381 189.685 166.809C189.542 166.883 189.415 166.987 189.315 167.114C189.214 167.241 189.141 167.387 189.101 167.544C189.06 167.701 189.054 167.864 189.081 168.024C189.108 168.184 189.169 168.336 189.259 168.47C189.616 169.057 190.423 169.314 191.074 169.377C191.725 169.439 193.02 169.02 193.36 168.904L193.658 169.442C194.133 170.303 194.633 171.154 195.081 172.004C195.243 172.306 195.388 172.606 195.537 172.909C195.403 172.734 195.288 172.589 195.269 172.568C194.668 171.938 193.136 171.078 192.259 171.502C192.116 171.576 191.989 171.68 191.889 171.807C191.788 171.934 191.715 172.08 191.674 172.237C191.634 172.393 191.626 172.557 191.653 172.716C191.68 172.876 191.739 173.028 191.829 173.163C192.19 173.75 192.997 174.007 193.648 174.07C194.407 174.035 195.157 173.884 195.87 173.622C196.015 173.934 196.156 174.246 196.279 174.555C196.359 174.772 196.452 174.978 196.518 175.187L196.731 175.828C196.852 176.253 196.981 176.679 197.087 177.066C197.161 177.343 197.231 177.611 197.3 177.884C197.143 177.581 196.825 177.002 196.796 176.955C196.295 176.242 194.911 175.159 193.98 175.447C193.827 175.499 193.686 175.583 193.567 175.693C193.448 175.803 193.354 175.937 193.29 176.086C193.226 176.235 193.195 176.396 193.197 176.558C193.199 176.72 193.236 176.879 193.304 177.026C193.572 177.656 194.334 178.037 194.963 178.195C195.658 178.368 197.159 178.086 197.349 178.076C197.462 178.524 197.57 178.963 197.659 179.356C197.989 180.789 198.222 181.995 198.346 182.839C198.354 182.99 198.391 183.126 198.415 183.267L195.483 183.414L197.26 200.755L202.604 200.488L202.624 183.001L199.876 183.138C199.874 183.095 199.911 183.054 199.931 183.01C200.266 182.212 200.727 181.063 201.222 179.665C201.377 179.226 201.535 178.748 201.692 178.256C201.879 178.286 203.392 178.517 204.082 178.322C204.771 178.128 205.456 177.753 205.709 177.11C205.773 176.962 205.806 176.802 205.804 176.641C205.803 176.479 205.767 176.32 205.7 176.173C205.633 176.026 205.536 175.895 205.414 175.788C205.293 175.681 205.151 175.601 204.997 175.553C204.056 175.289 202.7 176.406 202.218 177.129C202.19 177.174 201.934 177.674 201.777 177.989C201.841 177.791 201.904 177.594 201.968 177.388C202.094 176.98 202.212 176.568 202.336 176.126C202.39 175.908 202.444 175.689 202.498 175.471C202.552 175.252 202.588 175.034 202.636 174.79C202.735 174.255 202.811 173.711 202.874 173.16C203.61 173.412 204.379 173.55 205.157 173.568C205.804 173.488 206.602 173.211 206.948 172.615C207.034 172.478 207.091 172.325 207.114 172.164C207.137 172.004 207.126 171.84 207.082 171.684C207.037 171.528 206.961 171.384 206.856 171.259C206.752 171.135 206.623 171.035 206.477 170.964C205.594 170.576 204.08 171.459 203.512 172.105C203.475 172.146 203.108 172.656 202.911 172.938C202.946 172.608 202.985 172.274 203.008 171.94C203.08 170.97 203.121 169.983 203.167 169.001C203.182 168.698 203.202 168.4 203.217 168.101C203.344 168.138 204.853 168.619 205.578 168.531C206.226 168.451 207.024 168.174 207.37 167.578C207.456 167.441 207.513 167.288 207.536 167.127C207.559 166.967 207.548 166.803 207.504 166.647C207.459 166.491 207.382 166.347 207.278 166.223C207.174 166.098 207.044 165.998 206.899 165.927C206.016 165.54 204.502 166.427 203.934 167.068C203.889 167.118 203.36 167.852 203.236 168.044C203.272 167.382 203.317 166.723 203.384 166.077C203.472 165.198 203.616 164.326 203.814 163.465C203.876 163.484 205.451 163.988 206.193 163.899C206.837 163.824 207.638 163.542 207.984 162.946C208.07 162.809 208.126 162.655 208.149 162.495C208.172 162.335 208.161 162.172 208.116 162.016C208.072 161.86 207.995 161.716 207.891 161.591C207.787 161.467 207.659 161.366 207.513 161.295C206.631 160.907 205.116 161.79 204.549 162.436C204.508 162.477 204.108 163.036 203.919 163.305L203.87 163.281C204.095 162.426 204.396 161.591 204.769 160.789C204.971 160.347 205.183 159.931 205.405 159.536C205.688 159.66 206.989 160.212 207.666 160.204C208.343 160.196 209.141 160.009 209.554 159.458C209.657 159.33 209.732 159.182 209.773 159.023C209.815 158.864 209.822 158.699 209.795 158.537C209.768 158.375 209.706 158.221 209.615 158.084C209.524 157.948 209.405 157.833 209.265 157.746C208.425 157.248 206.825 157.98 206.176 158.552C206.139 158.584 205.811 158.941 205.579 159.208L205.884 158.674C206.259 158.043 206.645 157.484 206.988 156.996C207.185 156.719 207.372 156.472 207.546 156.239C207.886 156.222 209.265 156.105 209.85 155.796C210.434 155.486 211.072 154.94 211.181 154.262C211.206 154.101 211.198 153.938 211.155 153.781C211.113 153.624 211.039 153.479 210.936 153.353C210.834 153.227 210.706 153.124 210.561 153.052C210.416 152.979 210.257 152.937 210.095 152.93ZM200.677 179.468C200.159 180.841 199.676 181.97 199.326 182.751L199.137 183.192L199.072 183.196C199.043 183.05 199.018 182.888 198.983 182.704C198.819 181.849 198.573 180.639 198.212 179.203C198.099 178.746 197.971 178.261 197.83 177.767C198.277 177.564 198.711 177.334 199.129 177.076C199.741 177.55 200.415 177.938 201.133 178.228C200.982 178.646 200.83 179.072 200.677 179.468Z" fill="#263238"/>
<path d="M85.1192 142.041L86.9444 178.576C86.969 179.057 86.8985 179.539 86.7367 179.993C86.575 180.447 86.3253 180.864 86.002 181.222C85.6786 181.579 85.2879 181.869 84.8523 182.075C84.4167 182.281 83.9447 182.4 83.4633 182.423L66.0852 183.291C65.6039 183.316 65.1224 183.245 64.6684 183.084C64.2144 182.922 63.7968 182.672 63.4394 182.349C63.082 182.025 62.792 181.635 62.5858 181.199C62.3796 180.764 62.2614 180.291 62.2379 179.81L60.4128 143.276C60.3887 142.795 60.4597 142.313 60.6216 141.86C60.7836 141.406 61.0333 140.988 61.3565 140.631C61.6798 140.274 62.0703 139.984 62.5056 139.777C62.941 139.571 63.4127 139.452 63.8939 139.428L71.1577 139.066L71.159 139.091C71.413 139.856 71.934 140.348 72.4808 140.32L72.7952 140.305C73.3463 140.277 73.8163 139.749 73.9922 138.95L73.9909 138.924L81.2548 138.561C81.7373 138.535 82.2203 138.604 82.676 138.765C83.1317 138.926 83.5511 139.175 83.9102 139.498C84.2693 139.822 84.5609 140.213 84.7684 140.649C84.9759 141.086 85.0951 141.559 85.1192 142.041Z" stroke="#263238" stroke-linecap="round" stroke-linejoin="round"/>
<path d="M82.2128 144.345L62.4062 145.334L62.4923 147.057L82.2988 146.067L82.2128 144.345Z" stroke="#263238" stroke-linecap="round" stroke-linejoin="round"/>
<path d="M82.4494 149.081L62.6429 150.071L62.7289 151.793L82.5354 150.803L82.4494 149.081Z" stroke="#263238" stroke-linecap="round" stroke-linejoin="round"/>
<path d="M82.686 153.818L62.8795 154.807L62.9655 156.529L82.772 155.54L82.686 153.818Z" stroke="#263238" stroke-linecap="round" stroke-linejoin="round"/>
<path d="M83.1592 163.29L63.3527 164.28L63.4388 166.002L83.2453 165.012L83.1592 163.29Z" stroke="#263238" stroke-linecap="round" stroke-linejoin="round"/>
<path d="M83.3959 168.026L63.5894 169.016L63.6754 170.738L83.4819 169.749L83.3959 168.026Z" stroke="#263238" stroke-linecap="round" stroke-linejoin="round"/>
<path d="M83.6325 172.763L63.826 173.752L63.912 175.475L83.7185 174.485L83.6325 172.763Z" stroke="#263238" stroke-linecap="round" stroke-linejoin="round"/>
<path d="M181.358 29.3207L183.183 65.8551C183.231 66.8269 182.892 67.7782 182.239 68.4997C181.586 69.2212 180.673 69.6538 179.702 69.7024L162.324 70.5706C161.352 70.6191 160.4 70.2796 159.679 69.6268C158.957 68.9739 158.525 68.0612 158.476 67.0894L156.651 30.555C156.603 29.5832 156.942 28.6319 157.595 27.9104C158.248 27.1889 159.16 26.7563 160.132 26.7077L167.396 26.3448L167.397 26.3707C167.651 27.135 168.172 27.6269 168.719 27.5996L169.034 27.5839C169.585 27.5564 170.055 27.0322 170.231 26.2291L170.229 26.2033L177.493 25.8404C177.976 25.814 178.459 25.8832 178.914 26.0441C179.37 26.2049 179.789 26.4541 180.149 26.7775C180.508 27.1009 180.799 27.4921 181.007 27.9285C181.214 28.3649 181.334 28.8381 181.358 29.3207Z" stroke="#263238" stroke-linecap="round" stroke-linejoin="round"/>
<path d="M180.217 52.0221L160.195 53.0223L160.874 66.6027L180.895 65.6025L180.217 52.0221Z" stroke="#263238" stroke-linecap="round" stroke-linejoin="round"/>
<path d="M160.874 66.6027L180.217 52.0221" stroke="#263238" stroke-linecap="round" stroke-linejoin="round"/>
<path d="M180.895 65.6025L160.195 53.0223" stroke="#263238" stroke-linecap="round" stroke-linejoin="round"/>
<path d="M179.872 45.12L159.85 46.1202L160.023 49.5735L180.045 48.5732L179.872 45.12Z" stroke="#263238" stroke-linecap="round" stroke-linejoin="round"/>
<path d="M160.023 49.5735L179.872 45.12" stroke="#263238" stroke-linecap="round" stroke-linejoin="round"/>
<path d="M180.045 48.5732L159.85 46.1202" stroke="#263238" stroke-linecap="round" stroke-linejoin="round"/>
<path d="M179.545 38.5624L159.523 39.5626L159.695 43.0158L179.717 42.0156L179.545 38.5624Z" stroke="#263238" stroke-linecap="round" stroke-linejoin="round"/>
<path d="M159.695 43.0115L179.545 38.5624" stroke="#263238" stroke-linecap="round" stroke-linejoin="round"/>
<path d="M179.717 42.0113L159.523 39.5626" stroke="#263238" stroke-linecap="round" stroke-linejoin="round"/>
<path d="M179.217 32.0004L159.195 33.0006L159.367 36.4538L179.389 35.4536L179.217 32.0004Z" stroke="#263238" stroke-linecap="round" stroke-linejoin="round"/>
<path d="M159.367 36.4538L179.217 32.0004" stroke="#263238" stroke-linecap="round" stroke-linejoin="round"/>
<path d="M179.389 35.4536L159.195 33.0006" stroke="#263238" stroke-linecap="round" stroke-linejoin="round"/>
<path d="M188.496 56.7668C190.652 56.6591 192.314 54.8232 192.206 52.6664C192.098 50.5095 190.262 48.8484 188.105 48.9561C185.949 49.0639 184.287 50.8997 184.395 53.0566C184.503 55.2134 186.339 56.8746 188.496 56.7668Z" stroke="#263238" stroke-linecap="round" stroke-linejoin="round"/>
<path d="M186.237 51.9027L188.301 54.001L192.646 47.9135" stroke="#263238" stroke-linecap="round" stroke-linejoin="round"/>
<path d="M49.1532 41.5369L50.9784 78.0713C51.003 78.5526 50.9324 79.034 50.7707 79.488C50.609 79.942 50.3593 80.3597 50.0359 80.7171C49.7126 81.0744 49.3219 81.3645 48.8863 81.5707C48.4506 81.7768 47.9786 81.895 47.4972 81.9185L30.1192 82.7867C29.6379 82.8113 29.1564 82.7407 28.7024 82.579C28.2484 82.4173 27.8307 82.1676 27.4734 81.8442C27.116 81.5209 26.8259 81.1302 26.6198 80.6946C26.4136 80.2589 26.2954 79.7869 26.2719 79.3056L24.4467 42.7711C24.3982 41.7993 24.7377 40.848 25.3905 40.1265C26.0434 39.405 26.9561 38.9724 27.9279 38.9239L35.1917 38.561L35.193 38.5868C35.447 39.3511 35.968 39.8431 36.5148 39.8157L36.8464 39.7992C37.3975 39.7716 37.8675 39.2431 38.0434 38.4444L38.0421 38.4186L45.3059 38.0557C46.2778 38.0072 47.229 38.3466 47.9505 38.9995C48.672 39.6523 49.1047 40.565 49.1532 41.5369Z" stroke="#263238" stroke-linecap="round" stroke-linejoin="round"/>
<path d="M43.1722 48.7421L31.1161 49.3444L31.6753 60.5393L43.7315 59.937L43.1722 48.7421Z" stroke="#263238" stroke-linecap="round" stroke-linejoin="round"/>
<path d="M46.8683 69.0695L29.4601 69.9392L29.7844 76.4323L47.1926 75.5626L46.8683 69.0695Z" stroke="#263238" stroke-linecap="round" stroke-linejoin="round"/>
<path d="M35.9844 64.278C35.9929 64.4484 35.9507 64.6174 35.8632 64.7637C35.7756 64.9101 35.6466 65.0272 35.4925 65.1002C35.3384 65.1732 35.1661 65.1989 34.9974 65.1741C34.8287 65.1492 34.6712 65.0748 34.5447 64.9604C34.4183 64.846 34.3286 64.6966 34.287 64.5313C34.2454 64.3659 34.2538 64.1919 34.3112 64.0313C34.3685 63.8706 34.4721 63.7306 34.609 63.6289C34.7459 63.5272 34.9099 63.4684 35.0802 63.4599C35.3086 63.4485 35.5322 63.5283 35.7017 63.6817C35.8713 63.8351 35.973 64.0496 35.9844 64.278Z" stroke="#263238" stroke-linecap="round" stroke-linejoin="round"/>
<path d="M38.753 64.1397C38.7615 64.3101 38.7193 64.4791 38.6317 64.6254C38.5442 64.7718 38.4152 64.8888 38.2611 64.9619C38.107 65.0349 37.9347 65.0606 37.766 65.0358C37.5973 65.0109 37.4398 64.9365 37.3133 64.8221C37.1869 64.7077 37.0972 64.5583 37.0556 64.393C37.014 64.2276 37.0224 64.0536 37.0798 63.893C37.1371 63.7323 37.2407 63.5923 37.3776 63.4906C37.5145 63.3889 37.6785 63.3301 37.8488 63.3216C38.0772 63.3102 38.3008 63.39 38.4703 63.5434C38.6399 63.6968 38.7416 63.9113 38.753 64.1397Z" stroke="#263238" stroke-linecap="round" stroke-linejoin="round"/>
<path d="M40.7116 64.8965C41.1825 64.873 41.5451 64.4722 41.5216 64.0014C41.498 63.5305 41.0973 63.1679 40.6264 63.1914C40.1556 63.2149 39.793 63.6157 39.8165 64.0866C39.84 64.5574 40.2408 64.92 40.7116 64.8965Z" stroke="#263238" stroke-linecap="round" stroke-linejoin="round"/>
<path d="M24.7216 44.5574L49.0018 43.3444" stroke="#263238" stroke-linecap="round" stroke-linejoin="round"/>
<path d="M114.503 188.292C118.412 188.097 121.423 184.77 121.228 180.86C121.033 176.951 117.705 173.94 113.796 174.135C109.886 174.33 106.875 177.658 107.071 181.567C107.266 185.477 110.594 188.488 114.503 188.292Z" stroke="#263238" stroke-linecap="round" stroke-linejoin="round"/>
<path d="M110.411 179.475L114.149 183.281L122.024 172.248" stroke="#263238" stroke-linecap="round" stroke-linejoin="round"/>
<path d="M144.413 40.1275L149.839 148.736C149.982 151.625 148.972 154.452 147.031 156.596C145.091 158.74 142.378 160.025 139.489 160.17L87.8201 162.751C84.9355 162.889 82.1139 161.878 79.9744 159.938C77.8349 157.998 76.5524 155.289 76.4083 152.405L70.9825 43.796C70.8393 40.9087 71.8488 38.0827 73.7888 35.9395C75.7289 33.7963 78.4407 32.5112 81.3279 32.367L102.926 31.288L102.951 31.3645C103.703 33.6319 105.246 35.0526 106.878 34.9711L107.825 34.9238C109.457 34.8423 110.851 33.2748 111.377 30.9435L111.399 30.8647L132.989 29.7862C135.874 29.6443 138.699 30.6537 140.841 32.5928C142.983 34.5318 144.268 37.2418 144.413 40.1275Z" fill="white"/>
<path d="M129.858 58.9668L72.0142 61.8566L75.109 123.804L132.953 120.914L129.858 58.9668Z" fill="#263238" stroke="#263238" stroke-linecap="round" stroke-linejoin="round"/>
<path d="M111.365 30.9442C110.838 33.2755 109.444 34.8429 107.812 34.9245L106.878 34.9711C105.246 35.0527 103.703 33.6319 102.951 31.3645L102.926 31.288L81.3279 32.367C78.7353 32.4948 76.2731 33.5432 74.3841 35.3236C72.495 37.104 71.3029 39.4998 71.0219 42.0804L144.19 38.4251C143.653 35.8853 142.228 33.6203 140.171 32.037C138.114 30.4537 135.56 29.656 132.967 29.7872L111.386 30.8654L111.365 30.9442Z" fill="#D4D4D4"/>
<path d="M150.528 68.8722L149.838 55.0679L148.59 55.1303L147.708 37.4766C147.564 34.5882 146.278 31.8753 144.134 29.9345C141.99 27.9937 139.163 26.9839 136.274 27.127L77.7977 30.0484C76.366 30.1182 74.9621 30.4696 73.6662 31.0824C72.3704 31.6952 71.208 32.5574 70.2456 33.6197C69.2832 34.6821 68.5397 35.9237 68.0575 37.2736C67.5753 38.6235 67.3639 40.0552 67.4355 41.4869L73.3724 160.326C73.4434 161.758 73.796 163.162 74.4102 164.457C75.0243 165.752 75.8879 166.914 76.9515 167.875C78.0151 168.836 79.2578 169.578 80.6085 170.059C81.9592 170.539 83.3914 170.748 84.8231 170.675L143.3 167.753C144.73 167.682 146.132 167.329 147.426 166.716C148.721 166.102 149.881 165.24 150.842 164.178C151.802 163.116 152.544 161.875 153.025 160.526C153.506 159.177 153.717 157.746 153.645 156.316L149.867 80.6979L151.116 80.6355L150.708 72.4804L149.46 72.5428L149.279 68.9345L150.528 68.8722ZM149.839 148.736C149.982 151.625 148.972 154.452 147.031 156.596C145.091 158.74 142.378 160.025 139.489 160.17L87.8201 162.751C84.9355 162.889 82.1138 161.878 79.9744 159.938C77.8349 157.998 76.5524 155.289 76.4083 152.405L70.9824 43.796C70.8393 40.9086 71.8488 38.0827 73.7888 35.9395C75.7289 33.7962 78.4407 32.5112 81.3279 32.367L102.926 31.288L102.951 31.3644C103.703 33.6319 105.246 35.0526 106.878 34.9711L107.825 34.9238C109.457 34.8423 110.851 33.2748 111.377 30.9435L111.399 30.8647L132.989 29.7861C134.418 29.7141 135.849 29.9245 137.197 30.4052C138.546 30.8859 139.787 31.6275 140.849 32.5877C141.911 33.548 142.773 34.708 143.387 36.0016C144.001 37.2951 144.354 38.6969 144.426 40.1269L149.839 148.736Z" fill="#707070" stroke="#263238" stroke-linejoin="round"/>
<path d="M135.088 28.6885L79.1127 31.4849C76.2255 31.6303 73.5142 32.9164 71.575 35.0603C69.6358 37.2043 68.6275 40.0307 68.7717 42.918L74.5594 158.769C74.6308 160.199 74.9832 161.601 75.5964 162.895C76.2097 164.188 77.0717 165.349 78.1334 166.309C79.1951 167.27 80.4356 168.012 81.7841 168.493C83.1326 168.975 84.5626 169.186 85.9926 169.114L141.968 166.318C143.398 166.246 144.8 165.894 146.093 165.281C147.387 164.667 148.547 163.805 149.508 162.744C150.469 161.682 151.211 160.442 151.692 159.093C152.173 157.745 152.384 156.314 152.313 154.884L146.525 39.0336C146.454 37.6032 146.101 36.2009 145.488 34.9069C144.874 33.6128 144.012 32.4523 142.95 31.4916C141.887 30.5309 140.646 29.7889 139.297 29.3079C137.948 28.827 136.518 28.6165 135.088 28.6885ZM149.839 148.736C149.982 151.625 148.972 154.452 147.031 156.596C145.091 158.74 142.378 160.025 139.489 160.17L87.8201 162.751C84.9355 162.889 82.1138 161.878 79.9744 159.938C77.8349 157.998 76.5524 155.289 76.4083 152.405L70.9824 43.796C70.8393 40.9087 71.8488 38.0827 73.7888 35.9395C75.7289 33.7963 78.4407 32.5113 81.3279 32.367L102.926 31.288L102.951 31.3645C103.703 33.6319 105.246 35.0527 106.878 34.9711L107.825 34.9238C109.457 34.8423 110.851 33.2748 111.377 30.9435L111.399 30.8647L132.989 29.7862C134.418 29.7142 135.849 29.9245 137.197 30.4052C138.546 30.8859 139.787 31.6276 140.849 32.5878C141.911 33.548 142.773 34.708 143.387 36.0016C144.001 37.2952 144.354 38.697 144.426 40.1269L149.839 148.736Z" fill="#263238" stroke="#263238" stroke-linejoin="round"/>
<path d="M107.977 31.558C107.967 31.3549 107.898 31.1592 107.777 30.9956C107.656 30.832 107.49 30.708 107.298 30.6393C107.107 30.5706 106.9 30.5602 106.702 30.6096C106.505 30.6589 106.327 30.7658 106.191 30.9165C106.054 31.0673 105.966 31.2551 105.936 31.4563C105.907 31.6574 105.938 31.8628 106.025 32.0463C106.113 32.2299 106.253 32.3833 106.428 32.4871C106.602 32.5909 106.804 32.6405 107.007 32.6295C107.277 32.6148 107.531 32.494 107.712 32.2933C107.894 32.0927 107.989 31.8284 107.977 31.558Z" fill="white"/>
<path d="M77.188 37.0242C77.2396 38.0576 76.0955 38.4859 76.1308 39.2784L76.1332 39.3258L77.2613 39.2694L77.2787 39.6182L75.7717 39.6935L75.7571 39.4007C75.7016 38.2898 76.8534 38.0164 76.8052 37.0519C76.7876 36.6989 76.6621 36.5195 76.3779 36.5337C76.0937 36.5479 75.974 36.7438 75.9899 37.0625L76.0052 37.3682L75.6478 37.386L75.6338 37.1061C75.6076 36.5808 75.8319 36.2329 76.3615 36.2065C76.8911 36.18 77.1617 36.4989 77.188 37.0242Z" fill="#263238"/>
<path d="M79.0651 36.9261L79.0698 37.0208C79.093 37.1687 79.0669 37.3201 78.9954 37.4516C78.924 37.5831 78.8112 37.6875 78.6745 37.7485C78.8174 37.7957 78.9406 37.8889 79.0249 38.0135C79.1092 38.1382 79.1499 38.2872 79.1406 38.4374L79.1537 38.7C79.1799 39.2254 78.9513 39.5735 78.4217 39.5999C77.8921 39.6264 77.6337 39.294 77.6079 38.7773L77.5963 38.5448L77.9537 38.5269L77.9666 38.7853C77.9821 39.0953 78.1205 39.274 78.3961 39.2602C78.6716 39.2464 78.7875 39.0593 78.7701 38.7106L78.7569 38.4479C78.7399 38.1078 78.5899 37.9556 78.3008 37.9571L78.0941 37.9674L78.0771 37.6272L78.301 37.616C78.3614 37.6133 78.4205 37.5979 78.4745 37.5709C78.5286 37.5439 78.5763 37.5058 78.6147 37.4591C78.6531 37.4124 78.6812 37.3582 78.6973 37.2999C78.7133 37.2416 78.7169 37.1806 78.7079 37.1209L78.7002 36.9659C78.6825 36.6128 78.5529 36.438 78.2731 36.452C77.9932 36.466 77.8778 36.6617 77.8933 36.9717L77.9021 37.1482L77.5447 37.1661L77.537 37.011C77.5107 36.4857 77.7394 36.1376 78.2647 36.1114C78.79 36.0851 79.0388 36.4008 79.0651 36.9261Z" fill="#263238"/>
<path d="M79.8186 37.1474L79.8422 37.621L79.4719 37.6395L79.4483 37.1659L79.8186 37.1474ZM79.9119 39.0161L79.9356 39.4897L79.5653 39.5082L79.5416 39.0346L79.9119 39.0161Z" fill="#263238"/>
<path d="M80.6091 37.4188C80.6539 37.3259 80.724 37.2476 80.8114 37.1928C80.8988 37.1381 80.9998 37.1091 81.103 37.1092C81.5335 37.0877 81.7564 37.4003 81.7809 37.8912L81.8142 38.5586C81.8405 39.0839 81.6075 39.4322 81.0822 39.4585C80.5569 39.4847 80.2943 39.1525 80.2684 38.6358L80.257 38.4076L80.6187 38.3895L80.6314 38.6436C80.6469 38.9536 80.781 39.1325 81.0566 39.1187C81.3322 39.105 81.4478 38.9136 81.4323 38.6036L81.3989 37.9362C81.3837 37.6305 81.2493 37.4472 80.9738 37.461C80.9236 37.4612 80.874 37.4715 80.8279 37.4914C80.7819 37.5113 80.7403 37.5404 80.7058 37.5768C80.6713 37.6133 80.6446 37.6563 80.6272 37.7034C80.6098 37.7504 80.6022 37.8006 80.6048 37.8507L80.6086 37.9282L80.2513 37.946L80.2507 36.0338L81.6027 35.9663L81.6199 36.3108L80.608 36.3613L80.6091 37.4188Z" fill="#263238"/>
<path d="M83.6331 36.6892L83.6363 36.7538L83.2789 36.7717L83.2746 36.6856C83.2591 36.3755 83.1209 36.2012 82.841 36.2151C82.5612 36.2291 82.4197 36.4218 82.438 36.7878L82.4765 37.5585C82.5108 37.4441 82.5812 37.3439 82.6773 37.2729C82.7734 37.202 82.8899 37.1641 83.0093 37.165C83.4399 37.1435 83.6625 37.4518 83.6873 37.9469L83.7131 38.4636C83.7393 38.9889 83.4977 39.3377 82.9724 39.3639C82.4471 39.3902 82.1673 39.0588 82.1415 38.5422L82.0541 36.794C82.027 36.2515 82.2565 35.9206 82.7991 35.8935C83.3416 35.8664 83.607 36.1682 83.6331 36.6892ZM82.5178 38.0399L82.5434 38.5523C82.5589 38.8623 82.693 39.0412 82.9729 39.0272C83.2528 39.0133 83.3942 38.8206 83.3787 38.5106L83.3529 37.9939C83.3374 37.6839 83.1947 37.5054 82.8976 37.5202C82.6005 37.5351 82.4972 37.7129 82.5133 38.0358L82.5178 38.0399Z" fill="#263238"/>
<path d="M121.101 34.9686L120.132 35.017L120.253 37.4411L121.222 37.3927L121.101 34.9686Z" fill="#263238"/>
<path d="M122.368 34.4217L121.4 34.4701L121.545 37.3765L122.514 37.3281L122.368 34.4217Z" fill="#263238"/>
<path d="M123.643 34.0128L122.674 34.0612L122.837 37.312L123.805 37.2636L123.643 34.0128Z" fill="#263238"/>
<path d="M124.905 33.3497L123.936 33.3981L124.128 37.2474L125.097 37.199L124.905 33.3497Z" fill="#263238"/>
<path d="M137.081 36.5313L131.268 36.8217L131.091 33.2694L136.903 32.979L137.081 36.5313ZM131.575 36.4826L136.742 36.2245L136.597 33.3181L131.43 33.5762L131.575 36.4826Z" fill="#263238"/>
<path d="M135 33.7519L131.93 33.9053L132.04 36.1098L135.11 35.9565L135 33.7519Z" fill="#263238"/>
<path d="M137.501 34.3133L136.769 34.3499L136.811 35.1852L137.543 35.1486L137.501 34.3133Z" fill="#263238"/>
<path d="M129.098 36.1574C129.059 36.1602 129.019 36.1517 128.985 36.1329C127.766 35.4902 127.019 36.1793 126.987 36.2327C126.948 36.2744 126.894 36.2994 126.837 36.3022C126.78 36.3051 126.724 36.2856 126.681 36.2479C126.642 36.2061 126.621 36.1506 126.622 36.0933C126.623 36.036 126.647 35.9814 126.687 35.9412C126.729 35.9003 127.685 34.9935 129.192 35.7901C129.233 35.8134 129.265 35.8492 129.284 35.8922C129.303 35.9353 129.308 35.9833 129.298 36.0292C129.288 36.0752 129.263 36.1166 129.227 36.1474C129.192 36.1782 129.147 36.1968 129.1 36.2005L129.098 36.1574Z" fill="#263238"/>
<path d="M129.501 35.4079C129.461 35.409 129.422 35.399 129.387 35.379C127.614 34.4489 126.527 35.4917 126.515 35.5225C126.476 35.5643 126.423 35.5892 126.366 35.5921C126.309 35.5949 126.253 35.5754 126.21 35.5378C126.189 35.5188 126.171 35.4958 126.159 35.4701C126.147 35.4444 126.14 35.4165 126.138 35.3881C126.137 35.3597 126.141 35.3313 126.151 35.3045C126.16 35.2777 126.175 35.2531 126.194 35.2321C126.194 35.2321 127.534 33.9652 129.574 35.0632C129.618 35.084 129.654 35.119 129.675 35.1625C129.697 35.2059 129.703 35.2554 129.693 35.3028C129.683 35.3502 129.657 35.3928 129.619 35.4237C129.582 35.4547 129.535 35.4722 129.487 35.4733L129.501 35.4079Z" fill="#263238"/>
<path d="M129.855 34.5398C129.815 34.5426 129.776 34.5341 129.741 34.5152C127.524 33.331 126.129 34.6223 126.073 34.6985C126.052 34.7182 126.028 34.7337 126.001 34.7441C125.975 34.7544 125.947 34.7595 125.918 34.7589C125.89 34.7583 125.862 34.7521 125.835 34.7407C125.809 34.7293 125.786 34.7128 125.766 34.6922C125.746 34.6717 125.731 34.6474 125.72 34.6209C125.71 34.5944 125.705 34.566 125.706 34.5375C125.706 34.5091 125.712 34.481 125.724 34.4549C125.735 34.4288 125.752 34.4052 125.772 34.3855C125.772 34.3855 127.421 32.8225 129.949 34.1768C129.974 34.1902 129.996 34.2084 130.014 34.2304C130.032 34.2525 130.046 34.2779 130.054 34.3052C130.062 34.3324 130.065 34.3611 130.062 34.3894C130.059 34.4178 130.051 34.4452 130.037 34.4702C130.014 34.4956 129.986 34.5152 129.954 34.5273C129.923 34.5394 129.888 34.5437 129.855 34.5398Z" fill="#263238"/>
<path d="M128.462 36.5519C128.468 36.6603 128.442 36.7682 128.387 36.8618C128.331 36.9554 128.25 37.0304 128.152 37.0773C128.054 37.1242 127.944 37.1409 127.836 37.1253C127.729 37.1096 127.628 37.0624 127.548 36.9895C127.467 36.9166 127.41 36.8213 127.384 36.7159C127.358 36.6105 127.363 36.4996 127.4 36.3974C127.437 36.2952 127.504 36.2064 127.591 36.1421C127.679 36.0778 127.784 36.041 127.892 36.0364C128.036 36.0304 128.176 36.0811 128.283 36.1775C128.389 36.2739 128.453 36.4084 128.462 36.5519Z" fill="#263238"/>
<path d="M127.399 56.845L64.7031 59.9772L67.7419 120.805L130.438 117.673L127.399 56.845Z" fill="#47F6AC" stroke="#263238" stroke-linecap="round" stroke-linejoin="round"/>
<path d="M122.425 62.1741L70.1792 64.7842L72.1259 103.751L124.372 101.141L122.425 62.1741Z" fill="white" stroke="#263238" stroke-linecap="round" stroke-linejoin="round"/>
<path d="M121.792 62.2057L71.493 103.783" stroke="#263238" stroke-linecap="round" stroke-linejoin="round"/>
<path d="M70.1792 64.7842L124.372 101.141" stroke="#263238" stroke-linecap="round" stroke-linejoin="round"/>
<path d="M91.5489 110.637C92.5786 110.586 93.3716 109.709 93.3201 108.68C93.2687 107.65 92.3923 106.857 91.3626 106.908C90.3329 106.96 89.5399 107.836 89.5913 108.866C89.6428 109.896 90.5192 110.689 91.5489 110.637Z" fill="white" stroke="#263238" stroke-linecap="round" stroke-linejoin="round"/>
<path d="M98.6405 110.283C99.6702 110.231 100.463 109.355 100.412 108.325C100.36 107.296 99.4839 106.503 98.4542 106.554C97.4245 106.605 96.6315 107.482 96.683 108.511C96.7344 109.541 97.6108 110.334 98.6405 110.283Z" fill="white" stroke="#263238" stroke-linecap="round" stroke-linejoin="round"/>
<path d="M105.732 109.928C106.762 109.877 107.555 109.001 107.503 107.971C107.452 106.941 106.575 106.148 105.546 106.2C104.516 106.251 103.723 107.128 103.775 108.157C103.826 109.187 104.702 109.98 105.732 109.928Z" fill="white" stroke="#263238" stroke-linecap="round" stroke-linejoin="round"/>
<path d="M110.674 124.271L81.081 125.75L82.7216 158.59L112.315 157.112L110.674 124.271Z" fill="#47F6AC" stroke="#263238" stroke-linecap="round" stroke-linejoin="round"/>
<path d="M108.32 135.988L84.3027 137.187L85.1975 155.099L109.215 153.899L108.32 135.988Z" fill="white" stroke="#263238" stroke-linecap="round" stroke-linejoin="round"/>
<path d="M108.027 136.002L84.9047 155.114" stroke="#263238" stroke-linecap="round" stroke-linejoin="round"/>
<path d="M84.3027 137.187L109.215 153.899" stroke="#263238" stroke-linecap="round" stroke-linejoin="round"/>
<path d="M104.875 127.932L86.5881 128.846L86.7746 132.579L105.061 131.665L104.875 127.932Z" fill="white" stroke="#263238" stroke-linecap="round" stroke-linejoin="round"/>
<path d="M143.777 122.618L114.033 124.104L115.674 156.944L145.418 155.458L143.777 122.618Z" fill="#47F6AC" stroke="#263238" stroke-linecap="round" stroke-linejoin="round"/>
<path d="M141.535 134.328L117.517 135.528L118.412 153.44L142.43 152.24L141.535 134.328Z" fill="white" stroke="#263238" stroke-linecap="round" stroke-linejoin="round"/>
<path d="M141.242 134.343L118.119 153.455" stroke="#263238" stroke-linecap="round" stroke-linejoin="round"/>
<path d="M117.517 135.528L142.43 152.24" stroke="#263238" stroke-linecap="round" stroke-linejoin="round"/>
<path d="M138.085 126.273L119.798 127.187L119.985 130.92L138.272 130.006L138.085 126.273Z" fill="white" stroke="#263238" stroke-linecap="round" stroke-linejoin="round"/>
<path d="M77.7457 49.225L85.9568 48.8148" stroke="#263238" stroke-linecap="round" stroke-linejoin="round"/>
<path d="M77.8763 51.8386L86.0874 51.4284" stroke="#263238" stroke-linecap="round" stroke-linejoin="round"/>
<path d="M78.0068 54.4521L86.2179 54.0419" stroke="#263238" stroke-linecap="round" stroke-linejoin="round"/>
<path d="M128.498 46.6895L92.2992 48.4979L92.5788 54.0954L128.777 52.287L128.498 46.6895Z" fill="#47F6AC" stroke="#263238" stroke-linecap="round" stroke-linejoin="round"/>
<path d="M164.865 100.612C164.865 100.612 164.882 98.798 164.344 98.8249C163.806 98.8518 162.858 98.8991 162.88 99.3297C162.901 99.7603 162.837 100.627 162.837 100.627C162.837 100.627 161.059 101.247 160.865 101.589C160.67 101.931 159.493 101.873 159.433 102.834C159.468 104.182 159.571 105.526 159.743 106.863L165.695 104.615C165.93 104.208 166.088 103.761 166.16 103.297C166.236 102.654 166.393 101.476 166.695 101.142C166.998 100.807 167.503 100.035 166.642 100.078C166.023 100.15 165.421 100.33 164.865 100.612Z" fill="white" stroke="#263238" stroke-linecap="round" stroke-linejoin="round"/>
<path d="M164.865 100.612C164.725 100.753 164.619 100.923 164.554 101.11C164.488 101.296 164.466 101.496 164.487 101.693" stroke="#263238" stroke-linecap="round" stroke-linejoin="round"/>
<path d="M168.038 85.2375C168.038 85.2375 165.94 88.0056 165.977 88.7505L166.067 90.5546C166.067 90.5546 163.635 93.02 163.662 93.5539C163.688 94.0878 164.471 94.8948 164.471 94.8948C164.471 94.8948 164.478 99.2627 165.146 99.7603C165.814 100.258 167.921 99.8375 167.921 99.8375L168.546 101.723L176.524 99.4077L178.524 96.856C178.524 96.856 180.393 95.8044 181.055 92.0418C181.717 88.2793 180.248 84.5239 178.498 83.5366C176.748 82.5492 171.221 80.7059 169.12 81.2382C167.018 81.7705 166.267 83.9274 168.038 85.2375Z" fill="white" stroke="#263238" stroke-linecap="round" stroke-linejoin="round"/>
<path d="M181.037 92.0254C181.713 88.2666 180.23 84.5076 178.48 83.5202C176.73 82.5328 171.203 80.6895 169.102 81.2218C167 81.7541 166.254 83.9195 168.006 85.2132L169.027 86.4572C169.027 86.4572 167.313 88.3514 167.55 88.8705C167.787 89.3896 168.885 89.6671 168.885 89.6671C168.885 89.6671 168.445 91.4977 169.098 91.7845C169.184 91.8242 169.277 91.8463 169.371 91.8493C169.465 91.8523 169.559 91.8362 169.647 91.8019C169.734 91.7677 169.814 91.7161 169.882 91.6501C169.949 91.5841 170.002 91.5052 170.038 91.4181C170.038 91.4181 170.227 93.1137 170.403 94.4905C170.58 95.8673 171.135 98.4985 172.549 99.0667C173.817 99.5774 174.97 99.494 176.493 99.4049L178.494 96.8532C178.494 96.8532 180.388 95.7874 181.037 92.0254Z" fill="#263238" stroke="#263238" stroke-linecap="round" stroke-linejoin="round"/>
<path d="M168.63 92.8612C168.63 92.8612 169.269 90.6969 170.051 91.4046C170.833 92.1123 170.755 94.883 170.258 95.5467C169.76 96.2105 168.757 95.4102 168.757 95.4102" fill="white"/>
<path d="M168.63 92.8612C168.63 92.8612 169.269 90.6969 170.051 91.4046C170.833 92.1123 170.755 94.883 170.258 95.5467C169.76 96.2105 168.757 95.4102 168.757 95.4102" stroke="#263238" stroke-linecap="round" stroke-linejoin="round"/>
<path d="M166.169 103.314L165.894 102.032C165.894 102.032 169.93 99.7026 172.036 99.1701C174.142 98.6376 175.73 98.5539 176.497 98.9473C177.263 99.3406 178.351 101.941 178.351 101.941C178.351 101.941 174.463 100.84 171.849 101.834C169.236 102.828 166.318 104.131 166.318 104.131L166.169 103.314Z" fill="white" stroke="#263238" stroke-linecap="round" stroke-linejoin="round"/>
<path d="M163.848 201.224C163.029 201.838 162.154 202.373 161.234 202.822C159.797 203.507 159.083 203.91 159.371 204.754C159.659 205.599 161.632 205.863 163.984 206.358C166.335 206.854 169.682 207.667 171.013 207.354C172.344 207.041 172.553 206.297 172.516 205.552C172.479 204.807 171.355 201.937 171.355 201.937L163.848 201.224Z" stroke="#263238" stroke-linecap="round" stroke-linejoin="round"/>
<path d="M184.032 200.704C184.032 200.704 183.622 204.765 184.151 205.597C184.681 206.43 188.349 206.251 189.056 205.719C189.516 205.328 189.834 204.796 189.961 204.206L189.23 199.343L183.296 200.741" fill="white"/>
<path d="M184.032 200.704C184.032 200.704 183.622 204.765 184.151 205.597C184.681 206.43 188.349 206.251 189.056 205.719C189.516 205.328 189.834 204.796 189.961 204.206L189.23 199.343L183.296 200.741" stroke="#263238" stroke-linecap="round" stroke-linejoin="round"/>
<path d="M160.514 146.765C160.514 146.765 161.357 163.622 161.938 170.332C162.445 175.359 163.271 180.35 164.411 185.273C164.56 185.753 164.734 199.095 164.734 199.095L163.319 200.146L163.28 201.874C163.28 201.874 164.985 204.12 167.355 204.981C169.725 205.843 171.985 204.608 171.985 204.608C171.985 204.608 172.958 199.539 173.179 199.036C173.4 198.533 173.399 183.839 173.29 181.639L172.808 171.994L174.111 153.925L174.14 152.085C174.14 152.085 178.318 171.961 178.945 174.748C179.572 177.535 181.73 183.915 182.11 186.244C182.489 188.574 183.538 197.56 183.538 197.56L183.327 200.756L184.377 202.176C185.373 202.504 186.417 202.658 187.465 202.63C189.054 202.551 189.586 200.936 189.586 200.936L189.402 197.263C189.348 196.165 188.903 194.698 188.886 194.349C188.868 194 188.938 180.633 188.467 176.124C187.996 171.615 185.536 149.327 185.536 149.327L185.712 145.52C185.712 145.52 176.545 148.304 170.123 147.278C163.7 146.252 160.597 145.302 160.597 145.302L160.645 146.28L160.514 146.765Z" fill="#263238" stroke="#263238" stroke-linecap="round" stroke-linejoin="round"/>
<path d="M186.6 105.06C186.6 105.06 187.382 105.767 188.466 108.269C189.549 110.77 196.188 124.605 195.498 125.382C194.807 126.159 184.745 134.017 184.745 134.017L183.527 130.987L187.993 124.384L184.14 117.67C184.14 117.67 182.779 116.353 183.171 113.139C183.563 109.925 186.6 105.06 186.6 105.06Z" fill="#47F6AC" stroke="#263238" stroke-linecap="round" stroke-linejoin="round"/>
<path d="M186.031 113.371L188.976 123.407L192.168 125.013L187.993 124.376L184.694 118.575L186.031 113.371Z" fill="#263238" stroke="#263238" stroke-linecap="round" stroke-linejoin="round"/>
<path d="M186.672 110.81L182.949 125.797L183.323 128.973C183.323 128.973 183.679 129.702 184.385 131.052C185.092 132.402 189.414 142.197 189.122 142.742C188.83 143.288 186.75 144.35 186.75 144.35L186.737 146.163C184.899 147.001 183.014 147.735 181.093 148.362C178.576 149.126 172.852 149.637 168.688 149.413C164.525 149.19 159.18 147.005 159.18 147.005C159.342 144.808 159.629 142.621 160.039 140.457C160.565 138.195 162.102 128.427 162.102 128.427L160.306 120.212L159.157 123.144C159.157 123.144 156.523 127.964 155.805 128.53C155.086 129.097 152.877 129.635 151.545 128.532C150.212 127.429 150.439 123.688 151.215 121.944C151.992 120.2 156.448 109.437 156.411 108.692C156.374 107.947 166.799 103.381 166.799 103.381C166.799 103.381 171.92 101.528 175.214 101.364C178.508 101.199 180.063 102.417 180.063 102.417C180.063 102.417 185.662 103.734 186.584 105.069C187.505 106.404 186.905 109.421 186.905 109.421" fill="#47F6AC"/>
<path d="M186.672 110.81L182.949 125.797L183.323 128.973C183.323 128.973 183.679 129.702 184.385 131.052C185.092 132.402 189.414 142.197 189.122 142.742C188.83 143.288 186.75 144.35 186.75 144.35L186.737 146.163C184.899 147.001 183.014 147.735 181.093 148.362C178.576 149.126 172.852 149.637 168.688 149.413C164.525 149.19 159.18 147.005 159.18 147.005C159.342 144.808 159.629 142.621 160.039 140.457C160.565 138.195 162.102 128.427 162.102 128.427L160.306 120.212L159.157 123.144C159.157 123.144 156.523 127.964 155.805 128.53C155.086 129.097 152.877 129.635 151.545 128.532C150.212 127.429 150.439 123.688 151.215 121.944C151.992 120.2 156.448 109.437 156.411 108.692C156.374 107.947 166.799 103.381 166.799 103.381C166.799 103.381 171.92 101.528 175.214 101.364C178.508 101.199 180.063 102.417 180.063 102.417C180.063 102.417 185.662 103.734 186.584 105.069C187.505 106.404 186.905 109.421 186.905 109.421" stroke="#263238" stroke-linecap="round" stroke-linejoin="round"/>
<path d="M186.362 143.398L183.334 131.515L187.603 143.793L186.75 144.35L186.362 143.398Z" fill="#263238" stroke="#263238" stroke-linecap="round" stroke-linejoin="round"/>
<path d="M158.789 114.741L158.358 113.183" stroke="#263238" stroke-linecap="round" stroke-linejoin="round"/>
<path d="M160.306 120.221L159.253 116.423" stroke="#263238" stroke-linecap="round" stroke-linejoin="round"/>
<path d="M168.371 128.123L178.266 125.82" stroke="#263238" stroke-linecap="round" stroke-linejoin="round"/>
<path d="M176.625 127.784L178.562 127.51" stroke="#263238" stroke-linecap="round" stroke-linejoin="round"/>
<path d="M170.418 128.659L175.892 127.885" stroke="#263238" stroke-linecap="round" stroke-linejoin="round"/>
<path d="M164.125 104.633C164.125 104.633 166.39 103.065 166.701 102.808C167.012 102.551 170.794 100.583 173.684 100.197C176.574 99.811 177.314 100.016 177.314 100.016L178.625 101.97C178.625 101.97 170.265 102.954 167.886 103.802C166.425 104.317 164.934 104.742 163.421 105.074L164.125 104.633Z" fill="#47F6AC" stroke="#263238" stroke-linecap="round" stroke-linejoin="round"/>
<path d="M43.2018 199.849L44.071 204.2C44.071 204.2 42.3762 209.33 42.977 211.592C43.5778 213.854 45.364 213.752 46.141 213.061C46.918 212.371 47.6471 210.547 47.574 209.083C47.5008 207.62 47.167 204.222 47.1264 203.408C46.9773 202.376 46.7633 201.354 46.4858 200.349L43.2018 199.849Z" fill="white" stroke="#263238" stroke-linecap="round" stroke-linejoin="round"/>
<path d="M44.9807 211.263C43.833 211.187 43.2182 210.026 42.9227 209.208C42.8009 209.997 42.8191 210.801 42.9766 211.584C43.5767 213.833 45.3636 213.743 46.1406 213.053C46.8229 212.453 47.4615 210.98 47.5632 209.645C47.0215 210.38 46.0976 211.328 44.9807 211.263Z" fill="#263238" stroke="#263238" stroke-linecap="round" stroke-linejoin="round"/>
<path d="M71.0701 197.792C71.0701 197.792 74.6246 204.486 75.2438 205.387C75.8629 206.289 78.9504 209.424 78.7502 209.65C78.55 209.876 77.7833 210.341 76.1243 210.139C74.4653 209.937 73.1947 208.783 72.3674 208.035C71.5401 207.286 69.7304 207.092 68.9384 206.704C68.1463 206.316 68.5802 203.856 68.968 202.977C69.1887 202.526 69.3111 202.033 69.3274 201.531L67.6909 197.46L71.0701 197.792Z" fill="white" stroke="#263238" stroke-linecap="round" stroke-linejoin="round"/>
<path d="M78.7631 209.649C78.8774 209.518 77.9078 208.427 76.9432 207.349C76.155 207.762 75.2566 207.918 74.3754 207.792C72.8512 207.436 70.2195 203.489 68.9809 202.977C68.5934 203.859 68.1418 206.312 68.9513 206.703C69.7607 207.094 71.5704 207.289 72.3803 208.034C73.1902 208.779 74.4823 209.932 76.1372 210.138C77.7921 210.345 78.5801 209.874 78.7631 209.649Z" fill="#263238" stroke="#263238" stroke-linecap="round" stroke-linejoin="round"/>
<path d="M34.5924 144.764C34.5924 144.764 32.0163 155.149 33.1149 160.809C34.2135 166.469 38.1132 176.185 38.3336 177.314C38.554 178.442 37.489 183.218 39.0247 187.863C40.5604 192.509 41.996 201.718 41.996 201.718L46.8494 201.147L47.3965 160.255C47.3965 160.255 56.2692 178.015 57.145 179.128C58.0207 180.241 65.7686 198.553 65.7686 198.553L71.4683 198.592C71.4683 198.592 66.6358 176.858 65.7207 174.784C64.8056 172.711 62.8454 169.071 62.8454 169.071C62.8454 169.071 58.213 147.974 57.4493 145.733C56.6855 143.492 53.6253 137.619 53.6253 137.619L38.2302 139.04L34.5924 144.764Z" fill="#263238" stroke="#263238" stroke-linecap="round" stroke-linejoin="round"/>
<path d="M43.4978 140.452C43.4978 140.452 49.0253 140.931 53.1696 139.645C53.1696 139.645 47.7184 116.932 47.6969 116.501C47.6754 116.071 37.2231 118.535 37.2231 118.535L43.4978 140.452Z" fill="white" stroke="#263238" stroke-linecap="round" stroke-linejoin="round"/>
<path d="M47.2449 108.491L45.5791 112.644L47.2092 118.835C46.3373 119.675 45.1855 120.163 43.9755 120.205C42.8192 120.286 41.6577 120.158 40.5466 119.828L38.0404 111.48L42.2108 104.667C42.6607 105.676 43.3579 106.556 44.2378 107.224C45.1178 107.892 46.152 108.328 47.2449 108.491Z" fill="white" stroke="#263238" stroke-linecap="round" stroke-linejoin="round"/>
<path d="M43.3357 108.349L45.6753 111.634L46.9097 109.125L43.3357 108.349Z" fill="#263238" stroke="#263238" stroke-linecap="round" stroke-linejoin="round"/>
<path d="M40.5203 101.674C40.6596 101.712 40.8054 101.72 40.9481 101.697C41.0907 101.675 41.2269 101.622 41.3478 101.543C41.4687 101.464 41.5714 101.36 41.6492 101.239C41.7271 101.117 41.7782 100.98 41.7993 100.838C42.0717 99.7232 42.456 98.6033 43.5377 98.2212C44.5361 97.8756 45.4195 97.2608 46.0906 96.4448C46.7383 95.731 47.4413 95.0694 48.1932 94.4664C48.1932 94.4664 50.3285 97.5496 50.3614 98.2084C50.3943 98.8672 49.7838 99.4329 50.2296 99.9761C51.0438 100.98 52.433 102.262 52.3432 102.624C52.1278 103.499 51.0068 104.56 51.0068 104.56C51.0068 104.56 51.2833 107.849 50.4488 108.771C49.6143 109.693 46.3992 109.189 45.2819 109.029C44.1646 108.869 41.8255 108.101 41.584 107.673C41.3424 107.244 40.44 104.648 40.44 104.648C40.44 104.648 40.0974 102.023 40.5203 101.674Z" fill="white" stroke="#263238" stroke-linecap="round" stroke-linejoin="round"/>
<path d="M48.1908 101.071C48.4333 101.059 48.614 100.729 48.5943 100.334C48.5745 99.9393 48.3619 99.6291 48.1194 99.6413C47.8768 99.6534 47.6962 99.9832 47.7159 100.378C47.7356 100.773 47.9482 101.083 48.1908 101.071Z" fill="#263238"/>
<path d="M46.8817 99.0599C46.9502 98.861 47.0578 98.6779 47.1981 98.5212C47.3385 98.3645 47.5087 98.2374 47.6989 98.1475C47.8891 98.0576 48.0953 98.0066 48.3054 97.9975C48.5156 97.9884 48.7254 98.0214 48.9226 98.0947" stroke="#263238" stroke-linecap="round" stroke-linejoin="round"/>
<path d="M50.481 105.355C50.481 105.355 49.304 106.074 48.2522 104.806" stroke="#263238" stroke-linecap="round" stroke-linejoin="round"/>
<path d="M50.3614 98.2084C50.3614 98.2084 51.2172 98.0578 52.3798 96.7911C53.5424 95.5244 54.8043 94.6887 51.4521 91.4418C48.1 88.1949 40.3749 87.7046 37.6827 88.9398C34.9904 90.175 31.4285 95.5155 31.1261 98.6212C30.8237 101.727 32.696 103.606 32.8583 104.694C33.0205 105.783 30.2138 106.799 32.992 109.531C35.7701 112.262 38.2955 112.007 41.0081 111.44C43.7208 110.872 44.4264 107.198 44.4264 107.198C44.4264 107.198 42.5567 107.184 41.9722 106.458C41.3877 105.732 39.8642 103.921 39.9062 102.603C39.9483 101.284 41.7584 102.178 42.7005 101.25C43.6426 100.323 42.5798 98.8346 44.2027 98.3133C45.8255 97.7919 47.8928 97.2656 48.1645 96.1384L48.4412 95.0238C48.4412 95.0238 50.3175 97.3301 50.3614 98.2084Z" fill="#263238" stroke="#263238" stroke-linecap="round" stroke-linejoin="round"/>
<path d="M41.4719 105.257C40.9897 105.397 40.4769 105.39 39.9987 105.237C39.5206 105.084 39.0988 104.792 38.7873 104.398C37.7258 103.022 37.9586 101.03 39.2598 100.636C40.561 100.243 41.2393 102.847 41.2393 102.847" fill="white"/>
<path d="M41.4719 105.257C40.9897 105.397 40.4769 105.39 39.9987 105.237C39.5206 105.084 39.0988 104.792 38.7873 104.398C37.7258 103.022 37.9586 101.03 39.2598 100.636C40.561 100.243 41.2393 102.847 41.2393 102.847" stroke="#263238" stroke-linecap="round" stroke-linejoin="round"/>
<path d="M46.4297 153.863C44.1543 154.302 41.8331 154.454 39.52 154.316C35.985 154.061 31.4082 152.74 31.4082 152.74L36.6367 138.42C36.6367 138.42 29.468 118.31 29.4297 117.543C29.4041 117.031 33.2284 114.522 35.7895 112.909C37.0739 112.094 38.0415 111.501 38.0415 111.501C38.0415 111.501 43.2294 122.897 43.4631 124.983C43.6329 126.654 44.4191 132.109 44.8769 135.052C44.9953 135.78 45.0879 136.336 45.1479 136.674C45.4314 138.287 46.4297 153.863 46.4297 153.863Z" fill="#47F6AC" stroke="#263238" stroke-linecap="round" stroke-linejoin="round"/>
<path d="M44.8586 135.031C43.4891 132.156 41.6021 128.08 40.6672 125.611C39.3691 122.179 36.6923 115.169 35.7882 112.883C37.0726 112.068 38.0402 111.476 38.0402 111.476C38.0402 111.476 43.2281 122.871 43.4618 124.957C43.6146 126.633 44.4008 132.089 44.8586 135.031Z" fill="#47F6AC" stroke="#263238" stroke-linecap="round" stroke-linejoin="round"/>
<path d="M70.3268 103.595C70.3268 103.595 71.5313 99.9695 71.5093 99.5303C71.4874 99.0911 71.7993 93.4986 71.7993 93.4986C71.7993 93.4986 71.9695 92.8426 72.3699 92.8226C72.7703 92.8026 72.7772 93.0267 72.7972 93.4271C72.8172 93.8276 72.7801 95.4179 72.7801 95.4179C72.7801 95.4179 73.126 93.182 73.1925 92.2678C73.2591 91.3537 73.4029 90.7768 73.8148 90.985C74.2266 91.1932 74.2925 91.4748 74.3206 92.0388C74.3488 92.6029 74.1896 95.1187 74.1896 95.1187C74.1896 95.1187 75.2914 91.2522 75.3954 90.742C75.4994 90.2317 75.8809 90.2645 76.0815 90.8242C76.2822 91.384 75.5458 93.7517 75.5686 94.2081C75.5581 94.6146 75.5015 95.0185 75.4 95.4122C75.4 95.4122 76.4097 93.9373 76.7802 93.4051C77.1508 92.873 77.477 92.5761 77.5641 93.1976C77.6513 93.8192 77.1858 94.6971 76.9774 95.1046C76.769 95.5122 76.207 96.9647 76.207 96.9647L76.2078 98.1042L78.0871 96.9269C78.0871 96.9269 78.7229 97.1239 78.52 97.6434C78.3172 98.1629 76.4034 99.6872 76.4034 99.6872C76.4034 99.6872 75.5345 100.525 75.3737 100.762C75.0206 101.057 74.6312 101.305 74.215 101.502L72.6383 105.28L70.3268 103.595Z" fill="white" stroke="#263238" stroke-linecap="round" stroke-linejoin="round"/>
<path d="M73.7881 104.622C73.7881 104.622 68.4511 121.175 68.0283 121.524C67.6054 121.873 55.7814 120.815 55.7814 120.815L54.9629 130.87L60.5888 150.946C60.5888 150.946 58.3577 152.598 57.2598 152.653L53.8582 152.823C53.8582 152.823 51.9669 142.355 50.3933 134.358C49.485 129.741 48.6782 125.948 48.4216 125.478C47.697 124.193 45.5786 112.636 45.5786 112.636L46.2889 111.387L47.4693 111.428L55.3265 111.708L63.4875 114.27L70.0682 102.827L73.7881 104.622Z" fill="#47F6AC" stroke="#263238" stroke-linecap="round" stroke-linejoin="round"/>
<path d="M50.3937 134.366C49.4854 129.75 48.6786 125.957 48.422 125.486C47.6974 124.202 45.5791 112.644 45.5791 112.644L46.2893 111.396L47.4698 111.436C48.096 113.257 50.0587 119.107 50.591 122.935C51.152 126.995 50.5423 133.021 50.3937 134.366Z" fill="#47F6AC" stroke="#263238" stroke-linecap="round" stroke-linejoin="round"/>
<path d="M55.7818 120.824L56.5009 116.122L57.9631 120.939L55.7818 120.824Z" fill="#263238" stroke="#263238" stroke-linecap="round" stroke-linejoin="round"/>
<path d="M29.4286 117.522C29.4286 117.522 25.204 132.84 24.7733 137.179C24.3425 141.517 28.546 141.414 30.5536 140.559C32.5612 139.703 33.4067 128.546 33.4067 128.546L29.4286 117.522Z" fill="#47F6AC" stroke="#263238" stroke-linecap="round" stroke-linejoin="round"/>
<path d="M30.2528 125.898L33.7237 141.372L45.0748 139.618L41.5017 124.257L30.2528 125.898Z" fill="#263238" stroke="#263238" stroke-linecap="round" stroke-linejoin="round"/>
<path d="M30.1178 136.156L30.6127 143.901C30.6127 143.901 32.2168 139.289 31.9316 137.9C31.6464 136.511 30.1178 136.156 30.1178 136.156Z" fill="#263238" stroke="#263238" stroke-linecap="round" stroke-linejoin="round"/>
<path d="M24.9563 136.522C24.9563 136.522 23.8851 138.842 24.1918 140.661C24.4986 142.48 27.5933 143.944 28.3468 143.906C28.9975 143.894 29.6485 143.916 30.2968 143.973L29.9096 136.223L27.4063 135.968" fill="#47F6AC"/>
<path d="M24.9563 136.522C24.9563 136.522 23.8851 138.842 24.1918 140.661C24.4986 142.48 27.5933 143.944 28.3468 143.906C28.9975 143.894 29.6485 143.916 30.2968 143.973L29.9096 136.223L27.4063 135.968" stroke="#263238" stroke-linecap="round" stroke-linejoin="round"/>
<path d="M30.5376 135.919C30.5376 135.919 30.2267 131.942 30.1998 131.404C30.1729 130.866 32.778 129.009 33.4023 128.546C34.0267 128.083 34.4573 128.062 34.2796 128.826C34.102 129.59 31.9114 131.103 31.9114 131.103L31.8414 131.861C31.8414 131.861 33.5907 130.155 34.6606 129.886C35.7306 129.617 35.9255 129.283 35.9578 129.929C35.99 130.575 34.413 131.409 33.9986 131.754C33.5841 132.098 32.147 133.573 32.147 133.573C32.147 133.573 34.0254 132.292 35.3064 132.012C36.5874 131.732 36.9103 131.716 36.9318 132.147C36.9534 132.577 36.5335 132.814 35.9038 133.169C35.2741 133.524 33.4818 134.369 33.4818 134.369L32.8789 135.263C32.8789 135.263 35.9683 134.461 36.2805 134.23C36.5927 133.998 37.1363 134.079 36.5227 134.757C35.9091 135.435 33.374 136.533 33.374 136.533C33.2912 137.248 33.1082 137.947 32.8303 138.611C32.4374 139.386 31.2587 139.552 31.2587 139.552L30.1564 139.176L30.1135 136.156L30.5376 135.919Z" fill="white" stroke="#263238" stroke-linecap="round" stroke-linejoin="round"/>
</svg>
