<svg width="236" height="236" viewBox="0 0 236 236" fill="none" xmlns="http://www.w3.org/2000/svg">
<path opacity="0.7" d="M38.6033 76.4192C38.6033 76.4192 24.355 107.938 40.0915 141.336C55.828 174.734 90.9814 193.858 119.065 210.102C147.149 226.346 177.545 220.866 193.125 197.659C208.705 174.451 190.098 156.244 191.959 122.027C193.82 87.8105 199.468 79.0363 182.522 49.1075C165.575 19.1786 120.476 10.2695 84.9214 29.813C49.3664 49.3564 38.6033 76.4192 38.6033 76.4192Z" fill="white"/>
<path d="M32.5518 194.793L127.021 200.006C127.435 199.418 127.853 198.831 128.28 198.258C139.296 183.35 156.179 173.217 174.236 169.023C182.326 167.145 191.027 166.243 197.714 161.317C204.598 156.255 208.1 147.762 209.872 139.402C212.023 129.281 211.796 117.787 205.289 109.742C197.649 100.298 184.071 98.5344 173.794 92.0538C156.108 80.8928 150.312 57.3806 134.411 43.7966C124.363 35.2153 110.381 31.3344 97.5982 32.3879C79.4829 33.8875 61.9051 45.0006 55.853 62.3896C54.1096 67.4553 53.2922 72.7934 53.44 78.1487C53.6684 88.7278 55.3477 99.5215 52.6386 109.75C49.652 121.022 41.7046 130.235 36.677 140.766C30.4167 153.881 28.8448 168.87 30.3949 183.304C30.8089 187.185 31.5301 191.027 32.5518 194.793Z" fill="#47F6AC"/>
<path opacity="0.7" d="M32.5518 194.793L127.021 200.006C127.435 199.418 127.853 198.831 128.28 198.258C139.296 183.35 156.179 173.217 174.236 169.023C182.326 167.145 191.027 166.243 197.714 161.317C204.598 156.255 208.1 147.762 209.872 139.402C212.023 129.281 211.796 117.787 205.289 109.742C197.649 100.298 184.071 98.5344 173.794 92.0538C156.108 80.8928 150.312 57.3806 134.411 43.7966C124.363 35.2153 110.381 31.3344 97.5982 32.3879C79.4829 33.8875 61.9051 45.0006 55.853 62.3896C54.1096 67.4553 53.2922 72.7934 53.44 78.1487C53.6684 88.7278 55.3477 99.5215 52.6386 109.75C49.652 121.022 41.7046 130.235 36.677 140.766C30.4167 153.881 28.8448 168.87 30.3949 183.304C30.8089 187.185 31.5301 191.027 32.5518 194.793Z" fill="white"/>
<path d="M20.4697 194.126L207.592 204.451" stroke="#263238" stroke-linecap="round" stroke-linejoin="round"/>
<path d="M134.345 57.6078L134.732 50.5849L129.496 49.8473C129.249 48.732 128.872 47.6495 128.373 46.6221L131.99 42.7836L127.299 37.5444L123.086 40.7174C122.128 40.1064 121.101 39.6115 120.026 39.2429L119.869 33.9578L112.788 33.567L112.051 38.8028C110.942 39.0509 109.867 39.4299 108.848 39.9318L105.009 36.3145L99.7699 41.0057L102.943 45.219C102.334 46.1852 101.84 47.2196 101.472 48.301L96.1865 48.458L95.799 55.481L101.035 56.2185C101.284 57.3262 101.661 58.4011 102.159 59.4214L98.5419 63.2599L103.233 68.4991L107.446 65.3261C108.404 65.9371 109.431 66.432 110.506 66.8006L110.663 72.0857L117.686 72.4732L118.423 67.2374C119.539 66.9902 120.622 66.6117 121.649 66.1098L125.487 69.7271L130.727 65.0358L127.554 60.8226C128.161 59.8633 128.654 58.8365 129.024 57.7629L134.345 57.6078ZM114.809 61.1917C113.195 61.1026 111.644 60.5371 110.352 59.5665C109.059 58.5959 108.084 57.2639 107.548 55.739C107.013 54.214 106.942 52.5646 107.344 50.9992C107.746 49.4339 108.604 48.023 109.808 46.9449C111.012 45.8667 112.508 45.1699 114.109 44.9424C115.709 44.7149 117.34 44.967 118.797 45.6668C120.254 46.3666 121.47 47.4827 122.293 48.8739C123.115 50.2652 123.507 51.869 123.418 53.4828C123.358 54.5555 123.087 55.606 122.621 56.5741C122.155 57.5422 121.503 58.409 120.702 59.1249C119.901 59.8407 118.966 60.3916 117.952 60.7461C116.938 61.1006 115.863 61.2516 114.791 61.1907L114.809 61.1917Z" stroke="#263238" stroke-linecap="round" stroke-linejoin="round"/>
<path d="M206.015 130.413L206.201 127.049L203.69 126.69C203.571 126.156 203.39 125.637 203.152 125.144L204.887 123.297L202.647 120.787L200.625 122.308C200.162 122.015 199.666 121.779 199.148 121.603L199.068 119.068L195.699 118.882L195.345 121.393C194.81 121.51 194.291 121.691 193.799 121.931L191.952 120.196L189.441 122.445L190.962 124.472C190.668 124.934 190.43 125.43 190.253 125.949L187.718 126.029L187.532 129.393L190.043 129.751C190.162 130.286 190.344 130.805 190.586 131.298L188.838 133.126L191.087 135.637L193.113 134.116C193.576 134.409 194.072 134.646 194.591 134.821L194.666 137.356L198.035 137.542L198.393 135.031C198.928 134.913 199.447 134.733 199.939 134.492L201.782 136.227L204.298 133.979L202.776 131.952C203.067 131.488 203.304 130.993 203.481 130.475L206.015 130.413ZM196.646 132.139C195.871 132.097 195.127 131.827 194.506 131.362C193.886 130.896 193.417 130.258 193.16 129.526C192.902 128.795 192.868 128.003 193.06 127.252C193.252 126.501 193.663 125.824 194.241 125.306C194.818 124.788 195.536 124.453 196.304 124.344C197.072 124.235 197.855 124.355 198.554 124.691C199.253 125.026 199.837 125.562 200.231 126.229C200.626 126.897 200.814 127.666 200.771 128.441C200.742 128.955 200.613 129.458 200.389 129.922C200.166 130.385 199.853 130.801 199.469 131.144C199.085 131.487 198.638 131.751 198.152 131.92C197.666 132.09 197.151 132.163 196.637 132.134L196.646 132.139Z" stroke="#263238" stroke-linecap="round" stroke-linejoin="round"/>
<path d="M206.853 68.9715C207.295 67.4453 207.334 65.8304 206.967 64.2844C206.6 62.7383 205.838 61.3138 204.756 60.1498C203.675 58.9857 202.31 58.1217 200.795 57.6421C199.28 57.1625 197.666 57.0836 196.112 57.4131C195.27 55.7069 193.899 54.3184 192.204 53.4546C190.509 52.5908 188.58 52.298 186.704 52.6198C184.829 52.9416 183.108 53.8608 181.798 55.2403C180.488 56.6199 179.658 58.3859 179.433 60.2752C178.47 60.0353 177.467 59.9971 176.489 60.163C175.51 60.3289 174.576 60.6954 173.745 61.2394C172.915 61.7834 172.206 62.4932 171.662 63.3243C171.119 64.1554 170.754 65.0897 170.589 66.0687C169.586 66.1186 168.638 66.5409 167.93 67.2529C167.222 67.9649 166.805 68.9155 166.761 69.9186C166.717 70.9217 167.049 71.9051 167.691 72.6766C168.334 73.448 169.241 73.9519 170.236 74.0896L203.91 75.9477C204.735 75.9871 205.552 75.7723 206.251 75.3323C206.95 74.8922 207.497 74.2482 207.818 73.4872C208.139 72.7263 208.218 71.8852 208.046 71.0775C207.873 70.2699 207.457 69.5348 206.853 68.9715Z" stroke="#263238" stroke-linecap="round" stroke-linejoin="round"/>
<path d="M188.124 71.9897L187.612 81.2716" stroke="#263238" stroke-linecap="round" stroke-linejoin="round"/>
<path d="M188.431 66.425L188.226 70.1333" stroke="#263238" stroke-linecap="round" stroke-linejoin="round"/>
<path d="M188.623 62.9539L188.513 64.94" stroke="#263238" stroke-linecap="round" stroke-linejoin="round"/>
<path d="M185.918 80.0923L187.552 82.3585L189.425 80.2858" stroke="#263238" stroke-linecap="round" stroke-linejoin="round"/>
<path d="M98.249 172.166C98.6904 170.639 98.729 169.024 98.3609 167.478C97.9929 165.932 97.2307 164.508 96.1488 163.344C95.0668 162.18 93.7018 161.316 92.1868 160.837C90.6718 160.357 89.0584 160.278 87.5037 160.607C86.6628 158.9 85.2922 157.51 83.5966 156.645C81.901 155.781 79.9713 155.488 78.0955 155.811C76.2198 156.133 74.4987 157.054 73.1892 158.435C71.8796 159.816 71.0519 161.584 70.8295 163.474C70.3919 163.365 69.945 163.296 69.4947 163.27C67.7252 163.171 65.9812 163.727 64.596 164.833C63.2107 165.938 62.2813 167.515 61.9852 169.263C60.9824 169.312 60.034 169.734 59.3257 170.446C58.6174 171.157 58.2001 172.107 58.1555 173.11C58.1108 174.114 58.4419 175.097 59.0841 175.869C59.7263 176.641 60.6334 177.145 61.6278 177.283L95.3334 179.143C96.1573 179.18 96.9727 178.963 97.6695 178.522C98.3663 178.081 98.9111 177.436 99.2303 176.676C99.5496 175.916 99.6279 175.075 99.4548 174.269C99.2818 173.463 98.8656 172.729 98.2624 172.166L98.249 172.166Z" stroke="#263238" stroke-linecap="round" stroke-linejoin="round"/>
<path d="M79.4337 176.512L79.9456 167.234" stroke="#263238" stroke-linecap="round" stroke-linejoin="round"/>
<path d="M79.1264 182.081L79.3313 178.368" stroke="#263238" stroke-linecap="round" stroke-linejoin="round"/>
<path d="M78.9349 185.552L79.0445 183.566" stroke="#263238" stroke-linecap="round" stroke-linejoin="round"/>
<path d="M81.6394 168.414L80.0056 166.147L78.1324 168.22" stroke="#263238" stroke-linecap="round" stroke-linejoin="round"/>
<path d="M33.5511 50.4804L146.03 56.6867C146.533 56.7145 147.004 56.9409 147.34 57.3162C147.676 57.6915 147.849 58.185 147.822 58.688L147.529 63.9932L31.2571 57.5776L31.5499 52.2724C31.5776 51.7693 31.8041 51.298 32.1794 50.9619C32.5547 50.6258 33.0481 50.4526 33.5511 50.4804Z" fill="#47F6AC" stroke="#263238" stroke-linecap="round" stroke-linejoin="round"/>
<path d="M153.79 65.6713L36.2743 59.187L31.7113 141.883L149.227 148.367L153.79 65.6713Z" fill="white" stroke="#263238" stroke-linecap="round" stroke-linejoin="round"/>
<path d="M155.86 60.8366C155.841 61.1905 155.717 61.5306 155.504 61.814C155.291 62.0974 154.999 62.3113 154.664 62.4287C154.33 62.5461 153.968 62.5617 153.625 62.4735C153.282 62.3853 152.972 62.1973 152.736 61.9333C152.499 61.6692 152.347 61.341 152.297 60.9901C152.247 60.6392 152.302 60.2814 152.456 59.9619C152.609 59.6424 152.854 59.3757 153.159 59.1953C153.464 59.0149 153.816 58.9291 154.17 58.9486C154.644 58.9748 155.089 59.1884 155.406 59.5425C155.723 59.8965 155.886 60.362 155.86 60.8366Z" fill="white" stroke="#263238" stroke-linecap="round" stroke-linejoin="round"/>
<path d="M149.526 60.487C149.507 60.8409 149.382 61.181 149.17 61.4644C148.957 61.7478 148.665 61.9617 148.33 62.0791C147.996 62.1965 147.634 62.2121 147.291 62.1239C146.948 62.0357 146.638 61.8477 146.402 61.5836C146.165 61.3196 146.013 60.9914 145.963 60.6405C145.913 60.2896 145.968 59.9318 146.121 59.6123C146.275 59.2928 146.52 59.026 146.825 58.8457C147.13 58.6653 147.482 58.5794 147.836 58.599C148.31 58.6252 148.755 58.8388 149.072 59.1929C149.389 59.5469 149.552 60.0124 149.526 60.487Z" fill="white" stroke="#263238" stroke-linecap="round" stroke-linejoin="round"/>
<path d="M143.179 60.1368C143.159 60.4906 143.035 60.8308 142.822 61.1142C142.609 61.3976 142.317 61.6115 141.983 61.7289C141.648 61.8463 141.287 61.8619 140.943 61.7737C140.6 61.6855 140.291 61.4975 140.054 61.2334C139.818 60.9694 139.665 60.6412 139.615 60.2903C139.565 59.9394 139.621 59.5816 139.774 59.2621C139.927 58.9426 140.172 58.6758 140.477 58.4954C140.782 58.3151 141.134 58.2292 141.488 58.2488C141.963 58.2749 142.407 58.4886 142.724 58.8426C143.041 59.1967 143.205 59.6622 143.179 60.1368Z" fill="white" stroke="#263238" stroke-linecap="round" stroke-linejoin="round"/>
<path d="M150.033 69.022L145.381 68.7653" stroke="#263238" stroke-width="2" stroke-linecap="round" stroke-linejoin="round"/>
<path d="M149.929 70.9096L145.277 70.653" stroke="#263238" stroke-width="2" stroke-linecap="round" stroke-linejoin="round"/>
<path d="M149.825 72.7973L145.173 72.5406" stroke="#263238" stroke-width="2" stroke-linecap="round" stroke-linejoin="round"/>
<path d="M41.523 111.977L76.7405 113.92" stroke="#263238" stroke-width="2" stroke-linecap="round" stroke-linejoin="round"/>
<path d="M41.3697 114.755L76.5872 116.698" stroke="#263238" stroke-width="2" stroke-linecap="round" stroke-linejoin="round"/>
<path d="M41.2137 117.582L68.9833 119.114" stroke="#263238" stroke-width="2" stroke-linecap="round" stroke-linejoin="round"/>
<path d="M119.04 64.6871L119.027 64.9108" stroke="#263238" stroke-linecap="round" stroke-linejoin="round"/>
<path d="M118.953 66.2527L114.653 144.189" stroke="#263238" stroke-linecap="round" stroke-linejoin="round" stroke-dasharray="1 3"/>
<path d="M114.616 144.86L114.604 145.084" stroke="#263238" stroke-linecap="round" stroke-linejoin="round"/>
<path d="M34.1482 123.415L34.3718 123.427" stroke="#263238" stroke-linecap="round" stroke-linejoin="round"/>
<path d="M35.7093 123.501L147.557 129.673" stroke="#263238" stroke-linecap="round" stroke-linejoin="round" stroke-dasharray="1 2.99"/>
<path d="M148.228 129.71L148.452 129.722" stroke="#263238" stroke-linecap="round" stroke-linejoin="round"/>
<path d="M116.368 127.176L114.825 127.09L114.74 128.634L116.283 128.719L116.368 127.176Z" fill="white" stroke="#263238" stroke-linecap="round" stroke-linejoin="round"/>
<path d="M110.21 112.743L89.6062 111.606" stroke="#263238" stroke-linecap="round" stroke-linejoin="round"/>
<path d="M110.082 122.293C110.082 122.293 110.611 112.715 99.9107 112.125C89.2108 111.535 88.6645 121.111 88.6645 121.111" stroke="#263238" stroke-linecap="round" stroke-linejoin="round"/>
<path d="M110.032 123.196C110.531 123.224 110.958 122.841 110.986 122.342C111.013 121.843 110.631 121.417 110.132 121.389C109.633 121.361 109.206 121.744 109.179 122.243C109.151 122.742 109.533 123.169 110.032 123.196Z" fill="#47F6AC" stroke="#263238" stroke-linecap="round" stroke-linejoin="round"/>
<path d="M87.7699 121.061C87.7796 120.884 87.8416 120.714 87.9481 120.573C88.0545 120.431 88.2005 120.324 88.3677 120.265C88.5349 120.207 88.7158 120.199 88.8874 120.243C89.0591 120.287 89.2138 120.381 89.332 120.513C89.4502 120.645 89.5266 120.809 89.5516 120.985C89.5765 121.16 89.5489 121.339 89.4721 121.499C89.3954 121.658 89.273 121.792 89.1205 121.882C88.9679 121.972 88.7921 122.015 88.6151 122.005C88.3779 121.992 88.1555 121.885 87.997 121.708C87.8385 121.531 87.7568 121.299 87.7699 121.061Z" fill="#47F6AC" stroke="#263238" stroke-linecap="round" stroke-linejoin="round"/>
<path d="M109.775 113.464L111.359 113.551L111.446 111.967L109.863 111.88L109.775 113.464Z" fill="#47F6AC" stroke="#263238" stroke-linecap="round" stroke-linejoin="round"/>
<path d="M99.0753 112.873L100.659 112.961L100.746 111.377L99.1627 111.29L99.0753 112.873Z" fill="#47F6AC" stroke="#263238" stroke-linecap="round" stroke-linejoin="round"/>
<path d="M88.3754 112.283L89.9589 112.37L90.0463 110.787L88.4628 110.699L88.3754 112.283Z" fill="#47F6AC" stroke="#263238" stroke-linecap="round" stroke-linejoin="round"/>
<path d="M56.0804 80.8744L56.2552 77.7073L53.9 77.3755C53.7868 76.8728 53.6165 76.3847 53.3925 75.9207L55.0225 74.189L52.9093 71.829L51.0043 73.2583C50.5695 72.9814 50.1027 72.7583 49.6142 72.5939L49.5392 70.2117L46.3812 70.0375L46.0446 72.3969C45.5421 72.5061 45.055 72.6766 44.5942 72.9046L42.8581 71.2744L40.4981 73.3875L41.9277 75.2881C41.6521 75.7236 41.4291 76.1902 41.2632 76.6782L38.8813 76.7487L38.7065 79.9157L41.0662 80.2478C41.1782 80.7509 41.3485 81.2391 41.5737 81.7026L39.9437 83.4343L42.0569 85.7943L43.9619 84.365C44.392 84.6415 44.8544 84.8644 45.3386 85.0287L45.4136 87.4109L48.5761 87.5854L48.9127 85.2259C49.4148 85.1158 49.9018 84.9453 50.363 84.7182L52.0992 86.3485L54.4592 84.2353L53.0296 82.3347C53.3026 81.8978 53.5255 81.4315 53.6941 80.9446L56.0804 80.8744ZM47.2735 82.4883C46.5463 82.4481 45.8473 82.1932 45.2649 81.7559C44.6825 81.3185 44.2429 80.7182 44.0017 80.031C43.7604 79.3437 43.7284 78.6004 43.9097 77.895C44.0909 77.1895 44.4772 76.5537 45.0199 76.0678C45.5625 75.582 46.237 75.2679 46.958 75.1654C47.6791 75.0629 48.4144 75.1765 49.071 75.4919C49.7275 75.8072 50.2757 76.3102 50.6464 76.9372C51.0171 77.5641 51.1935 78.2869 51.1534 79.0142C51.0996 79.9894 50.6606 80.9032 49.9329 81.5548C49.2053 82.2063 48.2487 82.5421 47.2735 82.4883Z" fill="#47F6AC" stroke="#263238" stroke-linecap="round" stroke-linejoin="round"/>
<path d="M66.4425 88.5621L66.562 86.3971L64.9461 86.1644C64.8714 85.8209 64.7557 85.4876 64.6016 85.1717L65.7169 83.9859L64.267 82.3714L62.9657 83.3495C62.6679 83.162 62.3497 83.0089 62.0173 82.8934L61.9684 81.2575L59.8034 81.138L59.5707 82.7539C59.2275 82.8322 58.8944 82.9493 58.5778 83.1029L57.392 81.9876L55.7733 83.4328L56.7558 84.7343C56.5646 85.0301 56.4114 85.3488 56.2997 85.6828L54.668 85.7363L54.5486 87.9014L56.1647 88.1296C56.2381 88.4742 56.3554 88.8078 56.5137 89.1225L55.3934 90.317L56.8433 91.9315L58.1446 90.9534C58.4424 91.141 58.7606 91.294 59.0931 91.4096L59.1469 93.0368L61.3119 93.1562L61.5399 91.5446C61.8831 91.4663 62.2162 91.3492 62.5328 91.1955L63.7186 92.3109L65.3373 90.8657L64.3818 89.5612C64.5705 89.2646 64.7222 88.9459 64.8335 88.6124L66.4425 88.5621ZM60.4187 89.6655C59.9202 89.6389 59.4407 89.465 59.0412 89.1657C58.6416 88.8664 58.3398 88.4553 58.174 87.9844C58.0083 87.5135 57.986 87.0039 58.11 86.5204C58.234 86.0368 58.4987 85.6009 58.8706 85.2678C59.2426 84.9348 59.705 84.7196 60.1993 84.6496C60.6935 84.5795 61.1975 84.6578 61.6473 84.8743C62.0971 85.0909 62.4726 85.4361 62.7261 85.8662C62.9796 86.2962 63.0997 86.7919 63.0713 87.2903C63.0334 87.9566 62.7329 88.5807 62.2357 89.0259C61.7385 89.4711 61.0851 89.7011 60.4187 89.6655Z" fill="#47F6AC" stroke="#263238" stroke-linecap="round" stroke-linejoin="round"/>
<path d="M119.681 133.411L137.005 134.367" stroke="#263238" stroke-width="2" stroke-linecap="round" stroke-linejoin="round"/>
<path d="M119.527 136.189L136.852 137.145" stroke="#263238" stroke-width="2" stroke-linecap="round" stroke-linejoin="round"/>
<path d="M119.371 139.016L129.248 139.561" stroke="#263238" stroke-width="2" stroke-linecap="round" stroke-linejoin="round"/>
<path d="M96.481 138.911L87.3601 138.407C86.767 138.375 86.2111 138.108 85.8148 137.665C85.4185 137.222 85.2142 136.64 85.247 136.047C85.2797 135.454 85.5467 134.898 85.9893 134.502C86.4319 134.106 87.0138 133.901 87.607 133.934L96.7278 134.437C97.321 134.47 97.8769 134.737 98.2732 135.18C98.6695 135.622 98.8737 136.204 98.841 136.797C98.8083 137.391 98.5412 137.946 98.0986 138.343C97.6561 138.739 97.0742 138.943 96.481 138.911Z" fill="#47F6AC" stroke="#263238" stroke-linecap="round" stroke-linejoin="round"/>
<path d="M113.479 139.849L104.358 139.345C103.765 139.313 103.209 139.045 102.813 138.603C102.417 138.16 102.212 137.578 102.245 136.985C102.278 136.392 102.545 135.836 102.987 135.44C103.43 135.044 104.012 134.839 104.605 134.872L113.726 135.375C114.319 135.408 114.875 135.675 115.271 136.118C115.668 136.56 115.872 137.142 115.839 137.735C115.806 138.329 115.539 138.884 115.097 139.281C114.654 139.677 114.072 139.881 113.479 139.849Z" fill="#47F6AC" stroke="#263238" stroke-linecap="round" stroke-linejoin="round"/>
<path d="M142.564 93.3187L123.222 92.2515L122.154 111.594L141.496 112.661L142.564 93.3187Z" fill="white" stroke="#263238" stroke-linecap="round" stroke-linejoin="round"/>
<path d="M123.222 92.2515L141.496 112.661" stroke="#263238" stroke-linecap="round" stroke-linejoin="round"/>
<path d="M142.564 93.3187L122.154 111.594" stroke="#263238" stroke-linecap="round" stroke-linejoin="round"/>
<path d="M132.02 70.7112L131.771 75.2246L129.67 77.1054L125.157 76.8563L125.516 70.3523L132.02 70.7112Z" fill="white" stroke="#263238" stroke-linecap="round" stroke-linejoin="round"/>
<path d="M131.771 75.2246L129.67 77.1053L129.78 75.1147L131.771 75.2246Z" fill="white" stroke="#263238" stroke-linecap="round" stroke-linejoin="round"/>
<path d="M60.9247 101.799L60.6757 106.312L58.575 108.198L54.0616 107.949L54.4207 101.44L60.9247 101.799Z" fill="white" stroke="#263238" stroke-linecap="round" stroke-linejoin="round"/>
<path d="M60.6757 106.312L58.575 108.198L58.6851 106.203L60.6757 106.312Z" fill="white" stroke="#263238" stroke-linecap="round" stroke-linejoin="round"/>
<path d="M34.8145 128.253L34.5655 132.766L32.4651 134.647L27.9471 134.398L28.306 127.894L34.8145 128.253Z" fill="white" stroke="#263238" stroke-linecap="round" stroke-linejoin="round"/>
<path d="M34.5655 132.766L32.4651 134.647L32.5749 132.656L34.5655 132.766Z" fill="white" stroke="#263238" stroke-linecap="round" stroke-linejoin="round"/>
<path d="M164.204 82.9862L140.201 81.6617L139.371 96.7051L163.374 98.0295L164.204 82.9862Z" fill="#263238" stroke="#263238" stroke-linecap="round" stroke-linejoin="round"/>
<path d="M164.204 82.9862L140.201 81.6617L140.075 83.9475L164.078 85.272L164.204 82.9862Z" fill="#47F6AC" stroke="#263238" stroke-linecap="round" stroke-linejoin="round"/>
<path d="M142.415 86.0105L148.552 86.3491" stroke="white" stroke-linecap="round" stroke-linejoin="round"/>
<path d="M145.389 87.8931L156.008 88.479" stroke="white" stroke-linecap="round" stroke-linejoin="round"/>
<path d="M143.946 89.4153L147.072 89.5878" stroke="white" stroke-linecap="round" stroke-linejoin="round"/>
<path d="M145.197 91.3732L152.35 91.7678" stroke="white" stroke-linecap="round" stroke-linejoin="round"/>
<path d="M142.034 92.9127L148.171 93.2514" stroke="white" stroke-linecap="round" stroke-linejoin="round"/>
<path d="M70.5905 138.532L46.5874 137.208L45.7573 152.251L69.7605 153.575L70.5905 138.532Z" fill="#263238" stroke="#263238" stroke-linecap="round" stroke-linejoin="round"/>
<path d="M70.5905 138.532L46.5874 137.208L46.4612 139.493L70.4644 140.818L70.5905 138.532Z" fill="#47F6AC" stroke="#263238" stroke-linecap="round" stroke-linejoin="round"/>
<path d="M48.8059 141.561L54.9387 141.899" stroke="white" stroke-linecap="round" stroke-linejoin="round"/>
<path d="M51.7758 143.439L62.3951 144.025" stroke="white" stroke-linecap="round" stroke-linejoin="round"/>
<path d="M50.3323 144.961L53.459 145.133" stroke="white" stroke-linecap="round" stroke-linejoin="round"/>
<path d="M51.5837 146.919L58.7364 147.314" stroke="white" stroke-linecap="round" stroke-linejoin="round"/>
<path d="M48.4251 148.463L54.5578 148.802" stroke="white" stroke-linecap="round" stroke-linejoin="round"/>
<path d="M85.6119 30.0664L63.559 28.8496C63.3007 28.8365 63.0476 28.926 62.8549 29.0985C62.6622 29.2711 62.5455 29.5127 62.53 29.7709L61.9624 40.0593C61.9493 40.3172 62.039 40.5698 62.2117 40.7618C62.3844 40.9538 62.6261 41.0695 62.884 41.0838L72.7697 41.6292L73.6748 45.7173L75.0287 41.7539L84.9368 42.3006C85.1947 42.3148 85.4477 42.2264 85.6404 42.0545C85.8332 41.8827 85.9501 41.6415 85.9655 41.3837L86.5332 31.0954C86.5463 30.837 86.4568 30.584 86.2843 30.3913C86.1117 30.1986 85.8701 30.0818 85.6119 30.0664Z" fill="#47F6AC" stroke="#263238" stroke-linecap="round" stroke-linejoin="round"/>
<path d="M66.0805 31.941L82.7432 32.8604" stroke="#263238" stroke-width="2" stroke-linecap="round" stroke-linejoin="round"/>
<path d="M65.964 34.0524L82.6267 34.9718" stroke="#263238" stroke-width="2" stroke-linecap="round" stroke-linejoin="round"/>
<path d="M65.8475 36.1637L82.5102 37.0831" stroke="#263238" stroke-width="2" stroke-linecap="round" stroke-linejoin="round"/>
<path d="M65.731 38.275L78.2873 38.9679" stroke="#263238" stroke-width="2" stroke-linecap="round" stroke-linejoin="round"/>
<path d="M117.749 105.235C115.372 105.306 112.526 102.313 112.526 102.313C112.465 102.369 112.392 102.411 112.313 102.434C112.233 102.457 112.149 102.461 112.068 102.446C111.986 102.431 111.909 102.397 111.843 102.348C111.777 102.298 111.724 102.233 111.687 102.159C111.333 101.583 109.735 100.207 109.702 99.0927C109.669 97.9782 111.737 96.2886 111.737 96.2886C110.198 96.6164 110.086 95.7174 110.086 95.7174C110.086 95.7174 112.756 93.7514 113.654 93.7427C114.004 93.7395 115.477 94.7002 116.883 95.9623C118.354 97.2863 121.003 101.807 121.003 101.807C121.003 101.807 130.385 109.445 132.754 111.398C135.883 113.975 139.513 118.443 139.513 118.443C139.513 118.443 152.162 125.009 155.563 128.423L150.091 139.616C150.091 139.616 138.731 131.061 137.665 128.992C136.599 126.923 135.352 128.062 134.244 126.686C133.135 125.31 132.086 123.749 132.086 123.749C130.042 122.619 128.211 121.139 126.678 119.377C124.079 116.393 121.889 111.933 120.507 109.246C119.796 107.777 118.866 106.425 117.749 105.235Z" fill="white" stroke="#263238" stroke-linecap="round" stroke-linejoin="round"/>
<path d="M118.562 103.602C118.562 103.602 115.088 102.553 114.912 100.215C114.81 99.6187 114.583 99.0511 114.246 98.5492C114.246 98.5492 110.971 98.207 111.251 96.8809L115.656 96.7336C117.218 97.4347 118.499 98.6398 119.295 100.156" fill="white"/>
<path d="M118.562 103.602C118.562 103.602 115.088 102.553 114.912 100.215C114.81 99.6187 114.583 99.0511 114.246 98.5492C114.246 98.5492 110.971 98.207 111.251 96.8809L115.656 96.7336C117.218 97.4347 118.499 98.6398 119.295 100.156" stroke="#263238" stroke-linecap="round" stroke-linejoin="round"/>
<path d="M112.522 102.313C112.694 102.031 112.764 101.7 112.722 101.373C112.722 101.373 113.698 101.247 113.637 100.387C113.637 100.387 115.079 100.291 114.246 98.5492" stroke="#263238" stroke-linecap="round" stroke-linejoin="round"/>
<path d="M113.637 100.387C113.637 100.387 111.788 98.8534 111.61 98.1885" stroke="#263238" stroke-linecap="round" stroke-linejoin="round"/>
<path d="M112.722 101.373C112.722 101.373 110.738 100.007 110.742 99.2758" stroke="#263238" stroke-linecap="round" stroke-linejoin="round"/>
<path d="M113.546 94.9661C113.546 94.9661 112.828 96.1021 111.732 96.2884" stroke="#263238" stroke-linecap="round" stroke-linejoin="round"/>
<path d="M113.195 95.4043C113.528 95.6026 113.84 95.8348 114.125 96.0973" stroke="#263238" stroke-linecap="round" stroke-linejoin="round"/>
<path d="M185.984 139.16C181.04 136.739 175.915 134.707 170.656 133.083C162.902 130.811 150.271 128.468 150.271 128.468C150.271 128.468 151.799 164.357 150.759 166.453C149.719 168.549 143.793 175.455 143.793 175.455C143.793 175.455 173.07 188.772 178.231 190.053C183.392 191.334 181.671 173.081 181.671 173.081C181.671 173.081 188.452 150.375 185.984 139.16Z" fill="#263238"/>
<path d="M175.455 134.734C175.455 134.734 176.092 136.115 174.184 136.715C169.24 138.237 164.166 136.373 164.82 134.506C165.071 133.793 166.229 134.584 166.31 131.897C166.3 131.481 166.212 131.071 166.05 130.689C165.748 129.944 165.374 129.231 164.933 128.559C164.456 127.812 163.94 127.09 163.388 126.396C163.388 126.396 171.349 121.9 176.781 127.135C176.773 127.112 174.593 128.069 175.455 134.734Z" fill="white" stroke="#263238" stroke-linecap="round" stroke-linejoin="round"/>
<path d="M181.475 198.838C178.175 203.591 162.681 205.074 154.306 204.392C145.931 203.71 122.427 190.967 120.925 188.443C119.532 186.123 116.214 178.505 122.205 174.345C122.713 173.995 123.249 173.689 123.808 173.428C127.857 171.516 153.637 179.673 153.637 179.673C153.637 179.673 155.313 178.738 155.904 178.847C157.716 179.18 158.941 180.728 162.569 181.983C165.109 182.863 172.311 180.416 176.676 183.102C177.161 183.397 177.603 183.756 177.99 184.171C181.973 188.42 184.771 194.07 181.475 198.838Z" fill="#47F6AC"/>
<mask id="mask0_23_4469" style="mask-type:luminance" maskUnits="userSpaceOnUse" x="118" y="173" width="65" height="32">
<path d="M181.475 198.838C178.175 203.591 162.681 205.074 154.306 204.392C145.931 203.71 122.427 190.967 120.925 188.443C119.532 186.123 116.214 178.505 122.205 174.345C122.713 173.995 123.249 173.689 123.808 173.428C127.857 171.516 153.637 179.673 153.637 179.673C153.637 179.673 155.313 178.738 155.904 178.847C157.716 179.18 158.941 180.728 162.569 181.983C165.109 182.863 172.311 180.416 176.676 183.102C177.161 183.397 177.603 183.756 177.99 184.171C181.973 188.42 184.771 194.07 181.475 198.838Z" fill="white"/>
</mask>
<g mask="url(#mask0_23_4469)">
<path opacity="0.3" d="M176.676 183.102C172.081 182.539 167.917 183.279 164.952 184.815C161.437 186.641 144.933 193.497 144.933 193.497C145.015 192.667 146.002 191.038 146.002 191.038C144.564 189.613 140.668 188.344 140.668 188.344C137.748 185.558 126.034 177.082 122.205 174.345C122.713 173.995 123.249 173.689 123.808 173.428C127.857 171.516 153.637 179.673 153.637 179.673C153.637 179.673 155.313 178.738 155.904 178.847C157.716 179.18 158.941 180.728 162.569 181.983C165.122 182.864 172.311 180.416 176.676 183.102Z" fill="black" fill-opacity="0.7"/>
</g>
<path d="M181.475 198.838C178.175 203.591 162.681 205.074 154.306 204.392C145.931 203.71 122.427 190.967 120.925 188.443C119.532 186.123 116.214 178.505 122.205 174.345C122.713 173.995 123.249 173.689 123.808 173.428C127.857 171.516 153.637 179.673 153.637 179.673C153.637 179.673 155.313 178.738 155.904 178.847C157.716 179.18 158.941 180.728 162.569 181.983C165.109 182.863 172.311 180.416 176.676 183.102C177.161 183.397 177.603 183.756 177.99 184.171C181.973 188.42 184.771 194.07 181.475 198.838Z" stroke="#263238" stroke-linecap="round" stroke-linejoin="round"/>
<path d="M176.514 203.033L176.806 204.74C176.806 204.74 175.616 207.6 171.067 207.829C166.519 208.058 163.784 208.908 161.585 208.917C160.434 208.944 159.284 208.862 158.148 208.673L157.737 207.986L176.514 203.033Z" fill="white" stroke="#263238" stroke-linecap="round" stroke-linejoin="round"/>
<path d="M150.262 201.405L157.76 207.988C161.555 207.873 165.339 207.519 169.089 206.926C172.849 206.272 176.16 205.221 176.428 203.539C176.843 200.987 174.135 200.133 170.868 200.052C170.26 200.018 169.63 200.046 168.996 200.074C163.745 200.345 157.266 197.098 157.266 197.098L150.262 201.405Z" fill="#263238"/>
<mask id="mask1_23_4469" style="mask-type:luminance" maskUnits="userSpaceOnUse" x="150" y="197" width="27" height="11">
<path d="M150.262 201.405L157.76 207.988C161.555 207.873 165.339 207.519 169.089 206.926C172.849 206.272 176.16 205.221 176.428 203.539C176.843 200.987 174.135 200.133 170.868 200.052C170.26 200.018 169.63 200.046 168.996 200.074C163.745 200.345 157.266 197.098 157.266 197.098L150.262 201.405Z" fill="white"/>
</mask>
<g mask="url(#mask1_23_4469)">
<path opacity="0.3" d="M176.436 203.477C174.883 203.959 173.384 204.598 171.961 205.384C171.961 205.384 164.476 208.726 153.501 204.253L150.262 201.405L157.266 197.093C157.266 197.093 163.741 200.345 168.996 200.069C169.631 200.037 170.26 200.027 170.869 200.047C174.113 200.127 176.799 200.966 176.436 203.477Z" fill="black" fill-opacity="0.7"/>
</g>
<path d="M150.262 201.405L157.76 207.988C161.555 207.873 165.339 207.519 169.089 206.926C172.849 206.272 176.16 205.221 176.428 203.539C176.843 200.987 174.135 200.133 170.868 200.052C170.26 200.018 169.63 200.046 168.996 200.074C163.745 200.345 157.266 197.098 157.266 197.098L150.262 201.405Z" stroke="#263238" stroke-linecap="round" stroke-linejoin="round"/>
<path d="M157.433 204.232C156.007 204.382 157.399 207.371 159.363 206.582C161.327 205.793 158.859 204.078 157.433 204.232Z" fill="white"/>
<mask id="mask2_23_4469" style="mask-type:luminance" maskUnits="userSpaceOnUse" x="156" y="204" width="5" height="3">
<path d="M157.433 204.232C156.007 204.382 157.399 207.371 159.363 206.582C161.327 205.793 158.859 204.078 157.433 204.232Z" fill="white"/>
</mask>
<g mask="url(#mask2_23_4469)">
<path opacity="0.2" d="M159.988 206.154C158.971 205.973 157.964 205.739 156.971 205.454C156.734 204.871 156.829 204.293 157.433 204.232C158.629 204.101 160.564 205.307 159.988 206.154Z" fill="black" fill-opacity="0.7"/>
</g>
<path d="M157.433 204.232C156.007 204.382 157.399 207.371 159.363 206.582C161.327 205.793 158.859 204.078 157.433 204.232Z" stroke="#263238" stroke-linecap="round" stroke-linejoin="round"/>
<path d="M169.089 206.921C172.85 206.267 176.16 205.216 176.428 203.535C176.843 200.982 174.135 200.129 170.869 200.047C170.718 200.178 167.387 203.059 169.089 206.921Z" fill="white"/>
<mask id="mask3_23_4469" style="mask-type:luminance" maskUnits="userSpaceOnUse" x="168" y="200" width="9" height="7">
<path d="M169.089 206.921C172.85 206.267 176.16 205.216 176.428 203.535C176.843 200.982 174.135 200.129 170.869 200.047C170.718 200.178 167.387 203.059 169.089 206.921Z" fill="white"/>
</mask>
<g mask="url(#mask3_23_4469)">
<path opacity="0.3" d="M176.436 203.477C174.883 203.959 173.384 204.598 171.961 205.384C170.955 205.783 169.908 206.07 168.84 206.239C167.777 202.726 170.727 200.169 170.869 200.047C174.113 200.127 176.799 200.967 176.436 203.477Z" fill="black" fill-opacity="0.7"/>
</g>
<path d="M169.089 206.921C172.85 206.267 176.16 205.216 176.428 203.535C176.843 200.982 174.135 200.129 170.869 200.047C170.718 200.178 167.387 203.059 169.089 206.921Z" stroke="#263238" stroke-linecap="round" stroke-linejoin="round"/>
<path d="M166.617 203.586L166.64 203.587C166.69 203.592 166.742 203.587 166.791 203.573C166.839 203.558 166.885 203.533 166.924 203.501C166.963 203.469 166.996 203.429 167.02 203.383C167.044 203.338 167.058 203.289 167.063 203.238C167.25 202.146 167.776 201.14 168.567 200.364C168.605 200.33 168.636 200.29 168.658 200.244C168.68 200.198 168.693 200.148 168.696 200.098C168.699 200.047 168.691 199.996 168.675 199.948C168.658 199.9 168.631 199.856 168.597 199.818C168.529 199.743 168.433 199.697 168.331 199.692C168.229 199.686 168.128 199.721 168.052 199.788C167.122 200.691 166.511 201.871 166.309 203.152C166.295 203.25 166.319 203.35 166.376 203.43C166.434 203.511 166.52 203.567 166.617 203.586Z" fill="white" stroke="#263238" stroke-linecap="round" stroke-linejoin="round"/>
<path d="M165.059 203.603L165.091 203.605C165.142 203.609 165.193 203.603 165.241 203.587C165.29 203.571 165.334 203.545 165.373 203.512C165.411 203.479 165.443 203.438 165.466 203.392C165.488 203.347 165.502 203.297 165.505 203.246C165.656 202.134 166.128 201.09 166.864 200.243C166.904 200.207 166.936 200.162 166.958 200.113C166.979 200.064 166.991 200.01 166.991 199.956C166.991 199.902 166.979 199.849 166.958 199.799C166.936 199.75 166.904 199.706 166.864 199.669C166.825 199.633 166.778 199.605 166.727 199.587C166.675 199.57 166.621 199.563 166.568 199.568C166.514 199.573 166.461 199.588 166.414 199.614C166.367 199.64 166.325 199.675 166.292 199.718C165.438 200.692 164.894 201.9 164.732 203.186C164.723 203.284 164.752 203.382 164.813 203.46C164.874 203.537 164.962 203.589 165.059 203.603Z" fill="white" stroke="#263238" stroke-linecap="round" stroke-linejoin="round"/>
<path d="M163.214 203.295C163.265 203.303 163.316 203.3 163.365 203.288C163.415 203.276 163.461 203.254 163.502 203.224C163.543 203.193 163.577 203.155 163.604 203.112C163.63 203.068 163.647 203.02 163.654 202.969C163.849 201.634 165.1 199.94 165.115 199.909C165.177 199.826 165.203 199.722 165.188 199.62C165.174 199.517 165.12 199.425 165.038 199.362C164.955 199.301 164.852 199.275 164.75 199.289C164.649 199.304 164.557 199.358 164.495 199.44C164.437 199.513 163.11 201.288 162.885 202.837C162.875 202.889 162.876 202.942 162.888 202.994C162.899 203.045 162.921 203.094 162.952 203.136C162.983 203.179 163.022 203.215 163.067 203.243C163.112 203.27 163.162 203.288 163.214 203.295Z" fill="white" stroke="#263238" stroke-linecap="round" stroke-linejoin="round"/>
<path d="M161.471 203.015C161.505 203.021 161.539 203.023 161.574 203.02C161.625 203.015 161.674 203 161.719 202.975C161.764 202.951 161.803 202.917 161.835 202.877C161.867 202.837 161.891 202.791 161.904 202.742C161.918 202.693 161.922 202.641 161.916 202.591C161.734 200.929 163.342 199.605 163.356 199.592C163.41 199.523 163.44 199.438 163.44 199.35C163.441 199.263 163.411 199.177 163.357 199.108C163.302 199.04 163.226 198.991 163.141 198.971C163.056 198.95 162.966 198.959 162.886 198.996C162.806 199.059 160.931 200.598 161.161 202.688C161.174 202.768 161.21 202.842 161.265 202.9C161.32 202.958 161.392 202.998 161.471 203.015Z" fill="white" stroke="#263238" stroke-linecap="round" stroke-linejoin="round"/>
<path d="M159.591 202.449C159.632 202.458 159.674 202.46 159.716 202.456C159.814 202.438 159.901 202.383 159.959 202.303C160.018 202.222 160.044 202.123 160.032 202.024C159.777 200.539 161.314 198.954 161.332 198.955C161.403 198.882 161.442 198.783 161.441 198.68C161.44 198.578 161.399 198.48 161.326 198.408C161.29 198.372 161.247 198.343 161.2 198.323C161.153 198.304 161.103 198.294 161.052 198.294C161.001 198.294 160.951 198.304 160.904 198.324C160.857 198.344 160.814 198.373 160.778 198.409C160.702 198.485 158.943 200.286 159.265 202.171C159.286 202.244 159.328 202.31 159.386 202.359C159.444 202.409 159.515 202.44 159.591 202.449Z" fill="white" stroke="#263238" stroke-linecap="round" stroke-linejoin="round"/>
<path d="M119.455 197.354L118.805 198.96C118.805 198.96 119.355 202.01 123.749 203.204C128.143 204.397 130.63 205.827 132.758 206.294C133.877 206.565 135.019 206.73 136.168 206.787L136.716 206.203L119.455 197.354Z" fill="white" stroke="#263238" stroke-linecap="round" stroke-linejoin="round"/>
<path d="M145.431 201.376L136.703 206.202C133.02 205.28 129.398 204.125 125.861 202.746C122.328 201.304 119.306 199.566 119.4 197.867C119.542 195.281 122.369 195.029 125.579 195.646C126.179 195.759 126.79 195.905 127.404 196.069C132.474 197.457 139.496 195.669 139.496 195.669L145.431 201.376Z" fill="#263238"/>
<mask id="mask4_23_4469" style="mask-type:luminance" maskUnits="userSpaceOnUse" x="119" y="195" width="27" height="12">
<path d="M145.431 201.376L136.703 206.202C133.02 205.28 129.398 204.125 125.861 202.746C122.328 201.304 119.306 199.566 119.4 197.867C119.542 195.281 122.369 195.029 125.579 195.646C126.179 195.759 126.79 195.905 127.404 196.069C132.474 197.457 139.496 195.669 139.496 195.669L145.431 201.376Z" fill="white"/>
</mask>
<g mask="url(#mask4_23_4469)">
<path opacity="0.3" d="M145.431 201.376L140.298 204.233C136.344 202.762 132.954 200.084 130.607 196.578C133.601 196.677 136.595 196.376 139.509 195.683L145.431 201.376Z" fill="black" fill-opacity="0.7"/>
</g>
<path d="M145.431 201.376L136.703 206.202C133.02 205.28 129.398 204.125 125.861 202.746C122.328 201.304 119.306 199.566 119.4 197.867C119.542 195.281 122.369 195.029 125.579 195.646C126.179 195.759 126.79 195.905 127.404 196.069C132.474 197.457 139.496 195.669 139.496 195.669L145.431 201.376Z" stroke="#263238" stroke-linecap="round" stroke-linejoin="round"/>
<path d="M125.861 202.741C122.328 201.299 119.306 199.562 119.4 197.862C119.542 195.277 122.37 195.024 125.58 195.641C125.714 195.801 128.35 199.334 125.861 202.741Z" fill="white" stroke="#263238" stroke-linecap="round" stroke-linejoin="round"/>
<path d="M128.991 200.011L128.968 200.01C128.866 199.997 128.772 199.945 128.708 199.864C128.644 199.783 128.614 199.681 128.624 199.578C128.678 198.473 128.382 197.38 127.778 196.453C127.742 196.412 127.715 196.364 127.699 196.312C127.683 196.259 127.679 196.204 127.685 196.15C127.692 196.096 127.71 196.044 127.738 195.997C127.766 195.95 127.804 195.91 127.848 195.878C127.893 195.847 127.944 195.825 127.997 195.815C128.051 195.805 128.106 195.805 128.16 195.818C128.213 195.83 128.263 195.853 128.306 195.886C128.35 195.919 128.386 195.961 128.413 196.008C129.128 197.084 129.473 198.363 129.396 199.652C129.39 199.753 129.343 199.848 129.267 199.915C129.191 199.982 129.092 200.017 128.991 200.011Z" fill="white" stroke="#263238" stroke-linecap="round" stroke-linejoin="round"/>
<path d="M130.506 200.35L130.471 200.348C130.369 200.334 130.277 200.279 130.215 200.197C130.153 200.114 130.126 200.011 130.14 199.908C130.234 198.792 129.998 197.673 129.461 196.69C129.434 196.646 129.416 196.597 129.408 196.546C129.4 196.495 129.401 196.443 129.413 196.393C129.425 196.343 129.447 196.296 129.477 196.254C129.508 196.212 129.546 196.177 129.59 196.15C129.634 196.122 129.682 196.104 129.733 196.096C129.784 196.088 129.836 196.09 129.886 196.102C129.937 196.114 129.984 196.136 130.026 196.166C130.067 196.196 130.103 196.234 130.13 196.278C130.76 197.411 131.033 198.709 130.912 200C130.902 200.099 130.854 200.191 130.779 200.256C130.703 200.321 130.606 200.355 130.506 200.35Z" fill="white" stroke="#263238" stroke-linecap="round" stroke-linejoin="round"/>
<path d="M132.376 200.454C132.273 200.446 132.178 200.398 132.11 200.32C132.042 200.243 132.008 200.142 132.013 200.039C132.115 198.676 131.251 196.775 131.239 196.757C131.196 196.662 131.193 196.554 131.229 196.457C131.266 196.36 131.339 196.281 131.433 196.238C131.527 196.196 131.634 196.193 131.731 196.229C131.827 196.265 131.905 196.338 131.948 196.432C131.988 196.515 132.904 198.531 132.791 200.095C132.783 200.197 132.735 200.292 132.657 200.36C132.58 200.427 132.479 200.461 132.376 200.454Z" fill="white" stroke="#263238" stroke-linecap="round" stroke-linejoin="round"/>
<path d="M134.139 200.551L134.036 200.545C133.938 200.512 133.858 200.441 133.813 200.348C133.768 200.256 133.761 200.149 133.794 200.052C134.33 198.471 133.043 196.829 133.03 196.815C132.993 196.776 132.965 196.73 132.947 196.679C132.929 196.628 132.922 196.575 132.925 196.521C132.929 196.467 132.944 196.415 132.969 196.368C132.994 196.32 133.028 196.278 133.07 196.244C133.112 196.211 133.16 196.186 133.212 196.172C133.264 196.158 133.318 196.155 133.371 196.163C133.424 196.17 133.475 196.189 133.521 196.218C133.566 196.246 133.605 196.284 133.636 196.328C133.699 196.408 135.204 198.312 134.529 200.303C134.498 200.38 134.444 200.446 134.374 200.49C134.304 200.535 134.222 200.556 134.139 200.551Z" fill="white" stroke="#263238" stroke-linecap="round" stroke-linejoin="round"/>
<path d="M136.099 200.403C136.056 200.403 136.013 200.393 135.975 200.374C135.927 200.356 135.883 200.328 135.846 200.292C135.809 200.257 135.78 200.214 135.76 200.167C135.74 200.12 135.729 200.069 135.73 200.018C135.73 199.966 135.74 199.916 135.76 199.869C136.326 198.473 135.16 196.6 135.152 196.582C135.117 196.539 135.092 196.49 135.079 196.436C135.065 196.383 135.062 196.328 135.071 196.274C135.081 196.219 135.101 196.168 135.131 196.122C135.162 196.076 135.202 196.038 135.248 196.008C135.295 195.979 135.347 195.96 135.401 195.952C135.456 195.945 135.511 195.948 135.564 195.964C135.617 195.979 135.666 196.005 135.708 196.041C135.749 196.076 135.783 196.12 135.807 196.17C135.865 196.258 137.196 198.395 136.484 200.169C136.451 200.243 136.397 200.305 136.328 200.347C136.259 200.388 136.179 200.408 136.099 200.403Z" fill="white" stroke="#263238" stroke-linecap="round" stroke-linejoin="round"/>
<path d="M137.821 202.603C139.183 203.059 137.204 205.664 135.433 204.49C133.663 203.315 136.464 202.151 137.821 202.603Z" fill="white" stroke="#263238" stroke-linecap="round" stroke-linejoin="round"/>
<path d="M122.663 187.355C124.574 190.372 130.538 193.918 136.494 196.898C137.485 198.766 138.68 200.519 140.055 202.125C143.608 206.206 145.262 204.121 145.262 204.121C145.262 204.121 147.656 203.984 151.194 203.7C151.322 204.048 151.561 204.345 151.875 204.543C152.188 204.741 152.559 204.83 152.929 204.796C153.38 204.749 154.31 204.145 155.347 203.336C164.291 202.484 176.452 200.911 179.843 198.487" fill="#47F6AC"/>
<path d="M122.663 187.355C124.574 190.372 130.538 193.918 136.494 196.898C137.485 198.766 138.68 200.519 140.055 202.125C143.608 206.206 145.262 204.121 145.262 204.121C145.262 204.121 147.656 203.984 151.194 203.7C151.322 204.048 151.561 204.345 151.875 204.543C152.188 204.741 152.559 204.83 152.929 204.796C153.38 204.749 154.31 204.145 155.347 203.336C164.291 202.484 176.452 200.911 179.843 198.487" stroke="#263238" stroke-linecap="round" stroke-linejoin="round"/>
<path d="M177.129 184.814C175.688 183.043 174.158 182.882 170.925 182.933C170.925 182.933 162.371 185.153 156.312 188.359C150.253 191.565 141.494 194.837 141.494 194.837C141.494 194.837 138.928 193.937 137.07 194.593C137.07 194.593 135.789 194.621 136.521 196.895" stroke="#263238" stroke-linecap="round" stroke-linejoin="round"/>
<path d="M180.474 195.108C180.474 195.108 180.375 197.709 176.59 199.304" stroke="#263238" stroke-linecap="round" stroke-linejoin="round"/>
<path d="M140.42 182.021C140.42 182.021 146.003 186.547 147.017 189.385C148.134 189.93 149.206 190.56 150.224 191.271" stroke="#263238" stroke-linecap="round" stroke-linejoin="round"/>
<path d="M147.63 185.923C147.99 187.156 147.989 188.465 147.628 189.697" stroke="#263238" stroke-linecap="round" stroke-linejoin="round"/>
<path d="M146.439 183.121C146.73 183.599 146.981 184.101 147.19 184.621" stroke="#263238" stroke-linecap="round" stroke-linejoin="round"/>
<path d="M154.744 183.193C154.744 183.193 156.546 185.904 156.913 188.042" stroke="#263238" stroke-linecap="round" stroke-linejoin="round"/>
<path d="M164.715 199.519C165.441 199.516 166.166 199.466 166.886 199.37" stroke="#263238" stroke-linecap="round" stroke-linejoin="round"/>
<path d="M146.563 196.646C152.016 198.043 157.574 198.993 163.182 199.488" stroke="#263238" stroke-linecap="round" stroke-linejoin="round"/>
<path d="M188.099 159.374C188.099 159.374 186.036 177.656 184.739 178.638C183.442 179.621 181.469 179.84 177.752 179.945C174.036 180.049 157.618 180.148 157.618 180.148L156.145 174.795C156.145 174.795 164.895 174.38 168.833 173.184C171.799 172.35 174.82 171.728 177.874 171.323C177.874 171.323 177.394 166.671 177.504 164.685L178.019 155.345" fill="white"/>
<path d="M188.099 159.374C188.099 159.374 186.036 177.656 184.739 178.638C183.442 179.621 181.469 179.84 177.752 179.945C174.036 180.049 157.618 180.148 157.618 180.148L156.145 174.795C156.145 174.795 164.895 174.38 168.833 173.184C171.799 172.35 174.82 171.728 177.874 171.323C177.874 171.323 177.394 166.671 177.504 164.685L178.019 155.345" stroke="#263238" stroke-linecap="round" stroke-linejoin="round"/>
<path d="M185.984 139.16C189.834 141.836 190.697 147.578 188.651 159.619C188.651 159.619 189.748 161.116 187.969 161.735C187.969 161.735 181.586 158.938 178.464 160.453C175.343 161.968 176.356 158.008 176.356 158.008C176.356 158.008 175.723 146.792 178.594 144.927" fill="#263238"/>
<path d="M178.322 143.202C178.322 143.202 174.268 146.976 177.098 157.237C176.839 158.047 176.644 158.876 176.513 159.717C176.476 160.392 177.382 160.792 177.382 160.792" stroke="white" stroke-linecap="round" stroke-linejoin="round"/>
<path d="M173.467 149.705C173.467 149.705 173.473 154.641 176.406 156.943" stroke="white" stroke-linecap="round" stroke-linejoin="round"/>
<path d="M175.081 138.335C175.081 138.335 169.011 140.283 164.422 137.5C161.7 135.851 162.986 133.512 162.986 133.512" stroke="white" stroke-linecap="round" stroke-linejoin="round"/>
<path d="M129.78 182.211L162.139 183.996C162.87 184.037 163.603 183.982 164.32 183.834L170.795 182.513C170.885 182.495 170.966 182.448 171.026 182.379C171.085 182.31 171.121 182.223 171.126 182.132C171.132 182.022 171.094 181.913 171.02 181.831C170.946 181.749 170.843 181.699 170.733 181.693L128.595 179.368C128.486 179.363 128.378 179.402 128.297 179.475C128.216 179.549 128.167 179.652 128.161 179.761L128.127 180.365C128.102 180.829 128.262 181.284 128.571 181.63C128.881 181.976 129.316 182.185 129.78 182.211Z" fill="#757575" stroke="#263238" stroke-linecap="round" stroke-linejoin="round"/>
<path d="M126.67 180.424L159.119 182.214C159.246 182.227 159.374 182.208 159.491 182.16C159.609 182.111 159.713 182.034 159.793 181.935C159.874 181.836 159.929 181.719 159.953 181.594C159.977 181.469 159.97 181.34 159.932 181.218L155.207 157.478C155.143 157.186 154.988 156.922 154.766 156.722C154.544 156.523 154.265 156.397 153.968 156.364L121.51 154.573C121.383 154.561 121.255 154.581 121.138 154.63C121.02 154.679 120.916 154.757 120.836 154.856C120.755 154.955 120.701 155.072 120.676 155.197C120.652 155.323 120.659 155.452 120.697 155.574L125.426 179.314C125.491 179.606 125.646 179.871 125.869 180.07C126.092 180.269 126.373 180.393 126.67 180.424Z" fill="#999999" stroke="#263238" stroke-linecap="round" stroke-linejoin="round"/>
<path d="M122.609 155.468L121.997 155.435" stroke="#263238" stroke-linecap="round" stroke-linejoin="round"/>
<path d="M127.364 155.731L124.197 155.556" stroke="#263238" stroke-linecap="round" stroke-linejoin="round"/>
<path d="M158.495 179.214L154.321 158.264C154.257 157.972 154.103 157.708 153.882 157.509C153.66 157.309 153.382 157.184 153.085 157.15L128.08 155.77" stroke="#263238" stroke-linecap="round" stroke-linejoin="round"/>
<path d="M158.856 181.038L158.751 180.516" stroke="#263238" stroke-linecap="round" stroke-linejoin="round"/>
<path d="M137.097 168.808C137.109 168.999 137.137 169.188 137.183 169.374C137.516 170.806 138.789 171.737 140.021 171.446C141.252 171.155 141.98 169.76 141.646 168.328C141.313 166.896 140.031 165.964 138.799 166.255C138.655 166.291 138.516 166.342 138.383 166.407C138.423 166.889 138.323 167.372 138.095 167.798C137.867 168.224 137.52 168.575 137.097 168.808Z" fill="white" stroke="#263238" stroke-linecap="round" stroke-linejoin="round"/>
<path d="M153.841 125.73C151.048 125.271 149.666 122.516 147.998 122.007C147.067 121.729 146.159 121.379 145.283 120.959C145.283 120.959 144.814 118.897 143.903 119.537C142.993 120.178 141.01 135.306 142.159 134.889C143.308 134.472 143.213 136.266 143.213 136.266L153.134 146.03L162.728 131.035C162.728 131.035 156.633 126.194 153.841 125.73Z" fill="#263238"/>
<path d="M71.8573 66.9474L71.8696 66.7238L72.0933 66.7361" stroke="#263238" stroke-linecap="round" stroke-linejoin="round"/>
<path d="M73.4084 66.8086L111.252 68.8967" stroke="#263238" stroke-linecap="round" stroke-linejoin="round" stroke-dasharray="0.98 2.93"/>
<path d="M111.905 68.9327L112.128 68.9451L112.116 69.1687" stroke="#263238" stroke-linecap="round" stroke-linejoin="round"/>
<path d="M112.046 70.511L110.701 94.8899" stroke="#263238" stroke-linecap="round" stroke-linejoin="round" stroke-dasharray="1 3"/>
<path d="M110.66 95.5606L110.647 95.7842L110.424 95.7719" stroke="#263238" stroke-linecap="round" stroke-linejoin="round"/>
<path d="M109.113 95.6996L71.2699 93.6115" stroke="#263238" stroke-linecap="round" stroke-linejoin="round" stroke-dasharray="0.98 2.93"/>
<path d="M70.6124 93.5752L70.3887 93.5629L70.401 93.3392" stroke="#263238" stroke-linecap="round" stroke-linejoin="round"/>
<path d="M70.4796 91.9976L71.8247 67.6187" stroke="#263238" stroke-linecap="round" stroke-linejoin="round" stroke-dasharray="1 3"/>
<path d="M91.967 68.4967C92.3326 68.5169 92.6453 68.2368 92.6655 67.8712C92.6857 67.5056 92.4056 67.1928 92.04 67.1726C91.6744 67.1525 91.3616 67.4325 91.3415 67.7981C91.3213 68.1638 91.6013 68.4765 91.967 68.4967Z" fill="#47F6AC" stroke="#263238" stroke-linecap="round" stroke-linejoin="round"/>
<path d="M71.0971 80.8055C71.4627 80.8257 71.7755 80.5457 71.7957 80.18C71.8158 79.8144 71.5358 79.5017 71.1702 79.4815C70.8045 79.4613 70.4918 79.7413 70.4716 80.107C70.4514 80.4726 70.7315 80.7854 71.0971 80.8055Z" fill="#47F6AC" stroke="#263238" stroke-linecap="round" stroke-linejoin="round"/>
<path d="M90.486 95.3358C90.8517 95.356 91.1644 95.0759 91.1846 94.7103C91.2048 94.3447 90.9247 94.0319 90.5591 94.0117C90.1935 93.9916 89.8807 94.2716 89.8605 94.6373C89.8404 95.0029 90.1204 95.3156 90.486 95.3358Z" fill="#47F6AC" stroke="#263238" stroke-linecap="round" stroke-linejoin="round"/>
<path d="M111.356 83.027C111.722 83.0471 112.034 82.7671 112.054 82.4015C112.075 82.0358 111.795 81.7231 111.429 81.7029C111.063 81.6827 110.751 81.9628 110.73 82.3284C110.71 82.694 110.99 83.0068 111.356 83.027Z" fill="#47F6AC" stroke="#263238" stroke-linecap="round" stroke-linejoin="round"/>
<path d="M111.464 95.0576L109.921 94.9724L109.835 96.5157L111.379 96.6008L111.464 95.0576Z" fill="#47F6AC" stroke="#263238" stroke-linecap="round" stroke-linejoin="round"/>
<path d="M112.945 68.2185L111.401 68.1333L111.316 69.6766L112.86 69.7617L112.945 68.2185Z" fill="#47F6AC" stroke="#263238" stroke-linecap="round" stroke-linejoin="round"/>
<path d="M71.205 92.8363L69.6618 92.7511L69.5766 94.2943L71.1199 94.3795L71.205 92.8363Z" fill="#47F6AC" stroke="#263238" stroke-linecap="round" stroke-linejoin="round"/>
<path d="M72.6859 65.997L71.1427 65.9119L71.0575 67.4551L72.6008 67.5403L72.6859 65.997Z" fill="#47F6AC" stroke="#263238" stroke-linecap="round" stroke-linejoin="round"/>
<path d="M109.452 71.1799L74.4135 69.2466L73.1851 91.5097L108.224 93.443L109.452 71.1799Z" fill="white" stroke="#263238" stroke-linecap="round" stroke-linejoin="round"/>
<path d="M108.586 86.8674L104.475 90.5485L94.518 79.4282L89.8405 83.6165L83.1628 76.1589L73.5578 84.7551L73.1851 91.5096L108.224 93.443L108.586 86.8674Z" fill="#47F6AC" stroke="#263238" stroke-linecap="round" stroke-linejoin="round"/>
<path d="M101.707 79.5736C103.073 79.649 104.242 78.6026 104.317 77.2364C104.392 75.8702 103.346 74.7016 101.98 74.6262C100.614 74.5509 99.445 75.5972 99.3696 76.9634C99.2943 78.3296 100.341 79.4982 101.707 79.5736Z" fill="#47F6AC" stroke="#263238" stroke-linecap="round" stroke-linejoin="round"/>
<path d="M155.48 129.939C155.48 129.939 152.52 134.788 151.781 142.415" stroke="white" stroke-linecap="round" stroke-linejoin="round"/>
<path d="M147.398 132.962C147.398 132.962 147.964 137.255 150.125 140.462" stroke="white" stroke-linecap="round" stroke-linejoin="round"/>
<path d="M157.452 151.105C157.452 151.105 160.749 164.55 169.279 168.924" stroke="white" stroke-linecap="round" stroke-linejoin="round"/>
<path d="M169.366 127.753C169.366 127.753 168.826 130.618 166.042 130.666C165.74 129.921 165.366 129.208 164.925 128.536C166.389 128.189 167.872 127.928 169.366 127.753Z" fill="#263238"/>
<path d="M175.264 128.281C175.264 128.281 179.871 129.105 182.156 122.985C184.441 116.866 183.175 112.089 175.623 109.407C171.434 107.919 167.138 108.692 165.408 111.831C163.94 114.518 164.435 116.847 164.084 117.757C163.687 118.776 160.498 119.484 160.459 120.195C160.427 120.781 162.112 121.879 162.112 121.879L161.516 123.399L161.981 123.68C161.981 123.68 160.894 127.115 161.242 128.368C161.488 129.279 169.327 130.089 170.062 127.895" fill="white"/>
<path d="M175.264 128.281C175.264 128.281 179.871 129.105 182.156 122.985C184.441 116.866 183.175 112.089 175.623 109.407C171.434 107.919 167.138 108.692 165.408 111.831C163.94 114.518 164.435 116.847 164.084 117.757C163.687 118.776 160.498 119.484 160.459 120.195C160.427 120.781 162.112 121.879 162.112 121.879L161.516 123.399L161.981 123.68C161.981 123.68 160.894 127.115 161.242 128.368C161.488 129.279 169.327 130.089 170.062 127.895" stroke="#263238" stroke-linecap="round" stroke-linejoin="round"/>
<path d="M165.328 114.093C165.328 114.093 166.841 114.562 167.217 115.39" stroke="#263238" stroke-linecap="round" stroke-linejoin="round"/>
<path d="M165.401 117.646C165.309 118.089 165.39 118.484 165.586 118.522C165.781 118.559 166.006 118.231 166.098 117.783C166.19 117.335 166.104 116.944 165.913 116.907C165.722 116.869 165.493 117.197 165.401 117.646Z" fill="#263238"/>
<path d="M161.981 123.68C161.981 123.68 164.424 124.775 165.386 124.249" stroke="#263238" stroke-linecap="round" stroke-linejoin="round"/>
<path d="M163.22 117.166C162.981 118.158 163.156 119.047 163.612 119.158C164.068 119.268 164.637 118.559 164.875 117.572C165.114 116.584 164.944 115.687 164.483 115.576C164.022 115.465 163.463 116.179 163.22 117.166Z" stroke="#263238" stroke-linecap="round" stroke-linejoin="round"/>
<path d="M182.906 113.142C182.632 111.309 181.68 109.645 180.237 108.481C178.628 107.213 176.754 106.323 174.755 105.877C174.755 105.877 176.199 106.607 176.716 107.493C176.716 107.493 173.041 104.4 168.383 106.041C163.725 107.682 164.022 112.629 164.022 112.629L164.755 111.378C164.755 111.378 164.594 112.908 165.368 113.516C165.651 112.778 166.02 112.075 166.466 111.423C166.466 111.423 167.474 115.117 170.73 116.531C170.536 115.946 170.552 115.312 170.775 114.738C170.775 114.738 172.398 118.826 171.754 120.742L172.283 121.794C172.283 121.794 174.518 119.768 176.141 121.648C177.073 122.732 173.978 126.464 173.566 126.442L175.165 129.092C175.165 129.092 179.479 129.953 182.244 125.381C185.009 120.809 184.506 118.776 184.506 118.776C184.506 118.776 185.261 119.966 185.302 120.615C185.311 120.606 186.333 115.588 182.906 113.142Z" fill="#263238"/>
<path d="M172.142 122.24C172.142 122.24 173.733 117.805 176.499 119.55C179.266 121.296 177.097 123.59 176.022 124.459C174.947 125.329 174.089 126.969 173.422 126.932C172.756 126.895 172.653 126.068 172.653 126.068" fill="white"/>
<path d="M172.142 122.24C172.142 122.24 173.733 117.805 176.499 119.55C179.266 121.296 177.097 123.59 176.022 124.459C174.947 125.329 174.089 126.969 173.422 126.932C172.756 126.895 172.653 126.068 172.653 126.068" stroke="#263238" stroke-linecap="round" stroke-linejoin="round"/>
<path d="M164.875 117.572L172.747 119.662" stroke="#263238" stroke-linecap="round" stroke-linejoin="round"/>
</svg>
